G75*
G70*
%OFA0B0*%
%FSLAX24Y24*%
%IPPOS*%
%LPD*%
%AMOC8*
5,1,8,0,0,1.08239X$1,22.5*
%
%ADD10C,0.0600*%
%ADD11C,0.0340*%
%ADD12C,0.0060*%
%ADD13C,0.0270*%
%ADD14C,0.0120*%
%ADD15C,0.1400*%
%ADD16C,0.1125*%
%ADD17C,0.0200*%
D10*
X012880Y013517D03*
X013630Y013517D03*
X014380Y013517D03*
D11*
X013755Y011770D03*
X018028Y007539D03*
X013130Y003361D03*
X010630Y004549D03*
X002005Y004142D03*
X001630Y004392D03*
X001630Y005142D03*
X002005Y005392D03*
X002005Y006142D03*
X001630Y006392D03*
X002005Y003392D03*
X001630Y003142D03*
X001630Y002392D03*
X002005Y002142D03*
X002005Y001392D03*
X001630Y001142D03*
X025255Y008392D03*
X025630Y008142D03*
X025255Y009142D03*
X025630Y009392D03*
X025630Y010142D03*
X025255Y010392D03*
X025255Y011142D03*
X025630Y011392D03*
X025630Y012142D03*
X025255Y012392D03*
X025255Y013142D03*
X025630Y013392D03*
D12*
X000568Y000453D02*
X000452Y000501D01*
X008030Y000501D01*
X008030Y000486D02*
X008069Y000447D01*
X000630Y000447D01*
X000568Y000453D01*
X000452Y000501D02*
X000364Y000589D01*
X000316Y000704D01*
X000310Y000767D01*
X000310Y008487D01*
X003392Y008487D01*
X003410Y008504D01*
X003410Y013529D01*
X003392Y013547D01*
X000310Y013547D01*
X000310Y013767D01*
X000316Y013829D01*
X000364Y013944D01*
X000452Y014033D01*
X000568Y014081D01*
X000630Y014087D01*
X026630Y014087D01*
X026692Y014081D01*
X026808Y014033D01*
X026896Y013944D01*
X026944Y013829D01*
X026950Y013767D01*
X026950Y000767D01*
X026944Y000704D01*
X026896Y000589D01*
X026855Y000548D01*
X026855Y000672D01*
X026723Y000804D01*
X026667Y000804D01*
X026667Y000922D01*
X026536Y001054D01*
X026349Y001054D01*
X026218Y000922D01*
X026218Y000804D01*
X026162Y000804D01*
X026105Y000747D01*
X026105Y000922D01*
X025973Y001054D01*
X025787Y001054D01*
X025692Y000960D01*
X025598Y001054D01*
X025412Y001054D01*
X025280Y000922D01*
X025280Y000747D01*
X025223Y000804D01*
X025167Y000804D01*
X025167Y000922D01*
X025036Y001054D01*
X024849Y001054D01*
X024718Y000922D01*
X024718Y000804D01*
X024662Y000804D01*
X024605Y000747D01*
X024605Y000922D01*
X024473Y001054D01*
X024287Y001054D01*
X024192Y000960D01*
X024098Y001054D01*
X023912Y001054D01*
X023780Y000922D01*
X023780Y000747D01*
X023723Y000804D01*
X023667Y000804D01*
X023667Y000922D01*
X023536Y001054D01*
X023349Y001054D01*
X023218Y000922D01*
X023218Y000804D01*
X023162Y000804D01*
X023105Y000747D01*
X023105Y000922D01*
X022973Y001054D01*
X022787Y001054D01*
X022692Y000960D01*
X022598Y001054D01*
X022412Y001054D01*
X022280Y000922D01*
X022280Y000747D01*
X022223Y000804D01*
X022167Y000804D01*
X022167Y000922D01*
X022036Y001054D01*
X021849Y001054D01*
X021718Y000922D01*
X021718Y000804D01*
X021662Y000804D01*
X021605Y000747D01*
X021605Y000922D01*
X021473Y001054D01*
X021287Y001054D01*
X021192Y000960D01*
X021098Y001054D01*
X020912Y001054D01*
X020780Y000922D01*
X020780Y000747D01*
X020723Y000804D01*
X020667Y000804D01*
X020667Y000922D01*
X020536Y001054D01*
X020349Y001054D01*
X020218Y000922D01*
X020218Y000804D01*
X020162Y000804D01*
X020105Y000747D01*
X020105Y000922D01*
X019973Y001054D01*
X019787Y001054D01*
X019692Y000960D01*
X019598Y001054D01*
X019412Y001054D01*
X019280Y000922D01*
X019280Y000747D01*
X019223Y000804D01*
X019167Y000804D01*
X019167Y000922D01*
X019036Y001054D01*
X018849Y001054D01*
X018718Y000922D01*
X018718Y000804D01*
X018662Y000804D01*
X018605Y000747D01*
X018605Y000922D01*
X018473Y001054D01*
X018287Y001054D01*
X018192Y000960D01*
X018098Y001054D01*
X017912Y001054D01*
X017780Y000922D01*
X017780Y000747D01*
X017723Y000804D01*
X017667Y000804D01*
X017667Y000922D01*
X017536Y001054D01*
X017349Y001054D01*
X017218Y000922D01*
X017218Y000804D01*
X017162Y000804D01*
X017105Y000747D01*
X017105Y000922D01*
X016973Y001054D01*
X016787Y001054D01*
X016692Y000960D01*
X016598Y001054D01*
X016412Y001054D01*
X016280Y000922D01*
X016280Y000747D01*
X016223Y000804D01*
X016167Y000804D01*
X016167Y000922D01*
X016036Y001054D01*
X015849Y001054D01*
X015718Y000922D01*
X015718Y000804D01*
X015662Y000804D01*
X015605Y000747D01*
X015605Y000922D01*
X015473Y001054D01*
X015287Y001054D01*
X015193Y000960D01*
X015098Y001054D01*
X014912Y001054D01*
X014780Y000922D01*
X014780Y000747D01*
X014723Y000804D01*
X014667Y000804D01*
X014667Y000922D01*
X014536Y001054D01*
X014349Y001054D01*
X014218Y000922D01*
X014218Y000804D01*
X014162Y000804D01*
X014105Y000747D01*
X014105Y000922D01*
X013973Y001054D01*
X013787Y001054D01*
X013692Y000960D01*
X013598Y001054D01*
X013412Y001054D01*
X013280Y000922D01*
X013280Y000747D01*
X013223Y000804D01*
X013167Y000804D01*
X013167Y000922D01*
X013036Y001054D01*
X012849Y001054D01*
X012718Y000922D01*
X012718Y000804D01*
X012662Y000804D01*
X012605Y000747D01*
X012605Y000922D01*
X012473Y001054D01*
X012287Y001054D01*
X012192Y000960D01*
X012098Y001054D01*
X011912Y001054D01*
X011780Y000922D01*
X011780Y000747D01*
X011723Y000804D01*
X011667Y000804D01*
X011667Y000922D01*
X011536Y001054D01*
X011349Y001054D01*
X011218Y000922D01*
X011218Y000804D01*
X011162Y000804D01*
X011105Y000747D01*
X011105Y000922D01*
X010973Y001054D01*
X010787Y001054D01*
X010692Y000960D01*
X010598Y001054D01*
X010412Y001054D01*
X010280Y000922D01*
X010280Y000747D01*
X010223Y000804D01*
X010167Y000804D01*
X010167Y000922D01*
X010036Y001054D01*
X009849Y001054D01*
X009718Y000922D01*
X009718Y000804D01*
X009662Y000804D01*
X009605Y000747D01*
X009605Y000922D01*
X009473Y001054D01*
X009287Y001054D01*
X009192Y000960D01*
X009098Y001054D01*
X008912Y001054D01*
X008780Y000922D01*
X008780Y000747D01*
X008723Y000804D01*
X008667Y000804D01*
X008667Y000922D01*
X008536Y001054D01*
X008349Y001054D01*
X008218Y000922D01*
X008218Y000804D01*
X008162Y000804D01*
X008030Y000672D01*
X008030Y000486D01*
X008030Y000559D02*
X000394Y000559D01*
X000352Y000618D02*
X008030Y000618D01*
X008034Y000676D02*
X000328Y000676D01*
X000313Y000735D02*
X008092Y000735D01*
X008151Y000793D02*
X000310Y000793D01*
X000310Y000852D02*
X008218Y000852D01*
X008218Y000910D02*
X001751Y000910D01*
X001777Y000921D02*
X001850Y000994D01*
X001890Y001090D01*
X001890Y001158D01*
X001953Y001132D01*
X002057Y001132D01*
X002152Y001171D01*
X002225Y001244D01*
X002265Y001340D01*
X002265Y001443D01*
X002225Y001539D01*
X002188Y001577D01*
X005084Y001577D01*
X005674Y002167D01*
X005723Y002167D01*
X005855Y002298D01*
X005855Y002485D01*
X005723Y002617D01*
X005537Y002617D01*
X005405Y002485D01*
X005405Y002435D01*
X004926Y001957D01*
X002188Y001957D01*
X002225Y001994D01*
X002265Y002090D01*
X002265Y002193D01*
X002225Y002289D01*
X002193Y002321D01*
X002223Y002321D01*
X002355Y002453D01*
X002355Y002639D01*
X002223Y002771D01*
X002037Y002771D01*
X001905Y002639D01*
X001905Y002453D01*
X001956Y002402D01*
X001953Y002402D01*
X001890Y002375D01*
X001890Y002443D01*
X001850Y002539D01*
X001777Y002612D01*
X001682Y002652D01*
X001578Y002652D01*
X001483Y002612D01*
X001410Y002539D01*
X001370Y002443D01*
X001370Y002340D01*
X001381Y002313D01*
X001375Y002320D01*
X001135Y002419D01*
X000875Y002419D01*
X000635Y002320D01*
X000452Y002136D01*
X000353Y001896D01*
X000353Y001637D01*
X000452Y001397D01*
X000635Y001214D01*
X000875Y001114D01*
X001135Y001114D01*
X001375Y001214D01*
X001381Y001220D01*
X001370Y001193D01*
X001370Y001090D01*
X001410Y000994D01*
X001483Y000921D01*
X001578Y000882D01*
X001682Y000882D01*
X001777Y000921D01*
X001825Y000969D02*
X008264Y000969D01*
X008322Y001027D02*
X001864Y001027D01*
X001888Y001086D02*
X026950Y001086D01*
X026950Y001144D02*
X002087Y001144D01*
X002184Y001203D02*
X026950Y001203D01*
X026950Y001261D02*
X002232Y001261D01*
X002257Y001320D02*
X026950Y001320D01*
X026950Y001378D02*
X002265Y001378D01*
X002265Y001437D02*
X026950Y001437D01*
X026950Y001495D02*
X002244Y001495D01*
X002211Y001554D02*
X026950Y001554D01*
X026950Y001612D02*
X025981Y001612D01*
X025973Y001604D02*
X026105Y001736D01*
X026105Y001922D01*
X025973Y002054D01*
X025917Y002054D01*
X025917Y002172D01*
X025786Y002304D01*
X025599Y002304D01*
X025468Y002172D01*
X025468Y002054D01*
X025412Y002054D01*
X025355Y001997D01*
X025355Y002172D01*
X025223Y002304D01*
X025037Y002304D01*
X024942Y002210D01*
X024848Y002304D01*
X024662Y002304D01*
X024530Y002172D01*
X024530Y001997D01*
X024473Y002054D01*
X024417Y002054D01*
X024417Y002172D01*
X024286Y002304D01*
X024099Y002304D01*
X023968Y002172D01*
X023968Y002054D01*
X023912Y002054D01*
X023855Y001997D01*
X023855Y002172D01*
X023723Y002304D01*
X023537Y002304D01*
X023442Y002210D01*
X023348Y002304D01*
X023162Y002304D01*
X023030Y002172D01*
X023030Y001997D01*
X022973Y002054D01*
X022917Y002054D01*
X022917Y002172D01*
X022786Y002304D01*
X022599Y002304D01*
X022468Y002172D01*
X022468Y002054D01*
X022412Y002054D01*
X022355Y001997D01*
X022355Y002172D01*
X022223Y002304D01*
X022037Y002304D01*
X021942Y002210D01*
X021848Y002304D01*
X021662Y002304D01*
X021530Y002172D01*
X021530Y001997D01*
X021473Y002054D01*
X021417Y002054D01*
X021417Y002172D01*
X021286Y002304D01*
X021099Y002304D01*
X020968Y002172D01*
X020968Y002054D01*
X020912Y002054D01*
X020855Y001997D01*
X020855Y002172D01*
X020723Y002304D01*
X020537Y002304D01*
X020442Y002210D01*
X020348Y002304D01*
X020162Y002304D01*
X020030Y002172D01*
X020030Y001997D01*
X019973Y002054D01*
X019917Y002054D01*
X019917Y002172D01*
X019786Y002304D01*
X019599Y002304D01*
X019468Y002172D01*
X019468Y002054D01*
X019412Y002054D01*
X019355Y001997D01*
X019355Y002172D01*
X019223Y002304D01*
X019037Y002304D01*
X018942Y002210D01*
X018848Y002304D01*
X018662Y002304D01*
X018530Y002172D01*
X018530Y001997D01*
X018473Y002054D01*
X018417Y002054D01*
X018417Y002172D01*
X018286Y002304D01*
X018099Y002304D01*
X017968Y002172D01*
X017968Y002054D01*
X017912Y002054D01*
X017855Y001997D01*
X017855Y002172D01*
X017723Y002304D01*
X017537Y002304D01*
X017442Y002210D01*
X017348Y002304D01*
X017162Y002304D01*
X017030Y002172D01*
X017030Y001997D01*
X016973Y002054D01*
X016917Y002054D01*
X016917Y002172D01*
X016786Y002304D01*
X016599Y002304D01*
X016468Y002172D01*
X016468Y002054D01*
X016412Y002054D01*
X016355Y001997D01*
X016355Y002172D01*
X016223Y002304D01*
X016037Y002304D01*
X015942Y002210D01*
X015848Y002304D01*
X015662Y002304D01*
X015530Y002172D01*
X015530Y001997D01*
X015473Y002054D01*
X015417Y002054D01*
X015417Y002172D01*
X015286Y002304D01*
X015099Y002304D01*
X014968Y002172D01*
X014968Y002054D01*
X014912Y002054D01*
X014855Y001997D01*
X014855Y002172D01*
X014723Y002304D01*
X014537Y002304D01*
X014442Y002210D01*
X014348Y002304D01*
X014162Y002304D01*
X014030Y002172D01*
X014030Y001997D01*
X013973Y002054D01*
X013917Y002054D01*
X013917Y002172D01*
X013786Y002304D01*
X013599Y002304D01*
X013468Y002172D01*
X013468Y002054D01*
X013412Y002054D01*
X013355Y001997D01*
X013355Y002172D01*
X013223Y002304D01*
X013037Y002304D01*
X012942Y002210D01*
X012848Y002304D01*
X012662Y002304D01*
X012530Y002172D01*
X012530Y001997D01*
X012473Y002054D01*
X012417Y002054D01*
X012417Y002172D01*
X012286Y002304D01*
X012099Y002304D01*
X011968Y002172D01*
X011968Y002054D01*
X011912Y002054D01*
X011780Y001922D01*
X011780Y001736D01*
X011912Y001604D01*
X012098Y001604D01*
X012192Y001698D01*
X012287Y001604D01*
X012473Y001604D01*
X012605Y001736D01*
X012605Y001911D01*
X012662Y001854D01*
X012718Y001854D01*
X012718Y001736D01*
X012849Y001604D01*
X013036Y001604D01*
X013167Y001736D01*
X013167Y001854D01*
X013223Y001854D01*
X013280Y001911D01*
X013280Y001736D01*
X013412Y001604D01*
X013598Y001604D01*
X013692Y001698D01*
X013787Y001604D01*
X013973Y001604D01*
X014105Y001736D01*
X014105Y001911D01*
X014162Y001854D01*
X014218Y001854D01*
X014218Y001736D01*
X014349Y001604D01*
X014536Y001604D01*
X014667Y001736D01*
X014667Y001854D01*
X014723Y001854D01*
X014780Y001911D01*
X014780Y001736D01*
X014912Y001604D01*
X015098Y001604D01*
X015192Y001698D01*
X015287Y001604D01*
X015473Y001604D01*
X015605Y001736D01*
X015605Y001911D01*
X015662Y001854D01*
X015718Y001854D01*
X015718Y001736D01*
X015849Y001604D01*
X016036Y001604D01*
X016167Y001736D01*
X016167Y001854D01*
X016223Y001854D01*
X016280Y001911D01*
X016280Y001736D01*
X016412Y001604D01*
X016598Y001604D01*
X016692Y001698D01*
X016787Y001604D01*
X016973Y001604D01*
X017105Y001736D01*
X017105Y001911D01*
X017162Y001854D01*
X017218Y001854D01*
X017218Y001736D01*
X017349Y001604D01*
X017536Y001604D01*
X017667Y001736D01*
X017667Y001854D01*
X017723Y001854D01*
X017780Y001911D01*
X017780Y001736D01*
X017912Y001604D01*
X018098Y001604D01*
X018192Y001698D01*
X018287Y001604D01*
X018473Y001604D01*
X018605Y001736D01*
X018605Y001911D01*
X018662Y001854D01*
X018718Y001854D01*
X018718Y001736D01*
X018849Y001604D01*
X019036Y001604D01*
X019167Y001736D01*
X019167Y001854D01*
X019223Y001854D01*
X019280Y001911D01*
X019280Y001736D01*
X019412Y001604D01*
X019598Y001604D01*
X019692Y001698D01*
X019787Y001604D01*
X019973Y001604D01*
X020105Y001736D01*
X020105Y001911D01*
X020162Y001854D01*
X020218Y001854D01*
X020218Y001736D01*
X020349Y001604D01*
X020536Y001604D01*
X020667Y001736D01*
X020667Y001854D01*
X020723Y001854D01*
X020780Y001911D01*
X020780Y001736D01*
X020912Y001604D01*
X021098Y001604D01*
X021192Y001698D01*
X021287Y001604D01*
X021473Y001604D01*
X021605Y001736D01*
X021605Y001911D01*
X021662Y001854D01*
X021718Y001854D01*
X021718Y001736D01*
X021849Y001604D01*
X022036Y001604D01*
X022167Y001736D01*
X022167Y001854D01*
X022223Y001854D01*
X022280Y001911D01*
X022280Y001736D01*
X022412Y001604D01*
X022598Y001604D01*
X022692Y001698D01*
X022787Y001604D01*
X022973Y001604D01*
X023105Y001736D01*
X023105Y001911D01*
X023162Y001854D01*
X023218Y001854D01*
X023218Y001736D01*
X023349Y001604D01*
X023536Y001604D01*
X023667Y001736D01*
X023667Y001854D01*
X023723Y001854D01*
X023780Y001911D01*
X023780Y001736D01*
X023912Y001604D01*
X024098Y001604D01*
X024192Y001698D01*
X024287Y001604D01*
X024473Y001604D01*
X024605Y001736D01*
X024605Y001911D01*
X024662Y001854D01*
X024718Y001854D01*
X024718Y001736D01*
X024849Y001604D01*
X025036Y001604D01*
X025167Y001736D01*
X025167Y001854D01*
X025223Y001854D01*
X025280Y001911D01*
X025280Y001736D01*
X025412Y001604D01*
X025598Y001604D01*
X025692Y001698D01*
X025787Y001604D01*
X025973Y001604D01*
X026040Y001671D02*
X026950Y001671D01*
X026950Y001729D02*
X026098Y001729D01*
X026105Y001788D02*
X026950Y001788D01*
X026950Y001846D02*
X026105Y001846D01*
X026105Y001905D02*
X026950Y001905D01*
X026950Y001963D02*
X026064Y001963D01*
X026006Y002022D02*
X026950Y002022D01*
X026950Y002080D02*
X025917Y002080D01*
X025917Y002139D02*
X026950Y002139D01*
X026950Y002197D02*
X025893Y002197D01*
X025834Y002256D02*
X026950Y002256D01*
X026950Y002314D02*
X005855Y002314D01*
X005855Y002373D02*
X026950Y002373D01*
X026950Y002431D02*
X005855Y002431D01*
X005850Y002490D02*
X026950Y002490D01*
X026950Y002548D02*
X009730Y002548D01*
X009723Y002542D02*
X009855Y002673D01*
X009855Y002860D01*
X009723Y002992D01*
X009537Y002992D01*
X009405Y002860D01*
X009405Y002673D01*
X009537Y002542D01*
X009723Y002542D01*
X009788Y002607D02*
X026950Y002607D01*
X026950Y002665D02*
X009847Y002665D01*
X009855Y002724D02*
X026950Y002724D01*
X026950Y002782D02*
X009855Y002782D01*
X009855Y002841D02*
X026950Y002841D01*
X026950Y002899D02*
X009816Y002899D01*
X009757Y002958D02*
X026950Y002958D01*
X026950Y003016D02*
X009048Y003016D01*
X009011Y002979D02*
X009142Y003111D01*
X009142Y003146D01*
X009224Y003064D01*
X009411Y003064D01*
X009542Y003196D01*
X009542Y003383D01*
X009471Y003454D01*
X010212Y003454D01*
X010262Y003404D01*
X010218Y003360D01*
X010218Y003173D01*
X010349Y003042D01*
X010536Y003042D01*
X010667Y003173D01*
X010667Y003360D01*
X010561Y003467D01*
X010605Y003511D01*
X010605Y003697D01*
X010473Y003829D01*
X010287Y003829D01*
X010212Y003754D01*
X009471Y003754D01*
X009542Y003826D01*
X009542Y004012D01*
X009467Y004087D01*
X009467Y008837D01*
X008380Y009925D01*
X006923Y009925D01*
X006876Y009971D01*
X006923Y010018D01*
X008380Y010018D01*
X009480Y008919D01*
X009480Y004422D01*
X009568Y004334D01*
X009818Y004084D01*
X010212Y004084D01*
X010287Y004009D01*
X010473Y004009D01*
X010605Y004141D01*
X010605Y004289D01*
X010682Y004289D01*
X010777Y004329D01*
X010850Y004402D01*
X010890Y004497D01*
X010890Y004601D01*
X010850Y004696D01*
X010777Y004770D01*
X010682Y004809D01*
X010578Y004809D01*
X010483Y004770D01*
X010410Y004696D01*
X010370Y004601D01*
X010370Y004497D01*
X010386Y004459D01*
X010287Y004459D01*
X010212Y004384D01*
X009942Y004384D01*
X009780Y004546D01*
X009780Y007119D01*
X009857Y007042D01*
X010044Y007042D01*
X010119Y007117D01*
X014347Y007117D01*
X014435Y007205D01*
X017930Y010699D01*
X018036Y010699D01*
X018167Y010831D01*
X018167Y011017D01*
X018036Y011149D01*
X017849Y011149D01*
X017718Y011017D01*
X017718Y010911D01*
X014223Y007417D01*
X010303Y007417D01*
X010315Y007429D01*
X013282Y007429D01*
X013370Y007517D01*
X016867Y011014D01*
X016973Y011014D01*
X017105Y011146D01*
X017105Y011332D01*
X016973Y011464D01*
X016917Y011464D01*
X016917Y011610D01*
X016786Y011742D01*
X016599Y011742D01*
X016468Y011610D01*
X016468Y011423D01*
X016599Y011292D01*
X016655Y011292D01*
X016655Y011226D01*
X013158Y007729D01*
X010315Y007729D01*
X010240Y007804D01*
X010054Y007804D01*
X009922Y007672D01*
X009922Y007492D01*
X009857Y007492D01*
X009780Y007414D01*
X009780Y009043D01*
X009692Y009131D01*
X008505Y010318D01*
X006923Y010318D01*
X006848Y010393D01*
X006662Y010393D01*
X006530Y010261D01*
X006530Y010075D01*
X006634Y009971D01*
X006530Y009868D01*
X006530Y009681D01*
X006662Y009550D01*
X006848Y009550D01*
X006923Y009625D01*
X008255Y009625D01*
X009168Y008712D01*
X009168Y004087D01*
X009155Y004075D01*
X009155Y008516D01*
X008255Y009417D01*
X006923Y009417D01*
X006848Y009492D01*
X006662Y009492D01*
X006530Y009360D01*
X006530Y009173D01*
X006662Y009042D01*
X005673Y009042D01*
X005674Y009041D02*
X005542Y009173D01*
X005356Y009173D01*
X005224Y009041D01*
X005224Y008855D01*
X005356Y008723D01*
X005542Y008723D01*
X005674Y008855D01*
X005674Y009041D01*
X005674Y008983D02*
X008264Y008983D01*
X008322Y008925D02*
X005674Y008925D01*
X005674Y008866D02*
X008381Y008866D01*
X008439Y008808D02*
X005627Y008808D01*
X005569Y008749D02*
X008498Y008749D01*
X008556Y008691D02*
X003410Y008691D01*
X003410Y008749D02*
X005329Y008749D01*
X005271Y008808D02*
X003410Y008808D01*
X003410Y008866D02*
X005224Y008866D01*
X005224Y008925D02*
X003410Y008925D01*
X003410Y008983D02*
X005224Y008983D01*
X005225Y009042D02*
X003410Y009042D01*
X003410Y009100D02*
X005283Y009100D01*
X005342Y009159D02*
X003410Y009159D01*
X003410Y009217D02*
X006530Y009217D01*
X006530Y009276D02*
X003410Y009276D01*
X003410Y009334D02*
X006530Y009334D01*
X006563Y009393D02*
X003410Y009393D01*
X003410Y009451D02*
X006621Y009451D01*
X006643Y009568D02*
X003410Y009568D01*
X003410Y009510D02*
X008370Y009510D01*
X008312Y009568D02*
X006867Y009568D01*
X006889Y009451D02*
X008429Y009451D01*
X008487Y009393D02*
X008279Y009393D01*
X008337Y009334D02*
X008546Y009334D01*
X008604Y009276D02*
X008396Y009276D01*
X008454Y009217D02*
X008663Y009217D01*
X008721Y009159D02*
X008513Y009159D01*
X008571Y009100D02*
X008780Y009100D01*
X008838Y009042D02*
X008630Y009042D01*
X008688Y008983D02*
X008897Y008983D01*
X008955Y008925D02*
X008747Y008925D01*
X008805Y008866D02*
X009014Y008866D01*
X009072Y008808D02*
X008864Y008808D01*
X008922Y008749D02*
X009131Y008749D01*
X009168Y008691D02*
X008981Y008691D01*
X009039Y008632D02*
X009168Y008632D01*
X009168Y008574D02*
X009098Y008574D01*
X009155Y008515D02*
X009168Y008515D01*
X009168Y008457D02*
X009155Y008457D01*
X009155Y008398D02*
X009168Y008398D01*
X009168Y008340D02*
X009155Y008340D01*
X009155Y008281D02*
X009168Y008281D01*
X009168Y008223D02*
X009155Y008223D01*
X009155Y008164D02*
X009168Y008164D01*
X009168Y008106D02*
X009155Y008106D01*
X009155Y008047D02*
X009168Y008047D01*
X009168Y007989D02*
X009155Y007989D01*
X009155Y007930D02*
X009168Y007930D01*
X009168Y007872D02*
X009155Y007872D01*
X009155Y007813D02*
X009168Y007813D01*
X009168Y007755D02*
X009155Y007755D01*
X009155Y007696D02*
X009168Y007696D01*
X009168Y007638D02*
X009155Y007638D01*
X009155Y007579D02*
X009168Y007579D01*
X009168Y007521D02*
X009155Y007521D01*
X009155Y007462D02*
X009168Y007462D01*
X009168Y007404D02*
X009155Y007404D01*
X009155Y007345D02*
X009168Y007345D01*
X009168Y007287D02*
X009155Y007287D01*
X009155Y007228D02*
X009168Y007228D01*
X009168Y007170D02*
X009155Y007170D01*
X009155Y007111D02*
X009168Y007111D01*
X009168Y007053D02*
X009155Y007053D01*
X009155Y006994D02*
X009168Y006994D01*
X009168Y006936D02*
X009155Y006936D01*
X009155Y006877D02*
X009168Y006877D01*
X009168Y006819D02*
X009155Y006819D01*
X009155Y006760D02*
X009168Y006760D01*
X009168Y006702D02*
X009155Y006702D01*
X009155Y006643D02*
X009168Y006643D01*
X009168Y006585D02*
X009155Y006585D01*
X009155Y006526D02*
X009168Y006526D01*
X009168Y006468D02*
X009155Y006468D01*
X009155Y006409D02*
X009168Y006409D01*
X009168Y006351D02*
X009155Y006351D01*
X009155Y006292D02*
X009168Y006292D01*
X009168Y006234D02*
X009155Y006234D01*
X009155Y006175D02*
X009168Y006175D01*
X009168Y006117D02*
X009155Y006117D01*
X009155Y006058D02*
X009168Y006058D01*
X009168Y006000D02*
X009155Y006000D01*
X009155Y005941D02*
X009168Y005941D01*
X009168Y005883D02*
X009155Y005883D01*
X009155Y005824D02*
X009168Y005824D01*
X009168Y005766D02*
X009155Y005766D01*
X009155Y005707D02*
X009168Y005707D01*
X009168Y005649D02*
X009155Y005649D01*
X009155Y005590D02*
X009168Y005590D01*
X009168Y005532D02*
X009155Y005532D01*
X009155Y005473D02*
X009168Y005473D01*
X009168Y005415D02*
X009155Y005415D01*
X009155Y005356D02*
X009168Y005356D01*
X009168Y005298D02*
X009155Y005298D01*
X009155Y005239D02*
X009168Y005239D01*
X009168Y005181D02*
X009155Y005181D01*
X009155Y005122D02*
X009168Y005122D01*
X009168Y005064D02*
X009155Y005064D01*
X009155Y005005D02*
X009168Y005005D01*
X009168Y004947D02*
X009155Y004947D01*
X009155Y004888D02*
X009168Y004888D01*
X009168Y004830D02*
X009155Y004830D01*
X009155Y004771D02*
X009168Y004771D01*
X009168Y004713D02*
X009155Y004713D01*
X009155Y004654D02*
X009168Y004654D01*
X009168Y004596D02*
X009155Y004596D01*
X009155Y004537D02*
X009168Y004537D01*
X009168Y004479D02*
X009155Y004479D01*
X009155Y004420D02*
X009168Y004420D01*
X009168Y004362D02*
X009155Y004362D01*
X009155Y004303D02*
X009168Y004303D01*
X009168Y004245D02*
X009155Y004245D01*
X009155Y004186D02*
X009168Y004186D01*
X009168Y004128D02*
X009155Y004128D01*
X008855Y004128D02*
X007142Y004128D01*
X007155Y004141D02*
X007023Y004009D01*
X006837Y004009D01*
X006705Y004141D01*
X006705Y004327D01*
X006837Y004459D01*
X007023Y004459D01*
X007155Y004327D01*
X007155Y004141D01*
X007155Y004186D02*
X008855Y004186D01*
X008855Y004245D02*
X007155Y004245D01*
X007155Y004303D02*
X008855Y004303D01*
X008855Y004362D02*
X007121Y004362D01*
X007062Y004420D02*
X008855Y004420D01*
X008855Y004479D02*
X005355Y004479D01*
X005355Y004453D02*
X005355Y004639D01*
X005223Y004771D01*
X008855Y004771D01*
X008855Y004713D02*
X005282Y004713D01*
X005223Y004771D02*
X005037Y004771D01*
X004905Y004639D01*
X004905Y004453D01*
X005026Y004332D01*
X002426Y004332D01*
X002315Y004220D01*
X002265Y004170D01*
X002265Y004193D01*
X002225Y004289D01*
X002193Y004321D01*
X002223Y004321D01*
X002355Y004453D01*
X002355Y004639D01*
X002223Y004771D01*
X005037Y004771D01*
X004978Y004713D02*
X002282Y004713D01*
X002223Y004771D02*
X002037Y004771D01*
X001905Y004639D01*
X001905Y004453D01*
X001956Y004402D01*
X001953Y004402D01*
X001890Y004375D01*
X001890Y004443D01*
X001850Y004539D01*
X001777Y004612D01*
X001682Y004652D01*
X001578Y004652D01*
X001483Y004612D01*
X001410Y004539D01*
X001370Y004443D01*
X001370Y004340D01*
X001381Y004313D01*
X001375Y004320D01*
X001135Y004419D01*
X000875Y004419D01*
X000635Y004320D01*
X000452Y004136D01*
X000353Y003896D01*
X000353Y003637D01*
X000452Y003397D01*
X000635Y003214D01*
X000875Y003114D01*
X001135Y003114D01*
X001375Y003214D01*
X001381Y003220D01*
X001370Y003193D01*
X001370Y003090D01*
X001410Y002994D01*
X001483Y002921D01*
X001578Y002882D01*
X001682Y002882D01*
X001777Y002921D01*
X001850Y002994D01*
X001890Y003090D01*
X001890Y003158D01*
X001953Y003132D01*
X002057Y003132D01*
X002152Y003171D01*
X002225Y003244D01*
X002265Y003340D01*
X002265Y003443D01*
X002225Y003539D01*
X002188Y003577D01*
X002209Y003577D01*
X002584Y003952D01*
X005502Y003952D01*
X005537Y003917D01*
X005723Y003917D01*
X005855Y004048D01*
X005855Y004235D01*
X005723Y004367D01*
X005537Y004367D01*
X005502Y004332D01*
X005234Y004332D01*
X005355Y004453D01*
X005322Y004420D02*
X006798Y004420D01*
X006739Y004362D02*
X005728Y004362D01*
X005787Y004303D02*
X006705Y004303D01*
X006705Y004245D02*
X005845Y004245D01*
X005855Y004186D02*
X006705Y004186D01*
X006718Y004128D02*
X005855Y004128D01*
X005855Y004069D02*
X006777Y004069D01*
X006835Y004011D02*
X005817Y004011D01*
X005759Y003952D02*
X008855Y003952D01*
X008855Y003894D02*
X002526Y003894D01*
X002467Y003835D02*
X008855Y003835D01*
X008855Y003777D02*
X002409Y003777D01*
X002350Y003718D02*
X008879Y003718D01*
X008855Y003742D02*
X009055Y003542D01*
X009143Y003454D01*
X009164Y003454D01*
X009093Y003383D01*
X009093Y003347D01*
X009011Y003429D01*
X008824Y003429D01*
X008692Y003297D01*
X008692Y003111D01*
X008824Y002979D01*
X009011Y002979D01*
X009106Y003075D02*
X009214Y003075D01*
X009155Y003133D02*
X009142Y003133D01*
X009421Y003075D02*
X010316Y003075D01*
X010258Y003133D02*
X009480Y003133D01*
X009538Y003192D02*
X010218Y003192D01*
X010218Y003250D02*
X009542Y003250D01*
X009542Y003309D02*
X010218Y003309D01*
X010225Y003367D02*
X009542Y003367D01*
X009499Y003426D02*
X010240Y003426D01*
X010578Y003484D02*
X012900Y003484D01*
X012910Y003508D02*
X012870Y003413D01*
X012870Y003309D01*
X012910Y003214D01*
X012983Y003141D01*
X013078Y003101D01*
X013182Y003101D01*
X013277Y003141D01*
X013350Y003214D01*
X013390Y003309D01*
X013390Y003413D01*
X013350Y003508D01*
X013277Y003582D01*
X013182Y003621D01*
X013078Y003621D01*
X012983Y003582D01*
X012910Y003508D01*
X012944Y003543D02*
X010605Y003543D01*
X010605Y003601D02*
X013030Y003601D01*
X013230Y003601D02*
X025678Y003601D01*
X025683Y003597D02*
X025973Y003477D01*
X026287Y003477D01*
X026577Y003597D01*
X026800Y003819D01*
X026920Y004110D01*
X026920Y004424D01*
X026800Y004714D01*
X026577Y004936D01*
X026287Y005057D01*
X025973Y005057D01*
X025683Y004936D01*
X025460Y004714D01*
X025340Y004424D01*
X025340Y004110D01*
X025460Y003819D01*
X025683Y003597D01*
X025620Y003660D02*
X010605Y003660D01*
X010584Y003718D02*
X025561Y003718D01*
X025503Y003777D02*
X010526Y003777D01*
X010234Y003777D02*
X009493Y003777D01*
X009542Y003835D02*
X025454Y003835D01*
X025429Y003894D02*
X009542Y003894D01*
X009542Y003952D02*
X025405Y003952D01*
X025381Y004011D02*
X010475Y004011D01*
X010533Y004069D02*
X025357Y004069D01*
X025340Y004128D02*
X010592Y004128D01*
X010605Y004186D02*
X025340Y004186D01*
X025340Y004245D02*
X010605Y004245D01*
X010716Y004303D02*
X025340Y004303D01*
X025340Y004362D02*
X010810Y004362D01*
X010858Y004420D02*
X025340Y004420D01*
X025363Y004479D02*
X010882Y004479D01*
X010890Y004537D02*
X025387Y004537D01*
X025411Y004596D02*
X010890Y004596D01*
X010868Y004654D02*
X025435Y004654D01*
X025460Y004713D02*
X010834Y004713D01*
X010773Y004771D02*
X025517Y004771D01*
X025576Y004830D02*
X009780Y004830D01*
X009780Y004888D02*
X025634Y004888D01*
X025707Y004947D02*
X009780Y004947D01*
X009780Y005005D02*
X025849Y005005D01*
X026411Y005005D02*
X026950Y005005D01*
X026950Y004947D02*
X026553Y004947D01*
X026626Y004888D02*
X026950Y004888D01*
X026950Y004830D02*
X026684Y004830D01*
X026743Y004771D02*
X026950Y004771D01*
X026950Y004713D02*
X026800Y004713D01*
X026825Y004654D02*
X026950Y004654D01*
X026950Y004596D02*
X026849Y004596D01*
X026873Y004537D02*
X026950Y004537D01*
X026950Y004479D02*
X026897Y004479D01*
X026920Y004420D02*
X026950Y004420D01*
X026950Y004362D02*
X026920Y004362D01*
X026920Y004303D02*
X026950Y004303D01*
X026950Y004245D02*
X026920Y004245D01*
X026920Y004186D02*
X026950Y004186D01*
X026950Y004128D02*
X026920Y004128D01*
X026903Y004069D02*
X026950Y004069D01*
X026950Y004011D02*
X026879Y004011D01*
X026855Y003952D02*
X026950Y003952D01*
X026950Y003894D02*
X026831Y003894D01*
X026806Y003835D02*
X026950Y003835D01*
X026950Y003777D02*
X026757Y003777D01*
X026699Y003718D02*
X026950Y003718D01*
X026950Y003660D02*
X026640Y003660D01*
X026582Y003601D02*
X026950Y003601D01*
X026950Y003543D02*
X026447Y003543D01*
X026305Y003484D02*
X026950Y003484D01*
X026950Y003426D02*
X013385Y003426D01*
X013390Y003367D02*
X026950Y003367D01*
X026950Y003309D02*
X013390Y003309D01*
X013365Y003250D02*
X026950Y003250D01*
X026950Y003192D02*
X013328Y003192D01*
X013259Y003133D02*
X026950Y003133D01*
X026950Y003075D02*
X010569Y003075D01*
X010627Y003133D02*
X013001Y003133D01*
X012932Y003192D02*
X010667Y003192D01*
X010667Y003250D02*
X012895Y003250D01*
X012870Y003309D02*
X010667Y003309D01*
X010660Y003367D02*
X012870Y003367D01*
X012875Y003426D02*
X010602Y003426D01*
X010285Y004011D02*
X009542Y004011D01*
X009486Y004069D02*
X010227Y004069D01*
X010248Y004420D02*
X009906Y004420D01*
X009848Y004479D02*
X010378Y004479D01*
X010370Y004537D02*
X009789Y004537D01*
X009780Y004596D02*
X010370Y004596D01*
X010392Y004654D02*
X009780Y004654D01*
X009780Y004713D02*
X010426Y004713D01*
X010487Y004771D02*
X009780Y004771D01*
X009780Y005064D02*
X026950Y005064D01*
X026950Y005122D02*
X009780Y005122D01*
X009780Y005181D02*
X026950Y005181D01*
X026950Y005239D02*
X009780Y005239D01*
X009780Y005298D02*
X026950Y005298D01*
X026950Y005356D02*
X009780Y005356D01*
X009780Y005415D02*
X026950Y005415D01*
X026950Y005473D02*
X009780Y005473D01*
X009780Y005532D02*
X025840Y005532D01*
X025973Y005477D02*
X025683Y005597D01*
X025460Y005819D01*
X025340Y006110D01*
X025340Y006424D01*
X025460Y006714D01*
X025683Y006936D01*
X025973Y007057D01*
X026287Y007057D01*
X026577Y006936D01*
X026800Y006714D01*
X026920Y006424D01*
X026920Y006110D01*
X026800Y005819D01*
X026577Y005597D01*
X026287Y005477D01*
X025973Y005477D01*
X025699Y005590D02*
X009780Y005590D01*
X009780Y005649D02*
X025631Y005649D01*
X025572Y005707D02*
X009780Y005707D01*
X009780Y005766D02*
X025514Y005766D01*
X025458Y005824D02*
X009780Y005824D01*
X009780Y005883D02*
X014696Y005883D01*
X014724Y005854D02*
X014593Y005986D01*
X014593Y006172D01*
X014724Y006304D01*
X014911Y006304D01*
X015042Y006172D01*
X015042Y005986D01*
X014911Y005854D01*
X014724Y005854D01*
X014637Y005941D02*
X009780Y005941D01*
X009780Y006000D02*
X014593Y006000D01*
X014593Y006058D02*
X009780Y006058D01*
X009780Y006117D02*
X014593Y006117D01*
X014595Y006175D02*
X009780Y006175D01*
X009780Y006234D02*
X012220Y006234D01*
X012224Y006229D02*
X012411Y006229D01*
X012542Y006361D01*
X012542Y006547D01*
X012411Y006679D01*
X012224Y006679D01*
X012093Y006547D01*
X012093Y006361D01*
X012224Y006229D01*
X012161Y006292D02*
X009780Y006292D01*
X009780Y006351D02*
X012103Y006351D01*
X012093Y006409D02*
X009780Y006409D01*
X009780Y006468D02*
X012093Y006468D01*
X012093Y006526D02*
X009780Y006526D01*
X009780Y006585D02*
X012130Y006585D01*
X012188Y006643D02*
X009780Y006643D01*
X009780Y006702D02*
X025455Y006702D01*
X025431Y006643D02*
X012447Y006643D01*
X012505Y006585D02*
X025407Y006585D01*
X025382Y006526D02*
X012542Y006526D01*
X012542Y006468D02*
X025358Y006468D01*
X025340Y006409D02*
X012542Y006409D01*
X012532Y006351D02*
X025340Y006351D01*
X025340Y006292D02*
X014923Y006292D01*
X014981Y006234D02*
X025340Y006234D01*
X025340Y006175D02*
X015040Y006175D01*
X015042Y006117D02*
X025340Y006117D01*
X025361Y006058D02*
X015042Y006058D01*
X015042Y006000D02*
X025385Y006000D01*
X025410Y005941D02*
X014998Y005941D01*
X014939Y005883D02*
X025434Y005883D01*
X026420Y005532D02*
X026950Y005532D01*
X026950Y005590D02*
X026561Y005590D01*
X026629Y005649D02*
X026950Y005649D01*
X026950Y005707D02*
X026688Y005707D01*
X026746Y005766D02*
X026950Y005766D01*
X026950Y005824D02*
X026802Y005824D01*
X026826Y005883D02*
X026950Y005883D01*
X026950Y005941D02*
X026850Y005941D01*
X026875Y006000D02*
X026950Y006000D01*
X026950Y006058D02*
X026899Y006058D01*
X026920Y006117D02*
X026950Y006117D01*
X026950Y006175D02*
X026920Y006175D01*
X026920Y006234D02*
X026950Y006234D01*
X026950Y006292D02*
X026920Y006292D01*
X026920Y006351D02*
X026950Y006351D01*
X026950Y006409D02*
X026920Y006409D01*
X026902Y006468D02*
X026950Y006468D01*
X026950Y006526D02*
X026878Y006526D01*
X026853Y006585D02*
X026950Y006585D01*
X026950Y006643D02*
X026829Y006643D01*
X026805Y006702D02*
X026950Y006702D01*
X026950Y006760D02*
X026754Y006760D01*
X026695Y006819D02*
X026950Y006819D01*
X026950Y006877D02*
X026637Y006877D01*
X026578Y006936D02*
X026950Y006936D01*
X026950Y006994D02*
X026438Y006994D01*
X026297Y007053D02*
X026950Y007053D01*
X026950Y007111D02*
X016043Y007111D01*
X016101Y007170D02*
X026950Y007170D01*
X026950Y007228D02*
X016105Y007228D01*
X016105Y007173D02*
X015973Y007042D01*
X015787Y007042D01*
X015655Y007173D01*
X015655Y007360D01*
X015787Y007492D01*
X015973Y007492D01*
X016105Y007360D01*
X016105Y007173D01*
X016105Y007287D02*
X017958Y007287D01*
X017976Y007279D02*
X018079Y007279D01*
X018175Y007319D01*
X018248Y007392D01*
X018288Y007488D01*
X018288Y007591D01*
X018248Y007687D01*
X018175Y007760D01*
X018079Y007799D01*
X017976Y007799D01*
X017880Y007760D01*
X017807Y007687D01*
X017768Y007591D01*
X017768Y007488D01*
X017807Y007392D01*
X017880Y007319D01*
X017976Y007279D01*
X018097Y007287D02*
X026950Y007287D01*
X026950Y007345D02*
X018201Y007345D01*
X018253Y007404D02*
X026950Y007404D01*
X026950Y007462D02*
X018277Y007462D01*
X018288Y007521D02*
X026950Y007521D01*
X026950Y007579D02*
X018288Y007579D01*
X018268Y007638D02*
X026950Y007638D01*
X026950Y007696D02*
X018238Y007696D01*
X018180Y007755D02*
X026950Y007755D01*
X026950Y007813D02*
X025274Y007813D01*
X025223Y007762D02*
X025037Y007762D01*
X024905Y007894D01*
X024905Y007943D01*
X023789Y009059D01*
X020990Y009059D01*
X020955Y009024D01*
X020769Y009024D01*
X020637Y009156D01*
X020637Y009342D01*
X020769Y009474D01*
X020955Y009474D01*
X020990Y009439D01*
X023947Y009439D01*
X024058Y009328D01*
X024995Y008391D01*
X024995Y008443D01*
X025035Y008539D01*
X025108Y008612D01*
X025203Y008652D01*
X025307Y008652D01*
X025402Y008612D01*
X025475Y008539D01*
X025515Y008443D01*
X025515Y008375D01*
X025578Y008402D01*
X025682Y008402D01*
X025708Y008391D01*
X025702Y008397D01*
X025603Y008637D01*
X025603Y008896D01*
X025702Y009136D01*
X025708Y009143D01*
X025682Y009132D01*
X025578Y009132D01*
X025515Y009158D01*
X025515Y009090D01*
X025475Y008994D01*
X025402Y008921D01*
X025307Y008882D01*
X025203Y008882D01*
X025108Y008921D01*
X025035Y008994D01*
X024995Y009090D01*
X024995Y009193D01*
X025035Y009289D01*
X025108Y009362D01*
X025203Y009402D01*
X025307Y009402D01*
X025370Y009375D01*
X025370Y009443D01*
X025410Y009539D01*
X025483Y009612D01*
X025578Y009652D01*
X025682Y009652D01*
X025777Y009612D01*
X025850Y009539D01*
X025890Y009443D01*
X025890Y009340D01*
X025879Y009313D01*
X025885Y009320D01*
X026125Y009419D01*
X026385Y009419D01*
X026625Y009320D01*
X026808Y009136D01*
X026907Y008896D01*
X026907Y008637D01*
X026808Y008397D01*
X026625Y008214D01*
X026385Y008114D01*
X026125Y008114D01*
X025885Y008214D01*
X025879Y008220D01*
X025890Y008193D01*
X025890Y008090D01*
X025850Y007994D01*
X025777Y007921D01*
X025682Y007882D01*
X025578Y007882D01*
X025483Y007921D01*
X025410Y007994D01*
X025370Y008090D01*
X025370Y008158D01*
X025307Y008132D01*
X025304Y008132D01*
X025355Y008080D01*
X025355Y007894D01*
X025223Y007762D01*
X025333Y007872D02*
X026950Y007872D01*
X026950Y007930D02*
X025786Y007930D01*
X025845Y007989D02*
X026950Y007989D01*
X026950Y008047D02*
X025872Y008047D01*
X025890Y008106D02*
X026950Y008106D01*
X026950Y008164D02*
X026506Y008164D01*
X026634Y008223D02*
X026950Y008223D01*
X026950Y008281D02*
X026692Y008281D01*
X026751Y008340D02*
X026950Y008340D01*
X026950Y008398D02*
X026809Y008398D01*
X026833Y008457D02*
X026950Y008457D01*
X026950Y008515D02*
X026857Y008515D01*
X026881Y008574D02*
X026950Y008574D01*
X026950Y008632D02*
X026906Y008632D01*
X026907Y008691D02*
X026950Y008691D01*
X026950Y008749D02*
X026907Y008749D01*
X026907Y008808D02*
X026950Y008808D01*
X026950Y008866D02*
X026907Y008866D01*
X026896Y008925D02*
X026950Y008925D01*
X026950Y008983D02*
X026872Y008983D01*
X026847Y009042D02*
X026950Y009042D01*
X026950Y009100D02*
X026823Y009100D01*
X026786Y009159D02*
X026950Y009159D01*
X026950Y009217D02*
X026727Y009217D01*
X026669Y009276D02*
X026950Y009276D01*
X026950Y009334D02*
X026590Y009334D01*
X026449Y009393D02*
X026950Y009393D01*
X026950Y009451D02*
X025887Y009451D01*
X025890Y009393D02*
X026061Y009393D01*
X025920Y009334D02*
X025888Y009334D01*
X025687Y009100D02*
X025515Y009100D01*
X025495Y009042D02*
X025663Y009042D01*
X025638Y008983D02*
X025464Y008983D01*
X025406Y008925D02*
X025614Y008925D01*
X025603Y008866D02*
X024520Y008866D01*
X024578Y008808D02*
X025603Y008808D01*
X025603Y008749D02*
X024637Y008749D01*
X024695Y008691D02*
X025603Y008691D01*
X025604Y008632D02*
X025354Y008632D01*
X025441Y008574D02*
X025629Y008574D01*
X025653Y008515D02*
X025485Y008515D01*
X025509Y008457D02*
X025677Y008457D01*
X025690Y008398D02*
X025701Y008398D01*
X025570Y008398D02*
X025515Y008398D01*
X025156Y008632D02*
X024754Y008632D01*
X024812Y008574D02*
X025069Y008574D01*
X025025Y008515D02*
X024871Y008515D01*
X024929Y008457D02*
X025001Y008457D01*
X024995Y008398D02*
X024988Y008398D01*
X024567Y008281D02*
X015512Y008281D01*
X015570Y008340D02*
X024509Y008340D01*
X024450Y008398D02*
X015629Y008398D01*
X015687Y008457D02*
X024392Y008457D01*
X024333Y008515D02*
X015746Y008515D01*
X015804Y008574D02*
X020790Y008574D01*
X020822Y008542D02*
X021009Y008542D01*
X021140Y008673D01*
X021140Y008860D01*
X021009Y008992D01*
X020822Y008992D01*
X020690Y008860D01*
X020690Y008673D01*
X020822Y008542D01*
X020732Y008632D02*
X015863Y008632D01*
X015921Y008691D02*
X020690Y008691D01*
X020690Y008749D02*
X015980Y008749D01*
X016038Y008808D02*
X020690Y008808D01*
X020697Y008866D02*
X016097Y008866D01*
X016155Y008925D02*
X020755Y008925D01*
X020814Y008983D02*
X016214Y008983D01*
X016272Y009042D02*
X020751Y009042D01*
X020693Y009100D02*
X016331Y009100D01*
X016389Y009159D02*
X020637Y009159D01*
X020637Y009217D02*
X016448Y009217D01*
X016506Y009276D02*
X020637Y009276D01*
X020637Y009334D02*
X016565Y009334D01*
X016623Y009393D02*
X020688Y009393D01*
X020746Y009451D02*
X016682Y009451D01*
X016740Y009510D02*
X025397Y009510D01*
X025373Y009451D02*
X020978Y009451D01*
X020973Y009042D02*
X023807Y009042D01*
X023865Y008983D02*
X021017Y008983D01*
X021076Y008925D02*
X023924Y008925D01*
X023982Y008866D02*
X021134Y008866D01*
X021140Y008808D02*
X024041Y008808D01*
X024099Y008749D02*
X021140Y008749D01*
X021140Y008691D02*
X024158Y008691D01*
X024216Y008632D02*
X021099Y008632D01*
X021041Y008574D02*
X024275Y008574D01*
X024461Y008925D02*
X025104Y008925D01*
X025046Y008983D02*
X024403Y008983D01*
X024344Y009042D02*
X025015Y009042D01*
X024995Y009100D02*
X024286Y009100D01*
X024227Y009159D02*
X024995Y009159D01*
X025005Y009217D02*
X024169Y009217D01*
X024110Y009276D02*
X025029Y009276D01*
X025080Y009334D02*
X024052Y009334D01*
X023993Y009393D02*
X025182Y009393D01*
X025328Y009393D02*
X025370Y009393D01*
X025439Y009568D02*
X016799Y009568D01*
X016857Y009627D02*
X025518Y009627D01*
X025742Y009627D02*
X026950Y009627D01*
X026950Y009685D02*
X016916Y009685D01*
X016974Y009744D02*
X026950Y009744D01*
X026950Y009802D02*
X025263Y009802D01*
X025223Y009762D02*
X025355Y009894D01*
X025355Y010080D01*
X025304Y010132D01*
X025307Y010132D01*
X025370Y010158D01*
X025370Y010090D01*
X025410Y009994D01*
X025483Y009921D01*
X025578Y009882D01*
X025682Y009882D01*
X025777Y009921D01*
X025850Y009994D01*
X025890Y010090D01*
X025890Y010193D01*
X025879Y010220D01*
X025885Y010214D01*
X026125Y010114D01*
X026385Y010114D01*
X026625Y010214D01*
X026808Y010397D01*
X026907Y010637D01*
X026907Y010896D01*
X026808Y011136D01*
X026625Y011320D01*
X026385Y011419D01*
X026125Y011419D01*
X025885Y011320D01*
X025879Y011313D01*
X025890Y011340D01*
X025890Y011443D01*
X025850Y011539D01*
X025777Y011612D01*
X025682Y011652D01*
X025578Y011652D01*
X025483Y011612D01*
X025410Y011539D01*
X025370Y011443D01*
X025370Y011375D01*
X025307Y011402D01*
X025203Y011402D01*
X025108Y011362D01*
X025035Y011289D01*
X024995Y011193D01*
X024995Y011090D01*
X025035Y010994D01*
X025108Y010921D01*
X025203Y010882D01*
X025307Y010882D01*
X025402Y010921D01*
X025475Y010994D01*
X025515Y011090D01*
X025515Y011158D01*
X025578Y011132D01*
X025682Y011132D01*
X025708Y011143D01*
X025702Y011136D01*
X025603Y010896D01*
X025603Y010637D01*
X025702Y010397D01*
X025708Y010391D01*
X025682Y010402D01*
X025578Y010402D01*
X025515Y010375D01*
X025515Y010443D01*
X025475Y010539D01*
X025402Y010612D01*
X025307Y010652D01*
X025203Y010652D01*
X025108Y010612D01*
X025035Y010539D01*
X024995Y010443D01*
X024995Y010391D01*
X024679Y010707D01*
X020816Y010707D01*
X020555Y010968D01*
X020555Y011017D01*
X020423Y011149D01*
X020237Y011149D01*
X020105Y011017D01*
X020105Y010831D01*
X020237Y010699D01*
X020286Y010699D01*
X020547Y010438D01*
X020659Y010327D01*
X024522Y010327D01*
X024905Y009943D01*
X024905Y009894D01*
X025037Y009762D01*
X025223Y009762D01*
X025322Y009861D02*
X026950Y009861D01*
X026950Y009919D02*
X025772Y009919D01*
X025834Y009978D02*
X026950Y009978D01*
X026950Y010036D02*
X025868Y010036D01*
X025890Y010095D02*
X026950Y010095D01*
X026950Y010153D02*
X026479Y010153D01*
X026620Y010212D02*
X026950Y010212D01*
X026950Y010270D02*
X026681Y010270D01*
X026740Y010329D02*
X026950Y010329D01*
X026950Y010387D02*
X026798Y010387D01*
X026828Y010446D02*
X026950Y010446D01*
X026950Y010504D02*
X026853Y010504D01*
X026877Y010563D02*
X026950Y010563D01*
X026950Y010621D02*
X026901Y010621D01*
X026907Y010680D02*
X026950Y010680D01*
X026950Y010738D02*
X026907Y010738D01*
X026907Y010797D02*
X026950Y010797D01*
X026950Y010855D02*
X026907Y010855D01*
X026900Y010914D02*
X026950Y010914D01*
X026950Y010972D02*
X026876Y010972D01*
X026852Y011031D02*
X026950Y011031D01*
X026950Y011089D02*
X026828Y011089D01*
X026797Y011148D02*
X026950Y011148D01*
X026950Y011206D02*
X026738Y011206D01*
X026680Y011265D02*
X026950Y011265D01*
X026950Y011323D02*
X026616Y011323D01*
X026475Y011382D02*
X026950Y011382D01*
X026950Y011440D02*
X025890Y011440D01*
X025890Y011382D02*
X026035Y011382D01*
X025894Y011323D02*
X025883Y011323D01*
X025867Y011499D02*
X026950Y011499D01*
X026950Y011557D02*
X025832Y011557D01*
X025769Y011616D02*
X026950Y011616D01*
X026950Y011674D02*
X025086Y011674D01*
X025144Y011733D02*
X026950Y011733D01*
X026950Y011791D02*
X025252Y011791D01*
X025223Y011762D02*
X025355Y011894D01*
X025355Y012080D01*
X025304Y012132D01*
X025307Y012132D01*
X025370Y012158D01*
X025370Y012090D01*
X025410Y011994D01*
X025483Y011921D01*
X025578Y011882D01*
X025682Y011882D01*
X025777Y011921D01*
X025850Y011994D01*
X025890Y012090D01*
X025890Y012193D01*
X025879Y012220D01*
X025885Y012214D01*
X026125Y012114D01*
X026385Y012114D01*
X026625Y012214D01*
X026808Y012397D01*
X026907Y012637D01*
X026907Y012896D01*
X026808Y013136D01*
X026625Y013320D01*
X026385Y013419D01*
X026125Y013419D01*
X025885Y013320D01*
X025879Y013313D01*
X025890Y013340D01*
X025890Y013443D01*
X025850Y013539D01*
X025777Y013612D01*
X025682Y013652D01*
X025578Y013652D01*
X025483Y013612D01*
X025410Y013539D01*
X025370Y013443D01*
X025370Y013375D01*
X025307Y013402D01*
X025203Y013402D01*
X025108Y013362D01*
X025035Y013289D01*
X024995Y013193D01*
X024995Y013090D01*
X025035Y012994D01*
X025108Y012921D01*
X025203Y012882D01*
X025307Y012882D01*
X025402Y012921D01*
X025475Y012994D01*
X025515Y013090D01*
X025515Y013158D01*
X025578Y013132D01*
X025682Y013132D01*
X025708Y013143D01*
X025702Y013136D01*
X025603Y012896D01*
X025603Y012637D01*
X025702Y012397D01*
X025708Y012391D01*
X025682Y012402D01*
X025578Y012402D01*
X025515Y012375D01*
X025515Y012443D01*
X025475Y012539D01*
X025402Y012612D01*
X025307Y012652D01*
X025203Y012652D01*
X025108Y012612D01*
X025035Y012539D01*
X024995Y012443D01*
X024995Y012340D01*
X025035Y012244D01*
X025067Y012212D01*
X025037Y012212D01*
X024905Y012080D01*
X024905Y012031D01*
X024743Y011869D01*
X022330Y011869D01*
X022355Y011894D01*
X022355Y012080D01*
X022223Y012212D01*
X022037Y012212D01*
X021905Y012080D01*
X021905Y011894D01*
X021930Y011869D01*
X021865Y011869D01*
X021830Y011904D01*
X021644Y011904D01*
X021512Y011772D01*
X021512Y011586D01*
X021644Y011454D01*
X021830Y011454D01*
X021865Y011489D01*
X024901Y011489D01*
X025012Y011600D01*
X025174Y011762D01*
X025223Y011762D01*
X025311Y011850D02*
X026950Y011850D01*
X026950Y011908D02*
X025746Y011908D01*
X025823Y011967D02*
X026950Y011967D01*
X026950Y012025D02*
X025863Y012025D01*
X025887Y012084D02*
X026950Y012084D01*
X026950Y012142D02*
X026453Y012142D01*
X026594Y012201D02*
X026950Y012201D01*
X026950Y012259D02*
X026670Y012259D01*
X026729Y012318D02*
X026950Y012318D01*
X026950Y012376D02*
X026787Y012376D01*
X026824Y012435D02*
X026950Y012435D01*
X026950Y012493D02*
X026848Y012493D01*
X026872Y012552D02*
X026950Y012552D01*
X026950Y012610D02*
X026896Y012610D01*
X026907Y012669D02*
X026950Y012669D01*
X026950Y012727D02*
X026907Y012727D01*
X026907Y012786D02*
X026950Y012786D01*
X026950Y012844D02*
X026907Y012844D01*
X026905Y012903D02*
X026950Y012903D01*
X026950Y012961D02*
X026881Y012961D01*
X026856Y013020D02*
X026950Y013020D01*
X026950Y013078D02*
X026832Y013078D01*
X026808Y013137D02*
X026950Y013137D01*
X026950Y013195D02*
X026749Y013195D01*
X026691Y013254D02*
X026950Y013254D01*
X026950Y013312D02*
X026632Y013312D01*
X026502Y013371D02*
X026950Y013371D01*
X026950Y013429D02*
X025890Y013429D01*
X025890Y013371D02*
X026008Y013371D01*
X025872Y013488D02*
X026950Y013488D01*
X026950Y013546D02*
X025843Y013546D01*
X025785Y013605D02*
X026950Y013605D01*
X026950Y013663D02*
X014741Y013663D01*
X014766Y013605D02*
X025475Y013605D01*
X025417Y013546D02*
X014770Y013546D01*
X014770Y013594D02*
X014711Y013738D01*
X014601Y013847D01*
X014458Y013907D01*
X014302Y013907D01*
X014159Y013847D01*
X014049Y013738D01*
X014027Y013684D01*
X013998Y013742D01*
X013958Y013797D01*
X013910Y013845D01*
X013855Y013884D01*
X013795Y013915D01*
X013731Y013936D01*
X013664Y013947D01*
X013660Y013947D01*
X013660Y013547D01*
X013600Y013547D01*
X013600Y013947D01*
X013596Y013947D01*
X013529Y013936D01*
X013465Y013915D01*
X013405Y013884D01*
X013350Y013845D01*
X013302Y013797D01*
X013262Y013742D01*
X013233Y013684D01*
X013211Y013738D01*
X013101Y013847D01*
X012958Y013907D01*
X012802Y013907D01*
X012659Y013847D01*
X012549Y013738D01*
X012490Y013594D01*
X012490Y013439D01*
X012549Y013296D01*
X012659Y013186D01*
X012802Y013127D01*
X012958Y013127D01*
X013101Y013186D01*
X013211Y013296D01*
X013233Y013349D01*
X013262Y013291D01*
X013302Y013237D01*
X013350Y013189D01*
X013405Y013149D01*
X013465Y013118D01*
X013529Y013097D01*
X013596Y013087D01*
X013600Y013087D01*
X013600Y013487D01*
X013660Y013487D01*
X013660Y013087D01*
X013664Y013087D01*
X013731Y013097D01*
X013795Y013118D01*
X013855Y013149D01*
X013910Y013189D01*
X013958Y013237D01*
X013998Y013291D01*
X014027Y013349D01*
X014049Y013296D01*
X014159Y013186D01*
X014302Y013127D01*
X014458Y013127D01*
X014601Y013186D01*
X014711Y013296D01*
X014770Y013439D01*
X014770Y013594D01*
X014770Y013488D02*
X025388Y013488D01*
X025370Y013429D02*
X014766Y013429D01*
X014742Y013371D02*
X025129Y013371D01*
X025058Y013312D02*
X019088Y013312D01*
X019066Y013334D02*
X019198Y013202D01*
X019198Y013016D01*
X019066Y012884D01*
X018879Y012884D01*
X018748Y013016D01*
X018748Y013202D01*
X018879Y013334D01*
X019066Y013334D01*
X019146Y013254D02*
X025020Y013254D01*
X024996Y013195D02*
X019198Y013195D01*
X019198Y013137D02*
X024995Y013137D01*
X025000Y013078D02*
X019198Y013078D01*
X019198Y013020D02*
X025024Y013020D01*
X025068Y012961D02*
X021754Y012961D01*
X021723Y012992D02*
X021537Y012992D01*
X021405Y012860D01*
X021405Y012673D01*
X021537Y012542D01*
X021723Y012542D01*
X021855Y012673D01*
X021855Y012860D01*
X021723Y012992D01*
X021812Y012903D02*
X025152Y012903D01*
X025358Y012903D02*
X025605Y012903D01*
X025603Y012844D02*
X021855Y012844D01*
X021855Y012786D02*
X025603Y012786D01*
X025603Y012727D02*
X021855Y012727D01*
X021850Y012669D02*
X025603Y012669D01*
X025614Y012610D02*
X025404Y012610D01*
X025463Y012552D02*
X025638Y012552D01*
X025662Y012493D02*
X025494Y012493D01*
X025515Y012435D02*
X025686Y012435D01*
X025517Y012376D02*
X025515Y012376D01*
X025887Y012201D02*
X025916Y012201D01*
X025890Y012142D02*
X026057Y012142D01*
X025514Y011908D02*
X025355Y011908D01*
X025355Y011967D02*
X025437Y011967D01*
X025397Y012025D02*
X025355Y012025D01*
X025352Y012084D02*
X025373Y012084D01*
X025370Y012142D02*
X025332Y012142D01*
X025025Y012201D02*
X022235Y012201D01*
X022293Y012142D02*
X024967Y012142D01*
X024908Y012084D02*
X022352Y012084D01*
X022355Y012025D02*
X024899Y012025D01*
X024841Y011967D02*
X022355Y011967D01*
X022355Y011908D02*
X024782Y011908D01*
X025027Y011616D02*
X025491Y011616D01*
X025428Y011557D02*
X024969Y011557D01*
X024910Y011499D02*
X025393Y011499D01*
X025370Y011440D02*
X016997Y011440D01*
X017056Y011382D02*
X025155Y011382D01*
X025069Y011323D02*
X017105Y011323D01*
X017105Y011265D02*
X025025Y011265D01*
X025000Y011206D02*
X021759Y011206D01*
X021723Y011242D02*
X021537Y011242D01*
X021405Y011110D01*
X021405Y010923D01*
X021537Y010792D01*
X021723Y010792D01*
X021855Y010923D01*
X021855Y011110D01*
X021723Y011242D01*
X021817Y011148D02*
X024995Y011148D01*
X024995Y011089D02*
X021855Y011089D01*
X021855Y011031D02*
X025020Y011031D01*
X025057Y010972D02*
X021855Y010972D01*
X021845Y010914D02*
X025126Y010914D01*
X025384Y010914D02*
X025610Y010914D01*
X025603Y010855D02*
X021787Y010855D01*
X021728Y010797D02*
X025603Y010797D01*
X025603Y010738D02*
X020785Y010738D01*
X020726Y010797D02*
X021532Y010797D01*
X021473Y010855D02*
X020668Y010855D01*
X020609Y010914D02*
X021415Y010914D01*
X021405Y010972D02*
X020555Y010972D01*
X020542Y011031D02*
X021405Y011031D01*
X021405Y011089D02*
X020483Y011089D01*
X020425Y011148D02*
X021443Y011148D01*
X021501Y011206D02*
X017105Y011206D01*
X017105Y011148D02*
X017848Y011148D01*
X017789Y011089D02*
X017048Y011089D01*
X016990Y011031D02*
X017731Y011031D01*
X017718Y010972D02*
X016825Y010972D01*
X016767Y010914D02*
X017718Y010914D01*
X017661Y010855D02*
X016708Y010855D01*
X016650Y010797D02*
X017603Y010797D01*
X017544Y010738D02*
X016591Y010738D01*
X016533Y010680D02*
X017486Y010680D01*
X017427Y010621D02*
X016474Y010621D01*
X016416Y010563D02*
X017369Y010563D01*
X017310Y010504D02*
X016357Y010504D01*
X016299Y010446D02*
X017252Y010446D01*
X017193Y010387D02*
X016240Y010387D01*
X016182Y010329D02*
X017135Y010329D01*
X017076Y010270D02*
X016123Y010270D01*
X016065Y010212D02*
X017018Y010212D01*
X016959Y010153D02*
X016006Y010153D01*
X015948Y010095D02*
X016901Y010095D01*
X016842Y010036D02*
X015889Y010036D01*
X015831Y009978D02*
X016784Y009978D01*
X016725Y009919D02*
X015772Y009919D01*
X015714Y009861D02*
X016667Y009861D01*
X016608Y009802D02*
X015655Y009802D01*
X015597Y009744D02*
X016550Y009744D01*
X016491Y009685D02*
X015538Y009685D01*
X015480Y009627D02*
X016433Y009627D01*
X016374Y009568D02*
X015421Y009568D01*
X015363Y009510D02*
X016316Y009510D01*
X016257Y009451D02*
X015304Y009451D01*
X015246Y009393D02*
X016199Y009393D01*
X016140Y009334D02*
X015187Y009334D01*
X015129Y009276D02*
X016082Y009276D01*
X016023Y009217D02*
X015070Y009217D01*
X015012Y009159D02*
X015965Y009159D01*
X015906Y009100D02*
X014953Y009100D01*
X014895Y009042D02*
X015848Y009042D01*
X015789Y008983D02*
X014836Y008983D01*
X014778Y008925D02*
X015731Y008925D01*
X015672Y008866D02*
X014719Y008866D01*
X014661Y008808D02*
X015614Y008808D01*
X015555Y008749D02*
X014602Y008749D01*
X014544Y008691D02*
X015497Y008691D01*
X015438Y008632D02*
X014958Y008632D01*
X014911Y008679D02*
X014724Y008679D01*
X014593Y008547D01*
X014593Y008361D01*
X014724Y008229D01*
X014911Y008229D01*
X015042Y008361D01*
X015042Y008547D01*
X014911Y008679D01*
X015016Y008574D02*
X015380Y008574D01*
X015321Y008515D02*
X015042Y008515D01*
X015042Y008457D02*
X015263Y008457D01*
X015204Y008398D02*
X015042Y008398D01*
X015021Y008340D02*
X015146Y008340D01*
X015087Y008281D02*
X014963Y008281D01*
X015029Y008223D02*
X014076Y008223D01*
X014134Y008281D02*
X014672Y008281D01*
X014614Y008340D02*
X014193Y008340D01*
X014251Y008398D02*
X014593Y008398D01*
X014593Y008457D02*
X014310Y008457D01*
X014368Y008515D02*
X014593Y008515D01*
X014619Y008574D02*
X014427Y008574D01*
X014485Y008632D02*
X014677Y008632D01*
X014295Y008866D02*
X012355Y008866D01*
X012355Y008808D02*
X014236Y008808D01*
X014178Y008749D02*
X012306Y008749D01*
X012355Y008798D02*
X012223Y008667D01*
X012037Y008667D01*
X011905Y008798D01*
X011905Y008985D01*
X012037Y009117D01*
X012223Y009117D01*
X012355Y008985D01*
X012355Y008798D01*
X012355Y008925D02*
X014353Y008925D01*
X014412Y008983D02*
X012355Y008983D01*
X012298Y009042D02*
X014470Y009042D01*
X014529Y009100D02*
X012240Y009100D01*
X012223Y009229D02*
X012355Y009361D01*
X012355Y009547D01*
X012223Y009679D01*
X012037Y009679D01*
X011905Y009547D01*
X011905Y009361D01*
X012037Y009229D01*
X012223Y009229D01*
X012270Y009276D02*
X014704Y009276D01*
X014646Y009217D02*
X011667Y009217D01*
X011667Y009159D02*
X014587Y009159D01*
X014763Y009334D02*
X012328Y009334D01*
X012355Y009393D02*
X014821Y009393D01*
X014880Y009451D02*
X012355Y009451D01*
X012355Y009510D02*
X014938Y009510D01*
X014997Y009568D02*
X012334Y009568D01*
X012276Y009627D02*
X015055Y009627D01*
X015114Y009685D02*
X009992Y009685D01*
X010042Y009736D02*
X009911Y009604D01*
X009724Y009604D01*
X009593Y009736D01*
X009593Y009922D01*
X009668Y009997D01*
X009668Y010048D01*
X009598Y009979D01*
X009412Y009979D01*
X009280Y010111D01*
X009280Y010297D01*
X009412Y010429D01*
X009518Y010429D01*
X011905Y012816D01*
X011905Y012922D01*
X012037Y013054D01*
X012223Y013054D01*
X012355Y012922D01*
X012355Y012736D01*
X012286Y012667D01*
X014505Y012667D01*
X014780Y012941D01*
X014780Y013047D01*
X014912Y013179D01*
X015098Y013179D01*
X015230Y013047D01*
X015230Y012861D01*
X015098Y012729D01*
X014992Y012729D01*
X014630Y012367D01*
X012192Y012367D01*
X009967Y010142D01*
X009967Y009997D01*
X010042Y009922D01*
X010042Y009736D01*
X010042Y009744D02*
X015172Y009744D01*
X015231Y009802D02*
X010042Y009802D01*
X010042Y009861D02*
X015289Y009861D01*
X015348Y009919D02*
X010042Y009919D01*
X009987Y009978D02*
X015406Y009978D01*
X015465Y010036D02*
X009967Y010036D01*
X009967Y010095D02*
X010734Y010095D01*
X010787Y010042D02*
X010973Y010042D01*
X011105Y010173D01*
X011105Y010360D01*
X011011Y010454D01*
X011105Y010548D01*
X011105Y010735D01*
X010973Y010867D01*
X010787Y010867D01*
X010655Y010735D01*
X010655Y010548D01*
X010749Y010454D01*
X010655Y010360D01*
X010655Y010173D01*
X010787Y010042D01*
X010675Y010153D02*
X009979Y010153D01*
X010037Y010212D02*
X010655Y010212D01*
X010655Y010270D02*
X010096Y010270D01*
X010154Y010329D02*
X010655Y010329D01*
X010682Y010387D02*
X010213Y010387D01*
X010271Y010446D02*
X010741Y010446D01*
X010699Y010504D02*
X010330Y010504D01*
X010388Y010563D02*
X010655Y010563D01*
X010655Y010621D02*
X010447Y010621D01*
X010505Y010680D02*
X010655Y010680D01*
X010658Y010738D02*
X010564Y010738D01*
X010622Y010797D02*
X010717Y010797D01*
X010681Y010855D02*
X010775Y010855D01*
X010739Y010914D02*
X011280Y010914D01*
X011280Y010972D02*
X010798Y010972D01*
X010856Y011031D02*
X011326Y011031D01*
X011280Y010985D02*
X011280Y010798D01*
X011337Y010742D01*
X011287Y010742D01*
X011155Y010610D01*
X011155Y010423D01*
X011287Y010292D01*
X011473Y010292D01*
X011605Y010423D01*
X011605Y010610D01*
X011548Y010667D01*
X011598Y010667D01*
X011730Y010798D01*
X011730Y010985D01*
X011598Y011117D01*
X011412Y011117D01*
X011280Y010985D01*
X011280Y010855D02*
X010985Y010855D01*
X011043Y010797D02*
X011282Y010797D01*
X011283Y010738D02*
X011102Y010738D01*
X011105Y010680D02*
X011225Y010680D01*
X011166Y010621D02*
X011105Y010621D01*
X011105Y010563D02*
X011155Y010563D01*
X011155Y010504D02*
X011061Y010504D01*
X011019Y010446D02*
X011155Y010446D01*
X011191Y010387D02*
X011078Y010387D01*
X011105Y010329D02*
X011250Y010329D01*
X011105Y010270D02*
X015699Y010270D01*
X015640Y010212D02*
X011105Y010212D01*
X011085Y010153D02*
X015582Y010153D01*
X015523Y010095D02*
X011026Y010095D01*
X011510Y010329D02*
X015757Y010329D01*
X015816Y010387D02*
X011569Y010387D01*
X011605Y010446D02*
X015874Y010446D01*
X015933Y010504D02*
X011605Y010504D01*
X011605Y010563D02*
X015991Y010563D01*
X016050Y010621D02*
X011594Y010621D01*
X011611Y010680D02*
X016108Y010680D01*
X016167Y010738D02*
X011670Y010738D01*
X011728Y010797D02*
X016225Y010797D01*
X016284Y010855D02*
X011730Y010855D01*
X011730Y010914D02*
X016342Y010914D01*
X016401Y010972D02*
X011730Y010972D01*
X011684Y011031D02*
X016459Y011031D01*
X016518Y011089D02*
X011626Y011089D01*
X011384Y011089D02*
X010915Y011089D01*
X010973Y011148D02*
X016576Y011148D01*
X016635Y011206D02*
X011032Y011206D01*
X011090Y011265D02*
X016655Y011265D01*
X016568Y011323D02*
X016005Y011323D01*
X015973Y011292D02*
X016105Y011423D01*
X016105Y011457D01*
X016286Y011457D01*
X016417Y011588D01*
X016417Y011775D01*
X016286Y011907D01*
X016099Y011907D01*
X015968Y011775D01*
X015968Y011742D01*
X015787Y011742D01*
X015655Y011610D01*
X015655Y011423D01*
X015787Y011292D01*
X015973Y011292D01*
X016063Y011382D02*
X016509Y011382D01*
X016468Y011440D02*
X016105Y011440D01*
X016328Y011499D02*
X016468Y011499D01*
X016468Y011557D02*
X016386Y011557D01*
X016417Y011616D02*
X016473Y011616D01*
X016417Y011674D02*
X016532Y011674D01*
X016590Y011733D02*
X016417Y011733D01*
X016401Y011791D02*
X020037Y011791D01*
X020030Y011798D02*
X020162Y011667D01*
X020348Y011667D01*
X020480Y011798D01*
X020480Y011985D01*
X020348Y012117D01*
X020162Y012117D01*
X020030Y011985D01*
X020030Y011798D01*
X020030Y011850D02*
X016343Y011850D01*
X016105Y011923D02*
X015973Y011792D01*
X015787Y011792D01*
X015655Y011923D01*
X015655Y012110D01*
X015787Y012242D01*
X015973Y012242D01*
X016105Y012110D01*
X016105Y011923D01*
X016090Y011908D02*
X020030Y011908D01*
X020030Y011967D02*
X017086Y011967D01*
X017036Y011917D02*
X017167Y012048D01*
X017167Y012235D01*
X017036Y012367D01*
X016849Y012367D01*
X016718Y012235D01*
X016718Y012048D01*
X016849Y011917D01*
X017036Y011917D01*
X017144Y012025D02*
X020070Y012025D01*
X020129Y012084D02*
X017167Y012084D01*
X017167Y012142D02*
X021967Y012142D01*
X021908Y012084D02*
X020381Y012084D01*
X020440Y012025D02*
X021905Y012025D01*
X021905Y011967D02*
X020480Y011967D01*
X020480Y011908D02*
X021905Y011908D01*
X021590Y011850D02*
X020480Y011850D01*
X020473Y011791D02*
X021531Y011791D01*
X021512Y011733D02*
X020414Y011733D01*
X020356Y011674D02*
X021512Y011674D01*
X021512Y011616D02*
X016912Y011616D01*
X016917Y011557D02*
X021541Y011557D01*
X021599Y011499D02*
X016917Y011499D01*
X016853Y011674D02*
X020154Y011674D01*
X020096Y011733D02*
X016795Y011733D01*
X016799Y011967D02*
X016105Y011967D01*
X016105Y012025D02*
X016741Y012025D01*
X016718Y012084D02*
X016105Y012084D01*
X016073Y012142D02*
X016718Y012142D01*
X016718Y012201D02*
X016014Y012201D01*
X015746Y012201D02*
X012026Y012201D01*
X012085Y012259D02*
X016742Y012259D01*
X016800Y012318D02*
X012143Y012318D01*
X011968Y012142D02*
X015687Y012142D01*
X015655Y012084D02*
X011909Y012084D01*
X011851Y012025D02*
X013693Y012025D01*
X013703Y012030D02*
X013608Y011990D01*
X013535Y011917D01*
X013495Y011821D01*
X013495Y011718D01*
X013535Y011622D01*
X013608Y011549D01*
X013703Y011510D01*
X013807Y011510D01*
X013902Y011549D01*
X013975Y011622D01*
X014015Y011718D01*
X014015Y011821D01*
X013975Y011917D01*
X013902Y011990D01*
X013807Y012030D01*
X013703Y012030D01*
X013817Y012025D02*
X015655Y012025D01*
X015655Y011967D02*
X013926Y011967D01*
X013979Y011908D02*
X015670Y011908D01*
X015729Y011850D02*
X014003Y011850D01*
X014015Y011791D02*
X015984Y011791D01*
X016031Y011850D02*
X016042Y011850D01*
X015778Y011733D02*
X014015Y011733D01*
X013997Y011674D02*
X015719Y011674D01*
X015661Y011616D02*
X013969Y011616D01*
X013910Y011557D02*
X015655Y011557D01*
X015655Y011499D02*
X011324Y011499D01*
X011383Y011557D02*
X013600Y011557D01*
X013541Y011616D02*
X011441Y011616D01*
X011500Y011674D02*
X013513Y011674D01*
X013495Y011733D02*
X011558Y011733D01*
X011617Y011791D02*
X013495Y011791D01*
X013507Y011850D02*
X011675Y011850D01*
X011734Y011908D02*
X013531Y011908D01*
X013584Y011967D02*
X011792Y011967D01*
X011406Y012318D02*
X008855Y012318D01*
X008855Y012360D02*
X008855Y012173D01*
X008723Y012042D01*
X008605Y012042D01*
X008605Y011923D01*
X008548Y011867D01*
X008723Y011867D01*
X008818Y011772D01*
X008912Y011867D01*
X009098Y011867D01*
X009230Y011735D01*
X009230Y011548D01*
X009098Y011417D01*
X008912Y011417D01*
X008818Y011511D01*
X008723Y011417D01*
X008537Y011417D01*
X008405Y011548D01*
X008405Y011735D01*
X008462Y011792D01*
X008287Y011792D01*
X008155Y011923D01*
X008155Y012110D01*
X008287Y012242D01*
X008405Y012242D01*
X008405Y012360D01*
X008537Y012492D01*
X008723Y012492D01*
X008855Y012360D01*
X008839Y012376D02*
X011465Y012376D01*
X011523Y012435D02*
X008780Y012435D01*
X008855Y012259D02*
X011348Y012259D01*
X011289Y012201D02*
X008855Y012201D01*
X008824Y012142D02*
X011231Y012142D01*
X011172Y012084D02*
X008765Y012084D01*
X008605Y012025D02*
X011114Y012025D01*
X011055Y011967D02*
X008605Y011967D01*
X008590Y011908D02*
X010997Y011908D01*
X010938Y011850D02*
X009115Y011850D01*
X009174Y011791D02*
X010880Y011791D01*
X010821Y011733D02*
X009230Y011733D01*
X009230Y011674D02*
X010763Y011674D01*
X010704Y011616D02*
X009230Y011616D01*
X009230Y011557D02*
X010646Y011557D01*
X010587Y011499D02*
X009180Y011499D01*
X009122Y011440D02*
X010529Y011440D01*
X010470Y011382D02*
X003410Y011382D01*
X003410Y011440D02*
X008513Y011440D01*
X008455Y011499D02*
X003410Y011499D01*
X003410Y011557D02*
X008405Y011557D01*
X008405Y011616D02*
X003410Y011616D01*
X003410Y011674D02*
X008405Y011674D01*
X008405Y011733D02*
X003410Y011733D01*
X003410Y011791D02*
X008461Y011791D01*
X008229Y011850D02*
X003410Y011850D01*
X003410Y011908D02*
X008170Y011908D01*
X008155Y011967D02*
X003410Y011967D01*
X003410Y012025D02*
X008155Y012025D01*
X008155Y012084D02*
X003410Y012084D01*
X003410Y012142D02*
X008187Y012142D01*
X008246Y012201D02*
X003410Y012201D01*
X003410Y012259D02*
X008405Y012259D01*
X008405Y012318D02*
X003410Y012318D01*
X003410Y012376D02*
X008421Y012376D01*
X008480Y012435D02*
X006118Y012435D01*
X006099Y012416D02*
X006231Y012547D01*
X006231Y012734D01*
X006099Y012866D01*
X005913Y012866D01*
X005781Y012734D01*
X005781Y012547D01*
X005913Y012416D01*
X006099Y012416D01*
X006177Y012493D02*
X011582Y012493D01*
X011640Y012552D02*
X006231Y012552D01*
X006231Y012610D02*
X011699Y012610D01*
X011757Y012669D02*
X006231Y012669D01*
X006231Y012727D02*
X011816Y012727D01*
X011874Y012786D02*
X006179Y012786D01*
X006121Y012844D02*
X011905Y012844D01*
X011905Y012903D02*
X003410Y012903D01*
X003410Y012961D02*
X011944Y012961D01*
X012002Y013020D02*
X003410Y013020D01*
X003410Y013078D02*
X014811Y013078D01*
X014780Y013020D02*
X012258Y013020D01*
X012316Y012961D02*
X014780Y012961D01*
X014741Y012903D02*
X012355Y012903D01*
X012355Y012844D02*
X014683Y012844D01*
X014624Y012786D02*
X012355Y012786D01*
X012346Y012727D02*
X014566Y012727D01*
X014507Y012669D02*
X012288Y012669D01*
X012778Y013137D02*
X003410Y013137D01*
X003410Y013195D02*
X012650Y013195D01*
X012591Y013254D02*
X003410Y013254D01*
X003410Y013312D02*
X012543Y013312D01*
X012518Y013371D02*
X003410Y013371D01*
X003410Y013429D02*
X012494Y013429D01*
X012490Y013488D02*
X003410Y013488D01*
X003393Y013546D02*
X012490Y013546D01*
X012494Y013605D02*
X000310Y013605D01*
X000310Y013663D02*
X012519Y013663D01*
X012543Y013722D02*
X000310Y013722D01*
X000311Y013780D02*
X012592Y013780D01*
X012651Y013839D02*
X000320Y013839D01*
X000344Y013897D02*
X012780Y013897D01*
X012980Y013897D02*
X013430Y013897D01*
X013344Y013839D02*
X013109Y013839D01*
X013168Y013780D02*
X013290Y013780D01*
X013252Y013722D02*
X013217Y013722D01*
X013600Y013722D02*
X013660Y013722D01*
X013660Y013780D02*
X013600Y013780D01*
X013600Y013839D02*
X013660Y013839D01*
X013660Y013897D02*
X013600Y013897D01*
X013830Y013897D02*
X014280Y013897D01*
X014151Y013839D02*
X013916Y013839D01*
X013970Y013780D02*
X014092Y013780D01*
X014043Y013722D02*
X014008Y013722D01*
X013660Y013663D02*
X013600Y013663D01*
X013600Y013605D02*
X013660Y013605D01*
X013660Y013429D02*
X013600Y013429D01*
X013600Y013371D02*
X013660Y013371D01*
X013660Y013312D02*
X013600Y013312D01*
X013600Y013254D02*
X013660Y013254D01*
X013660Y013195D02*
X013600Y013195D01*
X013600Y013137D02*
X013660Y013137D01*
X013831Y013137D02*
X014278Y013137D01*
X014150Y013195D02*
X013917Y013195D01*
X013970Y013254D02*
X014091Y013254D01*
X014043Y013312D02*
X014008Y013312D01*
X014482Y013137D02*
X014869Y013137D01*
X014669Y013254D02*
X018799Y013254D01*
X018748Y013195D02*
X014610Y013195D01*
X014717Y013312D02*
X018857Y013312D01*
X018748Y013137D02*
X015141Y013137D01*
X015199Y013078D02*
X018748Y013078D01*
X018748Y013020D02*
X015230Y013020D01*
X015230Y012961D02*
X018802Y012961D01*
X018861Y012903D02*
X015230Y012903D01*
X015213Y012844D02*
X021405Y012844D01*
X021405Y012786D02*
X015155Y012786D01*
X014990Y012727D02*
X021405Y012727D01*
X021410Y012669D02*
X014932Y012669D01*
X014873Y012610D02*
X021468Y012610D01*
X021527Y012552D02*
X014815Y012552D01*
X014756Y012493D02*
X025016Y012493D01*
X024995Y012435D02*
X014698Y012435D01*
X014639Y012376D02*
X024995Y012376D01*
X025004Y012318D02*
X017085Y012318D01*
X017143Y012259D02*
X025028Y012259D01*
X025047Y012552D02*
X021733Y012552D01*
X021792Y012610D02*
X025106Y012610D01*
X025442Y012961D02*
X025629Y012961D01*
X025654Y013020D02*
X025486Y013020D01*
X025510Y013078D02*
X025678Y013078D01*
X025694Y013137D02*
X025702Y013137D01*
X025566Y013137D02*
X025515Y013137D01*
X026950Y013722D02*
X014717Y013722D01*
X014668Y013780D02*
X026949Y013780D01*
X026940Y013839D02*
X014609Y013839D01*
X014480Y013897D02*
X026916Y013897D01*
X026885Y013956D02*
X000375Y013956D01*
X000434Y014014D02*
X026826Y014014D01*
X026711Y014073D02*
X000549Y014073D01*
X003410Y012844D02*
X005891Y012844D01*
X005833Y012786D02*
X003410Y012786D01*
X003410Y012727D02*
X005781Y012727D01*
X005781Y012669D02*
X003410Y012669D01*
X003410Y012610D02*
X005781Y012610D01*
X005781Y012552D02*
X003410Y012552D01*
X003410Y012493D02*
X005835Y012493D01*
X005894Y012435D02*
X003410Y012435D01*
X003410Y011323D02*
X010412Y011323D01*
X010353Y011265D02*
X003410Y011265D01*
X003410Y011206D02*
X010295Y011206D01*
X010236Y011148D02*
X003410Y011148D01*
X003410Y011089D02*
X010178Y011089D01*
X010119Y011031D02*
X003410Y011031D01*
X003410Y010972D02*
X010061Y010972D01*
X010002Y010914D02*
X003410Y010914D01*
X003410Y010855D02*
X009944Y010855D01*
X009885Y010797D02*
X003410Y010797D01*
X003410Y010738D02*
X009827Y010738D01*
X009768Y010680D02*
X003410Y010680D01*
X003410Y010621D02*
X009710Y010621D01*
X009651Y010563D02*
X003410Y010563D01*
X003410Y010504D02*
X009593Y010504D01*
X009534Y010446D02*
X003410Y010446D01*
X003410Y010387D02*
X006656Y010387D01*
X006597Y010329D02*
X003410Y010329D01*
X003410Y010270D02*
X006539Y010270D01*
X006530Y010212D02*
X003410Y010212D01*
X003410Y010153D02*
X006530Y010153D01*
X006530Y010095D02*
X003410Y010095D01*
X003410Y010036D02*
X006569Y010036D01*
X006627Y009978D02*
X003410Y009978D01*
X003410Y009919D02*
X006581Y009919D01*
X006530Y009861D02*
X003410Y009861D01*
X003410Y009802D02*
X006530Y009802D01*
X006530Y009744D02*
X003410Y009744D01*
X003410Y009685D02*
X006530Y009685D01*
X006585Y009627D02*
X003410Y009627D01*
X003410Y008632D02*
X008615Y008632D01*
X008673Y008574D02*
X003410Y008574D01*
X003410Y008515D02*
X008732Y008515D01*
X008790Y008457D02*
X000310Y008457D01*
X000310Y008398D02*
X008849Y008398D01*
X008855Y008392D02*
X008855Y003742D01*
X008937Y003660D02*
X002292Y003660D01*
X002233Y003601D02*
X005646Y003601D01*
X005662Y003617D02*
X005530Y003485D01*
X005530Y003298D01*
X005662Y003167D01*
X005848Y003167D01*
X005980Y003298D01*
X005980Y003485D01*
X005848Y003617D01*
X005662Y003617D01*
X005588Y003543D02*
X002222Y003543D01*
X002248Y003484D02*
X005530Y003484D01*
X005530Y003426D02*
X002265Y003426D01*
X002265Y003367D02*
X005530Y003367D01*
X005530Y003309D02*
X002252Y003309D01*
X002228Y003250D02*
X005578Y003250D01*
X005637Y003192D02*
X002173Y003192D01*
X002060Y003133D02*
X006820Y003133D01*
X006780Y003173D02*
X006912Y003042D01*
X007098Y003042D01*
X007230Y003173D01*
X007230Y003360D01*
X007098Y003492D01*
X006912Y003492D01*
X006780Y003360D01*
X006780Y003173D01*
X006780Y003192D02*
X005873Y003192D01*
X005932Y003250D02*
X006780Y003250D01*
X006780Y003309D02*
X005980Y003309D01*
X005980Y003367D02*
X006787Y003367D01*
X006846Y003426D02*
X005980Y003426D01*
X005980Y003484D02*
X006904Y003484D01*
X007106Y003484D02*
X009113Y003484D01*
X009136Y003426D02*
X009014Y003426D01*
X009073Y003367D02*
X009093Y003367D01*
X009054Y003543D02*
X005922Y003543D01*
X005864Y003601D02*
X008996Y003601D01*
X008821Y003426D02*
X008384Y003426D01*
X008381Y003429D02*
X008194Y003429D01*
X008062Y003297D01*
X008062Y003111D01*
X008194Y002979D01*
X008381Y002979D01*
X008512Y003111D01*
X008512Y003297D01*
X008381Y003429D01*
X008443Y003367D02*
X008762Y003367D01*
X008704Y003309D02*
X008501Y003309D01*
X008512Y003250D02*
X008692Y003250D01*
X008692Y003192D02*
X008512Y003192D01*
X008512Y003133D02*
X008692Y003133D01*
X008729Y003075D02*
X008476Y003075D01*
X008418Y003016D02*
X008787Y003016D01*
X009405Y002841D02*
X000310Y002841D01*
X000310Y002899D02*
X001536Y002899D01*
X001446Y002958D02*
X000310Y002958D01*
X000310Y003016D02*
X001401Y003016D01*
X001376Y003075D02*
X000310Y003075D01*
X000310Y003133D02*
X000829Y003133D01*
X000688Y003192D02*
X000310Y003192D01*
X000310Y003250D02*
X000599Y003250D01*
X000540Y003309D02*
X000310Y003309D01*
X000310Y003367D02*
X000482Y003367D01*
X000440Y003426D02*
X000310Y003426D01*
X000310Y003484D02*
X000416Y003484D01*
X000392Y003543D02*
X000310Y003543D01*
X000310Y003601D02*
X000367Y003601D01*
X000353Y003660D02*
X000310Y003660D01*
X000310Y003718D02*
X000353Y003718D01*
X000353Y003777D02*
X000310Y003777D01*
X000310Y003835D02*
X000353Y003835D01*
X000353Y003894D02*
X000310Y003894D01*
X000310Y003952D02*
X000376Y003952D01*
X000400Y004011D02*
X000310Y004011D01*
X000310Y004069D02*
X000424Y004069D01*
X000448Y004128D02*
X000310Y004128D01*
X000310Y004186D02*
X000502Y004186D01*
X000560Y004245D02*
X000310Y004245D01*
X000310Y004303D02*
X000619Y004303D01*
X000736Y004362D02*
X000310Y004362D01*
X000310Y004420D02*
X001370Y004420D01*
X001370Y004362D02*
X001274Y004362D01*
X001385Y004479D02*
X000310Y004479D01*
X000310Y004537D02*
X001409Y004537D01*
X001466Y004596D02*
X000310Y004596D01*
X000310Y004654D02*
X001920Y004654D01*
X001905Y004596D02*
X001794Y004596D01*
X001851Y004537D02*
X001905Y004537D01*
X001905Y004479D02*
X001875Y004479D01*
X001890Y004420D02*
X001938Y004420D01*
X002211Y004303D02*
X002398Y004303D01*
X002339Y004245D02*
X002244Y004245D01*
X002265Y004186D02*
X002281Y004186D01*
X002264Y004362D02*
X004996Y004362D01*
X004938Y004420D02*
X002322Y004420D01*
X002355Y004479D02*
X004905Y004479D01*
X004905Y004537D02*
X002355Y004537D01*
X002355Y004596D02*
X004905Y004596D01*
X004920Y004654D02*
X002340Y004654D01*
X002037Y004771D02*
X000310Y004771D01*
X000310Y004713D02*
X001978Y004713D01*
X001777Y004921D02*
X001682Y004882D01*
X001578Y004882D01*
X001483Y004921D01*
X001410Y004994D01*
X001370Y005090D01*
X001370Y005193D01*
X001381Y005220D01*
X001375Y005214D01*
X001135Y005114D01*
X000875Y005114D01*
X000635Y005214D01*
X000452Y005397D01*
X000353Y005637D01*
X000353Y005896D01*
X000452Y006136D01*
X000635Y006320D01*
X000875Y006419D01*
X001135Y006419D01*
X001375Y006320D01*
X001381Y006313D01*
X001370Y006340D01*
X001370Y006443D01*
X001410Y006539D01*
X001483Y006612D01*
X001578Y006652D01*
X001682Y006652D01*
X001777Y006612D01*
X001850Y006539D01*
X001890Y006443D01*
X001890Y006375D01*
X001953Y006402D01*
X002057Y006402D01*
X002152Y006362D01*
X002225Y006289D01*
X002265Y006193D01*
X002265Y006090D01*
X002225Y005994D01*
X002152Y005921D01*
X002057Y005882D01*
X001953Y005882D01*
X001858Y005921D01*
X001785Y005994D01*
X001745Y006090D01*
X001745Y006158D01*
X001682Y006132D01*
X001578Y006132D01*
X001552Y006143D01*
X001558Y006136D01*
X001657Y005896D01*
X001657Y005637D01*
X001558Y005397D01*
X001552Y005391D01*
X001578Y005402D01*
X001682Y005402D01*
X001745Y005375D01*
X001745Y005443D01*
X001785Y005539D01*
X001858Y005612D01*
X001953Y005652D01*
X002057Y005652D01*
X002152Y005612D01*
X002225Y005539D01*
X002265Y005443D01*
X002265Y005340D01*
X002225Y005244D01*
X002152Y005171D01*
X002057Y005132D01*
X001953Y005132D01*
X001890Y005158D01*
X001890Y005090D01*
X001850Y004994D01*
X001777Y004921D01*
X001803Y004947D02*
X008855Y004947D01*
X008855Y005005D02*
X001855Y005005D01*
X001879Y005064D02*
X008855Y005064D01*
X008855Y005122D02*
X001890Y005122D01*
X002162Y005181D02*
X008855Y005181D01*
X008855Y005239D02*
X002220Y005239D01*
X002247Y005298D02*
X008855Y005298D01*
X008855Y005356D02*
X002265Y005356D01*
X002265Y005415D02*
X008855Y005415D01*
X008855Y005473D02*
X002253Y005473D01*
X002228Y005532D02*
X008855Y005532D01*
X008855Y005590D02*
X002174Y005590D01*
X002064Y005649D02*
X008855Y005649D01*
X008855Y005707D02*
X001657Y005707D01*
X001657Y005649D02*
X001946Y005649D01*
X001836Y005590D02*
X001638Y005590D01*
X001614Y005532D02*
X001782Y005532D01*
X001757Y005473D02*
X001590Y005473D01*
X001565Y005415D02*
X001745Y005415D01*
X001657Y005766D02*
X008855Y005766D01*
X008855Y005824D02*
X001657Y005824D01*
X001657Y005883D02*
X001951Y005883D01*
X002059Y005883D02*
X008855Y005883D01*
X008855Y005941D02*
X002172Y005941D01*
X002228Y006000D02*
X008855Y006000D01*
X008855Y006058D02*
X002252Y006058D01*
X002265Y006117D02*
X008855Y006117D01*
X008855Y006175D02*
X002265Y006175D01*
X002248Y006234D02*
X008855Y006234D01*
X008855Y006292D02*
X002222Y006292D01*
X002164Y006351D02*
X005007Y006351D01*
X005037Y006321D02*
X005223Y006321D01*
X005355Y006453D01*
X005355Y006639D01*
X005223Y006771D01*
X005037Y006771D01*
X004905Y006639D01*
X004905Y006453D01*
X005037Y006321D01*
X004949Y006409D02*
X001890Y006409D01*
X001880Y006468D02*
X004905Y006468D01*
X004905Y006526D02*
X001856Y006526D01*
X001805Y006585D02*
X004905Y006585D01*
X004909Y006643D02*
X001702Y006643D01*
X001558Y006643D02*
X000310Y006643D01*
X000310Y006585D02*
X001455Y006585D01*
X001404Y006526D02*
X000310Y006526D01*
X000310Y006468D02*
X001380Y006468D01*
X001370Y006409D02*
X001159Y006409D01*
X001300Y006351D02*
X001370Y006351D01*
X001566Y006117D02*
X001745Y006117D01*
X001758Y006058D02*
X001591Y006058D01*
X001615Y006000D02*
X001782Y006000D01*
X001838Y005941D02*
X001639Y005941D01*
X000851Y006409D02*
X000310Y006409D01*
X000310Y006351D02*
X000710Y006351D01*
X000608Y006292D02*
X000310Y006292D01*
X000310Y006234D02*
X000549Y006234D01*
X000491Y006175D02*
X000310Y006175D01*
X000310Y006117D02*
X000444Y006117D01*
X000419Y006058D02*
X000310Y006058D01*
X000310Y006000D02*
X000395Y006000D01*
X000371Y005941D02*
X000310Y005941D01*
X000310Y005883D02*
X000353Y005883D01*
X000353Y005824D02*
X000310Y005824D01*
X000310Y005766D02*
X000353Y005766D01*
X000353Y005707D02*
X000310Y005707D01*
X000310Y005649D02*
X000353Y005649D01*
X000372Y005590D02*
X000310Y005590D01*
X000310Y005532D02*
X000396Y005532D01*
X000420Y005473D02*
X000310Y005473D01*
X000310Y005415D02*
X000445Y005415D01*
X000493Y005356D02*
X000310Y005356D01*
X000310Y005298D02*
X000551Y005298D01*
X000610Y005239D02*
X000310Y005239D01*
X000310Y005181D02*
X000715Y005181D01*
X000856Y005122D02*
X000310Y005122D01*
X000310Y005064D02*
X001381Y005064D01*
X001370Y005122D02*
X001154Y005122D01*
X001295Y005181D02*
X001370Y005181D01*
X001405Y005005D02*
X000310Y005005D01*
X000310Y004947D02*
X001457Y004947D01*
X001563Y004888D02*
X000310Y004888D01*
X000310Y004830D02*
X008855Y004830D01*
X008855Y004888D02*
X001697Y004888D01*
X001370Y003192D02*
X001322Y003192D01*
X001370Y003133D02*
X001181Y003133D01*
X001724Y002899D02*
X009444Y002899D01*
X009503Y002958D02*
X001814Y002958D01*
X001859Y003016D02*
X008157Y003016D01*
X008099Y003075D02*
X007131Y003075D01*
X007190Y003133D02*
X008062Y003133D01*
X008062Y003192D02*
X007230Y003192D01*
X007230Y003250D02*
X008062Y003250D01*
X008074Y003309D02*
X007230Y003309D01*
X007223Y003367D02*
X008132Y003367D01*
X008191Y003426D02*
X007164Y003426D01*
X006879Y003075D02*
X001884Y003075D01*
X001890Y003133D02*
X001950Y003133D01*
X001989Y002724D02*
X000310Y002724D01*
X000310Y002782D02*
X009405Y002782D01*
X009405Y002724D02*
X005271Y002724D01*
X005223Y002771D02*
X005037Y002771D01*
X004905Y002639D01*
X004905Y002453D01*
X005037Y002321D01*
X005223Y002321D01*
X005355Y002453D01*
X005355Y002639D01*
X005223Y002771D01*
X005329Y002665D02*
X009413Y002665D01*
X009472Y002607D02*
X005733Y002607D01*
X005792Y002548D02*
X009530Y002548D01*
X008855Y004011D02*
X007025Y004011D01*
X007083Y004069D02*
X008855Y004069D01*
X009467Y004128D02*
X009774Y004128D01*
X009716Y004186D02*
X009467Y004186D01*
X009467Y004245D02*
X009657Y004245D01*
X009599Y004303D02*
X009467Y004303D01*
X009467Y004362D02*
X009540Y004362D01*
X009482Y004420D02*
X009467Y004420D01*
X009467Y004479D02*
X009480Y004479D01*
X009480Y004537D02*
X009467Y004537D01*
X009467Y004596D02*
X009480Y004596D01*
X009480Y004654D02*
X009467Y004654D01*
X009467Y004713D02*
X009480Y004713D01*
X009480Y004771D02*
X009467Y004771D01*
X009467Y004830D02*
X009480Y004830D01*
X009480Y004888D02*
X009467Y004888D01*
X009467Y004947D02*
X009480Y004947D01*
X009480Y005005D02*
X009467Y005005D01*
X009467Y005064D02*
X009480Y005064D01*
X009480Y005122D02*
X009467Y005122D01*
X009467Y005181D02*
X009480Y005181D01*
X009480Y005239D02*
X009467Y005239D01*
X009467Y005298D02*
X009480Y005298D01*
X009480Y005356D02*
X009467Y005356D01*
X009467Y005415D02*
X009480Y005415D01*
X009480Y005473D02*
X009467Y005473D01*
X009467Y005532D02*
X009480Y005532D01*
X009480Y005590D02*
X009467Y005590D01*
X009467Y005649D02*
X009480Y005649D01*
X009480Y005707D02*
X009467Y005707D01*
X009467Y005766D02*
X009480Y005766D01*
X009480Y005824D02*
X009467Y005824D01*
X009467Y005883D02*
X009480Y005883D01*
X009480Y005941D02*
X009467Y005941D01*
X009467Y006000D02*
X009480Y006000D01*
X009480Y006058D02*
X009467Y006058D01*
X009467Y006117D02*
X009480Y006117D01*
X009480Y006175D02*
X009467Y006175D01*
X009467Y006234D02*
X009480Y006234D01*
X009480Y006292D02*
X009467Y006292D01*
X009467Y006351D02*
X009480Y006351D01*
X009480Y006409D02*
X009467Y006409D01*
X009467Y006468D02*
X009480Y006468D01*
X009480Y006526D02*
X009467Y006526D01*
X009467Y006585D02*
X009480Y006585D01*
X009480Y006643D02*
X009467Y006643D01*
X009467Y006702D02*
X009480Y006702D01*
X009480Y006760D02*
X009467Y006760D01*
X009467Y006819D02*
X009480Y006819D01*
X009480Y006877D02*
X009467Y006877D01*
X009467Y006936D02*
X009480Y006936D01*
X009480Y006994D02*
X009467Y006994D01*
X009467Y007053D02*
X009480Y007053D01*
X009480Y007111D02*
X009467Y007111D01*
X009467Y007170D02*
X009480Y007170D01*
X009480Y007228D02*
X009467Y007228D01*
X009467Y007287D02*
X009480Y007287D01*
X009480Y007345D02*
X009467Y007345D01*
X009467Y007404D02*
X009480Y007404D01*
X009480Y007462D02*
X009467Y007462D01*
X009467Y007521D02*
X009480Y007521D01*
X009480Y007579D02*
X009467Y007579D01*
X009467Y007638D02*
X009480Y007638D01*
X009480Y007696D02*
X009467Y007696D01*
X009467Y007755D02*
X009480Y007755D01*
X009480Y007813D02*
X009467Y007813D01*
X009467Y007872D02*
X009480Y007872D01*
X009480Y007930D02*
X009467Y007930D01*
X009467Y007989D02*
X009480Y007989D01*
X009480Y008047D02*
X009467Y008047D01*
X009467Y008106D02*
X009480Y008106D01*
X009480Y008164D02*
X009467Y008164D01*
X009467Y008223D02*
X009480Y008223D01*
X009480Y008281D02*
X009467Y008281D01*
X009467Y008340D02*
X009480Y008340D01*
X009480Y008398D02*
X009467Y008398D01*
X009467Y008457D02*
X009480Y008457D01*
X009480Y008515D02*
X009467Y008515D01*
X009467Y008574D02*
X009480Y008574D01*
X009480Y008632D02*
X009467Y008632D01*
X009467Y008691D02*
X009480Y008691D01*
X009480Y008749D02*
X009467Y008749D01*
X009467Y008808D02*
X009480Y008808D01*
X009480Y008866D02*
X009438Y008866D01*
X009474Y008925D02*
X009379Y008925D01*
X009415Y008983D02*
X009321Y008983D01*
X009357Y009042D02*
X009262Y009042D01*
X009298Y009100D02*
X009204Y009100D01*
X009240Y009159D02*
X009145Y009159D01*
X009181Y009217D02*
X009087Y009217D01*
X009123Y009276D02*
X009028Y009276D01*
X009064Y009334D02*
X008970Y009334D01*
X009006Y009393D02*
X008911Y009393D01*
X008947Y009451D02*
X008853Y009451D01*
X008889Y009510D02*
X008794Y009510D01*
X008830Y009568D02*
X008736Y009568D01*
X008772Y009627D02*
X008677Y009627D01*
X008713Y009685D02*
X008619Y009685D01*
X008655Y009744D02*
X008560Y009744D01*
X008596Y009802D02*
X008502Y009802D01*
X008538Y009861D02*
X008443Y009861D01*
X008479Y009919D02*
X008385Y009919D01*
X008421Y009978D02*
X006883Y009978D01*
X006913Y010329D02*
X009311Y010329D01*
X009280Y010270D02*
X008553Y010270D01*
X008611Y010212D02*
X009280Y010212D01*
X009280Y010153D02*
X008670Y010153D01*
X008728Y010095D02*
X009296Y010095D01*
X009355Y010036D02*
X008787Y010036D01*
X008845Y009978D02*
X009648Y009978D01*
X009655Y010036D02*
X009668Y010036D01*
X009593Y009919D02*
X008904Y009919D01*
X008962Y009861D02*
X009593Y009861D01*
X009593Y009802D02*
X009021Y009802D01*
X009079Y009744D02*
X009593Y009744D01*
X009643Y009685D02*
X009138Y009685D01*
X009196Y009627D02*
X009702Y009627D01*
X009933Y009627D02*
X011984Y009627D01*
X011926Y009568D02*
X009255Y009568D01*
X009313Y009510D02*
X011905Y009510D01*
X011905Y009451D02*
X009372Y009451D01*
X009430Y009393D02*
X011313Y009393D01*
X011349Y009429D02*
X011218Y009297D01*
X011218Y009111D01*
X011349Y008979D01*
X011536Y008979D01*
X011667Y009111D01*
X011667Y009297D01*
X011536Y009429D01*
X011349Y009429D01*
X011254Y009334D02*
X009489Y009334D01*
X009547Y009276D02*
X011218Y009276D01*
X011218Y009217D02*
X009606Y009217D01*
X009664Y009159D02*
X011218Y009159D01*
X011228Y009100D02*
X009723Y009100D01*
X009780Y009042D02*
X011287Y009042D01*
X011345Y008983D02*
X009780Y008983D01*
X009780Y008925D02*
X011905Y008925D01*
X011905Y008983D02*
X011540Y008983D01*
X011598Y009042D02*
X011962Y009042D01*
X012020Y009100D02*
X011657Y009100D01*
X011667Y009276D02*
X011990Y009276D01*
X011932Y009334D02*
X011631Y009334D01*
X011572Y009393D02*
X011905Y009393D01*
X011905Y008866D02*
X009780Y008866D01*
X009780Y008808D02*
X011905Y008808D01*
X011954Y008749D02*
X009780Y008749D01*
X009780Y008691D02*
X012013Y008691D01*
X012247Y008691D02*
X014119Y008691D01*
X014061Y008632D02*
X009780Y008632D01*
X009780Y008574D02*
X014002Y008574D01*
X013944Y008515D02*
X009780Y008515D01*
X009780Y008457D02*
X013885Y008457D01*
X013827Y008398D02*
X009780Y008398D01*
X009780Y008340D02*
X013768Y008340D01*
X013710Y008281D02*
X009780Y008281D01*
X009780Y008223D02*
X013651Y008223D01*
X013593Y008164D02*
X009780Y008164D01*
X009780Y008106D02*
X013534Y008106D01*
X013476Y008047D02*
X009780Y008047D01*
X009780Y007989D02*
X013417Y007989D01*
X013359Y007930D02*
X009780Y007930D01*
X009780Y007872D02*
X013300Y007872D01*
X013242Y007813D02*
X009780Y007813D01*
X009780Y007755D02*
X010005Y007755D01*
X009946Y007696D02*
X009780Y007696D01*
X009780Y007638D02*
X009922Y007638D01*
X009922Y007579D02*
X009780Y007579D01*
X009780Y007521D02*
X009922Y007521D01*
X009828Y007462D02*
X009780Y007462D01*
X010290Y007755D02*
X013183Y007755D01*
X013374Y007521D02*
X014327Y007521D01*
X014385Y007579D02*
X013432Y007579D01*
X013491Y007638D02*
X014444Y007638D01*
X014502Y007696D02*
X013549Y007696D01*
X013608Y007755D02*
X014561Y007755D01*
X014619Y007813D02*
X013666Y007813D01*
X013725Y007872D02*
X014678Y007872D01*
X014736Y007930D02*
X013783Y007930D01*
X013842Y007989D02*
X014795Y007989D01*
X014853Y008047D02*
X013900Y008047D01*
X013959Y008106D02*
X014912Y008106D01*
X014970Y008164D02*
X014017Y008164D01*
X014868Y007638D02*
X017787Y007638D01*
X017768Y007579D02*
X014810Y007579D01*
X014751Y007521D02*
X017768Y007521D01*
X017778Y007462D02*
X016003Y007462D01*
X016061Y007404D02*
X017802Y007404D01*
X017854Y007345D02*
X016105Y007345D01*
X015984Y007053D02*
X025963Y007053D01*
X025822Y006994D02*
X009780Y006994D01*
X009780Y006936D02*
X025682Y006936D01*
X025623Y006877D02*
X009780Y006877D01*
X009780Y006819D02*
X025565Y006819D01*
X025506Y006760D02*
X009780Y006760D01*
X009780Y007053D02*
X009846Y007053D01*
X009788Y007111D02*
X009780Y007111D01*
X010055Y007053D02*
X015776Y007053D01*
X015717Y007111D02*
X010113Y007111D01*
X008855Y007111D02*
X000310Y007111D01*
X000310Y007053D02*
X008855Y007053D01*
X008855Y006994D02*
X000310Y006994D01*
X000310Y006936D02*
X008855Y006936D01*
X008855Y006877D02*
X000310Y006877D01*
X000310Y006819D02*
X008855Y006819D01*
X008855Y006760D02*
X005234Y006760D01*
X005293Y006702D02*
X008855Y006702D01*
X008855Y006643D02*
X005351Y006643D01*
X005355Y006585D02*
X008855Y006585D01*
X008855Y006526D02*
X005355Y006526D01*
X005355Y006468D02*
X008855Y006468D01*
X008855Y006409D02*
X005311Y006409D01*
X005253Y006351D02*
X008855Y006351D01*
X008855Y007170D02*
X000310Y007170D01*
X000310Y007228D02*
X008855Y007228D01*
X008855Y007287D02*
X000310Y007287D01*
X000310Y007345D02*
X008855Y007345D01*
X008855Y007404D02*
X000310Y007404D01*
X000310Y007462D02*
X008855Y007462D01*
X008855Y007521D02*
X000310Y007521D01*
X000310Y007579D02*
X008855Y007579D01*
X008855Y007638D02*
X000310Y007638D01*
X000310Y007696D02*
X008855Y007696D01*
X008855Y007755D02*
X000310Y007755D01*
X000310Y007813D02*
X008855Y007813D01*
X008855Y007872D02*
X000310Y007872D01*
X000310Y007930D02*
X008855Y007930D01*
X008855Y007989D02*
X000310Y007989D01*
X000310Y008047D02*
X008855Y008047D01*
X008855Y008106D02*
X000310Y008106D01*
X000310Y008164D02*
X008855Y008164D01*
X008855Y008223D02*
X000310Y008223D01*
X000310Y008281D02*
X008855Y008281D01*
X008855Y008340D02*
X000310Y008340D01*
X000310Y006760D02*
X005026Y006760D01*
X004967Y006702D02*
X000310Y006702D01*
X005340Y004654D02*
X008855Y004654D01*
X008855Y004596D02*
X005355Y004596D01*
X005355Y004537D02*
X008855Y004537D01*
X005532Y004362D02*
X005264Y004362D01*
X004989Y002724D02*
X002271Y002724D01*
X002329Y002665D02*
X004931Y002665D01*
X004905Y002607D02*
X002355Y002607D01*
X002355Y002548D02*
X004905Y002548D01*
X004905Y002490D02*
X002355Y002490D01*
X002333Y002431D02*
X004927Y002431D01*
X004985Y002373D02*
X002275Y002373D01*
X002200Y002314D02*
X005284Y002314D01*
X005275Y002373D02*
X005342Y002373D01*
X005333Y002431D02*
X005401Y002431D01*
X005410Y002490D02*
X005355Y002490D01*
X005355Y002548D02*
X005468Y002548D01*
X005527Y002607D02*
X005355Y002607D01*
X005225Y002256D02*
X002239Y002256D01*
X002263Y002197D02*
X005167Y002197D01*
X005108Y002139D02*
X002265Y002139D01*
X002261Y002080D02*
X005050Y002080D01*
X004991Y002022D02*
X002237Y002022D01*
X002194Y001963D02*
X004933Y001963D01*
X005295Y001788D02*
X011780Y001788D01*
X011780Y001846D02*
X005353Y001846D01*
X005412Y001905D02*
X011780Y001905D01*
X011821Y001963D02*
X005470Y001963D01*
X005529Y002022D02*
X011879Y002022D01*
X011968Y002080D02*
X005587Y002080D01*
X005646Y002139D02*
X011968Y002139D01*
X011992Y002197D02*
X005754Y002197D01*
X005812Y002256D02*
X012051Y002256D01*
X012334Y002256D02*
X012613Y002256D01*
X012555Y002197D02*
X012393Y002197D01*
X012417Y002139D02*
X012530Y002139D01*
X012530Y002080D02*
X012417Y002080D01*
X012506Y002022D02*
X012530Y002022D01*
X012605Y001905D02*
X012611Y001905D01*
X012605Y001846D02*
X012718Y001846D01*
X012718Y001788D02*
X012605Y001788D01*
X012598Y001729D02*
X012724Y001729D01*
X012783Y001671D02*
X012540Y001671D01*
X012481Y001612D02*
X012841Y001612D01*
X013044Y001612D02*
X013404Y001612D01*
X013345Y001671D02*
X013102Y001671D01*
X013161Y001729D02*
X013287Y001729D01*
X013280Y001788D02*
X013167Y001788D01*
X013167Y001846D02*
X013280Y001846D01*
X013274Y001905D02*
X013280Y001905D01*
X013355Y002022D02*
X013379Y002022D01*
X013355Y002080D02*
X013468Y002080D01*
X013468Y002139D02*
X013355Y002139D01*
X013330Y002197D02*
X013492Y002197D01*
X013551Y002256D02*
X013272Y002256D01*
X012988Y002256D02*
X012897Y002256D01*
X013834Y002256D02*
X014113Y002256D01*
X014055Y002197D02*
X013893Y002197D01*
X013917Y002139D02*
X014030Y002139D01*
X014030Y002080D02*
X013917Y002080D01*
X014006Y002022D02*
X014030Y002022D01*
X014105Y001905D02*
X014111Y001905D01*
X014105Y001846D02*
X014218Y001846D01*
X014218Y001788D02*
X014105Y001788D01*
X014098Y001729D02*
X014224Y001729D01*
X014283Y001671D02*
X014040Y001671D01*
X013981Y001612D02*
X014341Y001612D01*
X014544Y001612D02*
X014904Y001612D01*
X014845Y001671D02*
X014602Y001671D01*
X014661Y001729D02*
X014787Y001729D01*
X014780Y001788D02*
X014667Y001788D01*
X014667Y001846D02*
X014780Y001846D01*
X014774Y001905D02*
X014780Y001905D01*
X014855Y002022D02*
X014879Y002022D01*
X014855Y002080D02*
X014968Y002080D01*
X014968Y002139D02*
X014855Y002139D01*
X014830Y002197D02*
X014992Y002197D01*
X015051Y002256D02*
X014772Y002256D01*
X014488Y002256D02*
X014397Y002256D01*
X013779Y001612D02*
X013606Y001612D01*
X013665Y001671D02*
X013720Y001671D01*
X013760Y001027D02*
X013625Y001027D01*
X013684Y000969D02*
X013701Y000969D01*
X014000Y001027D02*
X014322Y001027D01*
X014264Y000969D02*
X014059Y000969D01*
X014105Y000910D02*
X014218Y000910D01*
X014218Y000852D02*
X014105Y000852D01*
X014105Y000793D02*
X014151Y000793D01*
X014563Y001027D02*
X014885Y001027D01*
X014826Y000969D02*
X014621Y000969D01*
X014667Y000910D02*
X014780Y000910D01*
X014780Y000852D02*
X014667Y000852D01*
X014734Y000793D02*
X014780Y000793D01*
X015125Y001027D02*
X015260Y001027D01*
X015201Y000969D02*
X015184Y000969D01*
X015500Y001027D02*
X015822Y001027D01*
X015764Y000969D02*
X015559Y000969D01*
X015605Y000910D02*
X015718Y000910D01*
X015718Y000852D02*
X015605Y000852D01*
X015605Y000793D02*
X015651Y000793D01*
X016063Y001027D02*
X016385Y001027D01*
X016326Y000969D02*
X016121Y000969D01*
X016167Y000910D02*
X016280Y000910D01*
X016280Y000852D02*
X016167Y000852D01*
X016234Y000793D02*
X016280Y000793D01*
X016625Y001027D02*
X016760Y001027D01*
X016701Y000969D02*
X016684Y000969D01*
X017000Y001027D02*
X017322Y001027D01*
X017264Y000969D02*
X017059Y000969D01*
X017105Y000910D02*
X017218Y000910D01*
X017218Y000852D02*
X017105Y000852D01*
X017105Y000793D02*
X017151Y000793D01*
X017563Y001027D02*
X017885Y001027D01*
X017826Y000969D02*
X017621Y000969D01*
X017667Y000910D02*
X017780Y000910D01*
X017780Y000852D02*
X017667Y000852D01*
X017734Y000793D02*
X017780Y000793D01*
X018125Y001027D02*
X018260Y001027D01*
X018201Y000969D02*
X018184Y000969D01*
X018500Y001027D02*
X018822Y001027D01*
X018764Y000969D02*
X018559Y000969D01*
X018605Y000910D02*
X018718Y000910D01*
X018718Y000852D02*
X018605Y000852D01*
X018605Y000793D02*
X018651Y000793D01*
X019063Y001027D02*
X019385Y001027D01*
X019326Y000969D02*
X019121Y000969D01*
X019167Y000910D02*
X019280Y000910D01*
X019280Y000852D02*
X019167Y000852D01*
X019234Y000793D02*
X019280Y000793D01*
X019625Y001027D02*
X019760Y001027D01*
X019701Y000969D02*
X019684Y000969D01*
X020000Y001027D02*
X020322Y001027D01*
X020264Y000969D02*
X020059Y000969D01*
X020105Y000910D02*
X020218Y000910D01*
X020218Y000852D02*
X020105Y000852D01*
X020105Y000793D02*
X020151Y000793D01*
X020563Y001027D02*
X020885Y001027D01*
X020826Y000969D02*
X020621Y000969D01*
X020667Y000910D02*
X020780Y000910D01*
X020780Y000852D02*
X020667Y000852D01*
X020734Y000793D02*
X020780Y000793D01*
X021125Y001027D02*
X021260Y001027D01*
X021201Y000969D02*
X021184Y000969D01*
X021500Y001027D02*
X021822Y001027D01*
X021764Y000969D02*
X021559Y000969D01*
X021605Y000910D02*
X021718Y000910D01*
X021718Y000852D02*
X021605Y000852D01*
X021605Y000793D02*
X021651Y000793D01*
X022063Y001027D02*
X022385Y001027D01*
X022326Y000969D02*
X022121Y000969D01*
X022167Y000910D02*
X022280Y000910D01*
X022280Y000852D02*
X022167Y000852D01*
X022234Y000793D02*
X022280Y000793D01*
X022625Y001027D02*
X022760Y001027D01*
X022701Y000969D02*
X022684Y000969D01*
X023000Y001027D02*
X023322Y001027D01*
X023264Y000969D02*
X023059Y000969D01*
X023105Y000910D02*
X023218Y000910D01*
X023218Y000852D02*
X023105Y000852D01*
X023105Y000793D02*
X023151Y000793D01*
X023563Y001027D02*
X023885Y001027D01*
X023826Y000969D02*
X023621Y000969D01*
X023667Y000910D02*
X023780Y000910D01*
X023780Y000852D02*
X023667Y000852D01*
X023734Y000793D02*
X023780Y000793D01*
X024125Y001027D02*
X024260Y001027D01*
X024201Y000969D02*
X024184Y000969D01*
X024500Y001027D02*
X024822Y001027D01*
X024764Y000969D02*
X024559Y000969D01*
X024605Y000910D02*
X024718Y000910D01*
X024718Y000852D02*
X024605Y000852D01*
X024605Y000793D02*
X024651Y000793D01*
X025063Y001027D02*
X025385Y001027D01*
X025326Y000969D02*
X025121Y000969D01*
X025167Y000910D02*
X025280Y000910D01*
X025280Y000852D02*
X025167Y000852D01*
X025234Y000793D02*
X025280Y000793D01*
X025625Y001027D02*
X025760Y001027D01*
X025701Y000969D02*
X025684Y000969D01*
X026000Y001027D02*
X026322Y001027D01*
X026264Y000969D02*
X026059Y000969D01*
X026105Y000910D02*
X026218Y000910D01*
X026218Y000852D02*
X026105Y000852D01*
X026105Y000793D02*
X026151Y000793D01*
X026563Y001027D02*
X026950Y001027D01*
X026950Y000969D02*
X026621Y000969D01*
X026667Y000910D02*
X026950Y000910D01*
X026950Y000852D02*
X026667Y000852D01*
X026734Y000793D02*
X026950Y000793D01*
X026947Y000735D02*
X026793Y000735D01*
X026851Y000676D02*
X026932Y000676D01*
X026908Y000618D02*
X026855Y000618D01*
X026855Y000559D02*
X026866Y000559D01*
X025779Y001612D02*
X025606Y001612D01*
X025665Y001671D02*
X025720Y001671D01*
X025404Y001612D02*
X025044Y001612D01*
X025102Y001671D02*
X025345Y001671D01*
X025287Y001729D02*
X025161Y001729D01*
X025167Y001788D02*
X025280Y001788D01*
X025280Y001846D02*
X025167Y001846D01*
X025274Y001905D02*
X025280Y001905D01*
X025355Y002022D02*
X025379Y002022D01*
X025355Y002080D02*
X025468Y002080D01*
X025468Y002139D02*
X025355Y002139D01*
X025330Y002197D02*
X025492Y002197D01*
X025551Y002256D02*
X025272Y002256D01*
X024988Y002256D02*
X024897Y002256D01*
X024613Y002256D02*
X024334Y002256D01*
X024393Y002197D02*
X024555Y002197D01*
X024530Y002139D02*
X024417Y002139D01*
X024417Y002080D02*
X024530Y002080D01*
X024530Y002022D02*
X024506Y002022D01*
X024605Y001905D02*
X024611Y001905D01*
X024605Y001846D02*
X024718Y001846D01*
X024718Y001788D02*
X024605Y001788D01*
X024598Y001729D02*
X024724Y001729D01*
X024783Y001671D02*
X024540Y001671D01*
X024481Y001612D02*
X024841Y001612D01*
X024279Y001612D02*
X024106Y001612D01*
X024165Y001671D02*
X024220Y001671D01*
X023904Y001612D02*
X023544Y001612D01*
X023602Y001671D02*
X023845Y001671D01*
X023787Y001729D02*
X023661Y001729D01*
X023667Y001788D02*
X023780Y001788D01*
X023780Y001846D02*
X023667Y001846D01*
X023774Y001905D02*
X023780Y001905D01*
X023855Y002022D02*
X023879Y002022D01*
X023855Y002080D02*
X023968Y002080D01*
X023968Y002139D02*
X023855Y002139D01*
X023830Y002197D02*
X023992Y002197D01*
X024051Y002256D02*
X023772Y002256D01*
X023488Y002256D02*
X023397Y002256D01*
X023113Y002256D02*
X022834Y002256D01*
X022893Y002197D02*
X023055Y002197D01*
X023030Y002139D02*
X022917Y002139D01*
X022917Y002080D02*
X023030Y002080D01*
X023030Y002022D02*
X023006Y002022D01*
X023105Y001905D02*
X023111Y001905D01*
X023105Y001846D02*
X023218Y001846D01*
X023218Y001788D02*
X023105Y001788D01*
X023098Y001729D02*
X023224Y001729D01*
X023283Y001671D02*
X023040Y001671D01*
X022981Y001612D02*
X023341Y001612D01*
X022779Y001612D02*
X022606Y001612D01*
X022665Y001671D02*
X022720Y001671D01*
X022404Y001612D02*
X022044Y001612D01*
X022102Y001671D02*
X022345Y001671D01*
X022287Y001729D02*
X022161Y001729D01*
X022167Y001788D02*
X022280Y001788D01*
X022280Y001846D02*
X022167Y001846D01*
X022274Y001905D02*
X022280Y001905D01*
X022355Y002022D02*
X022379Y002022D01*
X022355Y002080D02*
X022468Y002080D01*
X022468Y002139D02*
X022355Y002139D01*
X022330Y002197D02*
X022492Y002197D01*
X022551Y002256D02*
X022272Y002256D01*
X021988Y002256D02*
X021897Y002256D01*
X021613Y002256D02*
X021334Y002256D01*
X021393Y002197D02*
X021555Y002197D01*
X021530Y002139D02*
X021417Y002139D01*
X021417Y002080D02*
X021530Y002080D01*
X021530Y002022D02*
X021506Y002022D01*
X021605Y001905D02*
X021611Y001905D01*
X021605Y001846D02*
X021718Y001846D01*
X021718Y001788D02*
X021605Y001788D01*
X021598Y001729D02*
X021724Y001729D01*
X021783Y001671D02*
X021540Y001671D01*
X021481Y001612D02*
X021841Y001612D01*
X021279Y001612D02*
X021106Y001612D01*
X021165Y001671D02*
X021220Y001671D01*
X020904Y001612D02*
X020544Y001612D01*
X020602Y001671D02*
X020845Y001671D01*
X020787Y001729D02*
X020661Y001729D01*
X020667Y001788D02*
X020780Y001788D01*
X020780Y001846D02*
X020667Y001846D01*
X020774Y001905D02*
X020780Y001905D01*
X020855Y002022D02*
X020879Y002022D01*
X020855Y002080D02*
X020968Y002080D01*
X020968Y002139D02*
X020855Y002139D01*
X020830Y002197D02*
X020992Y002197D01*
X021051Y002256D02*
X020772Y002256D01*
X020488Y002256D02*
X020397Y002256D01*
X020113Y002256D02*
X019834Y002256D01*
X019893Y002197D02*
X020055Y002197D01*
X020030Y002139D02*
X019917Y002139D01*
X019917Y002080D02*
X020030Y002080D01*
X020030Y002022D02*
X020006Y002022D01*
X020105Y001905D02*
X020111Y001905D01*
X020105Y001846D02*
X020218Y001846D01*
X020218Y001788D02*
X020105Y001788D01*
X020098Y001729D02*
X020224Y001729D01*
X020283Y001671D02*
X020040Y001671D01*
X019981Y001612D02*
X020341Y001612D01*
X019779Y001612D02*
X019606Y001612D01*
X019665Y001671D02*
X019720Y001671D01*
X019404Y001612D02*
X019044Y001612D01*
X019102Y001671D02*
X019345Y001671D01*
X019287Y001729D02*
X019161Y001729D01*
X019167Y001788D02*
X019280Y001788D01*
X019280Y001846D02*
X019167Y001846D01*
X019274Y001905D02*
X019280Y001905D01*
X019355Y002022D02*
X019379Y002022D01*
X019355Y002080D02*
X019468Y002080D01*
X019468Y002139D02*
X019355Y002139D01*
X019330Y002197D02*
X019492Y002197D01*
X019551Y002256D02*
X019272Y002256D01*
X018988Y002256D02*
X018897Y002256D01*
X018613Y002256D02*
X018334Y002256D01*
X018393Y002197D02*
X018555Y002197D01*
X018530Y002139D02*
X018417Y002139D01*
X018417Y002080D02*
X018530Y002080D01*
X018530Y002022D02*
X018506Y002022D01*
X018605Y001905D02*
X018611Y001905D01*
X018605Y001846D02*
X018718Y001846D01*
X018718Y001788D02*
X018605Y001788D01*
X018598Y001729D02*
X018724Y001729D01*
X018783Y001671D02*
X018540Y001671D01*
X018481Y001612D02*
X018841Y001612D01*
X018279Y001612D02*
X018106Y001612D01*
X018165Y001671D02*
X018220Y001671D01*
X017904Y001612D02*
X017544Y001612D01*
X017602Y001671D02*
X017845Y001671D01*
X017787Y001729D02*
X017661Y001729D01*
X017667Y001788D02*
X017780Y001788D01*
X017780Y001846D02*
X017667Y001846D01*
X017774Y001905D02*
X017780Y001905D01*
X017855Y002022D02*
X017879Y002022D01*
X017855Y002080D02*
X017968Y002080D01*
X017968Y002139D02*
X017855Y002139D01*
X017830Y002197D02*
X017992Y002197D01*
X018051Y002256D02*
X017772Y002256D01*
X017488Y002256D02*
X017397Y002256D01*
X017113Y002256D02*
X016834Y002256D01*
X016893Y002197D02*
X017055Y002197D01*
X017030Y002139D02*
X016917Y002139D01*
X016917Y002080D02*
X017030Y002080D01*
X017030Y002022D02*
X017006Y002022D01*
X017105Y001905D02*
X017111Y001905D01*
X017105Y001846D02*
X017218Y001846D01*
X017218Y001788D02*
X017105Y001788D01*
X017098Y001729D02*
X017224Y001729D01*
X017283Y001671D02*
X017040Y001671D01*
X016981Y001612D02*
X017341Y001612D01*
X016779Y001612D02*
X016606Y001612D01*
X016665Y001671D02*
X016720Y001671D01*
X016404Y001612D02*
X016044Y001612D01*
X016102Y001671D02*
X016345Y001671D01*
X016287Y001729D02*
X016161Y001729D01*
X016167Y001788D02*
X016280Y001788D01*
X016280Y001846D02*
X016167Y001846D01*
X016274Y001905D02*
X016280Y001905D01*
X016355Y002022D02*
X016379Y002022D01*
X016355Y002080D02*
X016468Y002080D01*
X016468Y002139D02*
X016355Y002139D01*
X016330Y002197D02*
X016492Y002197D01*
X016551Y002256D02*
X016272Y002256D01*
X015988Y002256D02*
X015897Y002256D01*
X015613Y002256D02*
X015334Y002256D01*
X015393Y002197D02*
X015555Y002197D01*
X015530Y002139D02*
X015417Y002139D01*
X015417Y002080D02*
X015530Y002080D01*
X015530Y002022D02*
X015506Y002022D01*
X015605Y001905D02*
X015611Y001905D01*
X015605Y001846D02*
X015718Y001846D01*
X015718Y001788D02*
X015605Y001788D01*
X015598Y001729D02*
X015724Y001729D01*
X015783Y001671D02*
X015540Y001671D01*
X015481Y001612D02*
X015841Y001612D01*
X015279Y001612D02*
X015106Y001612D01*
X015165Y001671D02*
X015220Y001671D01*
X013385Y001027D02*
X013063Y001027D01*
X013121Y000969D02*
X013326Y000969D01*
X013280Y000910D02*
X013167Y000910D01*
X013167Y000852D02*
X013280Y000852D01*
X013280Y000793D02*
X013234Y000793D01*
X012822Y001027D02*
X012500Y001027D01*
X012559Y000969D02*
X012764Y000969D01*
X012718Y000910D02*
X012605Y000910D01*
X012605Y000852D02*
X012718Y000852D01*
X012651Y000793D02*
X012605Y000793D01*
X012260Y001027D02*
X012125Y001027D01*
X012184Y000969D02*
X012201Y000969D01*
X011885Y001027D02*
X011563Y001027D01*
X011621Y000969D02*
X011826Y000969D01*
X011780Y000910D02*
X011667Y000910D01*
X011667Y000852D02*
X011780Y000852D01*
X011780Y000793D02*
X011734Y000793D01*
X011322Y001027D02*
X011000Y001027D01*
X011059Y000969D02*
X011264Y000969D01*
X011218Y000910D02*
X011105Y000910D01*
X011105Y000852D02*
X011218Y000852D01*
X011151Y000793D02*
X011105Y000793D01*
X010760Y001027D02*
X010625Y001027D01*
X010684Y000969D02*
X010701Y000969D01*
X010385Y001027D02*
X010063Y001027D01*
X010121Y000969D02*
X010326Y000969D01*
X010280Y000910D02*
X010167Y000910D01*
X010167Y000852D02*
X010280Y000852D01*
X010280Y000793D02*
X010234Y000793D01*
X009822Y001027D02*
X009500Y001027D01*
X009559Y000969D02*
X009764Y000969D01*
X009718Y000910D02*
X009605Y000910D01*
X009605Y000852D02*
X009718Y000852D01*
X009651Y000793D02*
X009605Y000793D01*
X009260Y001027D02*
X009125Y001027D01*
X009184Y000969D02*
X009201Y000969D01*
X008885Y001027D02*
X008563Y001027D01*
X008621Y000969D02*
X008826Y000969D01*
X008780Y000910D02*
X008667Y000910D01*
X008667Y000852D02*
X008780Y000852D01*
X008780Y000793D02*
X008734Y000793D01*
X011787Y001729D02*
X005236Y001729D01*
X005178Y001671D02*
X011845Y001671D01*
X011904Y001612D02*
X005119Y001612D01*
X001923Y001144D02*
X001890Y001144D01*
X001435Y000969D02*
X000310Y000969D01*
X000310Y001027D02*
X001396Y001027D01*
X001372Y001086D02*
X000310Y001086D01*
X000310Y001144D02*
X000803Y001144D01*
X000662Y001203D02*
X000310Y001203D01*
X000310Y001261D02*
X000588Y001261D01*
X000529Y001320D02*
X000310Y001320D01*
X000310Y001378D02*
X000471Y001378D01*
X000435Y001437D02*
X000310Y001437D01*
X000310Y001495D02*
X000411Y001495D01*
X000387Y001554D02*
X000310Y001554D01*
X000310Y001612D02*
X000363Y001612D01*
X000353Y001671D02*
X000310Y001671D01*
X000310Y001729D02*
X000353Y001729D01*
X000353Y001788D02*
X000310Y001788D01*
X000310Y001846D02*
X000353Y001846D01*
X000356Y001905D02*
X000310Y001905D01*
X000310Y001963D02*
X000380Y001963D01*
X000404Y002022D02*
X000310Y002022D01*
X000310Y002080D02*
X000429Y002080D01*
X000454Y002139D02*
X000310Y002139D01*
X000310Y002197D02*
X000513Y002197D01*
X000571Y002256D02*
X000310Y002256D01*
X000310Y002314D02*
X000630Y002314D01*
X000763Y002373D02*
X000310Y002373D01*
X000310Y002431D02*
X001370Y002431D01*
X001370Y002373D02*
X001247Y002373D01*
X001380Y002314D02*
X001381Y002314D01*
X001389Y002490D02*
X000310Y002490D01*
X000310Y002548D02*
X001419Y002548D01*
X001477Y002607D02*
X000310Y002607D01*
X000310Y002665D02*
X001931Y002665D01*
X001905Y002607D02*
X001783Y002607D01*
X001841Y002548D02*
X001905Y002548D01*
X001905Y002490D02*
X001871Y002490D01*
X001890Y002431D02*
X001927Y002431D01*
X001374Y001203D02*
X001348Y001203D01*
X001370Y001144D02*
X001207Y001144D01*
X001509Y000910D02*
X000310Y000910D01*
X012106Y001612D02*
X012279Y001612D01*
X012220Y001671D02*
X012165Y001671D01*
X013360Y003484D02*
X025955Y003484D01*
X025813Y003543D02*
X013316Y003543D01*
X012415Y006234D02*
X014654Y006234D01*
X014712Y006292D02*
X012474Y006292D01*
X014400Y007170D02*
X015659Y007170D01*
X015655Y007228D02*
X014459Y007228D01*
X014517Y007287D02*
X015655Y007287D01*
X015655Y007345D02*
X014576Y007345D01*
X014634Y007404D02*
X015699Y007404D01*
X015757Y007462D02*
X014693Y007462D01*
X014927Y007696D02*
X017817Y007696D01*
X017875Y007755D02*
X014985Y007755D01*
X015044Y007813D02*
X021986Y007813D01*
X022037Y007762D02*
X021905Y007894D01*
X021905Y008080D01*
X022037Y008212D01*
X022223Y008212D01*
X022355Y008080D01*
X022355Y007894D01*
X022223Y007762D01*
X022037Y007762D01*
X021927Y007872D02*
X015102Y007872D01*
X015161Y007930D02*
X021905Y007930D01*
X021905Y007989D02*
X015219Y007989D01*
X015278Y008047D02*
X021905Y008047D01*
X021930Y008106D02*
X015336Y008106D01*
X015395Y008164D02*
X021989Y008164D01*
X022271Y008164D02*
X024684Y008164D01*
X024626Y008223D02*
X015453Y008223D01*
X014268Y007462D02*
X013315Y007462D01*
X017033Y009802D02*
X021997Y009802D01*
X022037Y009762D02*
X022223Y009762D01*
X022355Y009894D01*
X022355Y010080D01*
X022223Y010212D01*
X022037Y010212D01*
X021905Y010080D01*
X021905Y009894D01*
X022037Y009762D01*
X021938Y009861D02*
X017091Y009861D01*
X017150Y009919D02*
X021905Y009919D01*
X021905Y009978D02*
X017208Y009978D01*
X017267Y010036D02*
X021905Y010036D01*
X021919Y010095D02*
X017325Y010095D01*
X017384Y010153D02*
X021978Y010153D01*
X022036Y010212D02*
X017442Y010212D01*
X017501Y010270D02*
X024578Y010270D01*
X024637Y010212D02*
X022224Y010212D01*
X022282Y010153D02*
X024695Y010153D01*
X024754Y010095D02*
X022341Y010095D01*
X022355Y010036D02*
X024812Y010036D01*
X024871Y009978D02*
X022355Y009978D01*
X022355Y009919D02*
X024905Y009919D01*
X024938Y009861D02*
X022322Y009861D01*
X022263Y009802D02*
X024997Y009802D01*
X025355Y009919D02*
X025488Y009919D01*
X025426Y009978D02*
X025355Y009978D01*
X025355Y010036D02*
X025392Y010036D01*
X025370Y010095D02*
X025341Y010095D01*
X025359Y010153D02*
X025370Y010153D01*
X025515Y010387D02*
X025543Y010387D01*
X025514Y010446D02*
X025682Y010446D01*
X025657Y010504D02*
X025490Y010504D01*
X025452Y010563D02*
X025633Y010563D01*
X025609Y010621D02*
X025380Y010621D01*
X025603Y010680D02*
X024706Y010680D01*
X024765Y010621D02*
X025130Y010621D01*
X025058Y010563D02*
X024823Y010563D01*
X024882Y010504D02*
X025020Y010504D01*
X024996Y010446D02*
X024940Y010446D01*
X025882Y010212D02*
X025890Y010212D01*
X025890Y010153D02*
X026031Y010153D01*
X025821Y009568D02*
X026950Y009568D01*
X026950Y009510D02*
X025863Y009510D01*
X025890Y008164D02*
X026004Y008164D01*
X025474Y007930D02*
X025355Y007930D01*
X025355Y007989D02*
X025415Y007989D01*
X025388Y008047D02*
X025355Y008047D01*
X025370Y008106D02*
X025330Y008106D01*
X024905Y007930D02*
X022355Y007930D01*
X022355Y007989D02*
X024860Y007989D01*
X024801Y008047D02*
X022355Y008047D01*
X022330Y008106D02*
X024743Y008106D01*
X024927Y007872D02*
X022333Y007872D01*
X022274Y007813D02*
X024986Y007813D01*
X020657Y010329D02*
X017559Y010329D01*
X017618Y010387D02*
X020598Y010387D01*
X020540Y010446D02*
X017676Y010446D01*
X017735Y010504D02*
X020481Y010504D01*
X020423Y010563D02*
X017793Y010563D01*
X017852Y010621D02*
X020364Y010621D01*
X020306Y010680D02*
X017910Y010680D01*
X018075Y010738D02*
X020198Y010738D01*
X020139Y010797D02*
X018133Y010797D01*
X018167Y010855D02*
X020105Y010855D01*
X020105Y010914D02*
X018167Y010914D01*
X018167Y010972D02*
X020105Y010972D01*
X020118Y011031D02*
X018154Y011031D01*
X018096Y011089D02*
X020177Y011089D01*
X020235Y011148D02*
X018037Y011148D01*
X017167Y012201D02*
X022025Y012201D01*
X021448Y012903D02*
X019084Y012903D01*
X019143Y012961D02*
X021506Y012961D01*
X025355Y011382D02*
X025370Y011382D01*
X025515Y011148D02*
X025540Y011148D01*
X025515Y011089D02*
X025682Y011089D01*
X025658Y011031D02*
X025490Y011031D01*
X025453Y010972D02*
X025634Y010972D01*
X015755Y011323D02*
X011149Y011323D01*
X011207Y011382D02*
X015697Y011382D01*
X015655Y011440D02*
X011266Y011440D01*
X009370Y010387D02*
X006854Y010387D01*
X008747Y011440D02*
X008888Y011440D01*
X008830Y011499D02*
X008805Y011499D01*
X008799Y011791D02*
X008836Y011791D01*
X008895Y011850D02*
X008740Y011850D01*
X012982Y013137D02*
X013429Y013137D01*
X013343Y013195D02*
X013110Y013195D01*
X013169Y013254D02*
X013290Y013254D01*
X013252Y013312D02*
X013217Y013312D01*
X008855Y008392D02*
X008130Y009117D01*
X006923Y009117D01*
X006848Y009042D01*
X008205Y009042D01*
X008147Y009100D02*
X006907Y009100D01*
X006848Y009042D02*
X006662Y009042D01*
X006603Y009100D02*
X005615Y009100D01*
X005556Y009159D02*
X006545Y009159D01*
D13*
X006755Y009267D03*
X006755Y009775D03*
X006755Y010168D03*
X007380Y010767D03*
X008630Y011642D03*
X009005Y011642D03*
X009755Y011767D03*
X008630Y012267D03*
X008380Y012017D03*
X007630Y012767D03*
X006006Y012641D03*
X003630Y012767D03*
X003130Y013892D03*
X000630Y013892D03*
X003630Y010767D03*
X005630Y010767D03*
X005449Y008948D03*
X003630Y008767D03*
X002130Y008267D03*
X002755Y007642D03*
X001880Y006954D03*
X004630Y007642D03*
X005130Y006546D03*
X006630Y007642D03*
X009950Y007267D03*
X010147Y007579D03*
X010380Y006267D03*
X012318Y006454D03*
X014818Y006079D03*
X015880Y007267D03*
X016380Y007267D03*
X017130Y008267D03*
X014818Y008454D03*
X014755Y009579D03*
X013130Y010517D03*
X013130Y011454D03*
X011505Y010892D03*
X011380Y010517D03*
X010880Y010642D03*
X010880Y010267D03*
X010880Y009892D03*
X009818Y009829D03*
X009443Y009704D03*
X009505Y010204D03*
X011443Y009204D03*
X012130Y009454D03*
X012130Y008892D03*
X015880Y011517D03*
X016193Y011682D03*
X015880Y012017D03*
X016693Y011517D03*
X016880Y011239D03*
X017943Y010924D03*
X016943Y012142D03*
X016130Y013267D03*
X015005Y012954D03*
X012130Y012829D03*
X010971Y013954D03*
X018130Y013767D03*
X018973Y013109D03*
X019880Y013767D03*
X021630Y012767D03*
X022130Y011987D03*
X021737Y011679D03*
X021630Y011017D03*
X020330Y010924D03*
X020255Y011892D03*
X022130Y009987D03*
X020862Y009249D03*
X020915Y008767D03*
X021130Y008267D03*
X020630Y007767D03*
X021130Y007267D03*
X021630Y007767D03*
X022130Y007987D03*
X025130Y007987D03*
X025130Y009987D03*
X025130Y011987D03*
X013755Y004704D03*
X010380Y004234D03*
X010380Y003604D03*
X010443Y003267D03*
X009630Y002767D03*
X009318Y003289D03*
X008917Y003204D03*
X008287Y003204D03*
X009318Y003919D03*
X007005Y003267D03*
X005755Y003392D03*
X005630Y004142D03*
X005130Y004546D03*
X006930Y004234D03*
X005130Y002546D03*
X005630Y002392D03*
X008443Y000829D03*
X008630Y000579D03*
X008255Y000579D03*
X009005Y000829D03*
X009380Y000829D03*
X009193Y000579D03*
X009755Y000579D03*
X009943Y000829D03*
X010130Y000579D03*
X010505Y000829D03*
X010880Y000829D03*
X010693Y000579D03*
X011255Y000579D03*
X011630Y000579D03*
X011443Y000829D03*
X012005Y000829D03*
X012380Y000829D03*
X012193Y000579D03*
X012755Y000579D03*
X012943Y000829D03*
X013130Y000579D03*
X013505Y000829D03*
X013880Y000829D03*
X013693Y000579D03*
X014255Y000579D03*
X014630Y000579D03*
X014443Y000829D03*
X015005Y000829D03*
X015380Y000829D03*
X015193Y000579D03*
X015755Y000579D03*
X015943Y000829D03*
X016130Y000579D03*
X016505Y000829D03*
X016880Y000829D03*
X016693Y000579D03*
X017255Y000579D03*
X017630Y000579D03*
X017443Y000829D03*
X018005Y000829D03*
X018380Y000829D03*
X018193Y000579D03*
X018755Y000579D03*
X018943Y000829D03*
X019130Y000579D03*
X019505Y000829D03*
X019880Y000829D03*
X019693Y000579D03*
X020255Y000579D03*
X020630Y000579D03*
X020443Y000829D03*
X021005Y000829D03*
X021380Y000829D03*
X021193Y000579D03*
X021755Y000579D03*
X021943Y000829D03*
X022130Y000579D03*
X022505Y000829D03*
X022880Y000829D03*
X022693Y000579D03*
X023255Y000579D03*
X023630Y000579D03*
X023443Y000829D03*
X024005Y000829D03*
X024380Y000829D03*
X024193Y000579D03*
X024755Y000579D03*
X024943Y000829D03*
X025130Y000579D03*
X025505Y000829D03*
X025880Y000829D03*
X025693Y000579D03*
X026255Y000579D03*
X026630Y000579D03*
X026443Y000829D03*
X025880Y001829D03*
X025505Y001829D03*
X025693Y002079D03*
X025130Y002079D03*
X024943Y001829D03*
X024755Y002079D03*
X024380Y001829D03*
X024005Y001829D03*
X024193Y002079D03*
X023630Y002079D03*
X023255Y002079D03*
X023443Y001829D03*
X022880Y001829D03*
X022505Y001829D03*
X022693Y002079D03*
X022130Y002079D03*
X021943Y001829D03*
X021755Y002079D03*
X021380Y001829D03*
X021005Y001829D03*
X021193Y002079D03*
X020630Y002079D03*
X020255Y002079D03*
X020443Y001829D03*
X019880Y001829D03*
X019505Y001829D03*
X019693Y002079D03*
X019130Y002079D03*
X018943Y001829D03*
X018755Y002079D03*
X018380Y001829D03*
X018005Y001829D03*
X018193Y002079D03*
X017630Y002079D03*
X017255Y002079D03*
X017443Y001829D03*
X016880Y001829D03*
X016505Y001829D03*
X016693Y002079D03*
X016130Y002079D03*
X015943Y001829D03*
X015755Y002079D03*
X015380Y001829D03*
X015005Y001829D03*
X015193Y002079D03*
X014630Y002079D03*
X014255Y002079D03*
X014443Y001829D03*
X013880Y001829D03*
X013505Y001829D03*
X013693Y002079D03*
X013130Y002079D03*
X012943Y001829D03*
X012755Y002079D03*
X012380Y001829D03*
X012005Y001829D03*
X012193Y002079D03*
X002130Y002546D03*
X002130Y004546D03*
D14*
X009005Y003804D02*
X009205Y003604D01*
X010380Y003604D01*
X010380Y004234D02*
X009880Y004234D01*
X009630Y004484D01*
X009630Y008981D01*
X008443Y010168D01*
X006755Y010168D01*
X006755Y009775D02*
X008318Y009775D01*
X009318Y008775D01*
X009318Y003919D01*
X009005Y003804D02*
X009005Y008454D01*
X008193Y009267D01*
X006755Y009267D01*
X009505Y010204D02*
X012130Y012829D01*
X012130Y012517D02*
X014568Y012517D01*
X015005Y012954D01*
X016880Y011239D02*
X013220Y007579D01*
X010147Y007579D01*
X009950Y007267D02*
X014285Y007267D01*
X017943Y010924D01*
X012130Y012517D02*
X009818Y010204D01*
X009818Y009829D01*
D15*
X026130Y006267D03*
X026130Y004267D03*
D16*
X026255Y008767D03*
X026255Y010767D03*
X026255Y012767D03*
X001005Y005767D03*
X001005Y003767D03*
X001005Y001767D03*
D17*
X005005Y001767D01*
X005630Y002392D01*
X005630Y004142D02*
X002505Y004142D01*
X002130Y003767D01*
X001005Y003767D01*
X020330Y010924D02*
X020737Y010517D01*
X024600Y010517D01*
X025130Y009987D01*
X023868Y009249D02*
X020862Y009249D01*
X023868Y009249D02*
X025130Y007987D01*
X024822Y011679D02*
X021737Y011679D01*
X024822Y011679D02*
X025130Y011987D01*
M02*
