G75*
G70*
%OFA0B0*%
%FSLAX24Y24*%
%IPPOS*%
%LPD*%
%AMOC8*
5,1,8,0,0,1.08239X$1,22.5*
%
%ADD10R,0.0118X0.0472*%
%ADD11R,0.0472X0.0118*%
%ADD12R,0.0157X0.0630*%
%ADD13R,0.0394X0.0217*%
%ADD14R,0.0217X0.0394*%
%ADD15R,0.0315X0.0118*%
%ADD16R,0.0118X0.0315*%
%ADD17R,0.0394X0.0394*%
%ADD18R,0.0354X0.0551*%
%ADD19OC8,0.0600*%
%ADD20C,0.0500*%
%ADD21R,0.0276X0.0118*%
%ADD22R,0.0622X0.0925*%
%ADD23R,0.1063X0.0315*%
%ADD24R,0.0433X0.0709*%
%ADD25R,0.0846X0.1280*%
%ADD26R,0.0846X0.0374*%
%ADD27R,0.0551X0.0354*%
%ADD28R,0.1949X0.1776*%
%ADD29R,0.0295X0.0266*%
%ADD30R,0.0709X0.1260*%
%ADD31R,0.0709X0.0433*%
%ADD32R,0.0354X0.0315*%
%ADD33C,0.0100*%
%ADD34C,0.0120*%
%ADD35C,0.0320*%
%ADD36C,0.0340*%
%ADD37C,0.0060*%
%ADD38R,0.0270X0.0270*%
%ADD39C,0.0270*%
%ADD40C,0.0160*%
%ADD41C,0.0150*%
%ADD42C,0.1400*%
%ADD43C,0.0440*%
%ADD44C,0.1125*%
D10*
X008904Y008023D03*
X009100Y008023D03*
X009297Y008023D03*
X009494Y008023D03*
X009691Y008023D03*
X009888Y008023D03*
X010085Y008023D03*
X010282Y008023D03*
X010478Y008023D03*
X010675Y008023D03*
X010872Y008023D03*
X011069Y008023D03*
X011266Y008023D03*
X011463Y008023D03*
X011660Y008023D03*
X011856Y008023D03*
X011856Y012511D03*
X011660Y012511D03*
X011463Y012511D03*
X011266Y012511D03*
X011069Y012511D03*
X010872Y012511D03*
X010675Y012511D03*
X010478Y012511D03*
X010282Y012511D03*
X010085Y012511D03*
X009888Y012511D03*
X009691Y012511D03*
X009494Y012511D03*
X009297Y012511D03*
X009100Y012511D03*
X008904Y012511D03*
D11*
X008136Y011743D03*
X008136Y011546D03*
X008136Y011349D03*
X008136Y011152D03*
X008136Y010956D03*
X008136Y010759D03*
X008136Y010562D03*
X008136Y010365D03*
X008136Y010168D03*
X008136Y009971D03*
X008136Y009775D03*
X008136Y009578D03*
X008136Y009381D03*
X008136Y009184D03*
X008136Y008987D03*
X008136Y008790D03*
X012624Y008790D03*
X012624Y008987D03*
X012624Y009184D03*
X012624Y009381D03*
X012624Y009578D03*
X012624Y009775D03*
X012624Y009971D03*
X012624Y010168D03*
X012624Y010365D03*
X012624Y010562D03*
X012624Y010759D03*
X012624Y010956D03*
X012624Y011152D03*
X012624Y011349D03*
X012624Y011546D03*
X012624Y011743D03*
D12*
X011443Y013329D03*
X010971Y013329D03*
X010498Y013329D03*
D13*
X010005Y013552D03*
X009505Y013552D03*
X009505Y012981D03*
X010005Y012981D03*
X012255Y013231D03*
X012693Y012677D03*
X012693Y012106D03*
X015005Y013231D03*
X015005Y013802D03*
X012255Y013802D03*
X007505Y011927D03*
X007505Y011356D03*
X007505Y009552D03*
X007505Y008981D03*
X007505Y008677D03*
X007505Y008106D03*
X011755Y007427D03*
X012255Y007427D03*
X012255Y006856D03*
X011755Y006856D03*
X014880Y006981D03*
X014880Y007552D03*
X018505Y004927D03*
X019005Y004927D03*
X019005Y004356D03*
X018505Y004356D03*
X015318Y003677D03*
X015318Y003106D03*
D14*
X016095Y005767D03*
X016665Y005767D03*
X013665Y005892D03*
X013095Y005892D03*
X013595Y008517D03*
X014165Y008517D03*
X005415Y009329D03*
X004845Y009329D03*
X002415Y007892D03*
X001845Y007892D03*
X001845Y007392D03*
X002415Y007392D03*
X003907Y011329D03*
X004478Y011329D03*
D15*
X012843Y007759D03*
X012843Y007562D03*
X012843Y007365D03*
X012843Y007168D03*
X012843Y006971D03*
X012843Y006775D03*
X014417Y006775D03*
X014417Y006971D03*
X014417Y007168D03*
X014417Y007365D03*
X014417Y007562D03*
X014417Y007759D03*
D16*
X014122Y008054D03*
X013925Y008054D03*
X013728Y008054D03*
X013532Y008054D03*
X013335Y008054D03*
X013138Y008054D03*
X013138Y006479D03*
X013335Y006479D03*
X013532Y006479D03*
X013728Y006479D03*
X013925Y006479D03*
X014122Y006479D03*
D17*
X013630Y007267D03*
D18*
X017097Y005892D03*
X017963Y005892D03*
X016938Y003017D03*
X016072Y003017D03*
X005563Y010017D03*
X004697Y010017D03*
X001438Y008017D03*
X000572Y008017D03*
X000572Y007267D03*
X001438Y007267D03*
D19*
X012880Y013517D03*
X013630Y013517D03*
X014380Y013517D03*
D20*
X009005Y013267D03*
X012505Y008142D03*
X011130Y007142D03*
X010380Y007142D03*
X010755Y006642D03*
D21*
X016799Y005285D03*
X016799Y005089D03*
X016799Y004892D03*
X016799Y004695D03*
X016799Y004498D03*
X017961Y004498D03*
X017961Y004695D03*
X017961Y004892D03*
X017961Y005089D03*
X017961Y005285D03*
D22*
X017380Y004892D03*
D23*
X015755Y005325D03*
X015755Y004459D03*
D24*
X015855Y003767D03*
X017155Y003767D03*
D25*
X011488Y004267D03*
D26*
X013772Y004267D03*
X013772Y003361D03*
X013772Y005172D03*
D27*
X014630Y005450D03*
X014630Y004584D03*
X014630Y003950D03*
X014630Y003084D03*
D28*
X023887Y008767D03*
X023887Y010767D03*
X023887Y012767D03*
X003373Y005767D03*
X003373Y003767D03*
X003373Y001767D03*
D29*
X004714Y002027D03*
X004714Y001507D03*
X004714Y000987D03*
X004714Y002546D03*
X004714Y002987D03*
X004714Y003507D03*
X004714Y004027D03*
X004714Y004546D03*
X004714Y004987D03*
X004714Y005507D03*
X004714Y006027D03*
X004714Y006546D03*
X022546Y007987D03*
X022546Y008507D03*
X022546Y009027D03*
X022546Y009546D03*
X022546Y009987D03*
X022546Y010507D03*
X022546Y011027D03*
X022546Y011546D03*
X022546Y011987D03*
X022546Y012507D03*
X022546Y013027D03*
X022546Y013546D03*
D30*
X022403Y006892D03*
X024607Y006892D03*
X024607Y005392D03*
X022403Y005392D03*
X007607Y005517D03*
X005403Y005517D03*
X005403Y001517D03*
X007607Y001517D03*
D31*
X008443Y001979D03*
X009193Y001979D03*
X009943Y001979D03*
X010693Y001979D03*
X011443Y001979D03*
X012193Y001979D03*
X012943Y001979D03*
X013693Y001979D03*
X014443Y001979D03*
X015193Y001979D03*
X015943Y001979D03*
X016693Y001979D03*
X017443Y001979D03*
X018193Y001979D03*
X018943Y001979D03*
X019693Y001979D03*
X020443Y001979D03*
X021193Y001979D03*
X021943Y001979D03*
X022693Y001979D03*
X023443Y001979D03*
X024193Y001979D03*
X024943Y001979D03*
X025693Y001979D03*
X026443Y001979D03*
X026443Y000680D03*
X025693Y000680D03*
X024943Y000680D03*
X024193Y000680D03*
X023443Y000680D03*
X022693Y000680D03*
X021943Y000680D03*
X021193Y000680D03*
X020443Y000680D03*
X019693Y000680D03*
X018943Y000680D03*
X018193Y000680D03*
X017443Y000680D03*
X016693Y000680D03*
X015943Y000680D03*
X015193Y000680D03*
X014443Y000680D03*
X013693Y000680D03*
X012943Y000680D03*
X012193Y000680D03*
X011443Y000680D03*
X010693Y000680D03*
X009943Y000680D03*
X009193Y000680D03*
X008443Y000680D03*
D32*
X004606Y011893D03*
X003740Y012267D03*
X004606Y012641D03*
D33*
X007505Y011356D02*
X007512Y011349D01*
X006880Y010454D02*
X006630Y010454D01*
X005943Y009767D01*
X005943Y008767D01*
X005068Y007892D01*
X002415Y007892D01*
X002415Y007392D02*
X008273Y007392D01*
X008904Y008023D01*
X008136Y008987D02*
X007511Y008987D01*
X007505Y008981D01*
X008136Y009381D02*
X009618Y009381D01*
X009818Y009581D01*
X009818Y009829D01*
X009505Y010204D02*
X009272Y009971D01*
X008136Y009971D01*
X008136Y009578D02*
X007531Y009578D01*
X007505Y009552D01*
X006969Y010365D02*
X006880Y010454D01*
X006969Y010365D02*
X008136Y010365D01*
X010872Y012511D02*
X010872Y012837D01*
X010498Y013211D01*
X010498Y013329D01*
X010005Y013167D02*
X010005Y012981D01*
X010005Y013167D02*
X009905Y013267D01*
X009005Y013267D01*
X009494Y012970D02*
X009505Y012981D01*
X011069Y012831D02*
X011069Y012511D01*
X011069Y012831D02*
X011443Y013205D01*
X011443Y013329D01*
X012255Y013231D02*
X012255Y012954D01*
X012130Y012829D01*
X012540Y013517D02*
X012880Y013517D01*
X012540Y013517D02*
X012255Y013802D01*
X015005Y013231D02*
X015005Y012954D01*
X018973Y013109D02*
X018973Y011424D01*
X020130Y010267D01*
X020130Y002767D01*
X016799Y004498D02*
X016505Y004204D01*
X016505Y003450D01*
X016072Y003017D01*
X012568Y005172D02*
X012568Y006204D01*
X012568Y007352D01*
X012493Y007427D01*
X012255Y007427D01*
X011755Y007427D02*
X011660Y007523D01*
X011660Y008023D01*
X011463Y008023D02*
X011463Y007662D01*
X011130Y007329D01*
X011130Y007142D01*
X010755Y007454D02*
X010755Y006642D01*
X010380Y007142D02*
X010380Y007454D01*
X010675Y007749D01*
X010675Y008023D01*
X010872Y008023D02*
X010872Y007571D01*
X010755Y007454D01*
X012505Y008142D02*
X012505Y008517D01*
X012624Y008636D01*
X012624Y008790D01*
X013925Y008277D02*
X013925Y008054D01*
X013925Y008277D02*
X014165Y008517D01*
X013728Y006479D02*
X013728Y006178D01*
X013665Y006115D01*
X013665Y005892D01*
X013335Y006279D02*
X013260Y006204D01*
X012568Y006204D01*
X013335Y006279D02*
X013335Y006479D01*
X005130Y006546D02*
X004714Y006546D01*
X004714Y004546D02*
X005130Y004546D01*
X005130Y002546D02*
X004714Y002546D01*
X022130Y007987D02*
X022546Y007987D01*
X022546Y009987D02*
X022130Y009987D01*
X022130Y011987D02*
X022546Y011987D01*
D34*
X015005Y013802D02*
X014720Y013517D01*
X014380Y013517D01*
X012693Y012106D02*
X012693Y011743D01*
X012624Y011743D01*
X013728Y011743D01*
X013755Y011770D01*
X012624Y011743D02*
X011981Y011743D01*
X011856Y011868D01*
X011856Y012511D01*
X011981Y011743D02*
X011588Y011349D01*
X011856Y011081D01*
X011856Y010181D01*
X010466Y008790D01*
X011481Y008790D01*
X011856Y008415D01*
X011856Y008023D01*
X011856Y007826D01*
X012255Y007427D01*
X013335Y006700D02*
X013410Y006775D01*
X014417Y006775D01*
X014673Y006775D01*
X014880Y006981D01*
X013335Y006700D02*
X013335Y006479D01*
X013772Y005172D02*
X012568Y005172D01*
X010830Y005172D01*
X010630Y004972D01*
X010630Y004549D01*
X016799Y004695D02*
X017183Y004695D01*
X017380Y004892D01*
X017961Y004892D02*
X018470Y004892D01*
X018505Y004927D01*
X019005Y004927D01*
X018505Y004356D02*
X018363Y004498D01*
X017961Y004498D01*
X010466Y008790D02*
X008136Y008790D01*
X007904Y008790D01*
X007790Y008677D01*
X007505Y008677D01*
X005880Y010017D02*
X005563Y010017D01*
X005880Y010017D02*
X007220Y011356D01*
X006683Y011893D01*
X004606Y011893D01*
X004606Y011680D01*
X004478Y011552D01*
X004478Y011329D01*
X007220Y011356D02*
X007505Y011356D01*
X007512Y011349D02*
X008136Y011349D01*
X009494Y011349D01*
X011588Y011349D01*
X009494Y011349D02*
X009494Y012511D01*
X009494Y012970D01*
D35*
X017097Y005892D02*
X017380Y005609D01*
X017380Y004892D01*
X017380Y004392D01*
X017155Y004166D01*
X017155Y003767D01*
X017155Y003233D01*
X016938Y003017D01*
X016072Y003017D02*
X015407Y003017D01*
X015318Y003106D01*
X015295Y003084D01*
X014630Y003084D01*
X014049Y003084D01*
X013772Y003361D01*
X015318Y003677D02*
X015407Y003767D01*
X015855Y003767D01*
X015855Y004358D02*
X015755Y004459D01*
X015755Y005325D02*
X015970Y005539D01*
X016095Y005767D01*
X014630Y005450D02*
X014049Y005450D01*
X013772Y005172D01*
D36*
X013130Y003361D03*
X010630Y004549D03*
X018028Y007539D03*
X025255Y008392D03*
X025630Y008142D03*
X025255Y009142D03*
X025630Y009392D03*
X025630Y010142D03*
X025255Y010392D03*
X025255Y011142D03*
X025630Y011392D03*
X025630Y012142D03*
X025255Y012392D03*
X025255Y013142D03*
X025630Y013392D03*
X013755Y011770D03*
X002005Y006142D03*
X001630Y006392D03*
X002005Y005392D03*
X001630Y005142D03*
X001630Y004392D03*
X002005Y004142D03*
X002005Y003392D03*
X001630Y003142D03*
X001630Y002392D03*
X002005Y002142D03*
X002005Y001392D03*
X001630Y001142D03*
D37*
X000568Y000453D02*
X000452Y000501D01*
X004320Y000501D01*
X004320Y000447D02*
X000630Y000447D01*
X000568Y000453D01*
X000452Y000501D02*
X000364Y000589D01*
X000316Y000704D01*
X000310Y000767D01*
X000310Y002707D01*
X001972Y002707D01*
X001905Y002639D01*
X001905Y002453D01*
X002037Y002321D01*
X002223Y002321D01*
X002355Y002453D01*
X002355Y002639D01*
X002288Y002707D01*
X004320Y002707D01*
X004320Y000447D01*
X004320Y000559D02*
X000394Y000559D01*
X000352Y000618D02*
X004320Y000618D01*
X004320Y000676D02*
X000328Y000676D01*
X000313Y000735D02*
X004320Y000735D01*
X004320Y000793D02*
X000310Y000793D01*
X000310Y000852D02*
X004320Y000852D01*
X004320Y000910D02*
X000310Y000910D01*
X000310Y000969D02*
X004320Y000969D01*
X004320Y001027D02*
X000310Y001027D01*
X000310Y001086D02*
X004320Y001086D01*
X004320Y001144D02*
X000310Y001144D01*
X000310Y001203D02*
X004320Y001203D01*
X004320Y001261D02*
X000310Y001261D01*
X000310Y001320D02*
X004320Y001320D01*
X004320Y001378D02*
X000310Y001378D01*
X000310Y001437D02*
X004320Y001437D01*
X004320Y001495D02*
X000310Y001495D01*
X000310Y001554D02*
X004320Y001554D01*
X004320Y001612D02*
X000310Y001612D01*
X000310Y001671D02*
X004320Y001671D01*
X004320Y001729D02*
X000310Y001729D01*
X000310Y001788D02*
X004320Y001788D01*
X004320Y001846D02*
X000310Y001846D01*
X000310Y001905D02*
X004320Y001905D01*
X004320Y001963D02*
X000310Y001963D01*
X000310Y002022D02*
X004320Y002022D01*
X004320Y002080D02*
X000310Y002080D01*
X000310Y002139D02*
X004320Y002139D01*
X004320Y002197D02*
X000310Y002197D01*
X000310Y002256D02*
X004320Y002256D01*
X004320Y002314D02*
X000310Y002314D01*
X000310Y002373D02*
X001985Y002373D01*
X001927Y002431D02*
X000310Y002431D01*
X000310Y002490D02*
X001905Y002490D01*
X001905Y002548D02*
X000310Y002548D01*
X000310Y002607D02*
X001905Y002607D01*
X001931Y002665D02*
X000310Y002665D01*
X000310Y002827D02*
X000310Y004707D01*
X001972Y004707D01*
X001905Y004639D01*
X001905Y004453D01*
X002037Y004321D01*
X002223Y004321D01*
X002355Y004453D01*
X002355Y004639D01*
X002288Y004707D01*
X004320Y004707D01*
X004320Y002827D01*
X000310Y002827D01*
X000310Y002841D02*
X004320Y002841D01*
X004320Y002899D02*
X000310Y002899D01*
X000310Y002958D02*
X004320Y002958D01*
X004320Y003016D02*
X000310Y003016D01*
X000310Y003075D02*
X004320Y003075D01*
X004320Y003133D02*
X000310Y003133D01*
X000310Y003192D02*
X004320Y003192D01*
X004320Y003250D02*
X000310Y003250D01*
X000310Y003309D02*
X004320Y003309D01*
X004320Y003367D02*
X000310Y003367D01*
X000310Y003426D02*
X004320Y003426D01*
X004320Y003484D02*
X000310Y003484D01*
X000310Y003543D02*
X004320Y003543D01*
X004320Y003601D02*
X000310Y003601D01*
X000310Y003660D02*
X004320Y003660D01*
X004320Y003718D02*
X000310Y003718D01*
X000310Y003777D02*
X004320Y003777D01*
X004320Y003835D02*
X000310Y003835D01*
X000310Y003894D02*
X004320Y003894D01*
X004320Y003952D02*
X000310Y003952D01*
X000310Y004011D02*
X004320Y004011D01*
X004320Y004069D02*
X000310Y004069D01*
X000310Y004128D02*
X004320Y004128D01*
X004320Y004186D02*
X000310Y004186D01*
X000310Y004245D02*
X004320Y004245D01*
X004320Y004303D02*
X000310Y004303D01*
X000310Y004362D02*
X001996Y004362D01*
X001938Y004420D02*
X000310Y004420D01*
X000310Y004479D02*
X001905Y004479D01*
X001905Y004537D02*
X000310Y004537D01*
X000310Y004596D02*
X001905Y004596D01*
X001920Y004654D02*
X000310Y004654D01*
X000310Y004827D02*
X000310Y006767D01*
X001670Y006767D01*
X001708Y006729D01*
X002052Y006729D01*
X002090Y006767D01*
X004320Y006767D01*
X004320Y004827D01*
X000310Y004827D01*
X000310Y004830D02*
X004320Y004830D01*
X004320Y004888D02*
X000310Y004888D01*
X000310Y004947D02*
X004320Y004947D01*
X004320Y005005D02*
X000310Y005005D01*
X000310Y005064D02*
X004320Y005064D01*
X004320Y005122D02*
X000310Y005122D01*
X000310Y005181D02*
X004320Y005181D01*
X004320Y005239D02*
X000310Y005239D01*
X000310Y005298D02*
X004320Y005298D01*
X004320Y005356D02*
X000310Y005356D01*
X000310Y005415D02*
X004320Y005415D01*
X004320Y005473D02*
X000310Y005473D01*
X000310Y005532D02*
X004320Y005532D01*
X004320Y005590D02*
X000310Y005590D01*
X000310Y005649D02*
X004320Y005649D01*
X004320Y005707D02*
X000310Y005707D01*
X000310Y005766D02*
X004320Y005766D01*
X004320Y005824D02*
X000310Y005824D01*
X000310Y005883D02*
X004320Y005883D01*
X004320Y005941D02*
X000310Y005941D01*
X000310Y006000D02*
X004320Y006000D01*
X004320Y006058D02*
X000310Y006058D01*
X000310Y006117D02*
X004320Y006117D01*
X004320Y006175D02*
X000310Y006175D01*
X000310Y006234D02*
X004320Y006234D01*
X004320Y006292D02*
X000310Y006292D01*
X000310Y006351D02*
X004320Y006351D01*
X004320Y006409D02*
X000310Y006409D01*
X000310Y006468D02*
X004320Y006468D01*
X004320Y006526D02*
X000310Y006526D01*
X000310Y006585D02*
X004320Y006585D01*
X004320Y006643D02*
X000310Y006643D01*
X000310Y006702D02*
X004320Y006702D01*
X004320Y006760D02*
X002083Y006760D01*
X001677Y006760D02*
X000310Y006760D01*
X000828Y006887D02*
X000829Y006887D01*
X000853Y006911D01*
X000870Y006941D01*
X000879Y006974D01*
X000879Y007237D01*
X000602Y007237D01*
X000602Y007297D01*
X000542Y007297D01*
X000542Y007987D01*
X000602Y007987D01*
X000602Y008047D01*
X000542Y008047D01*
X000542Y008422D01*
X000378Y008422D01*
X000345Y008413D01*
X000315Y008396D01*
X000310Y008391D01*
X000310Y008487D01*
X003392Y008487D01*
X003410Y008504D01*
X003410Y013529D01*
X003392Y013547D01*
X000310Y013547D01*
X000310Y013767D01*
X000316Y013829D01*
X000364Y013944D01*
X000452Y014033D01*
X000568Y014081D01*
X000630Y014087D01*
X020075Y014087D01*
X020075Y012030D01*
X020030Y011985D01*
X020030Y011798D01*
X020075Y011753D01*
X020075Y010520D01*
X019113Y011482D01*
X019113Y012931D01*
X019198Y013016D01*
X019198Y013202D01*
X019066Y013334D01*
X018879Y013334D01*
X018748Y013202D01*
X018748Y013016D01*
X018833Y012931D01*
X018833Y011366D01*
X018915Y011284D01*
X019990Y010209D01*
X019990Y002887D01*
X017205Y002887D01*
X017205Y002930D01*
X017296Y003021D01*
X017367Y003092D01*
X017405Y003183D01*
X017405Y003322D01*
X017408Y003322D01*
X017461Y003375D01*
X017461Y004119D01*
X017592Y004250D01*
X017629Y004339D01*
X017728Y004339D01*
X017762Y004373D01*
X017786Y004349D01*
X017898Y004349D01*
X017899Y004348D01*
X018218Y004348D01*
X018218Y004211D01*
X018271Y004158D01*
X018714Y004158D01*
X018728Y004144D01*
X018758Y004127D01*
X018791Y004118D01*
X018981Y004118D01*
X018981Y004332D01*
X019029Y004332D01*
X019029Y004118D01*
X019219Y004118D01*
X019252Y004127D01*
X019282Y004144D01*
X019306Y004168D01*
X019323Y004198D01*
X019332Y004231D01*
X019332Y004332D01*
X019029Y004332D01*
X019029Y004380D01*
X019332Y004380D01*
X019332Y004482D01*
X019323Y004515D01*
X019306Y004544D01*
X019282Y004569D01*
X019252Y004586D01*
X019219Y004594D01*
X019029Y004594D01*
X019029Y004380D01*
X018981Y004380D01*
X018981Y004594D01*
X018791Y004594D01*
X018758Y004586D01*
X018728Y004569D01*
X018714Y004554D01*
X018519Y004554D01*
X018513Y004560D01*
X018425Y004648D01*
X018229Y004648D01*
X018229Y004695D01*
X018229Y004742D01*
X018258Y004742D01*
X018271Y004729D01*
X018739Y004729D01*
X018755Y004745D01*
X018771Y004729D01*
X019239Y004729D01*
X019292Y004782D01*
X019292Y005073D01*
X019239Y005125D01*
X018771Y005125D01*
X018755Y005109D01*
X018739Y005125D01*
X018271Y005125D01*
X018229Y005083D01*
X018229Y005089D01*
X018229Y005165D01*
X018220Y005198D01*
X018203Y005227D01*
X018189Y005241D01*
X018189Y005382D01*
X018136Y005434D01*
X018126Y005434D01*
X018126Y005526D01*
X018178Y005526D01*
X018230Y005579D01*
X018230Y006205D01*
X018178Y006257D01*
X018133Y006257D01*
X018133Y007302D01*
X018175Y007319D01*
X018248Y007392D01*
X018288Y007488D01*
X018288Y007591D01*
X018248Y007687D01*
X018175Y007760D01*
X018079Y007799D01*
X017976Y007799D01*
X017880Y007760D01*
X017807Y007687D01*
X017768Y007591D01*
X017768Y007488D01*
X017793Y007426D01*
X017793Y006257D01*
X017767Y006257D01*
X017708Y006316D01*
X017638Y006387D01*
X016580Y006387D01*
X016330Y006137D01*
X016260Y006066D01*
X016260Y006034D01*
X016250Y006044D01*
X016250Y006066D01*
X016180Y006137D01*
X015705Y006137D01*
X015635Y006066D01*
X015205Y005637D01*
X015080Y005637D01*
X015010Y005566D01*
X015010Y004840D01*
X015010Y004841D01*
X014985Y004865D01*
X014956Y004882D01*
X014923Y004891D01*
X014660Y004891D01*
X014660Y004614D01*
X014600Y004614D01*
X014600Y004891D01*
X014337Y004891D01*
X014304Y004882D01*
X014275Y004865D01*
X014250Y004841D01*
X014233Y004811D01*
X014224Y004778D01*
X014224Y004614D01*
X014600Y004614D01*
X014600Y004554D01*
X014279Y004554D01*
X014275Y004558D01*
X014245Y004575D01*
X014212Y004584D01*
X013802Y004584D01*
X013802Y004297D01*
X013742Y004297D01*
X013742Y004584D01*
X013331Y004584D01*
X013298Y004575D01*
X013269Y004558D01*
X013244Y004533D01*
X013227Y004504D01*
X013219Y004471D01*
X013219Y004297D01*
X013742Y004297D01*
X013742Y004237D01*
X013219Y004237D01*
X013219Y004063D01*
X013227Y004029D01*
X013244Y004000D01*
X013269Y003976D01*
X013298Y003959D01*
X013331Y003950D01*
X013742Y003950D01*
X013742Y004237D01*
X013802Y004237D01*
X013802Y004297D01*
X014285Y004297D01*
X014304Y004285D01*
X014337Y004276D01*
X014600Y004276D01*
X014600Y004554D01*
X014660Y004554D01*
X014660Y004614D01*
X015010Y004614D01*
X015010Y004592D01*
X015080Y004522D01*
X015134Y004522D01*
X015134Y004264D01*
X015186Y004211D01*
X015545Y004211D01*
X015545Y004017D01*
X015357Y004017D01*
X015265Y003979D01*
X015162Y003875D01*
X015083Y003875D01*
X015036Y003828D01*
X015036Y003920D01*
X014660Y003920D01*
X014660Y003980D01*
X014600Y003980D01*
X014600Y004257D01*
X014337Y004257D01*
X014304Y004248D01*
X014285Y004237D01*
X013802Y004237D01*
X013802Y003950D01*
X014212Y003950D01*
X014245Y003959D01*
X014275Y003976D01*
X014279Y003980D01*
X014600Y003980D01*
X014600Y003920D01*
X014224Y003920D01*
X014224Y003755D01*
X014233Y003722D01*
X014250Y003693D01*
X014275Y003669D01*
X014304Y003651D01*
X014337Y003643D01*
X014600Y003643D01*
X014600Y003920D01*
X014660Y003920D01*
X014660Y003643D01*
X014923Y003643D01*
X014956Y003651D01*
X014985Y003669D01*
X015010Y003693D01*
X015027Y003722D01*
X015031Y003737D01*
X015031Y003532D01*
X015083Y003479D01*
X015162Y003479D01*
X015176Y003465D01*
X015268Y003427D01*
X015367Y003427D01*
X015459Y003465D01*
X015473Y003479D01*
X015549Y003479D01*
X015549Y003375D01*
X015602Y003322D01*
X015805Y003322D01*
X015805Y003267D01*
X015589Y003267D01*
X015552Y003304D01*
X015473Y003304D01*
X015459Y003318D01*
X015367Y003356D01*
X015268Y003356D01*
X015213Y003334D01*
X014960Y003334D01*
X014943Y003351D01*
X014317Y003351D01*
X014300Y003334D01*
X014285Y003334D01*
X014285Y003585D01*
X014232Y003638D01*
X013311Y003638D01*
X013261Y003588D01*
X013182Y003621D01*
X013078Y003621D01*
X012983Y003582D01*
X012910Y003508D01*
X012870Y003413D01*
X012870Y003309D01*
X012910Y003214D01*
X012983Y003141D01*
X013078Y003101D01*
X013182Y003101D01*
X013261Y003134D01*
X013311Y003084D01*
X013695Y003084D01*
X013893Y002887D01*
X010125Y002887D01*
X010125Y003004D01*
X010055Y003074D01*
X010000Y003129D01*
X010000Y003289D01*
X010073Y003217D01*
X010143Y003147D01*
X010244Y003147D01*
X010349Y003042D01*
X010536Y003042D01*
X010667Y003173D01*
X010667Y003360D01*
X010561Y003467D01*
X010605Y003511D01*
X010605Y003697D01*
X010473Y003829D01*
X010287Y003829D01*
X010155Y003697D01*
X010155Y003511D01*
X010262Y003404D01*
X010244Y003387D01*
X010242Y003387D01*
X010125Y003504D01*
X010125Y006879D01*
X009962Y007042D01*
X010044Y007042D01*
X010051Y007049D01*
X010092Y006949D01*
X010187Y006853D01*
X010312Y006802D01*
X010448Y006802D01*
X010454Y006804D01*
X010415Y006709D01*
X010415Y006574D01*
X010467Y006449D01*
X010562Y006353D01*
X010687Y006302D01*
X010823Y006302D01*
X010948Y006353D01*
X011043Y006449D01*
X011095Y006574D01*
X011095Y006709D01*
X011056Y006804D01*
X011062Y006802D01*
X011198Y006802D01*
X011323Y006853D01*
X011418Y006949D01*
X011428Y006973D01*
X011428Y006880D01*
X011731Y006880D01*
X011731Y006832D01*
X011779Y006832D01*
X011779Y006618D01*
X011969Y006618D01*
X012002Y006627D01*
X012005Y006629D01*
X012008Y006627D01*
X012041Y006618D01*
X012093Y006618D01*
X012093Y006282D01*
X012145Y006229D01*
X012428Y006229D01*
X012428Y005322D01*
X010768Y005322D01*
X010568Y005122D01*
X010480Y005034D01*
X010480Y004767D01*
X010410Y004696D01*
X010370Y004601D01*
X010370Y004497D01*
X010386Y004459D01*
X010287Y004459D01*
X010155Y004327D01*
X010155Y004141D01*
X010287Y004009D01*
X010473Y004009D01*
X010605Y004141D01*
X010605Y004289D01*
X010682Y004289D01*
X010777Y004329D01*
X010850Y004402D01*
X010890Y004497D01*
X010890Y004601D01*
X010850Y004696D01*
X010780Y004767D01*
X010780Y004910D01*
X010892Y005022D01*
X013259Y005022D01*
X013259Y004948D01*
X013311Y004895D01*
X014232Y004895D01*
X014285Y004948D01*
X014285Y005200D01*
X014300Y005200D01*
X014317Y005183D01*
X014943Y005183D01*
X014996Y005235D01*
X014996Y005664D01*
X014943Y005717D01*
X014317Y005717D01*
X014300Y005700D01*
X014000Y005700D01*
X013908Y005662D01*
X013837Y005591D01*
X013695Y005449D01*
X013311Y005449D01*
X013259Y005396D01*
X013259Y005322D01*
X012707Y005322D01*
X012707Y006064D01*
X012856Y006064D01*
X012856Y005916D01*
X013070Y005916D01*
X013070Y005868D01*
X012856Y005868D01*
X012856Y005678D01*
X012865Y005645D01*
X012882Y005615D01*
X012906Y005591D01*
X012936Y005574D01*
X012969Y005565D01*
X013070Y005565D01*
X013070Y005868D01*
X013119Y005868D01*
X013119Y005916D01*
X013333Y005916D01*
X013333Y006079D01*
X013400Y006146D01*
X013447Y006194D01*
X013455Y006192D01*
X013532Y006192D01*
X013545Y006192D01*
X013531Y006179D01*
X013520Y006179D01*
X013467Y006126D01*
X013467Y005658D01*
X013520Y005605D01*
X013811Y005605D01*
X013864Y005658D01*
X013864Y006115D01*
X013868Y006120D01*
X013868Y006192D01*
X013925Y006192D01*
X013925Y006479D01*
X013925Y006479D01*
X013925Y006192D01*
X014001Y006192D01*
X014035Y006201D01*
X014064Y006218D01*
X014078Y006232D01*
X014218Y006232D01*
X014271Y006285D01*
X014271Y006625D01*
X014735Y006625D01*
X014894Y006783D01*
X015114Y006783D01*
X015167Y006836D01*
X015167Y007127D01*
X015114Y007179D01*
X014665Y007179D01*
X014665Y007265D01*
X014663Y007267D01*
X014665Y007269D01*
X014665Y007314D01*
X014666Y007314D01*
X014856Y007314D01*
X014856Y007528D01*
X014904Y007528D01*
X014904Y007314D01*
X015094Y007314D01*
X015127Y007323D01*
X015157Y007340D01*
X015181Y007364D01*
X015198Y007394D01*
X015207Y007427D01*
X015207Y007528D01*
X014904Y007528D01*
X014904Y007576D01*
X015207Y007576D01*
X015207Y007677D01*
X015198Y007711D01*
X015181Y007740D01*
X015157Y007764D01*
X015127Y007782D01*
X015094Y007790D01*
X014904Y007790D01*
X014904Y007576D01*
X014856Y007576D01*
X014856Y007790D01*
X014705Y007790D01*
X014705Y007835D01*
X014696Y007868D01*
X014679Y007898D01*
X014655Y007922D01*
X014625Y007939D01*
X014592Y007948D01*
X014417Y007948D01*
X014271Y007948D01*
X014271Y008230D01*
X014311Y008230D01*
X014364Y008283D01*
X014364Y008751D01*
X014311Y008804D01*
X014020Y008804D01*
X013967Y008751D01*
X013967Y008516D01*
X013867Y008417D01*
X013833Y008382D01*
X013833Y008493D01*
X013619Y008493D01*
X013619Y008541D01*
X013833Y008541D01*
X013833Y008731D01*
X013824Y008764D01*
X013807Y008793D01*
X013783Y008818D01*
X013753Y008835D01*
X013720Y008844D01*
X013627Y008844D01*
X013680Y008897D01*
X015555Y008897D01*
X015625Y008967D01*
X018117Y011459D01*
X018187Y011529D01*
X018187Y012191D01*
X018117Y012262D01*
X017492Y012887D01*
X015518Y012887D01*
X015448Y012816D01*
X013904Y011272D01*
X012950Y011272D01*
X012950Y011393D01*
X012964Y011407D01*
X012981Y011437D01*
X012990Y011470D01*
X012990Y011546D01*
X012624Y011546D01*
X012258Y011546D01*
X012258Y011470D01*
X012267Y011437D01*
X012284Y011407D01*
X012298Y011393D01*
X012298Y011253D01*
X012300Y011251D01*
X012298Y011249D01*
X012298Y011109D01*
X012284Y011095D01*
X012267Y011065D01*
X012258Y011032D01*
X012258Y010956D01*
X012624Y010956D01*
X012624Y010956D01*
X012990Y010956D01*
X012990Y011032D01*
X012990Y011032D01*
X013851Y011032D01*
X013697Y010879D01*
X012990Y010879D01*
X012990Y010879D01*
X012990Y010956D01*
X012624Y010956D01*
X012624Y010956D01*
X012258Y010956D01*
X012258Y010879D01*
X012267Y010846D01*
X012284Y010817D01*
X012298Y010803D01*
X012298Y010662D01*
X012300Y010660D01*
X012298Y010658D01*
X012298Y010466D01*
X012300Y010464D01*
X012298Y010461D01*
X012298Y010269D01*
X012300Y010267D01*
X012298Y010265D01*
X012298Y010091D01*
X012160Y010091D01*
X012090Y010021D01*
X011498Y009429D01*
X011349Y009429D01*
X011218Y009297D01*
X011218Y009111D01*
X011349Y008979D01*
X011536Y008979D01*
X011667Y009111D01*
X011667Y009259D01*
X011905Y009497D01*
X011905Y009282D01*
X011958Y009229D01*
X012298Y009229D01*
X012298Y009117D01*
X011958Y009117D01*
X011905Y009064D01*
X011905Y008719D01*
X011958Y008667D01*
X012302Y008667D01*
X012314Y008678D01*
X012351Y008641D01*
X012432Y008641D01*
X012365Y008575D01*
X012365Y008452D01*
X012312Y008430D01*
X012217Y008334D01*
X012165Y008209D01*
X012165Y008074D01*
X012217Y007949D01*
X012312Y007853D01*
X012437Y007802D01*
X012555Y007802D01*
X012555Y007759D01*
X012843Y007759D01*
X013130Y007759D01*
X013130Y007807D01*
X013234Y007807D01*
X013236Y007809D01*
X013238Y007807D01*
X013431Y007807D01*
X013433Y007809D01*
X013435Y007807D01*
X013628Y007807D01*
X013630Y007809D01*
X013632Y007807D01*
X013825Y007807D01*
X013827Y007809D01*
X013829Y007807D01*
X014022Y007807D01*
X014024Y007809D01*
X014026Y007807D01*
X014130Y007807D01*
X014130Y007759D01*
X014417Y007759D01*
X014417Y007759D01*
X014417Y007948D01*
X014417Y007759D01*
X014417Y007759D01*
X014130Y007759D01*
X014130Y007683D01*
X014139Y007650D01*
X014156Y007620D01*
X014170Y007606D01*
X014170Y007466D01*
X014172Y007464D01*
X014170Y007461D01*
X014170Y007269D01*
X014172Y007267D01*
X014170Y007265D01*
X014170Y007072D01*
X014172Y007070D01*
X014170Y007068D01*
X014170Y006925D01*
X013348Y006925D01*
X013260Y006837D01*
X013185Y006762D01*
X013185Y006727D01*
X013090Y006727D01*
X013090Y006871D01*
X013088Y006873D01*
X013090Y006875D01*
X013090Y007068D01*
X013088Y007070D01*
X013090Y007072D01*
X013090Y007265D01*
X013088Y007267D01*
X013090Y007269D01*
X013090Y007461D01*
X013088Y007464D01*
X013090Y007466D01*
X013090Y007606D01*
X013104Y007620D01*
X013121Y007650D01*
X013130Y007683D01*
X013130Y007759D01*
X012843Y007759D01*
X012843Y007759D01*
X012843Y007759D01*
X012843Y007948D01*
X012989Y007948D01*
X012989Y008249D01*
X013018Y008278D01*
X013018Y008762D01*
X013088Y008832D01*
X013518Y009262D01*
X015393Y009262D01*
X017823Y011691D01*
X017823Y012029D01*
X017330Y012522D01*
X015680Y012522D01*
X013797Y010639D01*
X012950Y010639D01*
X012950Y010466D01*
X012948Y010464D01*
X012950Y010461D01*
X012950Y010269D01*
X012948Y010267D01*
X012950Y010265D01*
X012950Y010072D01*
X012948Y010070D01*
X012950Y010068D01*
X012950Y009895D01*
X012963Y009895D01*
X013518Y010449D01*
X013588Y010520D01*
X014776Y010520D01*
X015510Y011254D01*
X015510Y011816D01*
X015655Y011961D01*
X015655Y012110D01*
X015787Y012242D01*
X015973Y012242D01*
X016105Y012110D01*
X016105Y011923D01*
X015973Y011792D01*
X015825Y011792D01*
X015750Y011717D01*
X015750Y011705D01*
X015787Y011742D01*
X015968Y011742D01*
X015968Y011775D01*
X016099Y011907D01*
X016286Y011907D01*
X016412Y011781D01*
X016718Y012086D01*
X016718Y012235D01*
X016849Y012367D01*
X017036Y012367D01*
X017167Y012235D01*
X017167Y012048D01*
X017036Y011917D01*
X016887Y011917D01*
X016712Y011742D01*
X016786Y011742D01*
X016917Y011610D01*
X016917Y011464D01*
X016973Y011464D01*
X017105Y011332D01*
X017105Y011146D01*
X016973Y011014D01*
X016787Y011014D01*
X016655Y011146D01*
X016655Y011292D01*
X016637Y011292D01*
X015158Y009812D01*
X015088Y009742D01*
X013900Y009742D01*
X013025Y008867D01*
X012950Y008867D01*
X012950Y008694D01*
X012898Y008641D01*
X012764Y008641D01*
X012764Y008578D01*
X012645Y008459D01*
X012645Y008452D01*
X012698Y008430D01*
X012793Y008334D01*
X012845Y008209D01*
X012845Y008074D01*
X012793Y007949D01*
X012792Y007948D01*
X012843Y007948D01*
X012843Y007759D01*
X012843Y007759D01*
X012555Y007759D01*
X012555Y007683D01*
X012564Y007650D01*
X012581Y007620D01*
X012595Y007606D01*
X012595Y007522D01*
X012550Y007567D01*
X012542Y007567D01*
X012542Y007573D01*
X012489Y007625D01*
X012269Y007625D01*
X012006Y007888D01*
X012006Y008477D01*
X011919Y008565D01*
X011544Y008940D01*
X010828Y008940D01*
X011919Y010031D01*
X012006Y010118D01*
X012006Y011143D01*
X011919Y011231D01*
X011919Y011231D01*
X011800Y011349D01*
X012044Y011593D01*
X012258Y011593D01*
X012258Y011546D01*
X012624Y011546D01*
X012624Y011546D01*
X012624Y011546D01*
X012990Y011546D01*
X012990Y011593D01*
X013564Y011593D01*
X013608Y011549D01*
X013703Y011510D01*
X013807Y011510D01*
X013902Y011549D01*
X013975Y011622D01*
X014015Y011718D01*
X014015Y011821D01*
X013975Y011917D01*
X013902Y011990D01*
X013807Y012030D01*
X013703Y012030D01*
X013608Y011990D01*
X013535Y011917D01*
X013525Y011893D01*
X012842Y011893D01*
X012842Y011908D01*
X012927Y011908D01*
X013531Y011908D01*
X013584Y011967D02*
X012979Y011967D01*
X012979Y011961D02*
X012979Y012252D01*
X012927Y012304D01*
X012458Y012304D01*
X012406Y012252D01*
X012406Y011961D01*
X012458Y011908D01*
X012028Y011908D01*
X012044Y011893D02*
X012006Y011930D01*
X012006Y012573D01*
X012005Y012574D01*
X012005Y012636D01*
X012037Y012604D01*
X012223Y012604D01*
X012355Y012736D01*
X012355Y012856D01*
X012395Y012896D01*
X012395Y013033D01*
X012489Y013033D01*
X012542Y013086D01*
X012542Y013303D01*
X012718Y013127D01*
X013042Y013127D01*
X013227Y013312D01*
X013452Y013087D01*
X013600Y013087D01*
X013600Y013487D01*
X013660Y013487D01*
X013660Y013087D01*
X013808Y013087D01*
X014033Y013312D01*
X014218Y013127D01*
X014542Y013127D01*
X014718Y013303D01*
X014718Y013086D01*
X014771Y013033D01*
X014780Y013033D01*
X014780Y012861D01*
X014912Y012729D01*
X015098Y012729D01*
X015230Y012861D01*
X015230Y013033D01*
X015239Y013033D01*
X015292Y013086D01*
X015292Y013377D01*
X015239Y013429D01*
X020075Y013429D01*
X020075Y013371D02*
X015292Y013371D01*
X015292Y013312D02*
X018857Y013312D01*
X018799Y013254D02*
X015292Y013254D01*
X015292Y013195D02*
X018748Y013195D01*
X018748Y013137D02*
X015292Y013137D01*
X015284Y013078D02*
X018748Y013078D01*
X018748Y013020D02*
X015230Y013020D01*
X015230Y012961D02*
X018802Y012961D01*
X018833Y012903D02*
X015230Y012903D01*
X015213Y012844D02*
X015475Y012844D01*
X015417Y012786D02*
X015155Y012786D01*
X015300Y012669D02*
X012717Y012669D01*
X012717Y012653D02*
X012717Y012701D01*
X013019Y012701D01*
X013019Y012802D01*
X013010Y012836D01*
X012993Y012865D01*
X012969Y012889D01*
X012940Y012907D01*
X012906Y012915D01*
X012717Y012915D01*
X012717Y012701D01*
X012668Y012701D01*
X012668Y012653D01*
X012366Y012653D01*
X012366Y012552D01*
X012006Y012552D01*
X012005Y012610D02*
X012031Y012610D01*
X012006Y012493D02*
X012389Y012493D01*
X012392Y012489D02*
X012416Y012465D01*
X012445Y012448D01*
X012479Y012439D01*
X012668Y012439D01*
X012668Y012653D01*
X012717Y012653D01*
X013019Y012653D01*
X013019Y012552D01*
X015183Y012552D01*
X015241Y012610D02*
X013019Y012610D01*
X013019Y012552D02*
X013010Y012519D01*
X012993Y012489D01*
X012969Y012465D01*
X012940Y012448D01*
X012906Y012439D01*
X012717Y012439D01*
X012717Y012653D01*
X012717Y012610D02*
X012668Y012610D01*
X012668Y012552D02*
X012717Y012552D01*
X012717Y012493D02*
X012668Y012493D01*
X012668Y012669D02*
X012288Y012669D01*
X012346Y012727D02*
X012366Y012727D01*
X012366Y012701D02*
X012366Y012802D01*
X012375Y012836D01*
X012392Y012865D01*
X012416Y012889D01*
X012445Y012907D01*
X012479Y012915D01*
X012668Y012915D01*
X012668Y012701D01*
X012366Y012701D01*
X012355Y012786D02*
X012366Y012786D01*
X012355Y012844D02*
X012380Y012844D01*
X012395Y012903D02*
X012439Y012903D01*
X012395Y012961D02*
X014780Y012961D01*
X014780Y012903D02*
X012946Y012903D01*
X013005Y012844D02*
X014797Y012844D01*
X014855Y012786D02*
X013019Y012786D01*
X013019Y012727D02*
X015358Y012727D01*
X015568Y012767D02*
X017443Y012767D01*
X018068Y012142D01*
X018068Y011579D01*
X015505Y009017D01*
X013630Y009017D01*
X013335Y008721D01*
X013335Y008054D01*
X013138Y008054D02*
X013138Y008712D01*
X013568Y009142D01*
X015443Y009142D01*
X017943Y011642D01*
X017943Y012079D01*
X017380Y012642D01*
X015630Y012642D01*
X013747Y010759D01*
X012624Y010759D01*
X012298Y010738D02*
X012006Y010738D01*
X012006Y010680D02*
X012298Y010680D01*
X012298Y010621D02*
X012006Y010621D01*
X012006Y010563D02*
X012298Y010563D01*
X012298Y010504D02*
X012006Y010504D01*
X012006Y010446D02*
X012298Y010446D01*
X012298Y010387D02*
X012006Y010387D01*
X012006Y010329D02*
X012298Y010329D01*
X012298Y010270D02*
X012006Y010270D01*
X012006Y010212D02*
X012298Y010212D01*
X012298Y010153D02*
X012006Y010153D01*
X011983Y010095D02*
X012298Y010095D01*
X012210Y009971D02*
X012624Y009971D01*
X012624Y009775D02*
X013013Y009775D01*
X013638Y010400D01*
X014825Y010400D01*
X015630Y011204D01*
X015630Y011767D01*
X015880Y012017D01*
X016105Y012025D02*
X016656Y012025D01*
X016598Y011967D02*
X016105Y011967D01*
X016090Y011908D02*
X016539Y011908D01*
X016481Y011850D02*
X016343Y011850D01*
X016401Y011791D02*
X016422Y011791D01*
X016443Y011642D02*
X016943Y012142D01*
X017167Y012142D02*
X017710Y012142D01*
X017768Y012084D02*
X017167Y012084D01*
X017144Y012025D02*
X017823Y012025D01*
X017823Y011967D02*
X017086Y011967D01*
X016879Y011908D02*
X017823Y011908D01*
X017823Y011850D02*
X016820Y011850D01*
X016762Y011791D02*
X017823Y011791D01*
X017823Y011733D02*
X016795Y011733D01*
X016853Y011674D02*
X017805Y011674D01*
X017747Y011616D02*
X016912Y011616D01*
X016917Y011557D02*
X017688Y011557D01*
X017630Y011499D02*
X016917Y011499D01*
X016997Y011440D02*
X017571Y011440D01*
X017513Y011382D02*
X017056Y011382D01*
X017105Y011323D02*
X017454Y011323D01*
X017396Y011265D02*
X017105Y011265D01*
X017105Y011206D02*
X017337Y011206D01*
X017279Y011148D02*
X017105Y011148D01*
X017048Y011089D02*
X017220Y011089D01*
X017162Y011031D02*
X016990Y011031D01*
X017103Y010972D02*
X016318Y010972D01*
X016376Y011031D02*
X016770Y011031D01*
X016712Y011089D02*
X016435Y011089D01*
X016493Y011148D02*
X016655Y011148D01*
X016655Y011206D02*
X016552Y011206D01*
X016610Y011265D02*
X016655Y011265D01*
X016693Y011517D02*
X015038Y009862D01*
X013850Y009862D01*
X012975Y008987D01*
X012624Y008987D01*
X012624Y009184D02*
X012985Y009184D01*
X013797Y009996D01*
X014985Y009996D01*
X016443Y011454D01*
X016443Y011642D01*
X016193Y011682D02*
X016193Y011392D01*
X014932Y010131D01*
X013744Y010131D01*
X012994Y009381D01*
X012624Y009381D01*
X012624Y009578D02*
X013004Y009578D01*
X013630Y010204D01*
X013694Y010265D01*
X014879Y010265D01*
X015880Y011267D01*
X015880Y011517D01*
X015778Y011733D02*
X015766Y011733D01*
X015824Y011791D02*
X015984Y011791D01*
X016031Y011850D02*
X016042Y011850D01*
X015655Y011967D02*
X015125Y011967D01*
X015183Y012025D02*
X015655Y012025D01*
X015655Y012084D02*
X015242Y012084D01*
X015300Y012142D02*
X015687Y012142D01*
X015746Y012201D02*
X015359Y012201D01*
X015417Y012259D02*
X016742Y012259D01*
X016718Y012201D02*
X016014Y012201D01*
X016073Y012142D02*
X016718Y012142D01*
X016715Y012084D02*
X016105Y012084D01*
X015602Y011908D02*
X015066Y011908D01*
X015008Y011850D02*
X015543Y011850D01*
X015510Y011791D02*
X014949Y011791D01*
X014891Y011733D02*
X015510Y011733D01*
X015510Y011674D02*
X014832Y011674D01*
X014774Y011616D02*
X015510Y011616D01*
X015510Y011557D02*
X014715Y011557D01*
X014657Y011499D02*
X015510Y011499D01*
X015510Y011440D02*
X014598Y011440D01*
X014540Y011382D02*
X015510Y011382D01*
X015510Y011323D02*
X014481Y011323D01*
X014423Y011265D02*
X015510Y011265D01*
X015462Y011206D02*
X014364Y011206D01*
X014306Y011148D02*
X015404Y011148D01*
X015345Y011089D02*
X014247Y011089D01*
X014189Y011031D02*
X015287Y011031D01*
X015228Y010972D02*
X014130Y010972D01*
X014072Y010914D02*
X015170Y010914D01*
X015111Y010855D02*
X014013Y010855D01*
X013955Y010797D02*
X015053Y010797D01*
X014994Y010738D02*
X013896Y010738D01*
X013838Y010680D02*
X014936Y010680D01*
X014877Y010621D02*
X012950Y010621D01*
X012950Y010563D02*
X014819Y010563D01*
X015499Y010153D02*
X016284Y010153D01*
X016226Y010095D02*
X015440Y010095D01*
X015382Y010036D02*
X016167Y010036D01*
X016109Y009978D02*
X015323Y009978D01*
X015265Y009919D02*
X016050Y009919D01*
X015992Y009861D02*
X015206Y009861D01*
X015148Y009802D02*
X015933Y009802D01*
X015875Y009744D02*
X015089Y009744D01*
X015524Y009393D02*
X013551Y009393D01*
X013609Y009451D02*
X015582Y009451D01*
X015641Y009510D02*
X013668Y009510D01*
X013726Y009568D02*
X015699Y009568D01*
X015758Y009627D02*
X013785Y009627D01*
X013843Y009685D02*
X015816Y009685D01*
X016168Y009510D02*
X019990Y009510D01*
X019990Y009568D02*
X016226Y009568D01*
X016285Y009627D02*
X019990Y009627D01*
X019990Y009685D02*
X016343Y009685D01*
X016402Y009744D02*
X019990Y009744D01*
X019990Y009802D02*
X016460Y009802D01*
X016519Y009861D02*
X019990Y009861D01*
X019990Y009919D02*
X016577Y009919D01*
X016636Y009978D02*
X019990Y009978D01*
X019990Y010036D02*
X016694Y010036D01*
X016753Y010095D02*
X019990Y010095D01*
X019990Y010153D02*
X016811Y010153D01*
X016870Y010212D02*
X019987Y010212D01*
X019928Y010270D02*
X016928Y010270D01*
X016987Y010329D02*
X019870Y010329D01*
X019811Y010387D02*
X017045Y010387D01*
X017104Y010446D02*
X019753Y010446D01*
X019694Y010504D02*
X017162Y010504D01*
X017221Y010563D02*
X019636Y010563D01*
X019577Y010621D02*
X017279Y010621D01*
X017338Y010680D02*
X019519Y010680D01*
X019460Y010738D02*
X018075Y010738D01*
X018036Y010699D02*
X018167Y010831D01*
X018167Y011017D01*
X018036Y011149D01*
X017849Y011149D01*
X017718Y011017D01*
X017718Y010831D01*
X017849Y010699D01*
X018036Y010699D01*
X018133Y010797D02*
X019402Y010797D01*
X019343Y010855D02*
X018167Y010855D01*
X018167Y010914D02*
X019285Y010914D01*
X019226Y010972D02*
X018167Y010972D01*
X018154Y011031D02*
X019168Y011031D01*
X019109Y011089D02*
X018096Y011089D01*
X018037Y011148D02*
X019051Y011148D01*
X018992Y011206D02*
X017864Y011206D01*
X017848Y011148D02*
X017806Y011148D01*
X017789Y011089D02*
X017747Y011089D01*
X017731Y011031D02*
X017689Y011031D01*
X017718Y010972D02*
X017630Y010972D01*
X017572Y010914D02*
X017718Y010914D01*
X017718Y010855D02*
X017513Y010855D01*
X017455Y010797D02*
X017752Y010797D01*
X017810Y010738D02*
X017396Y010738D01*
X017045Y010914D02*
X016259Y010914D01*
X016201Y010855D02*
X016986Y010855D01*
X016928Y010797D02*
X016142Y010797D01*
X016084Y010738D02*
X016869Y010738D01*
X016811Y010680D02*
X016025Y010680D01*
X015967Y010621D02*
X016752Y010621D01*
X016694Y010563D02*
X015908Y010563D01*
X015850Y010504D02*
X016635Y010504D01*
X016577Y010446D02*
X015791Y010446D01*
X015733Y010387D02*
X016518Y010387D01*
X016460Y010329D02*
X015674Y010329D01*
X015616Y010270D02*
X016401Y010270D01*
X016343Y010212D02*
X015557Y010212D01*
X016109Y009451D02*
X019990Y009451D01*
X019990Y009393D02*
X016051Y009393D01*
X015992Y009334D02*
X019990Y009334D01*
X019990Y009276D02*
X015934Y009276D01*
X015875Y009217D02*
X019990Y009217D01*
X019990Y009159D02*
X015817Y009159D01*
X015758Y009100D02*
X019990Y009100D01*
X019990Y009042D02*
X015700Y009042D01*
X015641Y008983D02*
X019990Y008983D01*
X019990Y008925D02*
X015583Y008925D01*
X015407Y009276D02*
X013434Y009276D01*
X013473Y009217D02*
X013375Y009217D01*
X013415Y009159D02*
X013317Y009159D01*
X013356Y009100D02*
X013258Y009100D01*
X013298Y009042D02*
X013200Y009042D01*
X013239Y008983D02*
X013141Y008983D01*
X013181Y008925D02*
X013083Y008925D01*
X013122Y008866D02*
X012950Y008866D01*
X012950Y008808D02*
X013064Y008808D01*
X013018Y008749D02*
X012950Y008749D01*
X012947Y008691D02*
X013018Y008691D01*
X013018Y008632D02*
X012764Y008632D01*
X012760Y008574D02*
X013018Y008574D01*
X013018Y008515D02*
X012702Y008515D01*
X012645Y008457D02*
X013018Y008457D01*
X013018Y008398D02*
X012729Y008398D01*
X012788Y008340D02*
X013018Y008340D01*
X013018Y008281D02*
X012815Y008281D01*
X012839Y008223D02*
X012989Y008223D01*
X012989Y008164D02*
X012845Y008164D01*
X012845Y008106D02*
X012989Y008106D01*
X012989Y008047D02*
X012834Y008047D01*
X012810Y007989D02*
X012989Y007989D01*
X012843Y007930D02*
X012843Y007930D01*
X012843Y007872D02*
X012843Y007872D01*
X012843Y007813D02*
X012843Y007813D01*
X013130Y007755D02*
X014130Y007755D01*
X014130Y007696D02*
X013130Y007696D01*
X013114Y007638D02*
X014146Y007638D01*
X014170Y007579D02*
X013090Y007579D01*
X013090Y007521D02*
X013363Y007521D01*
X013343Y007501D02*
X013396Y007554D01*
X013864Y007554D01*
X013917Y007501D01*
X013917Y007033D01*
X013864Y006980D01*
X013396Y006980D01*
X013343Y007033D01*
X013343Y007501D01*
X013343Y007462D02*
X013089Y007462D01*
X013090Y007404D02*
X013343Y007404D01*
X013343Y007345D02*
X013090Y007345D01*
X013090Y007287D02*
X013343Y007287D01*
X013343Y007228D02*
X013090Y007228D01*
X013090Y007170D02*
X013343Y007170D01*
X013343Y007111D02*
X013090Y007111D01*
X013090Y007053D02*
X013343Y007053D01*
X013381Y006994D02*
X013090Y006994D01*
X013090Y006936D02*
X014170Y006936D01*
X014170Y006994D02*
X013879Y006994D01*
X013917Y007053D02*
X014170Y007053D01*
X014170Y007111D02*
X013917Y007111D01*
X013917Y007170D02*
X014170Y007170D01*
X014170Y007228D02*
X013917Y007228D01*
X013917Y007287D02*
X014170Y007287D01*
X014170Y007345D02*
X013917Y007345D01*
X013917Y007404D02*
X014170Y007404D01*
X014171Y007462D02*
X013917Y007462D01*
X013897Y007521D02*
X014170Y007521D01*
X014417Y007813D02*
X014417Y007813D01*
X014417Y007872D02*
X014417Y007872D01*
X014417Y007930D02*
X014417Y007930D01*
X014271Y007989D02*
X019990Y007989D01*
X019990Y008047D02*
X014271Y008047D01*
X014271Y008106D02*
X019990Y008106D01*
X019990Y008164D02*
X014271Y008164D01*
X014271Y008223D02*
X019990Y008223D01*
X019990Y008281D02*
X015042Y008281D01*
X015042Y008282D02*
X014990Y008229D01*
X014645Y008229D01*
X014593Y008282D01*
X014593Y008626D01*
X014645Y008679D01*
X014990Y008679D01*
X015042Y008626D01*
X015042Y008282D01*
X015042Y008340D02*
X019990Y008340D01*
X019990Y008398D02*
X015042Y008398D01*
X015042Y008457D02*
X019990Y008457D01*
X019990Y008515D02*
X015042Y008515D01*
X015042Y008574D02*
X019990Y008574D01*
X019990Y008632D02*
X015037Y008632D01*
X014598Y008632D02*
X014364Y008632D01*
X014364Y008574D02*
X014593Y008574D01*
X014593Y008515D02*
X014364Y008515D01*
X014364Y008457D02*
X014593Y008457D01*
X014593Y008398D02*
X014364Y008398D01*
X014364Y008340D02*
X014593Y008340D01*
X014593Y008281D02*
X014362Y008281D01*
X013966Y008515D02*
X013619Y008515D01*
X013833Y008457D02*
X013907Y008457D01*
X013849Y008398D02*
X013833Y008398D01*
X013833Y008574D02*
X013967Y008574D01*
X013967Y008632D02*
X013833Y008632D01*
X013833Y008691D02*
X013967Y008691D01*
X013967Y008749D02*
X013828Y008749D01*
X013792Y008808D02*
X019990Y008808D01*
X019990Y008866D02*
X013649Y008866D01*
X014364Y008749D02*
X019990Y008749D01*
X019990Y008691D02*
X014364Y008691D01*
X014640Y007930D02*
X019990Y007930D01*
X019990Y007872D02*
X014694Y007872D01*
X014705Y007813D02*
X019990Y007813D01*
X019990Y007755D02*
X018180Y007755D01*
X018238Y007696D02*
X019990Y007696D01*
X019990Y007638D02*
X018268Y007638D01*
X018288Y007579D02*
X019990Y007579D01*
X019990Y007521D02*
X018288Y007521D01*
X018277Y007462D02*
X019990Y007462D01*
X019990Y007404D02*
X018253Y007404D01*
X018201Y007345D02*
X019990Y007345D01*
X019990Y007287D02*
X018133Y007287D01*
X018133Y007228D02*
X019990Y007228D01*
X019990Y007170D02*
X018133Y007170D01*
X018133Y007111D02*
X019990Y007111D01*
X019990Y007053D02*
X018133Y007053D01*
X018133Y006994D02*
X019990Y006994D01*
X019990Y006936D02*
X018133Y006936D01*
X018133Y006877D02*
X019990Y006877D01*
X019990Y006819D02*
X018133Y006819D01*
X018133Y006760D02*
X019990Y006760D01*
X019990Y006702D02*
X018133Y006702D01*
X018133Y006643D02*
X019990Y006643D01*
X019990Y006585D02*
X018133Y006585D01*
X018133Y006526D02*
X019990Y006526D01*
X019990Y006468D02*
X018133Y006468D01*
X018133Y006409D02*
X019990Y006409D01*
X019990Y006351D02*
X018133Y006351D01*
X018133Y006292D02*
X019990Y006292D01*
X019990Y006234D02*
X018201Y006234D01*
X018230Y006175D02*
X019990Y006175D01*
X019990Y006117D02*
X018230Y006117D01*
X018230Y006058D02*
X019990Y006058D01*
X019990Y006000D02*
X018230Y006000D01*
X018230Y005941D02*
X019990Y005941D01*
X019990Y005883D02*
X018230Y005883D01*
X018230Y005824D02*
X019990Y005824D01*
X019990Y005766D02*
X018230Y005766D01*
X018230Y005707D02*
X019990Y005707D01*
X019990Y005649D02*
X018230Y005649D01*
X018230Y005590D02*
X019990Y005590D01*
X019990Y005532D02*
X018183Y005532D01*
X018126Y005473D02*
X019990Y005473D01*
X019990Y005415D02*
X018156Y005415D01*
X018189Y005356D02*
X019990Y005356D01*
X019990Y005298D02*
X018189Y005298D01*
X018191Y005239D02*
X019990Y005239D01*
X019990Y005181D02*
X018224Y005181D01*
X018229Y005122D02*
X018268Y005122D01*
X018229Y005089D02*
X017961Y005089D01*
X017961Y005120D01*
X017961Y005120D01*
X017961Y005089D01*
X017961Y005089D01*
X017961Y005089D01*
X018229Y005089D01*
X017961Y005089D02*
X017961Y005042D01*
X017961Y005042D01*
X017961Y005089D01*
X017781Y005089D01*
X017781Y005089D01*
X017961Y005089D01*
X017961Y005089D01*
X017961Y005089D01*
X017961Y005064D02*
X017961Y005064D01*
X017961Y004695D02*
X018229Y004695D01*
X017961Y004695D01*
X017961Y004695D01*
X018229Y004713D02*
X019990Y004713D01*
X019990Y004771D02*
X019281Y004771D01*
X019292Y004830D02*
X019990Y004830D01*
X019990Y004888D02*
X019292Y004888D01*
X019292Y004947D02*
X019990Y004947D01*
X019990Y005005D02*
X019292Y005005D01*
X019292Y005064D02*
X019990Y005064D01*
X019990Y005122D02*
X019242Y005122D01*
X018768Y005122D02*
X018742Y005122D01*
X018478Y004596D02*
X019990Y004596D01*
X019990Y004654D02*
X018229Y004654D01*
X018218Y004303D02*
X017614Y004303D01*
X017587Y004245D02*
X018218Y004245D01*
X018243Y004186D02*
X017528Y004186D01*
X017470Y004128D02*
X018756Y004128D01*
X018981Y004128D02*
X019029Y004128D01*
X019029Y004186D02*
X018981Y004186D01*
X018981Y004245D02*
X019029Y004245D01*
X019029Y004303D02*
X018981Y004303D01*
X019029Y004362D02*
X019990Y004362D01*
X019990Y004420D02*
X019332Y004420D01*
X019332Y004479D02*
X019990Y004479D01*
X019990Y004537D02*
X019310Y004537D01*
X019332Y004303D02*
X019990Y004303D01*
X019990Y004245D02*
X019332Y004245D01*
X019316Y004186D02*
X019990Y004186D01*
X019990Y004128D02*
X019254Y004128D01*
X019029Y004420D02*
X018981Y004420D01*
X018981Y004479D02*
X019029Y004479D01*
X019029Y004537D02*
X018981Y004537D01*
X019990Y004069D02*
X017461Y004069D01*
X017461Y004011D02*
X019990Y004011D01*
X019990Y003952D02*
X017461Y003952D01*
X017461Y003894D02*
X019990Y003894D01*
X019990Y003835D02*
X017461Y003835D01*
X017461Y003777D02*
X019990Y003777D01*
X019990Y003718D02*
X017461Y003718D01*
X017461Y003660D02*
X019990Y003660D01*
X019990Y003601D02*
X017461Y003601D01*
X017461Y003543D02*
X019990Y003543D01*
X019990Y003484D02*
X017461Y003484D01*
X017461Y003426D02*
X019990Y003426D01*
X019990Y003367D02*
X017453Y003367D01*
X017405Y003309D02*
X019990Y003309D01*
X019990Y003250D02*
X017405Y003250D01*
X017405Y003192D02*
X019990Y003192D01*
X019990Y003133D02*
X017384Y003133D01*
X017350Y003075D02*
X019990Y003075D01*
X019990Y003016D02*
X017291Y003016D01*
X017296Y003021D02*
X017296Y003021D01*
X017233Y002958D02*
X019990Y002958D01*
X019990Y002899D02*
X017205Y002899D01*
X016339Y002767D02*
X021890Y002767D01*
X022940Y003816D01*
X022940Y007707D01*
X026950Y007707D01*
X026950Y001074D01*
X008018Y001074D01*
X007948Y001004D01*
X007948Y000447D01*
X007190Y000447D01*
X007190Y003133D01*
X008692Y003133D01*
X008692Y003111D02*
X008824Y002979D01*
X008973Y002979D01*
X009073Y002879D01*
X009073Y002592D01*
X009143Y002522D01*
X009393Y002272D01*
X009867Y002272D01*
X009937Y002342D01*
X010125Y002529D01*
X010125Y002767D01*
X015805Y002767D01*
X015805Y002704D01*
X015857Y002651D01*
X016286Y002651D01*
X016339Y002704D01*
X016339Y002767D01*
X016339Y002724D02*
X026950Y002724D01*
X026950Y002782D02*
X021906Y002782D01*
X021964Y002841D02*
X026950Y002841D01*
X026950Y002899D02*
X022023Y002899D01*
X022081Y002958D02*
X026950Y002958D01*
X026950Y003016D02*
X022140Y003016D01*
X022198Y003075D02*
X026950Y003075D01*
X026950Y003133D02*
X022257Y003133D01*
X022315Y003192D02*
X026950Y003192D01*
X026950Y003250D02*
X022374Y003250D01*
X022432Y003309D02*
X026950Y003309D01*
X026950Y003367D02*
X022491Y003367D01*
X022549Y003426D02*
X026950Y003426D01*
X026950Y003484D02*
X026305Y003484D01*
X026287Y003477D02*
X026577Y003597D01*
X026800Y003819D01*
X026920Y004110D01*
X026920Y004424D01*
X026800Y004714D01*
X026577Y004936D01*
X026287Y005057D01*
X025973Y005057D01*
X025683Y004936D01*
X025460Y004714D01*
X025340Y004424D01*
X025340Y004110D01*
X025460Y003819D01*
X025683Y003597D01*
X025973Y003477D01*
X026287Y003477D01*
X026447Y003543D02*
X026950Y003543D01*
X026950Y003601D02*
X026582Y003601D01*
X026640Y003660D02*
X026950Y003660D01*
X026950Y003718D02*
X026699Y003718D01*
X026757Y003777D02*
X026950Y003777D01*
X026950Y003835D02*
X026806Y003835D01*
X026831Y003894D02*
X026950Y003894D01*
X026950Y003952D02*
X026855Y003952D01*
X026879Y004011D02*
X026950Y004011D01*
X026950Y004069D02*
X026903Y004069D01*
X026920Y004128D02*
X026950Y004128D01*
X026950Y004186D02*
X026920Y004186D01*
X026920Y004245D02*
X026950Y004245D01*
X026950Y004303D02*
X026920Y004303D01*
X026920Y004362D02*
X026950Y004362D01*
X026950Y004420D02*
X026920Y004420D01*
X026897Y004479D02*
X026950Y004479D01*
X026950Y004537D02*
X026873Y004537D01*
X026849Y004596D02*
X026950Y004596D01*
X026950Y004654D02*
X026825Y004654D01*
X026800Y004713D02*
X026950Y004713D01*
X026950Y004771D02*
X026743Y004771D01*
X026684Y004830D02*
X026950Y004830D01*
X026950Y004888D02*
X026626Y004888D01*
X026553Y004947D02*
X026950Y004947D01*
X026950Y005005D02*
X026411Y005005D01*
X026950Y005064D02*
X022940Y005064D01*
X022940Y005122D02*
X026950Y005122D01*
X026950Y005181D02*
X022940Y005181D01*
X022940Y005239D02*
X026950Y005239D01*
X026950Y005298D02*
X022940Y005298D01*
X022940Y005356D02*
X026950Y005356D01*
X026950Y005415D02*
X022940Y005415D01*
X022940Y005473D02*
X026950Y005473D01*
X026950Y005532D02*
X022940Y005532D01*
X022940Y005590D02*
X026950Y005590D01*
X026950Y005649D02*
X022940Y005649D01*
X022940Y005707D02*
X026950Y005707D01*
X026950Y005766D02*
X022940Y005766D01*
X022940Y005824D02*
X026950Y005824D01*
X026950Y005883D02*
X022940Y005883D01*
X022940Y005941D02*
X026950Y005941D01*
X026950Y006000D02*
X022940Y006000D01*
X022940Y006058D02*
X026950Y006058D01*
X026950Y006117D02*
X022940Y006117D01*
X022940Y006175D02*
X026950Y006175D01*
X026950Y006234D02*
X022940Y006234D01*
X022940Y006292D02*
X026950Y006292D01*
X026950Y006351D02*
X022940Y006351D01*
X022940Y006409D02*
X026950Y006409D01*
X026950Y006468D02*
X022940Y006468D01*
X022940Y006526D02*
X026950Y006526D01*
X026950Y006585D02*
X022940Y006585D01*
X022940Y006643D02*
X026950Y006643D01*
X026950Y006702D02*
X022940Y006702D01*
X022940Y006760D02*
X026950Y006760D01*
X026950Y006819D02*
X022940Y006819D01*
X022940Y006877D02*
X026950Y006877D01*
X026950Y006936D02*
X022940Y006936D01*
X022940Y006994D02*
X026950Y006994D01*
X026950Y007053D02*
X022940Y007053D01*
X022940Y007111D02*
X026950Y007111D01*
X026950Y007170D02*
X022940Y007170D01*
X022940Y007228D02*
X026950Y007228D01*
X026950Y007287D02*
X022940Y007287D01*
X022940Y007345D02*
X026950Y007345D01*
X026950Y007404D02*
X022940Y007404D01*
X022940Y007462D02*
X026950Y007462D01*
X026950Y007521D02*
X022940Y007521D01*
X022940Y007579D02*
X026950Y007579D01*
X026950Y007638D02*
X022940Y007638D01*
X022940Y007696D02*
X026950Y007696D01*
X026950Y007827D02*
X025288Y007827D01*
X025355Y007894D01*
X025355Y008080D01*
X025223Y008212D01*
X025037Y008212D01*
X024905Y008080D01*
X024905Y007894D01*
X024972Y007827D01*
X022940Y007827D01*
X022940Y009707D01*
X026950Y009707D01*
X026950Y007827D01*
X026950Y007872D02*
X025333Y007872D01*
X025355Y007930D02*
X026950Y007930D01*
X026950Y007989D02*
X025355Y007989D01*
X025355Y008047D02*
X026950Y008047D01*
X026950Y008106D02*
X025330Y008106D01*
X025271Y008164D02*
X026950Y008164D01*
X026950Y008223D02*
X022940Y008223D01*
X022940Y008281D02*
X026950Y008281D01*
X026950Y008340D02*
X022940Y008340D01*
X022940Y008398D02*
X026950Y008398D01*
X026950Y008457D02*
X022940Y008457D01*
X022940Y008515D02*
X026950Y008515D01*
X026950Y008574D02*
X022940Y008574D01*
X022940Y008632D02*
X026950Y008632D01*
X026950Y008691D02*
X022940Y008691D01*
X022940Y008749D02*
X026950Y008749D01*
X026950Y008808D02*
X022940Y008808D01*
X022940Y008866D02*
X026950Y008866D01*
X026950Y008925D02*
X022940Y008925D01*
X022940Y008983D02*
X026950Y008983D01*
X026950Y009042D02*
X022940Y009042D01*
X022940Y009100D02*
X026950Y009100D01*
X026950Y009159D02*
X022940Y009159D01*
X022940Y009217D02*
X026950Y009217D01*
X026950Y009276D02*
X022940Y009276D01*
X022940Y009334D02*
X026950Y009334D01*
X026950Y009393D02*
X022940Y009393D01*
X022940Y009451D02*
X026950Y009451D01*
X026950Y009510D02*
X022940Y009510D01*
X022940Y009568D02*
X026950Y009568D01*
X026950Y009627D02*
X022940Y009627D01*
X022940Y009685D02*
X026950Y009685D01*
X026950Y009827D02*
X025288Y009827D01*
X025355Y009894D01*
X025355Y010080D01*
X025223Y010212D01*
X025037Y010212D01*
X024905Y010080D01*
X024905Y009894D01*
X024972Y009827D01*
X022940Y009827D01*
X022940Y011707D01*
X026950Y011707D01*
X026950Y009827D01*
X026950Y009861D02*
X025322Y009861D01*
X025355Y009919D02*
X026950Y009919D01*
X026950Y009978D02*
X025355Y009978D01*
X025355Y010036D02*
X026950Y010036D01*
X026950Y010095D02*
X025341Y010095D01*
X025282Y010153D02*
X026950Y010153D01*
X026950Y010212D02*
X025224Y010212D01*
X025036Y010212D02*
X022940Y010212D01*
X022940Y010270D02*
X026950Y010270D01*
X026950Y010329D02*
X022940Y010329D01*
X022940Y010387D02*
X026950Y010387D01*
X026950Y010446D02*
X022940Y010446D01*
X022940Y010504D02*
X026950Y010504D01*
X026950Y010563D02*
X022940Y010563D01*
X022940Y010621D02*
X026950Y010621D01*
X026950Y010680D02*
X022940Y010680D01*
X022940Y010738D02*
X026950Y010738D01*
X026950Y010797D02*
X022940Y010797D01*
X022940Y010855D02*
X026950Y010855D01*
X026950Y010914D02*
X022940Y010914D01*
X022940Y010972D02*
X026950Y010972D01*
X026950Y011031D02*
X022940Y011031D01*
X022940Y011089D02*
X026950Y011089D01*
X026950Y011148D02*
X022940Y011148D01*
X022940Y011206D02*
X026950Y011206D01*
X026950Y011265D02*
X022940Y011265D01*
X022940Y011323D02*
X026950Y011323D01*
X026950Y011382D02*
X022940Y011382D01*
X022940Y011440D02*
X026950Y011440D01*
X026950Y011499D02*
X022940Y011499D01*
X022940Y011557D02*
X026950Y011557D01*
X026950Y011616D02*
X022940Y011616D01*
X022940Y011674D02*
X026950Y011674D01*
X026950Y011827D02*
X025288Y011827D01*
X025355Y011894D01*
X025355Y012080D01*
X025223Y012212D01*
X025037Y012212D01*
X024905Y012080D01*
X024905Y011894D01*
X024972Y011827D01*
X022940Y011827D01*
X022940Y014087D01*
X026630Y014087D01*
X026692Y014081D01*
X026808Y014033D01*
X026896Y013944D01*
X026944Y013829D01*
X026950Y013767D01*
X026950Y011827D01*
X026950Y011850D02*
X025311Y011850D01*
X025355Y011908D02*
X026950Y011908D01*
X026950Y011967D02*
X025355Y011967D01*
X025355Y012025D02*
X026950Y012025D01*
X026950Y012084D02*
X025352Y012084D01*
X025293Y012142D02*
X026950Y012142D01*
X026950Y012201D02*
X025235Y012201D01*
X025025Y012201D02*
X022940Y012201D01*
X022940Y012259D02*
X026950Y012259D01*
X026950Y012318D02*
X022940Y012318D01*
X022940Y012376D02*
X026950Y012376D01*
X026950Y012435D02*
X022940Y012435D01*
X022940Y012493D02*
X026950Y012493D01*
X026950Y012552D02*
X022940Y012552D01*
X022940Y012610D02*
X026950Y012610D01*
X026950Y012669D02*
X022940Y012669D01*
X022940Y012727D02*
X026950Y012727D01*
X026950Y012786D02*
X022940Y012786D01*
X022940Y012844D02*
X026950Y012844D01*
X026950Y012903D02*
X022940Y012903D01*
X022940Y012961D02*
X026950Y012961D01*
X026950Y013020D02*
X022940Y013020D01*
X022940Y013078D02*
X026950Y013078D01*
X026950Y013137D02*
X022940Y013137D01*
X022940Y013195D02*
X026950Y013195D01*
X026950Y013254D02*
X022940Y013254D01*
X022940Y013312D02*
X026950Y013312D01*
X026950Y013371D02*
X022940Y013371D01*
X022940Y013429D02*
X026950Y013429D01*
X026950Y013488D02*
X022940Y013488D01*
X022940Y013546D02*
X026950Y013546D01*
X026950Y013605D02*
X022940Y013605D01*
X022940Y013663D02*
X026950Y013663D01*
X026950Y013722D02*
X022940Y013722D01*
X022940Y013780D02*
X026949Y013780D01*
X026940Y013839D02*
X022940Y013839D01*
X022940Y013897D02*
X026916Y013897D01*
X026885Y013956D02*
X022940Y013956D01*
X022940Y014014D02*
X026826Y014014D01*
X026711Y014073D02*
X022940Y014073D01*
X022820Y014073D02*
X020195Y014073D01*
X020195Y014087D02*
X022820Y014087D01*
X022820Y003892D01*
X021820Y002892D01*
X020270Y002892D01*
X020270Y010325D01*
X020195Y010400D01*
X020195Y010741D01*
X020237Y010699D01*
X020423Y010699D01*
X020555Y010831D01*
X020555Y011017D01*
X020423Y011149D01*
X020237Y011149D01*
X020195Y011107D01*
X020195Y014087D01*
X020195Y014014D02*
X022820Y014014D01*
X022820Y013956D02*
X020195Y013956D01*
X020195Y013897D02*
X022820Y013897D01*
X022820Y013839D02*
X020195Y013839D01*
X020195Y013780D02*
X022820Y013780D01*
X022820Y013722D02*
X020195Y013722D01*
X020195Y013663D02*
X022820Y013663D01*
X022820Y013605D02*
X020195Y013605D01*
X020195Y013546D02*
X022820Y013546D01*
X022820Y013488D02*
X020195Y013488D01*
X020195Y013429D02*
X022820Y013429D01*
X022820Y013371D02*
X020195Y013371D01*
X020195Y013312D02*
X022820Y013312D01*
X022820Y013254D02*
X020195Y013254D01*
X020195Y013195D02*
X022820Y013195D01*
X022820Y013137D02*
X020195Y013137D01*
X020195Y013078D02*
X022820Y013078D01*
X022820Y013020D02*
X020195Y013020D01*
X020195Y012961D02*
X021506Y012961D01*
X021537Y012992D02*
X021405Y012860D01*
X021405Y012673D01*
X021537Y012542D01*
X021723Y012542D01*
X021855Y012673D01*
X021855Y012860D01*
X021723Y012992D01*
X021537Y012992D01*
X021448Y012903D02*
X020195Y012903D01*
X020195Y012844D02*
X021405Y012844D01*
X021405Y012786D02*
X020195Y012786D01*
X020195Y012727D02*
X021405Y012727D01*
X021410Y012669D02*
X020195Y012669D01*
X020195Y012610D02*
X021468Y012610D01*
X021527Y012552D02*
X020195Y012552D01*
X020195Y012493D02*
X022820Y012493D01*
X022820Y012435D02*
X020195Y012435D01*
X020195Y012376D02*
X022820Y012376D01*
X022820Y012318D02*
X020195Y012318D01*
X020195Y012259D02*
X022820Y012259D01*
X022820Y012201D02*
X022741Y012201D01*
X022731Y012210D02*
X022361Y012210D01*
X022309Y012157D01*
X022309Y012127D01*
X022308Y012127D01*
X022223Y012212D01*
X022037Y012212D01*
X021905Y012080D01*
X021905Y011894D01*
X022037Y011762D01*
X022223Y011762D01*
X022308Y011847D01*
X022309Y011847D01*
X022309Y011817D01*
X022361Y011764D01*
X022731Y011764D01*
X022784Y011817D01*
X022784Y012157D01*
X022731Y012210D01*
X022784Y012142D02*
X022820Y012142D01*
X022820Y012084D02*
X022784Y012084D01*
X022784Y012025D02*
X022820Y012025D01*
X022820Y011967D02*
X022784Y011967D01*
X022784Y011908D02*
X022820Y011908D01*
X022820Y011850D02*
X022784Y011850D01*
X022758Y011791D02*
X022820Y011791D01*
X022820Y011733D02*
X021962Y011733D01*
X021962Y011772D02*
X021830Y011904D01*
X021644Y011904D01*
X021512Y011772D01*
X021512Y011586D01*
X021644Y011454D01*
X021830Y011454D01*
X021962Y011586D01*
X021962Y011772D01*
X021943Y011791D02*
X022008Y011791D01*
X021949Y011850D02*
X021885Y011850D01*
X021905Y011908D02*
X020195Y011908D01*
X020195Y011850D02*
X021590Y011850D01*
X021531Y011791D02*
X020195Y011791D01*
X020195Y011733D02*
X021512Y011733D01*
X021512Y011674D02*
X020195Y011674D01*
X020195Y011616D02*
X021512Y011616D01*
X021541Y011557D02*
X020195Y011557D01*
X020195Y011499D02*
X021599Y011499D01*
X021875Y011499D02*
X022820Y011499D01*
X022820Y011557D02*
X021934Y011557D01*
X021962Y011616D02*
X022820Y011616D01*
X022820Y011674D02*
X021962Y011674D01*
X022252Y011791D02*
X022334Y011791D01*
X021905Y011967D02*
X020195Y011967D01*
X020195Y012025D02*
X021905Y012025D01*
X021908Y012084D02*
X020195Y012084D01*
X020195Y012142D02*
X021967Y012142D01*
X022025Y012201D02*
X020195Y012201D01*
X020075Y012201D02*
X019113Y012201D01*
X019113Y012259D02*
X020075Y012259D01*
X020075Y012318D02*
X019113Y012318D01*
X019113Y012376D02*
X020075Y012376D01*
X020075Y012435D02*
X019113Y012435D01*
X019113Y012493D02*
X020075Y012493D01*
X020075Y012552D02*
X019113Y012552D01*
X019113Y012610D02*
X020075Y012610D01*
X020075Y012669D02*
X019113Y012669D01*
X019113Y012727D02*
X020075Y012727D01*
X020075Y012786D02*
X019113Y012786D01*
X019113Y012844D02*
X020075Y012844D01*
X020075Y012903D02*
X019113Y012903D01*
X019143Y012961D02*
X020075Y012961D01*
X020075Y013020D02*
X019198Y013020D01*
X019198Y013078D02*
X020075Y013078D01*
X020075Y013137D02*
X019198Y013137D01*
X019198Y013195D02*
X020075Y013195D01*
X020075Y013254D02*
X019146Y013254D01*
X019088Y013312D02*
X020075Y013312D01*
X020075Y013488D02*
X014903Y013488D01*
X014961Y013546D02*
X020075Y013546D01*
X020075Y013605D02*
X015240Y013605D01*
X015239Y013604D02*
X015292Y013657D01*
X015292Y013948D01*
X015239Y014000D01*
X014771Y014000D01*
X014718Y013948D01*
X014718Y013730D01*
X014542Y013907D01*
X014218Y013907D01*
X014033Y013721D01*
X013808Y013947D01*
X013660Y013947D01*
X013660Y013547D01*
X013600Y013547D01*
X013600Y013947D01*
X013452Y013947D01*
X013227Y013721D01*
X013042Y013907D01*
X012718Y013907D01*
X012542Y013730D01*
X012542Y013948D01*
X012489Y014000D01*
X012021Y014000D01*
X011968Y013948D01*
X011968Y013657D01*
X012021Y013604D01*
X012255Y013604D01*
X012400Y013459D01*
X012430Y013429D01*
X012021Y013429D01*
X011612Y013429D01*
X011612Y013371D02*
X011968Y013371D01*
X011968Y013377D02*
X011968Y013086D01*
X012018Y013036D01*
X011905Y012922D01*
X011905Y012837D01*
X011760Y012837D01*
X011758Y012835D01*
X011756Y012837D01*
X011563Y012837D01*
X011561Y012835D01*
X011559Y012837D01*
X011366Y012837D01*
X011364Y012835D01*
X011362Y012837D01*
X011273Y012837D01*
X011361Y012924D01*
X011559Y012924D01*
X011612Y012977D01*
X011612Y013681D01*
X011559Y013734D01*
X011327Y013734D01*
X011274Y013681D01*
X011274Y013234D01*
X011179Y013139D01*
X011179Y013320D01*
X010980Y013320D01*
X010980Y013339D01*
X010961Y013339D01*
X010961Y013774D01*
X010875Y013774D01*
X010842Y013765D01*
X010812Y013748D01*
X010788Y013724D01*
X010771Y013694D01*
X010762Y013661D01*
X010762Y013339D01*
X010961Y013339D01*
X010961Y013320D01*
X010762Y013320D01*
X010762Y013145D01*
X010667Y013240D01*
X010667Y013681D01*
X010614Y013734D01*
X010382Y013734D01*
X010330Y013683D01*
X010323Y013711D01*
X010306Y013740D01*
X010282Y013764D01*
X010252Y013782D01*
X010219Y013790D01*
X010029Y013790D01*
X010029Y013576D01*
X009981Y013576D01*
X009981Y013528D01*
X009678Y013528D01*
X009529Y013528D01*
X009529Y013576D01*
X009981Y013576D01*
X009981Y013790D01*
X009791Y013790D01*
X009758Y013782D01*
X009755Y013780D01*
X009752Y013782D01*
X009719Y013790D01*
X009529Y013790D01*
X009529Y013576D01*
X009481Y013576D01*
X009481Y013528D01*
X009225Y013528D01*
X009198Y013555D01*
X009073Y013607D01*
X008937Y013607D01*
X008812Y013555D01*
X008717Y013459D01*
X008665Y013334D01*
X008665Y013199D01*
X008717Y013074D01*
X008812Y012978D01*
X008937Y012927D01*
X009073Y012927D01*
X009198Y012978D01*
X009218Y012999D01*
X009218Y012837D01*
X009201Y012837D01*
X009199Y012835D01*
X009197Y012837D01*
X009004Y012837D01*
X009002Y012835D01*
X009000Y012837D01*
X008807Y012837D01*
X008755Y012784D01*
X008755Y012561D01*
X008754Y012560D01*
X008685Y012492D01*
X008537Y012492D01*
X008405Y012360D01*
X008405Y012242D01*
X008287Y012242D01*
X008155Y012110D01*
X008155Y011961D01*
X008086Y011892D01*
X007862Y011892D01*
X007832Y011862D01*
X007832Y011903D01*
X007529Y011903D01*
X007529Y011689D01*
X007719Y011689D01*
X007752Y011698D01*
X007782Y011715D01*
X007806Y011739D01*
X007810Y011746D01*
X007810Y011699D01*
X007796Y011685D01*
X007779Y011655D01*
X007770Y011622D01*
X007770Y011546D01*
X007770Y011524D01*
X007739Y011554D01*
X007271Y011554D01*
X007252Y011536D01*
X006833Y011955D01*
X006745Y012043D01*
X004873Y012043D01*
X004873Y012087D01*
X004820Y012140D01*
X004391Y012140D01*
X004339Y012087D01*
X004339Y011698D01*
X004375Y011661D01*
X004328Y011614D01*
X004328Y011612D01*
X004280Y011563D01*
X004280Y011095D01*
X004332Y011042D01*
X004623Y011042D01*
X004676Y011095D01*
X004676Y011538D01*
X004756Y011618D01*
X004756Y011645D01*
X004820Y011645D01*
X004873Y011698D01*
X004873Y011743D01*
X006621Y011743D01*
X007007Y011356D01*
X005830Y010179D01*
X005830Y010330D01*
X005778Y010382D01*
X005349Y010382D01*
X005296Y010330D01*
X005296Y009704D01*
X005349Y009651D01*
X005778Y009651D01*
X005803Y009676D01*
X005803Y008825D01*
X005010Y008032D01*
X002614Y008032D01*
X002614Y008126D01*
X002561Y008179D01*
X002270Y008179D01*
X002217Y008126D01*
X002217Y007658D01*
X002233Y007642D01*
X002217Y007626D01*
X002217Y007158D01*
X002270Y007105D01*
X002561Y007105D01*
X002614Y007158D01*
X002614Y007252D01*
X008331Y007252D01*
X008413Y007334D01*
X008791Y007712D01*
X008807Y007696D01*
X008980Y007696D01*
X008775Y007696D01*
X008717Y007638D02*
X008980Y007638D01*
X008980Y007696D02*
X008980Y007121D01*
X009051Y007051D01*
X009215Y006887D01*
X007140Y006887D01*
X007130Y006876D01*
X007120Y006887D01*
X004390Y006887D01*
X004380Y006876D01*
X004370Y006887D01*
X000828Y006887D01*
X000867Y006936D02*
X001189Y006936D01*
X001171Y006954D02*
X001224Y006901D01*
X001653Y006901D01*
X001705Y006954D01*
X001705Y007105D01*
X001990Y007105D01*
X002043Y007158D01*
X002043Y007626D01*
X002027Y007642D01*
X002043Y007658D01*
X002043Y008126D01*
X001990Y008179D01*
X001705Y008179D01*
X001705Y008330D01*
X001653Y008382D01*
X001224Y008382D01*
X001171Y008330D01*
X001171Y007704D01*
X001224Y007651D01*
X001653Y007651D01*
X001662Y007642D01*
X001653Y007632D01*
X001653Y007632D01*
X001224Y007632D01*
X001171Y007580D01*
X001171Y006954D01*
X001171Y006994D02*
X000879Y006994D01*
X000879Y007053D02*
X001171Y007053D01*
X001171Y007111D02*
X000879Y007111D01*
X000879Y007170D02*
X001171Y007170D01*
X001171Y007228D02*
X000879Y007228D01*
X000879Y007297D02*
X000602Y007297D01*
X000602Y007611D01*
X000602Y007987D01*
X000879Y007987D01*
X000879Y007724D01*
X000870Y007691D01*
X000853Y007661D01*
X000834Y007642D01*
X000853Y007622D01*
X000870Y007592D01*
X000879Y007559D01*
X000879Y007297D01*
X000879Y007345D02*
X001171Y007345D01*
X001171Y007287D02*
X000602Y007287D01*
X000602Y007345D02*
X000542Y007345D01*
X000542Y007404D02*
X000602Y007404D01*
X000602Y007462D02*
X000542Y007462D01*
X000542Y007521D02*
X000602Y007521D01*
X000602Y007579D02*
X000542Y007579D01*
X000542Y007638D02*
X000602Y007638D01*
X000602Y007696D02*
X000542Y007696D01*
X000542Y007755D02*
X000602Y007755D01*
X000602Y007813D02*
X000542Y007813D01*
X000542Y007872D02*
X000602Y007872D01*
X000602Y007930D02*
X000542Y007930D01*
X000602Y007989D02*
X001171Y007989D01*
X001171Y008047D02*
X000879Y008047D01*
X000879Y008309D01*
X000870Y008342D01*
X000853Y008372D01*
X000829Y008396D01*
X000799Y008413D01*
X000766Y008422D01*
X000602Y008422D01*
X000602Y008047D01*
X000542Y008047D01*
X000542Y008106D02*
X000602Y008106D01*
X000602Y008164D02*
X000542Y008164D01*
X000542Y008223D02*
X000602Y008223D01*
X000602Y008281D02*
X000542Y008281D01*
X000542Y008340D02*
X000602Y008340D01*
X000602Y008398D02*
X000542Y008398D01*
X000318Y008398D02*
X000310Y008398D01*
X000310Y008457D02*
X005435Y008457D01*
X005493Y008515D02*
X003410Y008515D01*
X003410Y008574D02*
X005552Y008574D01*
X005610Y008632D02*
X003410Y008632D01*
X003410Y008691D02*
X005669Y008691D01*
X005727Y008749D02*
X005569Y008749D01*
X005542Y008723D02*
X005674Y008855D01*
X005674Y009041D01*
X005614Y009101D01*
X005614Y009563D01*
X005561Y009616D01*
X005270Y009616D01*
X005217Y009563D01*
X005217Y009095D01*
X005245Y009067D01*
X005245Y009063D01*
X005224Y009041D01*
X005224Y008855D01*
X005356Y008723D01*
X005542Y008723D01*
X005627Y008808D02*
X005786Y008808D01*
X005803Y008866D02*
X005674Y008866D01*
X005674Y008925D02*
X005803Y008925D01*
X005803Y008983D02*
X005674Y008983D01*
X005673Y009042D02*
X005803Y009042D01*
X005803Y009100D02*
X005615Y009100D01*
X005614Y009159D02*
X005803Y009159D01*
X005803Y009217D02*
X005614Y009217D01*
X005614Y009276D02*
X005803Y009276D01*
X005803Y009334D02*
X005614Y009334D01*
X005614Y009393D02*
X005803Y009393D01*
X005803Y009451D02*
X005614Y009451D01*
X005614Y009510D02*
X005803Y009510D01*
X005803Y009568D02*
X005609Y009568D01*
X005803Y009627D02*
X005015Y009627D01*
X005015Y009592D02*
X005015Y009939D01*
X004964Y009990D01*
X004964Y010330D01*
X004911Y010382D01*
X004482Y010382D01*
X004430Y010330D01*
X004430Y009704D01*
X004482Y009651D01*
X004675Y009651D01*
X004675Y009592D01*
X004646Y009563D01*
X004646Y009095D01*
X004699Y009042D01*
X004990Y009042D01*
X005043Y009095D01*
X005043Y009563D01*
X005015Y009592D01*
X005038Y009568D02*
X005222Y009568D01*
X005217Y009510D02*
X005043Y009510D01*
X005043Y009451D02*
X005217Y009451D01*
X005217Y009393D02*
X005043Y009393D01*
X005043Y009334D02*
X005217Y009334D01*
X005217Y009276D02*
X005043Y009276D01*
X005043Y009217D02*
X005217Y009217D01*
X005217Y009159D02*
X005043Y009159D01*
X005043Y009100D02*
X005217Y009100D01*
X005225Y009042D02*
X003410Y009042D01*
X003410Y009100D02*
X004646Y009100D01*
X004646Y009159D02*
X003410Y009159D01*
X003410Y009217D02*
X004646Y009217D01*
X004646Y009276D02*
X003410Y009276D01*
X003410Y009334D02*
X004646Y009334D01*
X004646Y009393D02*
X003410Y009393D01*
X003410Y009451D02*
X004646Y009451D01*
X004646Y009510D02*
X003410Y009510D01*
X003410Y009568D02*
X004651Y009568D01*
X004675Y009627D02*
X003410Y009627D01*
X003410Y009685D02*
X004448Y009685D01*
X004430Y009744D02*
X003410Y009744D01*
X003410Y009802D02*
X004430Y009802D01*
X004430Y009861D02*
X003410Y009861D01*
X003410Y009919D02*
X004430Y009919D01*
X004430Y009978D02*
X003410Y009978D01*
X003410Y010036D02*
X004430Y010036D01*
X004430Y010095D02*
X003410Y010095D01*
X003410Y010153D02*
X004430Y010153D01*
X004430Y010212D02*
X003410Y010212D01*
X003410Y010270D02*
X004430Y010270D01*
X004430Y010329D02*
X003410Y010329D01*
X003410Y010387D02*
X006038Y010387D01*
X005980Y010329D02*
X005830Y010329D01*
X005830Y010270D02*
X005921Y010270D01*
X005863Y010212D02*
X005830Y010212D01*
X006097Y010446D02*
X003410Y010446D01*
X003410Y010504D02*
X006155Y010504D01*
X006214Y010563D02*
X003410Y010563D01*
X003410Y010621D02*
X006272Y010621D01*
X006331Y010680D02*
X003410Y010680D01*
X003410Y010738D02*
X006389Y010738D01*
X006448Y010797D02*
X003410Y010797D01*
X003410Y010855D02*
X006506Y010855D01*
X006565Y010914D02*
X003410Y010914D01*
X003410Y010972D02*
X006623Y010972D01*
X006682Y011031D02*
X004098Y011031D01*
X004095Y011028D02*
X004119Y011052D01*
X004136Y011082D01*
X004145Y011115D01*
X004145Y011305D01*
X003931Y011305D01*
X003931Y011002D01*
X004032Y011002D01*
X004066Y011011D01*
X004095Y011028D01*
X004138Y011089D02*
X004285Y011089D01*
X004280Y011148D02*
X004145Y011148D01*
X004145Y011206D02*
X004280Y011206D01*
X004280Y011265D02*
X004145Y011265D01*
X004145Y011353D02*
X004145Y011543D01*
X004136Y011576D01*
X004119Y011606D01*
X004095Y011630D01*
X004066Y011647D01*
X004032Y011656D01*
X003931Y011656D01*
X003931Y011353D01*
X004145Y011353D01*
X004145Y011382D02*
X004280Y011382D01*
X004280Y011440D02*
X004145Y011440D01*
X004145Y011499D02*
X004280Y011499D01*
X004280Y011557D02*
X004142Y011557D01*
X004109Y011616D02*
X004329Y011616D01*
X004362Y011674D02*
X003410Y011674D01*
X003410Y011616D02*
X003705Y011616D01*
X003695Y011606D02*
X003678Y011576D01*
X003669Y011543D01*
X003669Y011353D01*
X003883Y011353D01*
X003883Y011305D01*
X003931Y011305D01*
X003931Y011353D01*
X003883Y011353D01*
X003883Y011656D01*
X003782Y011656D01*
X003749Y011647D01*
X003719Y011630D01*
X003695Y011606D01*
X003673Y011557D02*
X003410Y011557D01*
X003410Y011499D02*
X003669Y011499D01*
X003669Y011440D02*
X003410Y011440D01*
X003410Y011382D02*
X003669Y011382D01*
X003669Y011305D02*
X003669Y011115D01*
X003678Y011082D01*
X003695Y011052D01*
X003719Y011028D01*
X003749Y011011D01*
X003782Y011002D01*
X003883Y011002D01*
X003883Y011305D01*
X003669Y011305D01*
X003669Y011265D02*
X003410Y011265D01*
X003410Y011323D02*
X003883Y011323D01*
X003931Y011323D02*
X004280Y011323D01*
X003931Y011265D02*
X003883Y011265D01*
X003883Y011206D02*
X003931Y011206D01*
X003931Y011148D02*
X003883Y011148D01*
X003883Y011089D02*
X003931Y011089D01*
X003931Y011031D02*
X003883Y011031D01*
X003717Y011031D02*
X003410Y011031D01*
X003410Y011089D02*
X003676Y011089D01*
X003669Y011148D02*
X003410Y011148D01*
X003410Y011206D02*
X003669Y011206D01*
X003883Y011382D02*
X003931Y011382D01*
X003931Y011440D02*
X003883Y011440D01*
X003883Y011499D02*
X003931Y011499D01*
X003931Y011557D02*
X003883Y011557D01*
X003883Y011616D02*
X003931Y011616D01*
X004339Y011733D02*
X003410Y011733D01*
X003410Y011791D02*
X004339Y011791D01*
X004339Y011850D02*
X003410Y011850D01*
X003410Y011908D02*
X004339Y011908D01*
X004339Y011967D02*
X003410Y011967D01*
X003410Y012025D02*
X003463Y012025D01*
X003459Y012029D02*
X003483Y012005D01*
X003512Y011988D01*
X003545Y011979D01*
X003710Y011979D01*
X003710Y012237D01*
X003433Y012237D01*
X003433Y012092D01*
X003441Y012059D01*
X003459Y012029D01*
X003435Y012084D02*
X003410Y012084D01*
X003410Y012142D02*
X003433Y012142D01*
X003433Y012201D02*
X003410Y012201D01*
X003410Y012259D02*
X003710Y012259D01*
X003710Y012237D02*
X003710Y012297D01*
X003710Y012554D01*
X003545Y012554D01*
X003512Y012545D01*
X003483Y012528D01*
X003459Y012504D01*
X003441Y012474D01*
X003433Y012441D01*
X003433Y012297D01*
X003710Y012297D01*
X003770Y012297D01*
X003770Y012554D01*
X003934Y012554D01*
X003967Y012545D01*
X003997Y012528D01*
X004021Y012504D01*
X004038Y012474D01*
X004047Y012441D01*
X004047Y012297D01*
X003770Y012297D01*
X003770Y012237D01*
X004047Y012237D01*
X004047Y012092D01*
X004038Y012059D01*
X004021Y012029D01*
X003997Y012005D01*
X003967Y011988D01*
X003934Y011979D01*
X003770Y011979D01*
X003770Y012237D01*
X003710Y012237D01*
X003710Y012201D02*
X003770Y012201D01*
X003770Y012259D02*
X008405Y012259D01*
X008405Y012318D02*
X004047Y012318D01*
X004047Y012376D02*
X008421Y012376D01*
X008480Y012435D02*
X006118Y012435D01*
X006099Y012416D02*
X006231Y012547D01*
X006231Y012734D01*
X006099Y012866D01*
X005913Y012866D01*
X005808Y012761D01*
X004873Y012761D01*
X004873Y012835D01*
X004820Y012888D01*
X004391Y012888D01*
X004339Y012835D01*
X004339Y012446D01*
X004391Y012393D01*
X004820Y012393D01*
X004873Y012446D01*
X004873Y012521D01*
X005808Y012521D01*
X005913Y012416D01*
X006099Y012416D01*
X006177Y012493D02*
X008687Y012493D01*
X008745Y012552D02*
X006231Y012552D01*
X006231Y012610D02*
X008755Y012610D01*
X008755Y012669D02*
X006231Y012669D01*
X006231Y012727D02*
X008755Y012727D01*
X008756Y012786D02*
X006179Y012786D01*
X006121Y012844D02*
X009218Y012844D01*
X009218Y012903D02*
X003410Y012903D01*
X003410Y012961D02*
X008854Y012961D01*
X008771Y013020D02*
X003410Y013020D01*
X003410Y013078D02*
X008715Y013078D01*
X008691Y013137D02*
X003410Y013137D01*
X003410Y013195D02*
X008667Y013195D01*
X008665Y013254D02*
X003410Y013254D01*
X003410Y013312D02*
X008665Y013312D01*
X008680Y013371D02*
X003410Y013371D01*
X003410Y013429D02*
X008704Y013429D01*
X008745Y013488D02*
X003410Y013488D01*
X003393Y013546D02*
X008804Y013546D01*
X008933Y013605D02*
X000310Y013605D01*
X000310Y013663D02*
X009178Y013663D01*
X009178Y013677D02*
X009178Y013576D01*
X009481Y013576D01*
X009481Y013790D01*
X009291Y013790D01*
X009258Y013782D01*
X009228Y013764D01*
X009204Y013740D01*
X009187Y013711D01*
X009178Y013677D01*
X009193Y013722D02*
X000310Y013722D01*
X000311Y013780D02*
X009256Y013780D01*
X009178Y013605D02*
X009077Y013605D01*
X009206Y013546D02*
X009481Y013546D01*
X009529Y013546D02*
X009981Y013546D01*
X009981Y013605D02*
X010029Y013605D01*
X010029Y013663D02*
X009981Y013663D01*
X009981Y013722D02*
X010029Y013722D01*
X010029Y013780D02*
X009981Y013780D01*
X009756Y013780D02*
X009754Y013780D01*
X009529Y013780D02*
X009481Y013780D01*
X009481Y013722D02*
X009529Y013722D01*
X009529Y013663D02*
X009481Y013663D01*
X009481Y013605D02*
X009529Y013605D01*
X010254Y013780D02*
X011968Y013780D01*
X011968Y013722D02*
X011571Y013722D01*
X011612Y013663D02*
X011968Y013663D01*
X012020Y013605D02*
X011612Y013605D01*
X011612Y013546D02*
X012313Y013546D01*
X012371Y013488D02*
X011612Y013488D01*
X011612Y013312D02*
X011968Y013312D01*
X011968Y013254D02*
X011612Y013254D01*
X011612Y013195D02*
X011968Y013195D01*
X011968Y013137D02*
X011612Y013137D01*
X011612Y013078D02*
X011976Y013078D01*
X012002Y013020D02*
X011612Y013020D01*
X011596Y012961D02*
X011944Y012961D01*
X011905Y012903D02*
X011339Y012903D01*
X011281Y012844D02*
X011905Y012844D01*
X012229Y012610D02*
X012366Y012610D01*
X012366Y012552D02*
X012375Y012519D01*
X012392Y012489D01*
X012413Y012259D02*
X012006Y012259D01*
X012006Y012201D02*
X012406Y012201D01*
X012406Y012142D02*
X012006Y012142D01*
X012006Y012084D02*
X012406Y012084D01*
X012406Y012025D02*
X012006Y012025D01*
X012006Y011967D02*
X012406Y011967D01*
X012458Y011908D02*
X012543Y011908D01*
X012543Y011893D01*
X012044Y011893D01*
X011769Y011743D02*
X011526Y011499D01*
X009644Y011499D01*
X009644Y012145D01*
X009691Y012145D01*
X009767Y012145D01*
X009800Y012153D01*
X009830Y012171D01*
X009844Y012185D01*
X009984Y012185D01*
X009986Y012187D01*
X009988Y012185D01*
X010181Y012185D01*
X010183Y012187D01*
X010185Y012185D01*
X010378Y012185D01*
X010380Y012187D01*
X010382Y012185D01*
X010575Y012185D01*
X010577Y012187D01*
X010579Y012185D01*
X010772Y012185D01*
X010774Y012187D01*
X010776Y012185D01*
X010968Y012185D01*
X010971Y012187D01*
X010973Y012185D01*
X011165Y012185D01*
X011167Y012187D01*
X011169Y012185D01*
X011362Y012185D01*
X011364Y012187D01*
X011366Y012185D01*
X011559Y012185D01*
X011561Y012187D01*
X011563Y012185D01*
X011706Y012185D01*
X011706Y011806D01*
X011769Y011743D01*
X011759Y011733D02*
X009644Y011733D01*
X009644Y011791D02*
X011721Y011791D01*
X011706Y011850D02*
X009644Y011850D01*
X009644Y011908D02*
X011706Y011908D01*
X011706Y011967D02*
X009644Y011967D01*
X009644Y012025D02*
X011706Y012025D01*
X011706Y012084D02*
X009644Y012084D01*
X009644Y012142D02*
X011706Y012142D01*
X012006Y012318D02*
X014949Y012318D01*
X015007Y012376D02*
X012006Y012376D01*
X012006Y012435D02*
X015066Y012435D01*
X015124Y012493D02*
X012996Y012493D01*
X012972Y012259D02*
X014890Y012259D01*
X014832Y012201D02*
X012979Y012201D01*
X012979Y012142D02*
X014773Y012142D01*
X014715Y012084D02*
X012979Y012084D01*
X012979Y012025D02*
X013693Y012025D01*
X013817Y012025D02*
X014656Y012025D01*
X014598Y011967D02*
X013926Y011967D01*
X013979Y011908D02*
X014539Y011908D01*
X014481Y011850D02*
X014003Y011850D01*
X014015Y011791D02*
X014422Y011791D01*
X014364Y011733D02*
X014015Y011733D01*
X013997Y011674D02*
X014305Y011674D01*
X014247Y011616D02*
X013969Y011616D01*
X013910Y011557D02*
X014188Y011557D01*
X014130Y011499D02*
X012990Y011499D01*
X012990Y011557D02*
X013600Y011557D01*
X013954Y011323D02*
X012950Y011323D01*
X012950Y011382D02*
X014013Y011382D01*
X014071Y011440D02*
X012982Y011440D01*
X012624Y011152D02*
X013953Y011152D01*
X015568Y012767D01*
X015651Y012493D02*
X017359Y012493D01*
X017417Y012435D02*
X015593Y012435D01*
X015534Y012376D02*
X017476Y012376D01*
X017534Y012318D02*
X017085Y012318D01*
X017143Y012259D02*
X017593Y012259D01*
X017651Y012201D02*
X017167Y012201D01*
X016800Y012318D02*
X015476Y012318D01*
X014780Y013020D02*
X012395Y013020D01*
X012534Y013078D02*
X014726Y013078D01*
X014718Y013137D02*
X014552Y013137D01*
X014610Y013195D02*
X014718Y013195D01*
X014718Y013254D02*
X014669Y013254D01*
X014845Y013429D02*
X015019Y013604D01*
X015239Y013604D01*
X015292Y013663D02*
X020075Y013663D01*
X020075Y013722D02*
X015292Y013722D01*
X015292Y013780D02*
X020075Y013780D01*
X020075Y013839D02*
X015292Y013839D01*
X015292Y013897D02*
X020075Y013897D01*
X020075Y013956D02*
X015284Y013956D01*
X014726Y013956D02*
X012534Y013956D01*
X012542Y013897D02*
X012709Y013897D01*
X012651Y013839D02*
X012542Y013839D01*
X012542Y013780D02*
X012592Y013780D01*
X013051Y013897D02*
X013402Y013897D01*
X013344Y013839D02*
X013109Y013839D01*
X013168Y013780D02*
X013285Y013780D01*
X013226Y013722D02*
X013227Y013722D01*
X013600Y013722D02*
X013660Y013722D01*
X013660Y013780D02*
X013600Y013780D01*
X013600Y013839D02*
X013660Y013839D01*
X013660Y013897D02*
X013600Y013897D01*
X013600Y013663D02*
X013660Y013663D01*
X013660Y013605D02*
X013600Y013605D01*
X013600Y013429D02*
X013660Y013429D01*
X013660Y013371D02*
X013600Y013371D01*
X013600Y013312D02*
X013660Y013312D01*
X013660Y013254D02*
X013600Y013254D01*
X013600Y013195D02*
X013660Y013195D01*
X013660Y013137D02*
X013600Y013137D01*
X013402Y013137D02*
X013052Y013137D01*
X013110Y013195D02*
X013343Y013195D01*
X013285Y013254D02*
X013169Y013254D01*
X012708Y013137D02*
X012542Y013137D01*
X012542Y013195D02*
X012650Y013195D01*
X012591Y013254D02*
X012542Y013254D01*
X012668Y012903D02*
X012717Y012903D01*
X012717Y012844D02*
X012668Y012844D01*
X012668Y012786D02*
X012717Y012786D01*
X012717Y012727D02*
X012668Y012727D01*
X012021Y013429D02*
X011968Y013377D01*
X011274Y013371D02*
X011179Y013371D01*
X011179Y013339D02*
X011179Y013661D01*
X011170Y013694D01*
X011153Y013724D01*
X011129Y013748D01*
X011099Y013765D01*
X011066Y013774D01*
X010980Y013774D01*
X010980Y013339D01*
X011179Y013339D01*
X011179Y013312D02*
X011274Y013312D01*
X011274Y013254D02*
X011179Y013254D01*
X011179Y013195D02*
X011236Y013195D01*
X011274Y013429D02*
X011179Y013429D01*
X011179Y013488D02*
X011274Y013488D01*
X011274Y013546D02*
X011179Y013546D01*
X011179Y013605D02*
X011274Y013605D01*
X011274Y013663D02*
X011179Y013663D01*
X011155Y013722D02*
X011315Y013722D01*
X010980Y013722D02*
X010961Y013722D01*
X010961Y013663D02*
X010980Y013663D01*
X010980Y013605D02*
X010961Y013605D01*
X010961Y013546D02*
X010980Y013546D01*
X010980Y013488D02*
X010961Y013488D01*
X010961Y013429D02*
X010980Y013429D01*
X010980Y013371D02*
X010961Y013371D01*
X010762Y013371D02*
X010667Y013371D01*
X010667Y013429D02*
X010762Y013429D01*
X010762Y013488D02*
X010667Y013488D01*
X010667Y013546D02*
X010762Y013546D01*
X010762Y013605D02*
X010667Y013605D01*
X010667Y013663D02*
X010762Y013663D01*
X010787Y013722D02*
X010627Y013722D01*
X010370Y013722D02*
X010317Y013722D01*
X010667Y013312D02*
X010762Y013312D01*
X010762Y013254D02*
X010667Y013254D01*
X010712Y013195D02*
X010762Y013195D01*
X010575Y012892D02*
X010095Y012892D01*
X010005Y012981D01*
X010575Y012892D02*
X010675Y012792D01*
X010675Y012511D01*
X009691Y012511D02*
X009691Y012145D01*
X009691Y012511D01*
X009691Y012511D01*
X009691Y012493D02*
X009691Y012493D01*
X009691Y012435D02*
X009691Y012435D01*
X009691Y012376D02*
X009691Y012376D01*
X009691Y012318D02*
X009691Y012318D01*
X009691Y012259D02*
X009691Y012259D01*
X009691Y012201D02*
X009691Y012201D01*
X009297Y011934D02*
X009297Y012511D01*
X009100Y012511D02*
X009100Y012112D01*
X008630Y011642D01*
X009005Y011642D02*
X009297Y011934D01*
X009644Y011674D02*
X011700Y011674D01*
X011642Y011616D02*
X009644Y011616D01*
X009644Y011557D02*
X011583Y011557D01*
X011832Y011382D02*
X012298Y011382D01*
X012298Y011323D02*
X011826Y011323D01*
X011884Y011265D02*
X012298Y011265D01*
X012298Y011206D02*
X011943Y011206D01*
X012001Y011148D02*
X012298Y011148D01*
X012281Y011089D02*
X012006Y011089D01*
X012006Y011031D02*
X012258Y011031D01*
X012258Y010972D02*
X012006Y010972D01*
X012006Y010914D02*
X012258Y010914D01*
X012264Y010855D02*
X012006Y010855D01*
X012006Y010797D02*
X012298Y010797D01*
X012990Y010914D02*
X013732Y010914D01*
X013791Y010972D02*
X012990Y010972D01*
X012990Y011031D02*
X013849Y011031D01*
X013573Y010504D02*
X012950Y010504D01*
X012950Y010446D02*
X013514Y010446D01*
X013456Y010387D02*
X012950Y010387D01*
X012950Y010329D02*
X013397Y010329D01*
X013339Y010270D02*
X012950Y010270D01*
X012950Y010212D02*
X013280Y010212D01*
X013222Y010153D02*
X012950Y010153D01*
X012950Y010095D02*
X013163Y010095D01*
X013105Y010036D02*
X012950Y010036D01*
X012950Y009978D02*
X013046Y009978D01*
X012988Y009919D02*
X012950Y009919D01*
X012210Y009971D02*
X011443Y009204D01*
X011598Y009042D02*
X011905Y009042D01*
X011905Y008983D02*
X011540Y008983D01*
X011559Y008925D02*
X011905Y008925D01*
X011905Y008866D02*
X011618Y008866D01*
X011676Y008808D02*
X011905Y008808D01*
X011905Y008749D02*
X011735Y008749D01*
X011793Y008691D02*
X011934Y008691D01*
X011852Y008632D02*
X012423Y008632D01*
X012365Y008574D02*
X011910Y008574D01*
X011969Y008515D02*
X012365Y008515D01*
X012365Y008457D02*
X012006Y008457D01*
X012006Y008398D02*
X012281Y008398D01*
X012222Y008340D02*
X012006Y008340D01*
X012006Y008281D02*
X012195Y008281D01*
X012171Y008223D02*
X012006Y008223D01*
X012006Y008164D02*
X012165Y008164D01*
X012165Y008106D02*
X012006Y008106D01*
X012006Y008047D02*
X012176Y008047D01*
X012200Y007989D02*
X012006Y007989D01*
X012006Y007930D02*
X012236Y007930D01*
X012294Y007872D02*
X012023Y007872D01*
X012081Y007813D02*
X012410Y007813D01*
X012555Y007755D02*
X012140Y007755D01*
X012198Y007696D02*
X012555Y007696D01*
X012571Y007638D02*
X012257Y007638D01*
X012535Y007579D02*
X012595Y007579D01*
X012428Y007229D02*
X012021Y007229D01*
X012005Y007245D01*
X011989Y007229D01*
X011521Y007229D01*
X011468Y007282D01*
X011468Y007469D01*
X011376Y007377D01*
X011418Y007334D01*
X011470Y007209D01*
X011470Y007074D01*
X011460Y007050D01*
X011478Y007069D01*
X011508Y007086D01*
X011541Y007094D01*
X011731Y007094D01*
X011731Y006880D01*
X011779Y006880D01*
X011928Y006880D01*
X012231Y006880D01*
X012231Y006832D01*
X011779Y006832D01*
X011779Y006880D01*
X011779Y007094D01*
X011969Y007094D01*
X012002Y007086D01*
X012005Y007084D01*
X012008Y007086D01*
X012041Y007094D01*
X012231Y007094D01*
X012231Y006880D01*
X012279Y006880D01*
X012279Y007094D01*
X012428Y007094D01*
X012428Y007229D01*
X012428Y007228D02*
X011462Y007228D01*
X011470Y007170D02*
X012428Y007170D01*
X012428Y007111D02*
X011470Y007111D01*
X011461Y007053D02*
X011462Y007053D01*
X011428Y006936D02*
X011405Y006936D01*
X011346Y006877D02*
X011731Y006877D01*
X011731Y006832D02*
X011428Y006832D01*
X011428Y006731D01*
X011437Y006698D01*
X011454Y006668D01*
X011478Y006644D01*
X011508Y006627D01*
X011541Y006618D01*
X011731Y006618D01*
X011731Y006832D01*
X011731Y006819D02*
X011779Y006819D01*
X011779Y006877D02*
X012231Y006877D01*
X012231Y006936D02*
X012279Y006936D01*
X012279Y006994D02*
X012231Y006994D01*
X012231Y007053D02*
X012279Y007053D01*
X011779Y007053D02*
X011731Y007053D01*
X011731Y006994D02*
X011779Y006994D01*
X011779Y006936D02*
X011731Y006936D01*
X011731Y006760D02*
X011779Y006760D01*
X011779Y006702D02*
X011731Y006702D01*
X011731Y006643D02*
X011779Y006643D01*
X011480Y006643D02*
X011095Y006643D01*
X011095Y006585D02*
X012093Y006585D01*
X012093Y006526D02*
X011075Y006526D01*
X011051Y006468D02*
X012093Y006468D01*
X012093Y006409D02*
X011003Y006409D01*
X010941Y006351D02*
X012093Y006351D01*
X012093Y006292D02*
X010125Y006292D01*
X010125Y006234D02*
X012141Y006234D01*
X012428Y006175D02*
X010125Y006175D01*
X010125Y006117D02*
X012428Y006117D01*
X012428Y006058D02*
X010125Y006058D01*
X010125Y006000D02*
X012428Y006000D01*
X012428Y005941D02*
X010125Y005941D01*
X010125Y005883D02*
X012428Y005883D01*
X012428Y005824D02*
X010125Y005824D01*
X010125Y005766D02*
X012428Y005766D01*
X012428Y005707D02*
X010125Y005707D01*
X010125Y005649D02*
X012428Y005649D01*
X012428Y005590D02*
X010125Y005590D01*
X010125Y005532D02*
X012428Y005532D01*
X012428Y005473D02*
X010125Y005473D01*
X010125Y005415D02*
X012428Y005415D01*
X012428Y005356D02*
X010125Y005356D01*
X010125Y005298D02*
X010743Y005298D01*
X010685Y005239D02*
X010125Y005239D01*
X010125Y005181D02*
X010626Y005181D01*
X010568Y005122D02*
X010125Y005122D01*
X010125Y005064D02*
X010509Y005064D01*
X010480Y005005D02*
X010125Y005005D01*
X010125Y004947D02*
X010480Y004947D01*
X010480Y004888D02*
X010125Y004888D01*
X010125Y004830D02*
X010480Y004830D01*
X010480Y004771D02*
X010125Y004771D01*
X010125Y004713D02*
X010426Y004713D01*
X010392Y004654D02*
X010125Y004654D01*
X010125Y004596D02*
X010370Y004596D01*
X010370Y004537D02*
X010125Y004537D01*
X010125Y004479D02*
X010378Y004479D01*
X010248Y004420D02*
X010125Y004420D01*
X010125Y004362D02*
X010189Y004362D01*
X010155Y004303D02*
X010125Y004303D01*
X010125Y004245D02*
X010155Y004245D01*
X010155Y004186D02*
X010125Y004186D01*
X010125Y004128D02*
X010168Y004128D01*
X010125Y004069D02*
X010227Y004069D01*
X010285Y004011D02*
X010125Y004011D01*
X010125Y003952D02*
X013322Y003952D01*
X013238Y004011D02*
X010475Y004011D01*
X010533Y004069D02*
X013219Y004069D01*
X013219Y004128D02*
X010592Y004128D01*
X010605Y004186D02*
X013219Y004186D01*
X013219Y004303D02*
X010716Y004303D01*
X010810Y004362D02*
X013219Y004362D01*
X013219Y004420D02*
X010858Y004420D01*
X010882Y004479D02*
X013221Y004479D01*
X013248Y004537D02*
X010890Y004537D01*
X010890Y004596D02*
X014600Y004596D01*
X014600Y004654D02*
X014660Y004654D01*
X014660Y004596D02*
X015010Y004596D01*
X015036Y004554D02*
X014660Y004554D01*
X014660Y004276D01*
X014923Y004276D01*
X014956Y004285D01*
X014985Y004302D01*
X015010Y004327D01*
X015027Y004356D01*
X015036Y004389D01*
X015036Y004554D01*
X015036Y004537D02*
X015065Y004537D01*
X015036Y004479D02*
X015134Y004479D01*
X015134Y004420D02*
X015036Y004420D01*
X015028Y004362D02*
X015134Y004362D01*
X015134Y004303D02*
X014986Y004303D01*
X014956Y004248D02*
X014923Y004257D01*
X014660Y004257D01*
X014660Y003980D01*
X015036Y003980D01*
X015036Y004144D01*
X015027Y004177D01*
X015010Y004207D01*
X014985Y004231D01*
X014956Y004248D01*
X014962Y004245D02*
X015153Y004245D01*
X015021Y004186D02*
X015545Y004186D01*
X015545Y004128D02*
X015036Y004128D01*
X015036Y004069D02*
X015545Y004069D01*
X015343Y004011D02*
X015036Y004011D01*
X015036Y003894D02*
X015181Y003894D01*
X015239Y003952D02*
X014660Y003952D01*
X014660Y003894D02*
X014600Y003894D01*
X014600Y003952D02*
X014221Y003952D01*
X014224Y003894D02*
X010125Y003894D01*
X010125Y003835D02*
X014224Y003835D01*
X014224Y003777D02*
X010526Y003777D01*
X010584Y003718D02*
X014236Y003718D01*
X014290Y003660D02*
X010605Y003660D01*
X010605Y003601D02*
X013030Y003601D01*
X012944Y003543D02*
X010605Y003543D01*
X010578Y003484D02*
X012900Y003484D01*
X012875Y003426D02*
X010602Y003426D01*
X010660Y003367D02*
X012870Y003367D01*
X012870Y003309D02*
X010667Y003309D01*
X010667Y003250D02*
X012895Y003250D01*
X012932Y003192D02*
X010667Y003192D01*
X010627Y003133D02*
X013001Y003133D01*
X013259Y003133D02*
X013262Y003133D01*
X013705Y003075D02*
X010569Y003075D01*
X010443Y003267D02*
X010193Y003267D01*
X010005Y003454D01*
X010005Y006829D01*
X009691Y007143D01*
X009691Y008023D01*
X009494Y008023D02*
X009494Y007152D01*
X009880Y006767D01*
X009880Y003079D01*
X010005Y002954D01*
X010005Y002579D01*
X009818Y002392D01*
X009443Y002392D01*
X009193Y002642D01*
X009193Y002929D01*
X008917Y003204D01*
X008762Y003367D02*
X007223Y003367D01*
X007230Y003360D02*
X007190Y003400D01*
X007190Y006767D01*
X009335Y006767D01*
X009510Y006592D01*
X009510Y004045D01*
X009411Y004144D01*
X009224Y004144D01*
X009093Y004012D01*
X009093Y003826D01*
X009224Y003694D01*
X009411Y003694D01*
X009510Y003794D01*
X009510Y003415D01*
X009411Y003514D01*
X009224Y003514D01*
X009093Y003383D01*
X009093Y003347D01*
X009011Y003429D01*
X008824Y003429D01*
X008692Y003297D01*
X008692Y003111D01*
X008729Y003075D02*
X007190Y003075D01*
X007190Y003133D02*
X007230Y003173D01*
X007230Y003360D01*
X007230Y003309D02*
X008704Y003309D01*
X008692Y003250D02*
X007230Y003250D01*
X007230Y003192D02*
X008692Y003192D01*
X008787Y003016D02*
X007190Y003016D01*
X007190Y002958D02*
X008994Y002958D01*
X009053Y002899D02*
X007190Y002899D01*
X007190Y002841D02*
X009073Y002841D01*
X009073Y002782D02*
X007190Y002782D01*
X007190Y002724D02*
X009073Y002724D01*
X009073Y002665D02*
X007190Y002665D01*
X007190Y002607D02*
X009073Y002607D01*
X009116Y002548D02*
X007190Y002548D01*
X007190Y002490D02*
X009175Y002490D01*
X009233Y002431D02*
X007190Y002431D01*
X007190Y002373D02*
X009292Y002373D01*
X009350Y002314D02*
X007190Y002314D01*
X007190Y002256D02*
X026950Y002256D01*
X026950Y002314D02*
X009910Y002314D01*
X009968Y002373D02*
X026950Y002373D01*
X026950Y002431D02*
X010027Y002431D01*
X010085Y002490D02*
X026950Y002490D01*
X026950Y002548D02*
X010125Y002548D01*
X010125Y002607D02*
X026950Y002607D01*
X026950Y002665D02*
X016300Y002665D01*
X015843Y002665D02*
X010125Y002665D01*
X010125Y002724D02*
X015805Y002724D01*
X015805Y003309D02*
X015469Y003309D01*
X015557Y003367D02*
X014285Y003367D01*
X014285Y003426D02*
X015549Y003426D01*
X015078Y003484D02*
X014285Y003484D01*
X014285Y003543D02*
X015031Y003543D01*
X015031Y003601D02*
X014269Y003601D01*
X014600Y003660D02*
X014660Y003660D01*
X014660Y003718D02*
X014600Y003718D01*
X014600Y003777D02*
X014660Y003777D01*
X014660Y003835D02*
X014600Y003835D01*
X014600Y004011D02*
X014660Y004011D01*
X014660Y004069D02*
X014600Y004069D01*
X014600Y004128D02*
X014660Y004128D01*
X014660Y004186D02*
X014600Y004186D01*
X014600Y004245D02*
X014660Y004245D01*
X014660Y004303D02*
X014600Y004303D01*
X014600Y004362D02*
X014660Y004362D01*
X014660Y004420D02*
X014600Y004420D01*
X014600Y004479D02*
X014660Y004479D01*
X014660Y004537D02*
X014600Y004537D01*
X014600Y004713D02*
X014660Y004713D01*
X014660Y004771D02*
X014600Y004771D01*
X014600Y004830D02*
X014660Y004830D01*
X014660Y004888D02*
X014600Y004888D01*
X014328Y004888D02*
X010780Y004888D01*
X010780Y004830D02*
X014244Y004830D01*
X014224Y004771D02*
X010780Y004771D01*
X010834Y004713D02*
X014224Y004713D01*
X014224Y004654D02*
X010868Y004654D01*
X010817Y004947D02*
X013260Y004947D01*
X013259Y005005D02*
X010875Y005005D01*
X010605Y004245D02*
X013742Y004245D01*
X013742Y004303D02*
X013802Y004303D01*
X013802Y004245D02*
X014298Y004245D01*
X013802Y004186D02*
X013742Y004186D01*
X013742Y004128D02*
X013802Y004128D01*
X013802Y004069D02*
X013742Y004069D01*
X013742Y004011D02*
X013802Y004011D01*
X013802Y003952D02*
X013742Y003952D01*
X013274Y003601D02*
X013230Y003601D01*
X013763Y003016D02*
X010113Y003016D01*
X010125Y002958D02*
X013822Y002958D01*
X013880Y002899D02*
X010125Y002899D01*
X010054Y003075D02*
X010316Y003075D01*
X010258Y003133D02*
X010000Y003133D01*
X010000Y003192D02*
X010098Y003192D01*
X010039Y003250D02*
X010000Y003250D01*
X010203Y003426D02*
X010240Y003426D01*
X010182Y003484D02*
X010145Y003484D01*
X010155Y003543D02*
X010125Y003543D01*
X010125Y003601D02*
X010155Y003601D01*
X010155Y003660D02*
X010125Y003660D01*
X010125Y003718D02*
X010176Y003718D01*
X010125Y003777D02*
X010234Y003777D01*
X009510Y003777D02*
X009493Y003777D01*
X009510Y003718D02*
X009435Y003718D01*
X009510Y003660D02*
X007190Y003660D01*
X007190Y003718D02*
X009200Y003718D01*
X009142Y003777D02*
X007190Y003777D01*
X007190Y003835D02*
X009093Y003835D01*
X009093Y003894D02*
X007190Y003894D01*
X007190Y003952D02*
X009093Y003952D01*
X009093Y004011D02*
X007190Y004011D01*
X007190Y004069D02*
X009149Y004069D01*
X009208Y004128D02*
X007190Y004128D01*
X007190Y004186D02*
X009510Y004186D01*
X009510Y004128D02*
X009427Y004128D01*
X009486Y004069D02*
X009510Y004069D01*
X009510Y004245D02*
X007190Y004245D01*
X007190Y004303D02*
X009510Y004303D01*
X009510Y004362D02*
X007190Y004362D01*
X007190Y004420D02*
X009510Y004420D01*
X009510Y004479D02*
X007190Y004479D01*
X007190Y004537D02*
X009510Y004537D01*
X009510Y004596D02*
X007190Y004596D01*
X007190Y004654D02*
X009510Y004654D01*
X009510Y004713D02*
X007190Y004713D01*
X007190Y004771D02*
X009510Y004771D01*
X009510Y004830D02*
X007190Y004830D01*
X007190Y004888D02*
X009510Y004888D01*
X009510Y004947D02*
X007190Y004947D01*
X007190Y005005D02*
X009510Y005005D01*
X009510Y005064D02*
X007190Y005064D01*
X007190Y005122D02*
X009510Y005122D01*
X009510Y005181D02*
X007190Y005181D01*
X007190Y005239D02*
X009510Y005239D01*
X009510Y005298D02*
X007190Y005298D01*
X007190Y005356D02*
X009510Y005356D01*
X009510Y005415D02*
X007190Y005415D01*
X007190Y005473D02*
X009510Y005473D01*
X009510Y005532D02*
X007190Y005532D01*
X007190Y005590D02*
X009510Y005590D01*
X009510Y005649D02*
X007190Y005649D01*
X007190Y005707D02*
X009510Y005707D01*
X009510Y005766D02*
X007190Y005766D01*
X007190Y005824D02*
X009510Y005824D01*
X009510Y005883D02*
X007190Y005883D01*
X007190Y005941D02*
X009510Y005941D01*
X009510Y006000D02*
X007190Y006000D01*
X007190Y006058D02*
X009510Y006058D01*
X009510Y006117D02*
X007190Y006117D01*
X007190Y006175D02*
X009510Y006175D01*
X009510Y006234D02*
X007190Y006234D01*
X007190Y006292D02*
X009510Y006292D01*
X009510Y006351D02*
X007190Y006351D01*
X007190Y006409D02*
X009510Y006409D01*
X009510Y006468D02*
X007190Y006468D01*
X007190Y006526D02*
X009510Y006526D01*
X009510Y006585D02*
X007190Y006585D01*
X007190Y006643D02*
X009459Y006643D01*
X009400Y006702D02*
X007190Y006702D01*
X007190Y006760D02*
X009342Y006760D01*
X009166Y006936D02*
X001687Y006936D01*
X001705Y006994D02*
X009108Y006994D01*
X009049Y007053D02*
X001705Y007053D01*
X001996Y007111D02*
X002264Y007111D01*
X002217Y007170D02*
X002043Y007170D01*
X002043Y007228D02*
X002217Y007228D01*
X002217Y007287D02*
X002043Y007287D01*
X002043Y007345D02*
X002217Y007345D01*
X002217Y007404D02*
X002043Y007404D01*
X002043Y007462D02*
X002217Y007462D01*
X002217Y007521D02*
X002043Y007521D01*
X002043Y007579D02*
X002217Y007579D01*
X002229Y007638D02*
X002031Y007638D01*
X002043Y007696D02*
X002217Y007696D01*
X002217Y007755D02*
X002043Y007755D01*
X002043Y007813D02*
X002217Y007813D01*
X002217Y007872D02*
X002043Y007872D01*
X002043Y007930D02*
X002217Y007930D01*
X002217Y007989D02*
X002043Y007989D01*
X002043Y008047D02*
X002217Y008047D01*
X002217Y008106D02*
X002043Y008106D01*
X002004Y008164D02*
X002256Y008164D01*
X002575Y008164D02*
X005142Y008164D01*
X005084Y008106D02*
X002614Y008106D01*
X002614Y008047D02*
X005025Y008047D01*
X005201Y008223D02*
X001705Y008223D01*
X001705Y008281D02*
X005259Y008281D01*
X005318Y008340D02*
X001695Y008340D01*
X001181Y008340D02*
X000871Y008340D01*
X000879Y008281D02*
X001171Y008281D01*
X001171Y008223D02*
X000879Y008223D01*
X000879Y008164D02*
X001171Y008164D01*
X001171Y008106D02*
X000879Y008106D01*
X000879Y008047D02*
X000602Y008047D01*
X000879Y007930D02*
X001171Y007930D01*
X001171Y007872D02*
X000879Y007872D01*
X000879Y007813D02*
X001171Y007813D01*
X001171Y007755D02*
X000879Y007755D01*
X000872Y007696D02*
X001179Y007696D01*
X001171Y007579D02*
X000874Y007579D01*
X000879Y007521D02*
X001171Y007521D01*
X001171Y007462D02*
X000879Y007462D01*
X000879Y007404D02*
X001171Y007404D01*
X000838Y007638D02*
X001658Y007638D01*
X001653Y007651D02*
X001653Y007651D01*
X002598Y007642D02*
X002614Y007658D01*
X002614Y007752D01*
X005125Y007752D01*
X006082Y008709D01*
X006082Y009709D01*
X006530Y010156D01*
X006530Y010075D01*
X006634Y009971D01*
X006530Y009868D01*
X006530Y009681D01*
X006662Y009550D01*
X006848Y009550D01*
X006953Y009655D01*
X007178Y009655D01*
X007178Y009576D01*
X007481Y009576D01*
X007481Y009528D01*
X007178Y009528D01*
X007178Y009427D01*
X007187Y009394D01*
X007191Y009387D01*
X006953Y009387D01*
X006848Y009492D01*
X006662Y009492D01*
X006530Y009360D01*
X006530Y009173D01*
X006662Y009042D01*
X006082Y009042D01*
X006082Y009100D02*
X006603Y009100D01*
X006545Y009159D02*
X006082Y009159D01*
X006082Y009217D02*
X006530Y009217D01*
X006530Y009276D02*
X006082Y009276D01*
X006082Y009334D02*
X006530Y009334D01*
X006563Y009393D02*
X006082Y009393D01*
X006082Y009451D02*
X006621Y009451D01*
X006643Y009568D02*
X006082Y009568D01*
X006082Y009510D02*
X007178Y009510D01*
X007178Y009451D02*
X006889Y009451D01*
X006947Y009393D02*
X007188Y009393D01*
X007178Y009627D02*
X006925Y009627D01*
X006867Y009568D02*
X007481Y009568D01*
X007693Y009267D02*
X006755Y009267D01*
X006907Y009100D02*
X007218Y009100D01*
X007218Y009127D02*
X007218Y008836D01*
X007225Y008829D01*
X007218Y008823D01*
X007218Y008532D01*
X007271Y008479D01*
X007739Y008479D01*
X007787Y008527D01*
X007853Y008527D01*
X007940Y008615D01*
X007966Y008640D01*
X011419Y008640D01*
X011706Y008353D01*
X011706Y008349D01*
X011563Y008349D01*
X011561Y008347D01*
X011559Y008349D01*
X011366Y008349D01*
X011364Y008347D01*
X011362Y008349D01*
X011169Y008349D01*
X011167Y008347D01*
X011165Y008349D01*
X010973Y008349D01*
X010971Y008347D01*
X010968Y008349D01*
X010776Y008349D01*
X010774Y008347D01*
X010772Y008349D01*
X010579Y008349D01*
X010577Y008347D01*
X010575Y008349D01*
X010382Y008349D01*
X010380Y008347D01*
X010378Y008349D01*
X010185Y008349D01*
X010183Y008347D01*
X010181Y008349D01*
X009988Y008349D01*
X009986Y008347D01*
X009984Y008349D01*
X009792Y008349D01*
X009789Y008347D01*
X009787Y008349D01*
X009595Y008349D01*
X009593Y008347D01*
X009591Y008349D01*
X009398Y008349D01*
X009396Y008347D01*
X009394Y008349D01*
X009201Y008349D01*
X009199Y008347D01*
X009197Y008349D01*
X009004Y008349D01*
X009002Y008347D01*
X009000Y008349D01*
X008807Y008349D01*
X008755Y008296D01*
X008755Y008072D01*
X008215Y007532D01*
X002614Y007532D01*
X002614Y007626D01*
X002598Y007642D01*
X002602Y007638D02*
X008321Y007638D01*
X008379Y007696D02*
X002614Y007696D01*
X002614Y007579D02*
X008262Y007579D01*
X008438Y007755D02*
X005129Y007755D01*
X005187Y007813D02*
X008496Y007813D01*
X008555Y007872D02*
X007733Y007872D01*
X007719Y007868D02*
X007752Y007877D01*
X007782Y007894D01*
X007806Y007918D01*
X007823Y007948D01*
X007832Y007981D01*
X007832Y008082D01*
X007529Y008082D01*
X007529Y007868D01*
X007719Y007868D01*
X007813Y007930D02*
X008613Y007930D01*
X008672Y007989D02*
X007832Y007989D01*
X007832Y008047D02*
X008730Y008047D01*
X008755Y008106D02*
X007529Y008106D01*
X007529Y008082D02*
X007529Y008130D01*
X007832Y008130D01*
X007832Y008232D01*
X007823Y008265D01*
X007806Y008294D01*
X007782Y008319D01*
X007752Y008336D01*
X007719Y008344D01*
X007529Y008344D01*
X007529Y008130D01*
X007481Y008130D01*
X007481Y008082D01*
X007529Y008082D01*
X007529Y008047D02*
X007481Y008047D01*
X007481Y008082D02*
X007481Y007868D01*
X007291Y007868D01*
X007258Y007877D01*
X007228Y007894D01*
X007204Y007918D01*
X007187Y007948D01*
X007178Y007981D01*
X007178Y008082D01*
X007481Y008082D01*
X007481Y008106D02*
X005480Y008106D01*
X005538Y008164D02*
X007178Y008164D01*
X007178Y008130D02*
X007481Y008130D01*
X007481Y008344D01*
X007291Y008344D01*
X007258Y008336D01*
X007228Y008319D01*
X007204Y008294D01*
X007187Y008265D01*
X007178Y008232D01*
X007178Y008130D01*
X007178Y008047D02*
X005421Y008047D01*
X005363Y007989D02*
X007178Y007989D01*
X007197Y007930D02*
X005304Y007930D01*
X005246Y007872D02*
X007277Y007872D01*
X007481Y007872D02*
X007529Y007872D01*
X007529Y007930D02*
X007481Y007930D01*
X007481Y007989D02*
X007529Y007989D01*
X007529Y008164D02*
X007481Y008164D01*
X007481Y008223D02*
X007529Y008223D01*
X007529Y008281D02*
X007481Y008281D01*
X007481Y008340D02*
X007529Y008340D01*
X007737Y008340D02*
X008798Y008340D01*
X008755Y008281D02*
X007813Y008281D01*
X007832Y008223D02*
X008755Y008223D01*
X008755Y008164D02*
X007832Y008164D01*
X007775Y008515D02*
X011544Y008515D01*
X011486Y008574D02*
X007899Y008574D01*
X007958Y008632D02*
X011427Y008632D01*
X011603Y008457D02*
X005831Y008457D01*
X005889Y008515D02*
X007235Y008515D01*
X007218Y008574D02*
X005948Y008574D01*
X006006Y008632D02*
X007218Y008632D01*
X007218Y008691D02*
X006065Y008691D01*
X006082Y008749D02*
X007218Y008749D01*
X007218Y008808D02*
X006082Y008808D01*
X006082Y008866D02*
X007218Y008866D01*
X007218Y008925D02*
X006082Y008925D01*
X006082Y008983D02*
X007218Y008983D01*
X007218Y009042D02*
X006848Y009042D01*
X006953Y009147D01*
X007238Y009147D01*
X007218Y009127D01*
X006848Y009042D02*
X006662Y009042D01*
X006585Y009627D02*
X006082Y009627D01*
X006082Y009685D02*
X006530Y009685D01*
X006530Y009744D02*
X006118Y009744D01*
X006176Y009802D02*
X006530Y009802D01*
X006530Y009861D02*
X006235Y009861D01*
X006293Y009919D02*
X006581Y009919D01*
X006627Y009978D02*
X006352Y009978D01*
X006410Y010036D02*
X006569Y010036D01*
X006530Y010095D02*
X006469Y010095D01*
X006527Y010153D02*
X006530Y010153D01*
X006755Y010168D02*
X008136Y010168D01*
X008462Y010153D02*
X009256Y010153D01*
X009280Y010177D02*
X009214Y010111D01*
X008462Y010111D01*
X008462Y010265D01*
X008460Y010267D01*
X008462Y010269D01*
X008462Y010442D01*
X010535Y010442D01*
X010655Y010322D01*
X010655Y010173D01*
X010787Y010042D01*
X010973Y010042D01*
X011105Y010173D01*
X011105Y010360D01*
X011011Y010454D01*
X011105Y010548D01*
X011105Y010622D01*
X011155Y010572D01*
X011155Y010423D01*
X011287Y010292D01*
X011473Y010292D01*
X011605Y010423D01*
X011605Y010610D01*
X011548Y010667D01*
X011598Y010667D01*
X011706Y010775D01*
X011706Y010243D01*
X010404Y008940D01*
X008462Y008940D01*
X008462Y009083D01*
X008460Y009086D01*
X008462Y009088D01*
X008462Y009241D01*
X009675Y009241D01*
X009875Y009441D01*
X009957Y009523D01*
X009957Y009651D01*
X010042Y009736D01*
X010042Y009922D01*
X009911Y010054D01*
X009724Y010054D01*
X009593Y009922D01*
X009593Y009736D01*
X009678Y009651D01*
X009678Y009639D01*
X009560Y009521D01*
X008502Y009521D01*
X008502Y009578D01*
X008502Y009654D01*
X008493Y009687D01*
X008476Y009717D01*
X008462Y009731D01*
X008462Y009831D01*
X009330Y009831D01*
X009478Y009979D01*
X009598Y009979D01*
X009730Y010111D01*
X009730Y010297D01*
X009598Y010429D01*
X009412Y010429D01*
X009280Y010297D01*
X009280Y010177D01*
X009280Y010212D02*
X008462Y010212D01*
X008462Y010270D02*
X009280Y010270D01*
X009311Y010329D02*
X008462Y010329D01*
X008462Y010387D02*
X009370Y010387D01*
X009640Y010387D02*
X010590Y010387D01*
X010648Y010329D02*
X009699Y010329D01*
X009730Y010270D02*
X010655Y010270D01*
X010655Y010212D02*
X009730Y010212D01*
X009730Y010153D02*
X010675Y010153D01*
X010734Y010095D02*
X009714Y010095D01*
X009706Y010036D02*
X009655Y010036D01*
X009648Y009978D02*
X009477Y009978D01*
X009418Y009919D02*
X009593Y009919D01*
X009593Y009861D02*
X009360Y009861D01*
X009593Y009802D02*
X008462Y009802D01*
X008462Y009744D02*
X009593Y009744D01*
X009643Y009685D02*
X008494Y009685D01*
X008502Y009627D02*
X009665Y009627D01*
X009607Y009568D02*
X008502Y009568D01*
X008502Y009578D02*
X008136Y009578D01*
X008502Y009578D01*
X008462Y009217D02*
X010681Y009217D01*
X010622Y009159D02*
X008462Y009159D01*
X008462Y009100D02*
X010564Y009100D01*
X010505Y009042D02*
X008462Y009042D01*
X008462Y008983D02*
X010447Y008983D01*
X010404Y008940D02*
X010404Y008940D01*
X010871Y008983D02*
X011345Y008983D01*
X011287Y009042D02*
X010930Y009042D01*
X010988Y009100D02*
X011228Y009100D01*
X011218Y009159D02*
X011047Y009159D01*
X011105Y009217D02*
X011218Y009217D01*
X011218Y009276D02*
X011164Y009276D01*
X011222Y009334D02*
X011254Y009334D01*
X011281Y009393D02*
X011313Y009393D01*
X011339Y009451D02*
X011520Y009451D01*
X011578Y009510D02*
X011398Y009510D01*
X011456Y009568D02*
X011637Y009568D01*
X011695Y009627D02*
X011515Y009627D01*
X011573Y009685D02*
X011754Y009685D01*
X011812Y009744D02*
X011632Y009744D01*
X011690Y009802D02*
X011871Y009802D01*
X011929Y009861D02*
X011749Y009861D01*
X011807Y009919D02*
X011988Y009919D01*
X012046Y009978D02*
X011866Y009978D01*
X011919Y010031D02*
X011919Y010031D01*
X011924Y010036D02*
X012105Y010036D01*
X011706Y010270D02*
X011105Y010270D01*
X011105Y010212D02*
X011675Y010212D01*
X011617Y010153D02*
X011085Y010153D01*
X011026Y010095D02*
X011558Y010095D01*
X011500Y010036D02*
X009929Y010036D01*
X009987Y009978D02*
X011441Y009978D01*
X011383Y009919D02*
X010042Y009919D01*
X010042Y009861D02*
X011324Y009861D01*
X011266Y009802D02*
X010042Y009802D01*
X010042Y009744D02*
X011207Y009744D01*
X011149Y009685D02*
X009992Y009685D01*
X009957Y009627D02*
X011090Y009627D01*
X011032Y009568D02*
X009957Y009568D01*
X009944Y009510D02*
X010973Y009510D01*
X010915Y009451D02*
X009886Y009451D01*
X009827Y009393D02*
X010856Y009393D01*
X010798Y009334D02*
X009769Y009334D01*
X009710Y009276D02*
X010739Y009276D01*
X011667Y009217D02*
X012298Y009217D01*
X012298Y009159D02*
X011667Y009159D01*
X011657Y009100D02*
X011941Y009100D01*
X011911Y009276D02*
X011684Y009276D01*
X011742Y009334D02*
X011905Y009334D01*
X011905Y009393D02*
X011801Y009393D01*
X011859Y009451D02*
X011905Y009451D01*
X010880Y010267D02*
X010585Y010562D01*
X008136Y010562D01*
X008136Y010759D02*
X010763Y010759D01*
X010880Y010642D01*
X011105Y010621D02*
X011106Y010621D01*
X011105Y010563D02*
X011155Y010563D01*
X011155Y010504D02*
X011061Y010504D01*
X011019Y010446D02*
X011155Y010446D01*
X011191Y010387D02*
X011078Y010387D01*
X011105Y010329D02*
X011250Y010329D01*
X011380Y010517D02*
X010941Y010956D01*
X008136Y010956D01*
X008136Y011152D02*
X011244Y011152D01*
X011505Y010892D01*
X011670Y010738D02*
X011706Y010738D01*
X011706Y010680D02*
X011611Y010680D01*
X011594Y010621D02*
X011706Y010621D01*
X011706Y010563D02*
X011605Y010563D01*
X011605Y010504D02*
X011706Y010504D01*
X011706Y010446D02*
X011605Y010446D01*
X011569Y010387D02*
X011706Y010387D01*
X011706Y010329D02*
X011510Y010329D01*
X011891Y011440D02*
X012266Y011440D01*
X012258Y011499D02*
X011949Y011499D01*
X012008Y011557D02*
X012258Y011557D01*
X012927Y011908D02*
X012979Y011961D01*
X013858Y013137D02*
X014208Y013137D01*
X014150Y013195D02*
X013917Y013195D01*
X013975Y013254D02*
X014091Y013254D01*
X014033Y013722D02*
X014034Y013722D01*
X013975Y013780D02*
X014092Y013780D01*
X014151Y013839D02*
X013916Y013839D01*
X013858Y013897D02*
X014209Y013897D01*
X014551Y013897D02*
X014718Y013897D01*
X014718Y013839D02*
X014609Y013839D01*
X014668Y013780D02*
X014718Y013780D01*
X014845Y013429D02*
X015239Y013429D01*
X017535Y012844D02*
X018833Y012844D01*
X018833Y012786D02*
X017593Y012786D01*
X017652Y012727D02*
X018833Y012727D01*
X018833Y012669D02*
X017710Y012669D01*
X017769Y012610D02*
X018833Y012610D01*
X018833Y012552D02*
X017827Y012552D01*
X017886Y012493D02*
X018833Y012493D01*
X018833Y012435D02*
X017944Y012435D01*
X018003Y012376D02*
X018833Y012376D01*
X018833Y012318D02*
X018061Y012318D01*
X018120Y012259D02*
X018833Y012259D01*
X018833Y012201D02*
X018178Y012201D01*
X018187Y012142D02*
X018833Y012142D01*
X018833Y012084D02*
X018187Y012084D01*
X018187Y012025D02*
X018833Y012025D01*
X018833Y011967D02*
X018187Y011967D01*
X018187Y011908D02*
X018833Y011908D01*
X018833Y011850D02*
X018187Y011850D01*
X018187Y011791D02*
X018833Y011791D01*
X018833Y011733D02*
X018187Y011733D01*
X018187Y011674D02*
X018833Y011674D01*
X018833Y011616D02*
X018187Y011616D01*
X018187Y011557D02*
X018833Y011557D01*
X018833Y011499D02*
X018157Y011499D01*
X018117Y011459D02*
X018117Y011459D01*
X018098Y011440D02*
X018833Y011440D01*
X018833Y011382D02*
X018040Y011382D01*
X017981Y011323D02*
X018875Y011323D01*
X018934Y011265D02*
X017923Y011265D01*
X019113Y011499D02*
X020075Y011499D01*
X020075Y011557D02*
X019113Y011557D01*
X019113Y011616D02*
X020075Y011616D01*
X020075Y011674D02*
X019113Y011674D01*
X019113Y011733D02*
X020075Y011733D01*
X020037Y011791D02*
X019113Y011791D01*
X019113Y011850D02*
X020030Y011850D01*
X020030Y011908D02*
X019113Y011908D01*
X019113Y011967D02*
X020030Y011967D01*
X020070Y012025D02*
X019113Y012025D01*
X019113Y012084D02*
X020075Y012084D01*
X020075Y012142D02*
X019113Y012142D01*
X019154Y011440D02*
X020075Y011440D01*
X020075Y011382D02*
X019213Y011382D01*
X019271Y011323D02*
X020075Y011323D01*
X020075Y011265D02*
X019330Y011265D01*
X019388Y011206D02*
X020075Y011206D01*
X020075Y011148D02*
X019447Y011148D01*
X019505Y011089D02*
X020075Y011089D01*
X020075Y011031D02*
X019564Y011031D01*
X019622Y010972D02*
X020075Y010972D01*
X020075Y010914D02*
X019681Y010914D01*
X019739Y010855D02*
X020075Y010855D01*
X020075Y010797D02*
X019798Y010797D01*
X019856Y010738D02*
X020075Y010738D01*
X020075Y010680D02*
X019915Y010680D01*
X019973Y010621D02*
X020075Y010621D01*
X020075Y010563D02*
X020032Y010563D01*
X020195Y010563D02*
X022820Y010563D01*
X022820Y010621D02*
X020195Y010621D01*
X020195Y010680D02*
X022820Y010680D01*
X022820Y010738D02*
X020462Y010738D01*
X020521Y010797D02*
X021532Y010797D01*
X021537Y010792D02*
X021405Y010923D01*
X021405Y011110D01*
X021537Y011242D01*
X021723Y011242D01*
X021855Y011110D01*
X021855Y010923D01*
X021723Y010792D01*
X021537Y010792D01*
X021473Y010855D02*
X020555Y010855D01*
X020555Y010914D02*
X021415Y010914D01*
X021405Y010972D02*
X020555Y010972D01*
X020542Y011031D02*
X021405Y011031D01*
X021405Y011089D02*
X020483Y011089D01*
X020425Y011148D02*
X021443Y011148D01*
X021501Y011206D02*
X020195Y011206D01*
X020195Y011148D02*
X020235Y011148D01*
X020195Y011265D02*
X022820Y011265D01*
X022820Y011323D02*
X020195Y011323D01*
X020195Y011382D02*
X022820Y011382D01*
X022820Y011440D02*
X020195Y011440D01*
X020195Y010738D02*
X020198Y010738D01*
X020195Y010504D02*
X022820Y010504D01*
X022820Y010446D02*
X020195Y010446D01*
X020207Y010387D02*
X022820Y010387D01*
X022820Y010329D02*
X020266Y010329D01*
X020270Y010270D02*
X022820Y010270D01*
X022820Y010212D02*
X022224Y010212D01*
X022223Y010212D02*
X022037Y010212D01*
X021905Y010080D01*
X021905Y009894D01*
X022037Y009762D01*
X022223Y009762D01*
X022308Y009847D01*
X022309Y009847D01*
X022309Y009817D01*
X022361Y009764D01*
X022731Y009764D01*
X022784Y009817D01*
X022784Y010157D01*
X022731Y010210D01*
X022361Y010210D01*
X022309Y010157D01*
X022309Y010127D01*
X022308Y010127D01*
X022223Y010212D01*
X022282Y010153D02*
X022309Y010153D01*
X022036Y010212D02*
X020270Y010212D01*
X020270Y010153D02*
X021978Y010153D01*
X021919Y010095D02*
X020270Y010095D01*
X020270Y010036D02*
X021905Y010036D01*
X021905Y009978D02*
X020270Y009978D01*
X020270Y009919D02*
X021905Y009919D01*
X021938Y009861D02*
X020270Y009861D01*
X020270Y009802D02*
X021997Y009802D01*
X022263Y009802D02*
X022323Y009802D01*
X022769Y009802D02*
X022820Y009802D01*
X022820Y009744D02*
X020270Y009744D01*
X020270Y009685D02*
X022820Y009685D01*
X022820Y009627D02*
X020270Y009627D01*
X020270Y009568D02*
X022820Y009568D01*
X022820Y009510D02*
X020270Y009510D01*
X020270Y009451D02*
X020746Y009451D01*
X020769Y009474D02*
X020637Y009342D01*
X020637Y009156D01*
X020769Y009024D01*
X020955Y009024D01*
X021087Y009156D01*
X021087Y009342D01*
X020955Y009474D01*
X020769Y009474D01*
X020688Y009393D02*
X020270Y009393D01*
X020270Y009334D02*
X020637Y009334D01*
X020637Y009276D02*
X020270Y009276D01*
X020270Y009217D02*
X020637Y009217D01*
X020637Y009159D02*
X020270Y009159D01*
X020270Y009100D02*
X020693Y009100D01*
X020751Y009042D02*
X020270Y009042D01*
X020270Y008983D02*
X020814Y008983D01*
X020822Y008992D02*
X020690Y008860D01*
X020690Y008673D01*
X020822Y008542D01*
X021009Y008542D01*
X021140Y008673D01*
X021140Y008860D01*
X021009Y008992D01*
X020822Y008992D01*
X020755Y008925D02*
X020270Y008925D01*
X020270Y008866D02*
X020697Y008866D01*
X020690Y008808D02*
X020270Y008808D01*
X020270Y008749D02*
X020690Y008749D01*
X020690Y008691D02*
X020270Y008691D01*
X020270Y008632D02*
X020732Y008632D01*
X020790Y008574D02*
X020270Y008574D01*
X020270Y008515D02*
X022820Y008515D01*
X022820Y008457D02*
X021337Y008457D01*
X021355Y008439D02*
X021302Y008492D01*
X020958Y008492D01*
X020905Y008439D01*
X020905Y008094D01*
X020958Y008042D01*
X021302Y008042D01*
X021355Y008094D01*
X021355Y008439D01*
X021355Y008398D02*
X022820Y008398D01*
X022820Y008340D02*
X021355Y008340D01*
X021355Y008281D02*
X022820Y008281D01*
X022820Y008223D02*
X021355Y008223D01*
X021355Y008164D02*
X021989Y008164D01*
X022037Y008212D02*
X021905Y008080D01*
X021905Y007894D01*
X022037Y007762D01*
X022223Y007762D01*
X022308Y007847D01*
X022309Y007847D01*
X022309Y007817D01*
X022361Y007764D01*
X022731Y007764D01*
X022784Y007817D01*
X022784Y008157D01*
X022731Y008210D01*
X022361Y008210D01*
X022309Y008157D01*
X022309Y008127D01*
X022308Y008127D01*
X022223Y008212D01*
X022037Y008212D01*
X021930Y008106D02*
X021355Y008106D01*
X021308Y008047D02*
X021905Y008047D01*
X021905Y007989D02*
X021805Y007989D01*
X021802Y007992D02*
X021458Y007992D01*
X021405Y007939D01*
X021405Y007594D01*
X021458Y007542D01*
X021802Y007542D01*
X021855Y007594D01*
X021855Y007939D01*
X021802Y007992D01*
X021855Y007930D02*
X021905Y007930D01*
X021927Y007872D02*
X021855Y007872D01*
X021855Y007813D02*
X021986Y007813D01*
X021855Y007755D02*
X022820Y007755D01*
X022820Y007813D02*
X022780Y007813D01*
X022784Y007872D02*
X022820Y007872D01*
X022820Y007930D02*
X022784Y007930D01*
X022784Y007989D02*
X022820Y007989D01*
X022820Y008047D02*
X022784Y008047D01*
X022784Y008106D02*
X022820Y008106D01*
X022820Y008164D02*
X022777Y008164D01*
X022940Y008164D02*
X024989Y008164D01*
X024930Y008106D02*
X022940Y008106D01*
X022940Y008047D02*
X024905Y008047D01*
X024905Y007989D02*
X022940Y007989D01*
X022940Y007930D02*
X024905Y007930D01*
X024927Y007872D02*
X022940Y007872D01*
X022820Y007696D02*
X021855Y007696D01*
X021855Y007638D02*
X022820Y007638D01*
X022820Y007579D02*
X021840Y007579D01*
X021420Y007579D02*
X020840Y007579D01*
X020855Y007594D02*
X020802Y007542D01*
X020458Y007542D01*
X020405Y007594D01*
X020405Y007939D01*
X020458Y007992D01*
X020802Y007992D01*
X020855Y007939D01*
X020855Y007594D01*
X020855Y007638D02*
X021405Y007638D01*
X021405Y007696D02*
X020855Y007696D01*
X020855Y007755D02*
X021405Y007755D01*
X021405Y007813D02*
X020855Y007813D01*
X020855Y007872D02*
X021405Y007872D01*
X021405Y007930D02*
X020855Y007930D01*
X020805Y007989D02*
X021455Y007989D01*
X020952Y008047D02*
X020270Y008047D01*
X020270Y007989D02*
X020455Y007989D01*
X020405Y007930D02*
X020270Y007930D01*
X020270Y007872D02*
X020405Y007872D01*
X020405Y007813D02*
X020270Y007813D01*
X020270Y007755D02*
X020405Y007755D01*
X020405Y007696D02*
X020270Y007696D01*
X020270Y007638D02*
X020405Y007638D01*
X020420Y007579D02*
X020270Y007579D01*
X020270Y007521D02*
X022820Y007521D01*
X022820Y007462D02*
X021332Y007462D01*
X021355Y007439D02*
X021302Y007492D01*
X020958Y007492D01*
X020905Y007439D01*
X020905Y007094D01*
X020958Y007042D01*
X021302Y007042D01*
X021355Y007094D01*
X021355Y007439D01*
X021355Y007404D02*
X022820Y007404D01*
X022820Y007345D02*
X021355Y007345D01*
X021355Y007287D02*
X022820Y007287D01*
X022820Y007228D02*
X021355Y007228D01*
X021355Y007170D02*
X022820Y007170D01*
X022820Y007111D02*
X021355Y007111D01*
X021313Y007053D02*
X022820Y007053D01*
X022820Y006994D02*
X020270Y006994D01*
X020270Y006936D02*
X022820Y006936D01*
X022820Y006877D02*
X020270Y006877D01*
X020270Y006819D02*
X022820Y006819D01*
X022820Y006760D02*
X020270Y006760D01*
X020270Y006702D02*
X022820Y006702D01*
X022820Y006643D02*
X020270Y006643D01*
X020270Y006585D02*
X022820Y006585D01*
X022820Y006526D02*
X020270Y006526D01*
X020270Y006468D02*
X022820Y006468D01*
X022820Y006409D02*
X020270Y006409D01*
X020270Y006351D02*
X022820Y006351D01*
X022820Y006292D02*
X020270Y006292D01*
X020270Y006234D02*
X022820Y006234D01*
X022820Y006175D02*
X020270Y006175D01*
X020270Y006117D02*
X022820Y006117D01*
X022820Y006058D02*
X020270Y006058D01*
X020270Y006000D02*
X022820Y006000D01*
X022820Y005941D02*
X020270Y005941D01*
X020270Y005883D02*
X022820Y005883D01*
X022820Y005824D02*
X020270Y005824D01*
X020270Y005766D02*
X022820Y005766D01*
X022820Y005707D02*
X020270Y005707D01*
X020270Y005649D02*
X022820Y005649D01*
X022820Y005590D02*
X020270Y005590D01*
X020270Y005532D02*
X022820Y005532D01*
X022820Y005473D02*
X020270Y005473D01*
X020270Y005415D02*
X022820Y005415D01*
X022820Y005356D02*
X020270Y005356D01*
X020270Y005298D02*
X022820Y005298D01*
X022820Y005239D02*
X020270Y005239D01*
X020270Y005181D02*
X022820Y005181D01*
X022820Y005122D02*
X020270Y005122D01*
X020270Y005064D02*
X022820Y005064D01*
X022820Y005005D02*
X020270Y005005D01*
X020270Y004947D02*
X022820Y004947D01*
X022820Y004888D02*
X020270Y004888D01*
X020270Y004830D02*
X022820Y004830D01*
X022820Y004771D02*
X020270Y004771D01*
X020270Y004713D02*
X022820Y004713D01*
X022820Y004654D02*
X020270Y004654D01*
X020270Y004596D02*
X022820Y004596D01*
X022820Y004537D02*
X020270Y004537D01*
X020270Y004479D02*
X022820Y004479D01*
X022820Y004420D02*
X020270Y004420D01*
X020270Y004362D02*
X022820Y004362D01*
X022820Y004303D02*
X020270Y004303D01*
X020270Y004245D02*
X022820Y004245D01*
X022820Y004186D02*
X020270Y004186D01*
X020270Y004128D02*
X022820Y004128D01*
X022820Y004069D02*
X020270Y004069D01*
X020270Y004011D02*
X022820Y004011D01*
X022820Y003952D02*
X020270Y003952D01*
X020270Y003894D02*
X022820Y003894D01*
X022764Y003835D02*
X020270Y003835D01*
X020270Y003777D02*
X022705Y003777D01*
X022647Y003718D02*
X020270Y003718D01*
X020270Y003660D02*
X022588Y003660D01*
X022530Y003601D02*
X020270Y003601D01*
X020270Y003543D02*
X022471Y003543D01*
X022413Y003484D02*
X020270Y003484D01*
X020270Y003426D02*
X022354Y003426D01*
X022296Y003367D02*
X020270Y003367D01*
X020270Y003309D02*
X022237Y003309D01*
X022179Y003250D02*
X020270Y003250D01*
X020270Y003192D02*
X022120Y003192D01*
X022062Y003133D02*
X020270Y003133D01*
X020270Y003075D02*
X022003Y003075D01*
X021945Y003016D02*
X020270Y003016D01*
X020270Y002958D02*
X021886Y002958D01*
X021828Y002899D02*
X020270Y002899D01*
X022608Y003484D02*
X025955Y003484D01*
X025813Y003543D02*
X022666Y003543D01*
X022725Y003601D02*
X025678Y003601D01*
X025620Y003660D02*
X022783Y003660D01*
X022842Y003718D02*
X025561Y003718D01*
X025503Y003777D02*
X022900Y003777D01*
X022940Y003835D02*
X025454Y003835D01*
X025429Y003894D02*
X022940Y003894D01*
X022940Y003952D02*
X025405Y003952D01*
X025381Y004011D02*
X022940Y004011D01*
X022940Y004069D02*
X025357Y004069D01*
X025340Y004128D02*
X022940Y004128D01*
X022940Y004186D02*
X025340Y004186D01*
X025340Y004245D02*
X022940Y004245D01*
X022940Y004303D02*
X025340Y004303D01*
X025340Y004362D02*
X022940Y004362D01*
X022940Y004420D02*
X025340Y004420D01*
X025363Y004479D02*
X022940Y004479D01*
X022940Y004537D02*
X025387Y004537D01*
X025411Y004596D02*
X022940Y004596D01*
X022940Y004654D02*
X025435Y004654D01*
X025460Y004713D02*
X022940Y004713D01*
X022940Y004771D02*
X025517Y004771D01*
X025576Y004830D02*
X022940Y004830D01*
X022940Y004888D02*
X025634Y004888D01*
X025707Y004947D02*
X022940Y004947D01*
X022940Y005005D02*
X025849Y005005D01*
X026950Y002197D02*
X007190Y002197D01*
X007190Y002139D02*
X026950Y002139D01*
X026950Y002080D02*
X007190Y002080D01*
X007190Y002022D02*
X026950Y002022D01*
X026950Y001963D02*
X007190Y001963D01*
X007190Y001905D02*
X026950Y001905D01*
X026950Y001846D02*
X007190Y001846D01*
X007190Y001788D02*
X026950Y001788D01*
X026950Y001729D02*
X007190Y001729D01*
X007190Y001671D02*
X026950Y001671D01*
X026950Y001612D02*
X007190Y001612D01*
X007190Y001554D02*
X026950Y001554D01*
X026950Y001495D02*
X007190Y001495D01*
X007190Y001437D02*
X026950Y001437D01*
X026950Y001378D02*
X007190Y001378D01*
X007190Y001320D02*
X026950Y001320D01*
X026950Y001261D02*
X007190Y001261D01*
X007190Y001203D02*
X026950Y001203D01*
X026950Y001144D02*
X007190Y001144D01*
X007190Y001086D02*
X026950Y001086D01*
X026950Y000954D02*
X026950Y000767D01*
X026944Y000704D01*
X026896Y000589D01*
X026808Y000501D01*
X008068Y000501D01*
X008068Y000447D02*
X008068Y000954D01*
X026950Y000954D01*
X026950Y000910D02*
X008068Y000910D01*
X008068Y000852D02*
X026950Y000852D01*
X026950Y000793D02*
X008068Y000793D01*
X008068Y000735D02*
X026947Y000735D01*
X026932Y000676D02*
X008068Y000676D01*
X008068Y000618D02*
X026908Y000618D01*
X026866Y000559D02*
X008068Y000559D01*
X008068Y000447D02*
X026630Y000447D01*
X026692Y000453D01*
X026808Y000501D01*
X017773Y004362D02*
X017751Y004362D01*
X016979Y004845D02*
X016737Y004845D01*
X016736Y004844D01*
X016624Y004844D01*
X016571Y004791D01*
X016571Y004642D01*
X016376Y004642D01*
X016376Y004653D01*
X016324Y004706D01*
X015811Y004706D01*
X015805Y004709D01*
X015705Y004709D01*
X015699Y004706D01*
X015186Y004706D01*
X015134Y004653D01*
X015134Y004642D01*
X015130Y004642D01*
X015130Y005517D01*
X015255Y005517D01*
X015755Y006017D01*
X016130Y006017D01*
X016130Y005517D01*
X016260Y005517D01*
X016260Y005217D01*
X016438Y005039D01*
X016508Y004969D01*
X016595Y004969D01*
X016624Y004939D01*
X016974Y004939D01*
X016979Y004944D01*
X016979Y004845D01*
X016979Y004888D02*
X015130Y004888D01*
X015130Y004830D02*
X016610Y004830D01*
X016571Y004771D02*
X015130Y004771D01*
X015130Y004713D02*
X016571Y004713D01*
X016571Y004654D02*
X016376Y004654D01*
X016472Y005005D02*
X015130Y005005D01*
X015130Y004947D02*
X016617Y004947D01*
X016558Y005089D02*
X016799Y005089D01*
X016558Y005089D02*
X016380Y005267D01*
X016380Y006017D01*
X016630Y006267D01*
X017588Y006267D01*
X017963Y005892D01*
X017793Y006292D02*
X017732Y006292D01*
X017674Y006351D02*
X017793Y006351D01*
X017793Y006409D02*
X014271Y006409D01*
X014271Y006351D02*
X016544Y006351D01*
X016486Y006292D02*
X015002Y006292D01*
X014990Y006304D02*
X015042Y006251D01*
X015042Y005907D01*
X014990Y005854D01*
X014645Y005854D01*
X014593Y005907D01*
X014593Y006251D01*
X014645Y006304D01*
X014990Y006304D01*
X015042Y006234D02*
X016427Y006234D01*
X016369Y006175D02*
X015042Y006175D01*
X015042Y006117D02*
X015685Y006117D01*
X015627Y006058D02*
X015042Y006058D01*
X015042Y006000D02*
X015568Y006000D01*
X015510Y005941D02*
X015042Y005941D01*
X015018Y005883D02*
X015451Y005883D01*
X015393Y005824D02*
X013864Y005824D01*
X013864Y005766D02*
X015334Y005766D01*
X015276Y005707D02*
X014953Y005707D01*
X014996Y005649D02*
X015217Y005649D01*
X015329Y005590D02*
X016130Y005590D01*
X016130Y005532D02*
X015270Y005532D01*
X015130Y005473D02*
X016260Y005473D01*
X016260Y005415D02*
X015130Y005415D01*
X015130Y005356D02*
X016260Y005356D01*
X016260Y005298D02*
X015130Y005298D01*
X015130Y005239D02*
X016260Y005239D01*
X016296Y005181D02*
X015130Y005181D01*
X015130Y005122D02*
X016355Y005122D01*
X016413Y005064D02*
X015130Y005064D01*
X015010Y005064D02*
X014285Y005064D01*
X014285Y005122D02*
X015010Y005122D01*
X015010Y005181D02*
X014285Y005181D01*
X014285Y005005D02*
X015010Y005005D01*
X015010Y004947D02*
X014284Y004947D01*
X014932Y004888D02*
X015010Y004888D01*
X015130Y004654D02*
X015134Y004654D01*
X015010Y005239D02*
X014996Y005239D01*
X014996Y005298D02*
X015010Y005298D01*
X015010Y005356D02*
X014996Y005356D01*
X014996Y005415D02*
X015010Y005415D01*
X015010Y005473D02*
X014996Y005473D01*
X014996Y005532D02*
X015010Y005532D01*
X014996Y005590D02*
X015034Y005590D01*
X015387Y005649D02*
X016130Y005649D01*
X016130Y005707D02*
X015446Y005707D01*
X015504Y005766D02*
X016130Y005766D01*
X016130Y005824D02*
X015563Y005824D01*
X015621Y005883D02*
X016130Y005883D01*
X016130Y005941D02*
X015680Y005941D01*
X015738Y006000D02*
X016130Y006000D01*
X016250Y006058D02*
X016260Y006058D01*
X016310Y006117D02*
X016200Y006117D01*
X015150Y006819D02*
X017793Y006819D01*
X017793Y006877D02*
X015167Y006877D01*
X015167Y006936D02*
X017793Y006936D01*
X017793Y006994D02*
X015167Y006994D01*
X015167Y007053D02*
X015697Y007053D01*
X015708Y007042D02*
X016052Y007042D01*
X016105Y007094D01*
X016105Y007439D01*
X016052Y007492D01*
X015708Y007492D01*
X015655Y007439D01*
X015655Y007094D01*
X015708Y007042D01*
X015655Y007111D02*
X015167Y007111D01*
X015124Y007170D02*
X015655Y007170D01*
X015655Y007228D02*
X014665Y007228D01*
X014665Y007287D02*
X015655Y007287D01*
X015655Y007345D02*
X015162Y007345D01*
X015201Y007404D02*
X015655Y007404D01*
X015678Y007462D02*
X015207Y007462D01*
X015207Y007521D02*
X017768Y007521D01*
X017768Y007579D02*
X015207Y007579D01*
X015207Y007638D02*
X017787Y007638D01*
X017817Y007696D02*
X015202Y007696D01*
X015166Y007755D02*
X017875Y007755D01*
X017778Y007462D02*
X016082Y007462D01*
X016105Y007404D02*
X017793Y007404D01*
X017793Y007345D02*
X016105Y007345D01*
X016105Y007287D02*
X017793Y007287D01*
X017793Y007228D02*
X016105Y007228D01*
X016105Y007170D02*
X017793Y007170D01*
X017793Y007111D02*
X016105Y007111D01*
X016063Y007053D02*
X017793Y007053D01*
X017793Y006760D02*
X014871Y006760D01*
X014813Y006702D02*
X017793Y006702D01*
X017793Y006643D02*
X014754Y006643D01*
X014633Y006292D02*
X014271Y006292D01*
X014220Y006234D02*
X014593Y006234D01*
X014593Y006175D02*
X013868Y006175D01*
X013866Y006117D02*
X014593Y006117D01*
X014593Y006058D02*
X013864Y006058D01*
X013864Y006000D02*
X014593Y006000D01*
X014593Y005941D02*
X013864Y005941D01*
X013864Y005883D02*
X014617Y005883D01*
X014307Y005707D02*
X013864Y005707D01*
X013855Y005649D02*
X013895Y005649D01*
X013836Y005590D02*
X013282Y005590D01*
X013283Y005591D02*
X013307Y005615D01*
X013324Y005645D01*
X013333Y005678D01*
X013333Y005868D01*
X013119Y005868D01*
X013119Y005565D01*
X013220Y005565D01*
X013253Y005574D01*
X013283Y005591D01*
X013325Y005649D02*
X013476Y005649D01*
X013467Y005707D02*
X013333Y005707D01*
X013333Y005766D02*
X013467Y005766D01*
X013467Y005824D02*
X013333Y005824D01*
X013333Y005941D02*
X013467Y005941D01*
X013467Y005883D02*
X013119Y005883D01*
X013070Y005883D02*
X012707Y005883D01*
X012707Y005941D02*
X012856Y005941D01*
X012856Y006000D02*
X012707Y006000D01*
X012707Y006058D02*
X012856Y006058D01*
X013333Y006058D02*
X013467Y006058D01*
X013467Y006000D02*
X013333Y006000D01*
X013370Y006117D02*
X013467Y006117D01*
X013429Y006175D02*
X013517Y006175D01*
X013532Y006192D02*
X013532Y006479D01*
X013532Y006192D01*
X013532Y006234D02*
X013532Y006234D01*
X013532Y006292D02*
X013532Y006292D01*
X013532Y006351D02*
X013532Y006351D01*
X013532Y006409D02*
X013532Y006409D01*
X013532Y006468D02*
X013532Y006468D01*
X013532Y006479D02*
X013532Y006479D01*
X013925Y006468D02*
X013925Y006468D01*
X013925Y006409D02*
X013925Y006409D01*
X013925Y006351D02*
X013925Y006351D01*
X013925Y006292D02*
X013925Y006292D01*
X013925Y006234D02*
X013925Y006234D01*
X014271Y006468D02*
X017793Y006468D01*
X017793Y006526D02*
X014271Y006526D01*
X014271Y006585D02*
X017793Y006585D01*
X020270Y007053D02*
X020947Y007053D01*
X020905Y007111D02*
X020270Y007111D01*
X020270Y007170D02*
X020905Y007170D01*
X020905Y007228D02*
X020270Y007228D01*
X020270Y007287D02*
X020905Y007287D01*
X020905Y007345D02*
X020270Y007345D01*
X020270Y007404D02*
X020905Y007404D01*
X020928Y007462D02*
X020270Y007462D01*
X020270Y008106D02*
X020905Y008106D01*
X020905Y008164D02*
X020270Y008164D01*
X020270Y008223D02*
X020905Y008223D01*
X020905Y008281D02*
X020270Y008281D01*
X020270Y008340D02*
X020905Y008340D01*
X020905Y008398D02*
X020270Y008398D01*
X020270Y008457D02*
X020923Y008457D01*
X021041Y008574D02*
X022820Y008574D01*
X022820Y008632D02*
X021099Y008632D01*
X021140Y008691D02*
X022820Y008691D01*
X022820Y008749D02*
X021140Y008749D01*
X021140Y008808D02*
X022820Y008808D01*
X022820Y008866D02*
X021134Y008866D01*
X021076Y008925D02*
X022820Y008925D01*
X022820Y008983D02*
X021017Y008983D01*
X020973Y009042D02*
X022820Y009042D01*
X022820Y009100D02*
X021032Y009100D01*
X021087Y009159D02*
X022820Y009159D01*
X022820Y009217D02*
X021087Y009217D01*
X021087Y009276D02*
X022820Y009276D01*
X022820Y009334D02*
X021087Y009334D01*
X021037Y009393D02*
X022820Y009393D01*
X022820Y009451D02*
X020978Y009451D01*
X022784Y009861D02*
X022820Y009861D01*
X022820Y009919D02*
X022784Y009919D01*
X022784Y009978D02*
X022820Y009978D01*
X022820Y010036D02*
X022784Y010036D01*
X022784Y010095D02*
X022820Y010095D01*
X022820Y010153D02*
X022784Y010153D01*
X022940Y010153D02*
X024978Y010153D01*
X024919Y010095D02*
X022940Y010095D01*
X022940Y010036D02*
X024905Y010036D01*
X024905Y009978D02*
X022940Y009978D01*
X022940Y009919D02*
X024905Y009919D01*
X024938Y009861D02*
X022940Y009861D01*
X022820Y010797D02*
X021728Y010797D01*
X021787Y010855D02*
X022820Y010855D01*
X022820Y010914D02*
X021845Y010914D01*
X021855Y010972D02*
X022820Y010972D01*
X022820Y011031D02*
X021855Y011031D01*
X021855Y011089D02*
X022820Y011089D01*
X022820Y011148D02*
X021817Y011148D01*
X021759Y011206D02*
X022820Y011206D01*
X022940Y011850D02*
X024949Y011850D01*
X024905Y011908D02*
X022940Y011908D01*
X022940Y011967D02*
X024905Y011967D01*
X024905Y012025D02*
X022940Y012025D01*
X022940Y012084D02*
X024908Y012084D01*
X024967Y012142D02*
X022940Y012142D01*
X022820Y012552D02*
X021733Y012552D01*
X021792Y012610D02*
X022820Y012610D01*
X022820Y012669D02*
X021850Y012669D01*
X021855Y012727D02*
X022820Y012727D01*
X022820Y012786D02*
X021855Y012786D01*
X021855Y012844D02*
X022820Y012844D01*
X022820Y012903D02*
X021812Y012903D01*
X021754Y012961D02*
X022820Y012961D01*
X022352Y012201D02*
X022235Y012201D01*
X022293Y012142D02*
X022309Y012142D01*
X020075Y014014D02*
X000434Y014014D01*
X000375Y013956D02*
X011976Y013956D01*
X011968Y013897D02*
X000344Y013897D01*
X000320Y013839D02*
X011968Y013839D01*
X009218Y012961D02*
X009156Y012961D01*
X008904Y012511D02*
X008874Y012511D01*
X008630Y012267D01*
X008246Y012201D02*
X004047Y012201D01*
X004047Y012142D02*
X007233Y012142D01*
X007228Y012139D02*
X007204Y012115D01*
X007187Y012086D01*
X007178Y012052D01*
X007178Y011951D01*
X007481Y011951D01*
X007481Y011903D01*
X007529Y011903D01*
X007529Y011951D01*
X007832Y011951D01*
X007832Y012052D01*
X007823Y012086D01*
X007806Y012115D01*
X007782Y012139D01*
X007752Y012157D01*
X007719Y012165D01*
X007529Y012165D01*
X007529Y011951D01*
X007481Y011951D01*
X007481Y012165D01*
X007291Y012165D01*
X007258Y012157D01*
X007228Y012139D01*
X007187Y012084D02*
X004873Y012084D01*
X004862Y012435D02*
X005894Y012435D01*
X005835Y012493D02*
X004873Y012493D01*
X004606Y012641D02*
X006006Y012641D01*
X005833Y012786D02*
X004873Y012786D01*
X004864Y012844D02*
X005891Y012844D01*
X006763Y012025D02*
X007178Y012025D01*
X007178Y011967D02*
X006821Y011967D01*
X006880Y011908D02*
X007481Y011908D01*
X007481Y011903D02*
X007178Y011903D01*
X007178Y011802D01*
X007187Y011769D01*
X007204Y011739D01*
X007228Y011715D01*
X007258Y011698D01*
X007291Y011689D01*
X007481Y011689D01*
X007481Y011903D01*
X007529Y011908D02*
X008102Y011908D01*
X008155Y011967D02*
X007832Y011967D01*
X007832Y012025D02*
X008155Y012025D01*
X008155Y012084D02*
X007823Y012084D01*
X007777Y012142D02*
X008187Y012142D01*
X008380Y012017D02*
X008136Y011773D01*
X008136Y011743D01*
X007810Y011733D02*
X007800Y011733D01*
X007789Y011674D02*
X007114Y011674D01*
X007172Y011616D02*
X007770Y011616D01*
X007770Y011557D02*
X007231Y011557D01*
X006982Y011382D02*
X004676Y011382D01*
X004676Y011440D02*
X006923Y011440D01*
X006865Y011499D02*
X004676Y011499D01*
X004695Y011557D02*
X006806Y011557D01*
X006748Y011616D02*
X004754Y011616D01*
X004849Y011674D02*
X006689Y011674D01*
X006631Y011733D02*
X004873Y011733D01*
X004339Y012025D02*
X004017Y012025D01*
X004045Y012084D02*
X004339Y012084D01*
X004350Y012435D02*
X004047Y012435D01*
X004027Y012493D02*
X004339Y012493D01*
X004339Y012552D02*
X003943Y012552D01*
X003770Y012552D02*
X003710Y012552D01*
X003710Y012493D02*
X003770Y012493D01*
X003770Y012435D02*
X003710Y012435D01*
X003710Y012376D02*
X003770Y012376D01*
X003770Y012318D02*
X003710Y012318D01*
X003710Y012142D02*
X003770Y012142D01*
X003770Y012084D02*
X003710Y012084D01*
X003710Y012025D02*
X003770Y012025D01*
X003433Y012318D02*
X003410Y012318D01*
X003410Y012376D02*
X003433Y012376D01*
X003433Y012435D02*
X003410Y012435D01*
X003410Y012493D02*
X003452Y012493D01*
X003410Y012552D02*
X003536Y012552D01*
X003410Y012610D02*
X004339Y012610D01*
X004339Y012669D02*
X003410Y012669D01*
X003410Y012727D02*
X004339Y012727D01*
X004339Y012786D02*
X003410Y012786D01*
X003410Y012844D02*
X004347Y012844D01*
X004676Y011323D02*
X006974Y011323D01*
X006916Y011265D02*
X004676Y011265D01*
X004676Y011206D02*
X006857Y011206D01*
X006799Y011148D02*
X004676Y011148D01*
X004670Y011089D02*
X006740Y011089D01*
X006931Y010855D02*
X007810Y010855D01*
X007810Y010662D01*
X007812Y010660D01*
X007810Y010658D01*
X007810Y010505D01*
X007027Y010505D01*
X007020Y010512D01*
X006938Y010594D01*
X006670Y010594D01*
X007252Y011177D01*
X007271Y011158D01*
X007739Y011158D01*
X007781Y011199D01*
X007810Y011199D01*
X007810Y011056D01*
X007812Y011054D01*
X007810Y011052D01*
X007810Y010859D01*
X007812Y010857D01*
X007810Y010855D01*
X007810Y010797D02*
X006872Y010797D01*
X006814Y010738D02*
X007810Y010738D01*
X007810Y010680D02*
X006755Y010680D01*
X006697Y010621D02*
X007810Y010621D01*
X007810Y010563D02*
X006969Y010563D01*
X006989Y010914D02*
X007810Y010914D01*
X007810Y010972D02*
X007048Y010972D01*
X007106Y011031D02*
X007810Y011031D01*
X007810Y011089D02*
X007165Y011089D01*
X007223Y011148D02*
X007810Y011148D01*
X007770Y011546D02*
X008136Y011546D01*
X008136Y011546D01*
X007770Y011546D01*
X007529Y011733D02*
X007481Y011733D01*
X007481Y011791D02*
X007529Y011791D01*
X007529Y011850D02*
X007481Y011850D01*
X007481Y011967D02*
X007529Y011967D01*
X007529Y012025D02*
X007481Y012025D01*
X007481Y012084D02*
X007529Y012084D01*
X007529Y012142D02*
X007481Y012142D01*
X007178Y011850D02*
X006938Y011850D01*
X006997Y011791D02*
X007181Y011791D01*
X007210Y011733D02*
X007055Y011733D01*
X005296Y010329D02*
X004964Y010329D01*
X004964Y010270D02*
X005296Y010270D01*
X005296Y010212D02*
X004964Y010212D01*
X004964Y010153D02*
X005296Y010153D01*
X005296Y010095D02*
X004964Y010095D01*
X004964Y010036D02*
X005296Y010036D01*
X005296Y009978D02*
X004976Y009978D01*
X005015Y009919D02*
X005296Y009919D01*
X005296Y009861D02*
X005015Y009861D01*
X005015Y009802D02*
X005296Y009802D01*
X005296Y009744D02*
X005015Y009744D01*
X005015Y009685D02*
X005314Y009685D01*
X005224Y008983D02*
X003410Y008983D01*
X003410Y008925D02*
X005224Y008925D01*
X005224Y008866D02*
X003410Y008866D01*
X003410Y008808D02*
X005271Y008808D01*
X005329Y008749D02*
X003410Y008749D01*
X005376Y008398D02*
X000826Y008398D01*
X002614Y007228D02*
X008980Y007228D01*
X008980Y007170D02*
X002614Y007170D01*
X002567Y007111D02*
X008991Y007111D01*
X009100Y007171D02*
X009100Y008023D01*
X009297Y008023D02*
X009297Y007162D01*
X009755Y006704D01*
X009755Y003017D01*
X009880Y002892D01*
X009880Y002642D01*
X009755Y002517D01*
X009505Y002517D01*
X009318Y002704D01*
X009318Y003289D01*
X009499Y003426D02*
X009510Y003426D01*
X009510Y003484D02*
X009441Y003484D01*
X009510Y003543D02*
X007190Y003543D01*
X007190Y003601D02*
X009510Y003601D01*
X009194Y003484D02*
X007190Y003484D01*
X007190Y003426D02*
X008821Y003426D01*
X009014Y003426D02*
X009136Y003426D01*
X009093Y003367D02*
X009073Y003367D01*
X009630Y002767D02*
X009630Y006642D01*
X009100Y007171D01*
X008980Y007287D02*
X008366Y007287D01*
X008424Y007345D02*
X008980Y007345D01*
X008980Y007404D02*
X008483Y007404D01*
X008541Y007462D02*
X008980Y007462D01*
X008980Y007521D02*
X008600Y007521D01*
X008658Y007579D02*
X008980Y007579D01*
X009888Y007329D02*
X009950Y007267D01*
X009888Y007329D02*
X009888Y008023D01*
X010085Y008023D02*
X010085Y007642D01*
X010147Y007579D01*
X010073Y006994D02*
X010010Y006994D01*
X010068Y006936D02*
X010105Y006936D01*
X010125Y006877D02*
X010164Y006877D01*
X010125Y006819D02*
X010271Y006819D01*
X010125Y006760D02*
X010436Y006760D01*
X010415Y006702D02*
X010125Y006702D01*
X010125Y006643D02*
X010415Y006643D01*
X010415Y006585D02*
X010125Y006585D01*
X010125Y006526D02*
X010435Y006526D01*
X010459Y006468D02*
X010125Y006468D01*
X010125Y006409D02*
X010507Y006409D01*
X010569Y006351D02*
X010125Y006351D01*
X011095Y006702D02*
X011436Y006702D01*
X011428Y006760D02*
X011074Y006760D01*
X011239Y006819D02*
X011428Y006819D01*
X011438Y007287D02*
X011468Y007287D01*
X011468Y007345D02*
X011407Y007345D01*
X011403Y007404D02*
X011468Y007404D01*
X011461Y007462D02*
X011468Y007462D01*
X011661Y008398D02*
X005772Y008398D01*
X005714Y008340D02*
X007273Y008340D01*
X007197Y008281D02*
X005655Y008281D01*
X005597Y008223D02*
X007178Y008223D01*
X007775Y009184D02*
X007693Y009267D01*
X007775Y009184D02*
X008136Y009184D01*
X008136Y009578D02*
X008136Y009578D01*
X008136Y009775D02*
X006755Y009775D01*
X007129Y006877D02*
X007131Y006877D01*
X007070Y006767D02*
X007070Y004412D01*
X007023Y004459D01*
X006837Y004459D01*
X006705Y004327D01*
X006705Y004141D01*
X006837Y004009D01*
X007023Y004009D01*
X007070Y004056D01*
X007070Y000447D01*
X004440Y000447D01*
X004440Y006767D01*
X004526Y006767D01*
X004476Y006716D01*
X004476Y006376D01*
X004529Y006323D01*
X004899Y006323D01*
X004951Y006376D01*
X004951Y006406D01*
X004952Y006406D01*
X005037Y006321D01*
X005223Y006321D01*
X005355Y006453D01*
X005355Y006639D01*
X005228Y006767D01*
X007070Y006767D01*
X007070Y006760D02*
X005234Y006760D01*
X005293Y006702D02*
X007070Y006702D01*
X007070Y006643D02*
X005351Y006643D01*
X005355Y006585D02*
X007070Y006585D01*
X007070Y006526D02*
X005355Y006526D01*
X005355Y006468D02*
X007070Y006468D01*
X007070Y006409D02*
X005311Y006409D01*
X005253Y006351D02*
X007070Y006351D01*
X007070Y006292D02*
X004440Y006292D01*
X004440Y006234D02*
X007070Y006234D01*
X007070Y006175D02*
X004440Y006175D01*
X004440Y006117D02*
X007070Y006117D01*
X007070Y006058D02*
X004440Y006058D01*
X004440Y006000D02*
X007070Y006000D01*
X007070Y005941D02*
X004440Y005941D01*
X004440Y005883D02*
X007070Y005883D01*
X007070Y005824D02*
X004440Y005824D01*
X004440Y005766D02*
X007070Y005766D01*
X007070Y005707D02*
X004440Y005707D01*
X004440Y005649D02*
X007070Y005649D01*
X007070Y005590D02*
X004440Y005590D01*
X004440Y005532D02*
X007070Y005532D01*
X007070Y005473D02*
X004440Y005473D01*
X004440Y005415D02*
X007070Y005415D01*
X007070Y005356D02*
X004440Y005356D01*
X004440Y005298D02*
X007070Y005298D01*
X007070Y005239D02*
X004440Y005239D01*
X004440Y005181D02*
X007070Y005181D01*
X007070Y005122D02*
X004440Y005122D01*
X004440Y005064D02*
X007070Y005064D01*
X007070Y005005D02*
X004440Y005005D01*
X004440Y004947D02*
X007070Y004947D01*
X007070Y004888D02*
X004440Y004888D01*
X004440Y004830D02*
X007070Y004830D01*
X007070Y004771D02*
X005223Y004771D01*
X005037Y004771D01*
X004952Y004686D01*
X004951Y004686D01*
X004951Y004716D01*
X004899Y004769D01*
X004529Y004769D01*
X004476Y004716D01*
X004476Y004376D01*
X004529Y004323D01*
X004899Y004323D01*
X004951Y004376D01*
X004951Y004406D01*
X004952Y004406D01*
X005037Y004321D01*
X005223Y004321D01*
X005355Y004453D01*
X005355Y004639D01*
X005223Y004771D01*
X005282Y004713D02*
X007070Y004713D01*
X007070Y004654D02*
X005340Y004654D01*
X005355Y004596D02*
X007070Y004596D01*
X007070Y004537D02*
X005355Y004537D01*
X005355Y004479D02*
X007070Y004479D01*
X007062Y004420D02*
X007070Y004420D01*
X006798Y004420D02*
X005322Y004420D01*
X005264Y004362D02*
X005532Y004362D01*
X005537Y004367D02*
X005405Y004235D01*
X005405Y004048D01*
X005537Y003917D01*
X005723Y003917D01*
X005855Y004048D01*
X005855Y004235D01*
X005723Y004367D01*
X005537Y004367D01*
X005473Y004303D02*
X004440Y004303D01*
X004440Y004245D02*
X005415Y004245D01*
X005405Y004186D02*
X004440Y004186D01*
X004440Y004128D02*
X005405Y004128D01*
X005405Y004069D02*
X004440Y004069D01*
X004440Y004011D02*
X005443Y004011D01*
X005501Y003952D02*
X004440Y003952D01*
X004440Y003894D02*
X007070Y003894D01*
X007070Y003952D02*
X005759Y003952D01*
X005817Y004011D02*
X006835Y004011D01*
X006777Y004069D02*
X005855Y004069D01*
X005855Y004128D02*
X006718Y004128D01*
X006705Y004186D02*
X005855Y004186D01*
X005845Y004245D02*
X006705Y004245D01*
X006705Y004303D02*
X005787Y004303D01*
X005728Y004362D02*
X006739Y004362D01*
X007025Y004011D02*
X007070Y004011D01*
X007070Y003835D02*
X004440Y003835D01*
X004440Y003777D02*
X007070Y003777D01*
X007070Y003718D02*
X004440Y003718D01*
X004440Y003660D02*
X007070Y003660D01*
X007070Y003601D02*
X005864Y003601D01*
X005848Y003617D02*
X005662Y003617D01*
X005530Y003485D01*
X005530Y003298D01*
X005662Y003167D01*
X005848Y003167D01*
X005980Y003298D01*
X005980Y003485D01*
X005848Y003617D01*
X005922Y003543D02*
X007070Y003543D01*
X007070Y003484D02*
X005980Y003484D01*
X005980Y003426D02*
X007070Y003426D01*
X007070Y003367D02*
X005980Y003367D01*
X005980Y003309D02*
X007070Y003309D01*
X007070Y003250D02*
X005932Y003250D01*
X005873Y003192D02*
X007070Y003192D01*
X007070Y003133D02*
X004440Y003133D01*
X004440Y003075D02*
X007070Y003075D01*
X007070Y003016D02*
X004440Y003016D01*
X004440Y002958D02*
X007070Y002958D01*
X007070Y002899D02*
X004440Y002899D01*
X004440Y002841D02*
X007070Y002841D01*
X007070Y002782D02*
X004440Y002782D01*
X004440Y002724D02*
X004483Y002724D01*
X004476Y002716D02*
X004476Y002376D01*
X004529Y002323D01*
X004899Y002323D01*
X004951Y002376D01*
X004951Y002406D01*
X004952Y002406D01*
X005037Y002321D01*
X005223Y002321D01*
X005355Y002453D01*
X005355Y002639D01*
X005223Y002771D01*
X005037Y002771D01*
X004952Y002686D01*
X004951Y002686D01*
X004951Y002716D01*
X004899Y002769D01*
X004529Y002769D01*
X004476Y002716D01*
X004476Y002665D02*
X004440Y002665D01*
X004440Y002607D02*
X004476Y002607D01*
X004476Y002548D02*
X004440Y002548D01*
X004440Y002490D02*
X004476Y002490D01*
X004476Y002431D02*
X004440Y002431D01*
X004440Y002373D02*
X004479Y002373D01*
X004440Y002314D02*
X005405Y002314D01*
X005405Y002298D02*
X005537Y002167D01*
X005723Y002167D01*
X005855Y002298D01*
X005855Y002485D01*
X005723Y002617D01*
X005537Y002617D01*
X005405Y002485D01*
X005405Y002298D01*
X005448Y002256D02*
X004440Y002256D01*
X004440Y002197D02*
X005506Y002197D01*
X005405Y002373D02*
X005275Y002373D01*
X005333Y002431D02*
X005405Y002431D01*
X005410Y002490D02*
X005355Y002490D01*
X005355Y002548D02*
X005468Y002548D01*
X005527Y002607D02*
X005355Y002607D01*
X005329Y002665D02*
X007070Y002665D01*
X007070Y002607D02*
X005733Y002607D01*
X005792Y002548D02*
X007070Y002548D01*
X007070Y002490D02*
X005850Y002490D01*
X005855Y002431D02*
X007070Y002431D01*
X007070Y002373D02*
X005855Y002373D01*
X005855Y002314D02*
X007070Y002314D01*
X007070Y002256D02*
X005812Y002256D01*
X005754Y002197D02*
X007070Y002197D01*
X007070Y002139D02*
X004440Y002139D01*
X004440Y002080D02*
X007070Y002080D01*
X007070Y002022D02*
X004440Y002022D01*
X004440Y001963D02*
X007070Y001963D01*
X007070Y001905D02*
X004440Y001905D01*
X004440Y001846D02*
X007070Y001846D01*
X007070Y001788D02*
X004440Y001788D01*
X004440Y001729D02*
X007070Y001729D01*
X007070Y001671D02*
X004440Y001671D01*
X004440Y001612D02*
X007070Y001612D01*
X007070Y001554D02*
X004440Y001554D01*
X004440Y001495D02*
X007070Y001495D01*
X007070Y001437D02*
X004440Y001437D01*
X004440Y001378D02*
X007070Y001378D01*
X007070Y001320D02*
X004440Y001320D01*
X004440Y001261D02*
X007070Y001261D01*
X007070Y001203D02*
X004440Y001203D01*
X004440Y001144D02*
X007070Y001144D01*
X007070Y001086D02*
X004440Y001086D01*
X004440Y001027D02*
X007070Y001027D01*
X007070Y000969D02*
X004440Y000969D01*
X004440Y000910D02*
X007070Y000910D01*
X007070Y000852D02*
X004440Y000852D01*
X004440Y000793D02*
X007070Y000793D01*
X007070Y000735D02*
X004440Y000735D01*
X004440Y000676D02*
X007070Y000676D01*
X007070Y000618D02*
X004440Y000618D01*
X004440Y000559D02*
X007070Y000559D01*
X007070Y000501D02*
X004440Y000501D01*
X007190Y000501D02*
X007948Y000501D01*
X007948Y000559D02*
X007190Y000559D01*
X007190Y000618D02*
X007948Y000618D01*
X007948Y000676D02*
X007190Y000676D01*
X007190Y000735D02*
X007948Y000735D01*
X007948Y000793D02*
X007190Y000793D01*
X007190Y000852D02*
X007948Y000852D01*
X007948Y000910D02*
X007190Y000910D01*
X007190Y000969D02*
X007948Y000969D01*
X007971Y001027D02*
X007190Y001027D01*
X004985Y002373D02*
X004948Y002373D01*
X004944Y002724D02*
X004989Y002724D01*
X005271Y002724D02*
X007070Y002724D01*
X005637Y003192D02*
X004440Y003192D01*
X004440Y003250D02*
X005578Y003250D01*
X005530Y003309D02*
X004440Y003309D01*
X004440Y003367D02*
X005530Y003367D01*
X005530Y003426D02*
X004440Y003426D01*
X004440Y003484D02*
X005530Y003484D01*
X005588Y003543D02*
X004440Y003543D01*
X004440Y003601D02*
X005646Y003601D01*
X004996Y004362D02*
X004937Y004362D01*
X004951Y004713D02*
X004978Y004713D01*
X005037Y004771D02*
X004440Y004771D01*
X004440Y004713D02*
X004476Y004713D01*
X004476Y004654D02*
X004440Y004654D01*
X004440Y004596D02*
X004476Y004596D01*
X004476Y004537D02*
X004440Y004537D01*
X004440Y004479D02*
X004476Y004479D01*
X004476Y004420D02*
X004440Y004420D01*
X004440Y004362D02*
X004490Y004362D01*
X004320Y004362D02*
X002264Y004362D01*
X002322Y004420D02*
X004320Y004420D01*
X004320Y004479D02*
X002355Y004479D01*
X002355Y004537D02*
X004320Y004537D01*
X004320Y004596D02*
X002355Y004596D01*
X002340Y004654D02*
X004320Y004654D01*
X004440Y006351D02*
X004501Y006351D01*
X004476Y006409D02*
X004440Y006409D01*
X004440Y006468D02*
X004476Y006468D01*
X004476Y006526D02*
X004440Y006526D01*
X004440Y006585D02*
X004476Y006585D01*
X004476Y006643D02*
X004440Y006643D01*
X004440Y006702D02*
X004476Y006702D01*
X004440Y006760D02*
X004520Y006760D01*
X004381Y006877D02*
X004379Y006877D01*
X004926Y006351D02*
X005007Y006351D01*
X004320Y002665D02*
X002329Y002665D01*
X002355Y002607D02*
X004320Y002607D01*
X004320Y002548D02*
X002355Y002548D01*
X002355Y002490D02*
X004320Y002490D01*
X004320Y002431D02*
X002333Y002431D01*
X002275Y002373D02*
X004320Y002373D01*
X012505Y002642D02*
X012755Y002642D01*
X012755Y002892D01*
X012505Y002892D01*
X012505Y002642D01*
X012505Y002665D02*
X012755Y002665D01*
X012755Y002724D02*
X012505Y002724D01*
X012505Y002782D02*
X012755Y002782D01*
X012755Y002841D02*
X012505Y002841D01*
X014970Y003660D02*
X015031Y003660D01*
X015024Y003718D02*
X015031Y003718D01*
X015036Y003835D02*
X015043Y003835D01*
X013802Y004362D02*
X013742Y004362D01*
X013742Y004420D02*
X013802Y004420D01*
X013802Y004479D02*
X013742Y004479D01*
X013742Y004537D02*
X013802Y004537D01*
X013259Y005356D02*
X012707Y005356D01*
X012707Y005415D02*
X013277Y005415D01*
X013119Y005590D02*
X013070Y005590D01*
X013070Y005649D02*
X013119Y005649D01*
X013119Y005707D02*
X013070Y005707D01*
X013070Y005766D02*
X013119Y005766D01*
X013119Y005824D02*
X013070Y005824D01*
X012856Y005824D02*
X012707Y005824D01*
X012707Y005766D02*
X012856Y005766D01*
X012856Y005707D02*
X012707Y005707D01*
X012707Y005649D02*
X012864Y005649D01*
X012908Y005590D02*
X012707Y005590D01*
X012707Y005532D02*
X013778Y005532D01*
X013719Y005473D02*
X012707Y005473D01*
X013090Y006760D02*
X013185Y006760D01*
X013242Y006819D02*
X013090Y006819D01*
X013090Y006877D02*
X013300Y006877D01*
X014856Y007345D02*
X014904Y007345D01*
X014904Y007404D02*
X014856Y007404D01*
X014856Y007462D02*
X014904Y007462D01*
X014904Y007521D02*
X014856Y007521D01*
X014856Y007579D02*
X014904Y007579D01*
X014904Y007638D02*
X014856Y007638D01*
X014856Y007696D02*
X014904Y007696D01*
X014904Y007755D02*
X014856Y007755D01*
X015465Y009334D02*
X013492Y009334D01*
X020075Y014073D02*
X000549Y014073D01*
X022271Y008164D02*
X022316Y008164D01*
X022312Y007813D02*
X022274Y007813D01*
D38*
X021630Y007767D03*
X021130Y008267D03*
X020630Y007767D03*
X021130Y007267D03*
X017130Y008267D03*
X016380Y007267D03*
X015880Y007267D03*
X014818Y006079D03*
X013755Y004704D03*
X012318Y006454D03*
X010380Y006267D03*
X006630Y007642D03*
X004630Y007642D03*
X002755Y007642D03*
X002130Y008267D03*
X003630Y008767D03*
X003630Y010767D03*
X005630Y010767D03*
X007380Y010767D03*
X009443Y009704D03*
X010880Y009892D03*
X012130Y009454D03*
X012130Y008892D03*
X013130Y010517D03*
X013130Y011454D03*
X016130Y013267D03*
X018130Y013767D03*
X019880Y013767D03*
X014755Y009579D03*
X014818Y008454D03*
X009755Y011767D03*
X007630Y012767D03*
X010971Y013954D03*
X003630Y012767D03*
X003130Y013892D03*
X000630Y013892D03*
X001880Y006954D03*
D39*
X005130Y006546D03*
X005130Y004546D03*
X005630Y004142D03*
X005755Y003392D03*
X007005Y003267D03*
X008287Y003204D03*
X008917Y003204D03*
X009318Y003289D03*
X009630Y002767D03*
X010443Y003267D03*
X010380Y003604D03*
X010380Y004234D03*
X009318Y003919D03*
X006930Y004234D03*
X005130Y002546D03*
X005630Y002392D03*
X008443Y000829D03*
X008630Y000579D03*
X008255Y000579D03*
X009005Y000829D03*
X009380Y000829D03*
X009193Y000579D03*
X009755Y000579D03*
X009943Y000829D03*
X010130Y000579D03*
X010505Y000829D03*
X010880Y000829D03*
X010693Y000579D03*
X011255Y000579D03*
X011630Y000579D03*
X011443Y000829D03*
X012005Y000829D03*
X012380Y000829D03*
X012193Y000579D03*
X012755Y000579D03*
X012943Y000829D03*
X013130Y000579D03*
X013505Y000829D03*
X013880Y000829D03*
X013693Y000579D03*
X014255Y000579D03*
X014630Y000579D03*
X014443Y000829D03*
X015005Y000829D03*
X015380Y000829D03*
X015193Y000579D03*
X015755Y000579D03*
X015943Y000829D03*
X016130Y000579D03*
X016505Y000829D03*
X016880Y000829D03*
X016693Y000579D03*
X017255Y000579D03*
X017630Y000579D03*
X017443Y000829D03*
X018005Y000829D03*
X018380Y000829D03*
X018193Y000579D03*
X018755Y000579D03*
X018943Y000829D03*
X019130Y000579D03*
X019505Y000829D03*
X019880Y000829D03*
X019693Y000579D03*
X020255Y000579D03*
X020630Y000579D03*
X020443Y000829D03*
X021005Y000829D03*
X021380Y000829D03*
X021193Y000579D03*
X021755Y000579D03*
X021943Y000829D03*
X022130Y000579D03*
X022505Y000829D03*
X022880Y000829D03*
X022693Y000579D03*
X023255Y000579D03*
X023630Y000579D03*
X023443Y000829D03*
X024005Y000829D03*
X024380Y000829D03*
X024193Y000579D03*
X024755Y000579D03*
X024943Y000829D03*
X025130Y000579D03*
X025505Y000829D03*
X025880Y000829D03*
X025693Y000579D03*
X026255Y000579D03*
X026630Y000579D03*
X026443Y000829D03*
X025880Y001829D03*
X025505Y001829D03*
X025693Y002079D03*
X025130Y002079D03*
X024943Y001829D03*
X024755Y002079D03*
X024380Y001829D03*
X024005Y001829D03*
X024193Y002079D03*
X023630Y002079D03*
X023255Y002079D03*
X023443Y001829D03*
X022880Y001829D03*
X022505Y001829D03*
X022693Y002079D03*
X022130Y002079D03*
X021943Y001829D03*
X021755Y002079D03*
X021380Y001829D03*
X021005Y001829D03*
X021193Y002079D03*
X020630Y002079D03*
X020255Y002079D03*
X020443Y001829D03*
X019880Y001829D03*
X019505Y001829D03*
X019693Y002079D03*
X019130Y002079D03*
X018943Y001829D03*
X018755Y002079D03*
X018380Y001829D03*
X018005Y001829D03*
X018193Y002079D03*
X017630Y002079D03*
X017255Y002079D03*
X017443Y001829D03*
X016880Y001829D03*
X016505Y001829D03*
X016693Y002079D03*
X016130Y002079D03*
X015943Y001829D03*
X015755Y002079D03*
X015380Y001829D03*
X015005Y001829D03*
X015193Y002079D03*
X014630Y002079D03*
X014255Y002079D03*
X014443Y001829D03*
X013880Y001829D03*
X013505Y001829D03*
X013693Y002079D03*
X013130Y002079D03*
X012943Y001829D03*
X012755Y002079D03*
X012380Y001829D03*
X012005Y001829D03*
X012193Y002079D03*
X009950Y007267D03*
X010147Y007579D03*
X011443Y009204D03*
X009818Y009829D03*
X009505Y010204D03*
X010880Y010267D03*
X011380Y010517D03*
X011505Y010892D03*
X010880Y010642D03*
X009005Y011642D03*
X008630Y011642D03*
X008380Y012017D03*
X008630Y012267D03*
X006006Y012641D03*
X006755Y010168D03*
X006755Y009775D03*
X006755Y009267D03*
X005449Y008948D03*
X012130Y012829D03*
X015005Y012954D03*
X015880Y012017D03*
X016193Y011682D03*
X015880Y011517D03*
X016693Y011517D03*
X016880Y011239D03*
X017943Y010924D03*
X016943Y012142D03*
X018973Y013109D03*
X020255Y011892D03*
X021737Y011679D03*
X022130Y011987D03*
X021630Y012767D03*
X021630Y011017D03*
X020330Y010924D03*
X022130Y009987D03*
X020862Y009249D03*
X020915Y008767D03*
X022130Y007987D03*
X025130Y007987D03*
X025130Y009987D03*
X025130Y011987D03*
X002130Y004546D03*
X002130Y002546D03*
D40*
X001438Y007267D02*
X001563Y007392D01*
X001845Y007392D01*
X001845Y007892D02*
X001563Y007892D01*
X001438Y008017D01*
X004845Y009329D02*
X004845Y009869D01*
X004697Y010017D01*
X005415Y009329D02*
X005415Y008981D01*
X005449Y008948D01*
X013130Y003361D02*
X013772Y003361D01*
X017961Y005892D02*
X017963Y005892D01*
X017963Y007475D01*
X018028Y007539D01*
D41*
X017961Y005892D02*
X017961Y005285D01*
X016799Y005285D02*
X016665Y005419D01*
X016665Y005767D01*
D42*
X026130Y006267D03*
X026130Y004267D03*
D43*
X015855Y004358D02*
X015855Y003767D01*
D44*
X026255Y008767D03*
X026255Y010767D03*
X026255Y012767D03*
X001005Y005767D03*
X001005Y003767D03*
X001005Y001767D03*
M02*
