G75*
G70*
%OFA0B0*%
%FSLAX24Y24*%
%IPPOS*%
%LPD*%
%AMOC8*
5,1,8,0,0,1.08239X$1,22.5*
%
%ADD10C,0.0217*%
%ADD11R,0.0610X0.0098*%
%ADD12R,0.0315X0.0630*%
%ADD13R,0.0630X0.0315*%
%ADD14R,0.0394X0.0217*%
%ADD15R,0.0217X0.0394*%
%ADD16R,0.0709X0.0177*%
%ADD17R,0.0177X0.0709*%
%ADD18R,0.1969X0.1969*%
%ADD19R,0.0354X0.0551*%
%ADD20R,0.1949X0.1776*%
%ADD21R,0.0295X0.0266*%
%ADD22R,0.0709X0.0433*%
D10*
X012685Y006637D03*
X012685Y006952D03*
X013000Y006952D03*
X013000Y007267D03*
X012685Y007267D03*
X012685Y007582D03*
X013000Y007582D03*
X012685Y007897D03*
X013000Y008212D03*
X013315Y008212D03*
X013630Y008212D03*
X013945Y008212D03*
X014260Y008212D03*
X014575Y007897D03*
X014575Y007582D03*
X014260Y007582D03*
X014260Y007267D03*
X014575Y007267D03*
X014575Y006952D03*
X014260Y006952D03*
X014575Y006637D03*
X014260Y006322D03*
X013945Y006322D03*
X013630Y006322D03*
X013630Y006637D03*
X013945Y006637D03*
X013315Y006637D03*
X013315Y006322D03*
X013000Y006322D03*
X013315Y007897D03*
X013630Y007897D03*
X013945Y007897D03*
D11*
X014732Y009990D03*
X014732Y010246D03*
X014732Y010502D03*
X014732Y010758D03*
X014732Y011014D03*
X014732Y011270D03*
X014732Y011526D03*
X014732Y011781D03*
X014732Y012037D03*
X014732Y012293D03*
X012528Y012293D03*
X012528Y012037D03*
X012528Y011781D03*
X012528Y011526D03*
X012528Y011270D03*
X012528Y011014D03*
X012528Y010758D03*
X012528Y010502D03*
X012528Y010246D03*
X012528Y009990D03*
D12*
X009228Y008418D03*
X008756Y008418D03*
X008284Y008418D03*
X007811Y008418D03*
X007339Y008418D03*
X006866Y008418D03*
X006394Y008418D03*
X005921Y008418D03*
X005449Y008418D03*
X004976Y008418D03*
X004504Y008418D03*
X004032Y008418D03*
X004032Y013615D03*
X004504Y013615D03*
X004976Y013615D03*
X005449Y013615D03*
X005921Y013615D03*
X006394Y013615D03*
X006866Y013615D03*
X007339Y013615D03*
X007811Y013615D03*
X008284Y013615D03*
X008756Y013615D03*
X009228Y013615D03*
D13*
X010331Y012640D03*
X010331Y012237D03*
X010331Y011765D03*
X010331Y011292D03*
X010331Y010741D03*
X010331Y010269D03*
X010331Y009796D03*
X010331Y009394D03*
X002929Y009127D03*
X002929Y009757D03*
X002929Y010387D03*
D14*
X010630Y005677D03*
X010630Y005106D03*
X011880Y006731D03*
X011880Y007302D03*
X011880Y007731D03*
X011880Y008302D03*
X015505Y008981D03*
X015505Y009552D03*
X015505Y010356D03*
X015505Y010927D03*
X016630Y010052D03*
X016630Y009481D03*
X015505Y011731D03*
X015505Y012302D03*
X021630Y010740D03*
X021630Y010169D03*
X005630Y004990D03*
X005630Y004419D03*
D15*
X005970Y002767D03*
X006540Y002767D03*
X012845Y005517D03*
X013415Y005517D03*
X013845Y005517D03*
X014415Y005517D03*
X014845Y005517D03*
X015415Y005517D03*
X018782Y008267D03*
X019353Y008267D03*
X019845Y008267D03*
X020415Y008267D03*
X014415Y009017D03*
X013845Y009017D03*
X013415Y009017D03*
X012845Y009017D03*
X012845Y009517D03*
X013415Y009517D03*
X013845Y009517D03*
X014415Y009517D03*
X008478Y006892D03*
X007907Y006892D03*
X007415Y006892D03*
X006845Y006892D03*
X020720Y012392D03*
X021290Y012392D03*
D16*
X020862Y011869D03*
X020862Y011554D03*
X020862Y011239D03*
X020862Y010924D03*
X020862Y010609D03*
X020862Y010294D03*
X020862Y009979D03*
X020862Y009664D03*
X017417Y009664D03*
X017417Y009979D03*
X017417Y010294D03*
X017417Y010609D03*
X017417Y010924D03*
X017417Y011239D03*
X017417Y011554D03*
X017417Y011869D03*
X009843Y005494D03*
X009843Y005179D03*
X009843Y004864D03*
X009843Y004549D03*
X009843Y004234D03*
X009843Y003919D03*
X009843Y003604D03*
X009843Y003289D03*
X006398Y003289D03*
X006398Y003604D03*
X006398Y003919D03*
X006398Y004234D03*
X006398Y004549D03*
X006398Y004864D03*
X006398Y005179D03*
X006398Y005494D03*
D17*
X007028Y006124D03*
X007343Y006124D03*
X007658Y006124D03*
X007973Y006124D03*
X008287Y006124D03*
X008602Y006124D03*
X008917Y006124D03*
X009232Y006124D03*
X009232Y002679D03*
X008917Y002679D03*
X008602Y002679D03*
X008287Y002679D03*
X007973Y002679D03*
X007658Y002679D03*
X007343Y002679D03*
X007028Y002679D03*
X018028Y009034D03*
X018343Y009034D03*
X018658Y009034D03*
X018973Y009034D03*
X019287Y009034D03*
X019602Y009034D03*
X019917Y009034D03*
X020232Y009034D03*
X020232Y012479D03*
X019917Y012479D03*
X019602Y012479D03*
X019287Y012479D03*
X018973Y012479D03*
X018658Y012479D03*
X018343Y012479D03*
X018028Y012479D03*
D18*
X019130Y010767D03*
X008130Y004392D03*
D19*
X007697Y007517D03*
X008563Y007517D03*
X018697Y007642D03*
X019563Y007642D03*
D20*
X023373Y008767D03*
X023373Y010767D03*
X023373Y012767D03*
X003887Y005767D03*
X003887Y003767D03*
X003887Y001767D03*
D21*
X002546Y000987D03*
X002546Y001507D03*
X002546Y002027D03*
X002546Y002546D03*
X002546Y002987D03*
X002546Y003507D03*
X002546Y004027D03*
X002546Y004546D03*
X002546Y004987D03*
X002546Y005507D03*
X002546Y006027D03*
X002546Y006546D03*
X024714Y007987D03*
X024714Y008507D03*
X024714Y009027D03*
X024714Y009546D03*
X024714Y009987D03*
X024714Y010507D03*
X024714Y011027D03*
X024714Y011546D03*
X024714Y011987D03*
X024714Y012507D03*
X024714Y013027D03*
X024714Y013546D03*
D22*
X024943Y001979D03*
X025693Y001979D03*
X024193Y001979D03*
X023443Y001979D03*
X022693Y001979D03*
X021943Y001979D03*
X021193Y001979D03*
X020443Y001979D03*
X019693Y001979D03*
X018943Y001979D03*
X018193Y001979D03*
X017443Y001979D03*
X016693Y001979D03*
X015943Y001979D03*
X015193Y001979D03*
X014443Y001979D03*
X013693Y001979D03*
X012943Y001979D03*
X012193Y001979D03*
X012193Y000680D03*
X012943Y000680D03*
X013693Y000680D03*
X014443Y000680D03*
X015193Y000680D03*
X015943Y000680D03*
X016693Y000680D03*
X017443Y000680D03*
X018193Y000680D03*
X018943Y000680D03*
X019693Y000680D03*
X020443Y000680D03*
X021193Y000680D03*
X021943Y000680D03*
X022693Y000680D03*
X023443Y000680D03*
X024193Y000680D03*
X024943Y000680D03*
X025693Y000680D03*
M02*
