%
M48
M72
T01C0.0130
T02C0.0200
T03C0.0400
T04C0.0750
T05C0.1000
%
T01
X2130Y2546
X5130Y2546
X5630Y2392
X7005Y3267
X5755Y3392
X5630Y4142
X5130Y4546
X6930Y4234
X8287Y3204
X8917Y3204
X9318Y3289
X9630Y2767
X10443Y3267
X10380Y3604
X10380Y4234
X9318Y3919
X12193Y2079
X12380Y1829
X12005Y1829
X12755Y2079
X12943Y1829
X13130Y2079
X13505Y1829
X13880Y1829
X13693Y2079
X14255Y2079
X14630Y2079
X14443Y1829
X15005Y1829
X15380Y1829
X15193Y2079
X15755Y2079
X15943Y1829
X16130Y2079
X16505Y1829
X16880Y1829
X16693Y2079
X17255Y2079
X17630Y2079
X17443Y1829
X18005Y1829
X18380Y1829
X18193Y2079
X18755Y2079
X18943Y1829
X19130Y2079
X19505Y1829
X19880Y1829
X19693Y2079
X20255Y2079
X20630Y2079
X20443Y1829
X21005Y1829
X21380Y1829
X21193Y2079
X21755Y2079
X21943Y1829
X22130Y2079
X22505Y1829
X22880Y1829
X22693Y2079
X23255Y2079
X23630Y2079
X23443Y1829
X24005Y1829
X24380Y1829
X24193Y2079
X24755Y2079
X24943Y1829
X25130Y2079
X25505Y1829
X25880Y1829
X25693Y2079
X25880Y829
X25505Y829
X25693Y579
X26255Y579
X26630Y579
X26443Y829
X25130Y579
X24943Y829
X24755Y579
X24380Y829
X24005Y829
X24193Y579
X23630Y579
X23255Y579
X23443Y829
X22880Y829
X22505Y829
X22693Y579
X22130Y579
X21943Y829
X21755Y579
X21380Y829
X21005Y829
X21193Y579
X20630Y579
X20255Y579
X20443Y829
X19880Y829
X19505Y829
X19693Y579
X19130Y579
X18943Y829
X18755Y579
X18380Y829
X18005Y829
X18193Y579
X17630Y579
X17255Y579
X17443Y829
X16880Y829
X16505Y829
X16693Y579
X16130Y579
X15943Y829
X15755Y579
X15380Y829
X15005Y829
X15193Y579
X14630Y579
X14255Y579
X14443Y829
X13880Y829
X13505Y829
X13693Y579
X13130Y579
X12943Y829
X12755Y579
X12380Y829
X12005Y829
X12193Y579
X11630Y579
X11255Y579
X11443Y829
X10880Y829
X10505Y829
X10693Y579
X10130Y579
X9943Y829
X9755Y579
X9380Y829
X9005Y829
X9193Y579
X8630Y579
X8255Y579
X8443Y829
X2130Y4546
X5130Y6546
X4630Y7642
X2755Y7642
X2130Y8267
X3630Y8767
X5449Y8948
X6755Y9267
X6755Y9775
X6755Y10168
X7380Y10767
X8630Y11642
X9005Y11642
X9755Y11767
X8630Y12267
X8380Y12017
X7630Y12767
X6006Y12641
X3630Y12767
X3130Y13892
X630Y13892
X3630Y10767
X5630Y10767
X9505Y10204
X9818Y9829
X9443Y9704
X10880Y9892
X10880Y10267
X11380Y10517
X11505Y10892
X10880Y10642
X12130Y9454
X12130Y8892
X11443Y9204
X13130Y10517
X13130Y11454
X12130Y12829
X10971Y13954
X15005Y12954
X16130Y13267
X16943Y12142
X16193Y11682
X15880Y11517
X15880Y12017
X16693Y11517
X16880Y11239
X17943Y10924
X20330Y10924
X21630Y11017
X21737Y11679
X22130Y11987
X21630Y12767
X20255Y11892
X18973Y13109
X18130Y13767
X19880Y13767
X25130Y11987
X25130Y9987
X22130Y9987
X20862Y9249
X20915Y8767
X21130Y8267
X20630Y7767
X21130Y7267
X21630Y7767
X22130Y7987
X25130Y7987
X17130Y8267
X16380Y7267
X15880Y7267
X14818Y6079
X13755Y4704
X12318Y6454
X10380Y6267
X9950Y7267
X10147Y7579
X6630Y7642
X1880Y6954
X14818Y8454
X14755Y9579
T02
X1630Y1142
X2005Y1392
X2005Y2142
X1630Y2392
X1630Y3142
X2005Y3392
X2005Y4142
X1630Y4392
X1630Y5142
X2005Y5392
X2005Y6142
X1630Y6392
X10630Y4549
X13130Y3361
X18028Y7539
X25255Y8392
X25630Y8142
X25255Y9142
X25630Y9392
X25630Y10142
X25255Y10392
X25255Y11142
X25630Y11392
X25630Y12142
X25255Y12392
X25255Y13142
X25630Y13392
X13755Y11770
T03
X13630Y13517
X14380Y13517
X12880Y13517
T04
X26255Y12767
X26255Y10767
X26255Y8767
X1005Y5767
X1005Y3767
X1005Y1767
T05
X26130Y4267
X26130Y6267
M30
