G75*
G70*
%OFA0B0*%
%FSLAX24Y24*%
%IPPOS*%
%LPD*%
%AMOC8*
5,1,8,0,0,1.08239X$1,22.5*
%
%ADD10C,0.0100*%
%ADD11C,0.0217*%
%ADD12R,0.0610X0.0098*%
%ADD13R,0.0315X0.0630*%
%ADD14R,0.0630X0.0315*%
%ADD15R,0.0394X0.0217*%
%ADD16R,0.0217X0.0394*%
%ADD17OC8,0.0600*%
%ADD18R,0.0709X0.0177*%
%ADD19R,0.0177X0.0709*%
%ADD20R,0.1969X0.1969*%
%ADD21R,0.0354X0.0551*%
%ADD22R,0.1949X0.1776*%
%ADD23R,0.0295X0.0266*%
%ADD24R,0.0709X0.0433*%
%ADD25C,0.0120*%
%ADD26C,0.0340*%
%ADD27C,0.0060*%
%ADD28R,0.0270X0.0270*%
%ADD29C,0.0270*%
%ADD30C,0.0160*%
%ADD31C,0.1400*%
%ADD32C,0.1125*%
D10*
X002130Y002546D02*
X002546Y002546D01*
X005130Y002546D02*
X005130Y002142D01*
X007343Y002142D01*
X007343Y002679D01*
X007028Y002679D02*
X006628Y002679D01*
X006540Y002767D01*
X006165Y002392D01*
X005630Y002392D01*
X005970Y002767D02*
X005970Y002861D01*
X006398Y003289D01*
X006398Y003604D02*
X005968Y003604D01*
X005755Y003392D01*
X005755Y003767D02*
X005283Y003767D01*
X005130Y003919D01*
X005130Y004546D01*
X005630Y004419D02*
X005630Y004142D01*
X005908Y003919D02*
X006398Y003919D01*
X006398Y004234D02*
X006930Y004234D01*
X005908Y003919D02*
X005755Y003767D01*
X007005Y003267D02*
X007658Y003267D01*
X007658Y002679D01*
X007973Y002679D01*
X006540Y002677D02*
X006540Y002767D01*
X002546Y004546D02*
X002130Y004546D01*
X001130Y005767D02*
X001005Y005767D01*
X001130Y005767D02*
X002505Y007142D01*
X006595Y007142D01*
X006845Y006892D01*
X007028Y006709D01*
X007028Y006124D01*
X007343Y006124D02*
X007343Y006819D01*
X007415Y006892D01*
X007907Y006892D02*
X007973Y006826D01*
X007973Y006124D01*
X008287Y006124D02*
X008287Y006701D01*
X008478Y006892D01*
X006398Y006892D02*
X006398Y005494D01*
X006398Y005179D02*
X005968Y005179D01*
X005130Y006017D01*
X005130Y006546D01*
X006398Y006892D02*
X002546Y006892D01*
X002546Y006546D01*
X009843Y005179D02*
X010557Y005179D01*
X010630Y005106D01*
X012845Y005517D02*
X013000Y005672D01*
X013000Y006322D01*
X012685Y006637D01*
X012685Y006952D02*
X012440Y006952D01*
X012220Y006731D01*
X011880Y006731D01*
X011915Y007267D02*
X011880Y007302D01*
X011915Y007267D02*
X012685Y007267D01*
X013000Y007267D01*
X013000Y007582D02*
X012685Y007582D01*
X012685Y007897D02*
X013000Y008212D01*
X013000Y008522D01*
X012845Y008677D01*
X012845Y009017D01*
X012845Y009517D01*
X012528Y009834D01*
X012528Y009990D01*
X012528Y010246D02*
X013484Y010246D01*
X013845Y009886D01*
X013845Y009517D01*
X014130Y009302D02*
X014130Y009767D01*
X014353Y009990D01*
X014732Y009990D01*
X015067Y009990D01*
X015505Y009552D01*
X014415Y009017D02*
X014415Y008367D01*
X014260Y008212D01*
X014575Y007897D01*
X014575Y007582D02*
X014260Y007582D01*
X014240Y007267D02*
X014575Y007267D01*
X014575Y006952D02*
X014260Y006952D01*
X014575Y006637D02*
X014260Y006322D01*
X014260Y006137D01*
X014380Y006017D01*
X013945Y006302D02*
X013945Y006637D01*
X013630Y006637D02*
X013630Y006322D01*
X013630Y006017D01*
X013845Y005802D01*
X013845Y005517D01*
X013415Y005517D02*
X013315Y005617D01*
X013315Y006322D01*
X013315Y006637D01*
X013000Y006952D02*
X012685Y006952D01*
X013315Y007897D02*
X013315Y008212D01*
X013315Y008577D01*
X013415Y008677D01*
X013415Y009017D01*
X013415Y009517D01*
X013845Y009017D02*
X014130Y009302D01*
X013484Y010246D02*
X014252Y011014D01*
X014732Y011014D01*
X014732Y010758D02*
X015336Y010758D01*
X015505Y010927D01*
X015359Y010502D02*
X014732Y010502D01*
X015359Y010502D02*
X015505Y010356D01*
X016630Y010052D02*
X016703Y009979D01*
X017417Y009979D01*
X018973Y009034D02*
X018973Y008457D01*
X018782Y008267D01*
X019287Y008332D02*
X019287Y009034D01*
X019917Y009034D02*
X019917Y008340D01*
X019845Y008267D01*
X020232Y008450D02*
X020415Y008267D01*
X020915Y008767D01*
X020232Y009034D02*
X020232Y008450D01*
X019353Y008267D02*
X019287Y008332D01*
X020862Y009249D02*
X020862Y009664D01*
X020862Y009979D02*
X021292Y009979D01*
X022130Y009142D01*
X022130Y007987D01*
X024714Y007987D02*
X025130Y007987D01*
X025130Y009987D02*
X024714Y009987D01*
X022130Y009987D02*
X022130Y011142D01*
X021943Y011329D01*
X021380Y011329D01*
X021290Y011239D01*
X020862Y011239D01*
X020862Y010924D02*
X020330Y010924D01*
X020862Y010609D02*
X021500Y010609D01*
X021630Y010740D01*
X021630Y011017D01*
X021612Y011554D02*
X020862Y011554D01*
X020862Y011869D02*
X021290Y012297D01*
X021290Y012392D01*
X021095Y012767D02*
X020720Y012392D01*
X020632Y012479D01*
X020232Y012479D01*
X019917Y012479D02*
X019917Y013017D01*
X022130Y013017D01*
X022130Y011987D01*
X021737Y011679D02*
X021612Y011554D01*
X020255Y011892D02*
X019602Y011892D01*
X019602Y012479D01*
X019287Y012479D01*
X018973Y012479D02*
X018973Y013109D01*
X021095Y012767D02*
X021630Y012767D01*
X024714Y011987D02*
X025130Y011987D01*
X021630Y010169D02*
X021505Y010294D01*
X020862Y010294D01*
X015505Y011731D02*
X015165Y011731D01*
X015115Y011781D01*
X014732Y011781D01*
X013945Y008231D02*
X013945Y007897D01*
X013630Y007897D02*
X013630Y008212D01*
X014415Y005517D02*
X014845Y005517D01*
D11*
X014260Y006322D03*
X013945Y006322D03*
X013630Y006322D03*
X013630Y006637D03*
X013945Y006637D03*
X014260Y006952D03*
X014575Y006952D03*
X014575Y007267D03*
X014260Y007267D03*
X014260Y007582D03*
X014575Y007582D03*
X014575Y007897D03*
X014260Y008212D03*
X013945Y008212D03*
X013630Y008212D03*
X013315Y008212D03*
X013000Y008212D03*
X012685Y007897D03*
X012685Y007582D03*
X013000Y007582D03*
X013000Y007267D03*
X012685Y007267D03*
X012685Y006952D03*
X013000Y006952D03*
X012685Y006637D03*
X013000Y006322D03*
X013315Y006322D03*
X013315Y006637D03*
X014575Y006637D03*
X013945Y007897D03*
X013630Y007897D03*
X013315Y007897D03*
D12*
X012528Y009990D03*
X012528Y010246D03*
X012528Y010502D03*
X012528Y010758D03*
X012528Y011014D03*
X012528Y011270D03*
X012528Y011526D03*
X012528Y011781D03*
X012528Y012037D03*
X012528Y012293D03*
X014732Y012293D03*
X014732Y012037D03*
X014732Y011781D03*
X014732Y011526D03*
X014732Y011270D03*
X014732Y011014D03*
X014732Y010758D03*
X014732Y010502D03*
X014732Y010246D03*
X014732Y009990D03*
D13*
X009228Y008418D03*
X008756Y008418D03*
X008284Y008418D03*
X007811Y008418D03*
X007339Y008418D03*
X006866Y008418D03*
X006394Y008418D03*
X005921Y008418D03*
X005449Y008418D03*
X004976Y008418D03*
X004504Y008418D03*
X004032Y008418D03*
X004032Y013615D03*
X004504Y013615D03*
X004976Y013615D03*
X005449Y013615D03*
X005921Y013615D03*
X006394Y013615D03*
X006866Y013615D03*
X007339Y013615D03*
X007811Y013615D03*
X008284Y013615D03*
X008756Y013615D03*
X009228Y013615D03*
D14*
X010331Y012640D03*
X010331Y012237D03*
X010331Y011765D03*
X010331Y011292D03*
X010331Y010741D03*
X010331Y010269D03*
X010331Y009796D03*
X010331Y009394D03*
X002929Y009127D03*
X002929Y009757D03*
X002929Y010387D03*
D15*
X010630Y005677D03*
X010630Y005106D03*
X011880Y006731D03*
X011880Y007302D03*
X011880Y007731D03*
X011880Y008302D03*
X015505Y008981D03*
X015505Y009552D03*
X015505Y010356D03*
X015505Y010927D03*
X016630Y010052D03*
X016630Y009481D03*
X015505Y011731D03*
X015505Y012302D03*
X021630Y010740D03*
X021630Y010169D03*
X005630Y004990D03*
X005630Y004419D03*
D16*
X005970Y002767D03*
X006540Y002767D03*
X012845Y005517D03*
X013415Y005517D03*
X013845Y005517D03*
X014415Y005517D03*
X014845Y005517D03*
X015415Y005517D03*
X018782Y008267D03*
X019353Y008267D03*
X019845Y008267D03*
X020415Y008267D03*
X014415Y009017D03*
X013845Y009017D03*
X013415Y009017D03*
X012845Y009017D03*
X012845Y009517D03*
X013415Y009517D03*
X013845Y009517D03*
X014415Y009517D03*
X008478Y006892D03*
X007907Y006892D03*
X007415Y006892D03*
X006845Y006892D03*
X020720Y012392D03*
X021290Y012392D03*
D17*
X014380Y013517D03*
X013630Y013517D03*
X012880Y013517D03*
D18*
X017417Y011869D03*
X017417Y011554D03*
X017417Y011239D03*
X017417Y010924D03*
X017417Y010609D03*
X017417Y010294D03*
X017417Y009979D03*
X017417Y009664D03*
X020862Y009664D03*
X020862Y009979D03*
X020862Y010294D03*
X020862Y010609D03*
X020862Y010924D03*
X020862Y011239D03*
X020862Y011554D03*
X020862Y011869D03*
X009843Y005494D03*
X009843Y005179D03*
X009843Y004864D03*
X009843Y004549D03*
X009843Y004234D03*
X009843Y003919D03*
X009843Y003604D03*
X009843Y003289D03*
X006398Y003289D03*
X006398Y003604D03*
X006398Y003919D03*
X006398Y004234D03*
X006398Y004549D03*
X006398Y004864D03*
X006398Y005179D03*
X006398Y005494D03*
D19*
X007028Y006124D03*
X007343Y006124D03*
X007658Y006124D03*
X007973Y006124D03*
X008287Y006124D03*
X008602Y006124D03*
X008917Y006124D03*
X009232Y006124D03*
X009232Y002679D03*
X008917Y002679D03*
X008602Y002679D03*
X008287Y002679D03*
X007973Y002679D03*
X007658Y002679D03*
X007343Y002679D03*
X007028Y002679D03*
X018028Y009034D03*
X018343Y009034D03*
X018658Y009034D03*
X018973Y009034D03*
X019287Y009034D03*
X019602Y009034D03*
X019917Y009034D03*
X020232Y009034D03*
X020232Y012479D03*
X019917Y012479D03*
X019602Y012479D03*
X019287Y012479D03*
X018973Y012479D03*
X018658Y012479D03*
X018343Y012479D03*
X018028Y012479D03*
D20*
X019130Y010767D03*
X008130Y004392D03*
D21*
X007697Y007517D03*
X008563Y007517D03*
X018697Y007642D03*
X019563Y007642D03*
D22*
X023373Y008767D03*
X023373Y010767D03*
X023373Y012767D03*
X003887Y005767D03*
X003887Y003767D03*
X003887Y001767D03*
D23*
X002546Y002027D03*
X002546Y001507D03*
X002546Y000987D03*
X002546Y002546D03*
X002546Y002987D03*
X002546Y003507D03*
X002546Y004027D03*
X002546Y004546D03*
X002546Y004987D03*
X002546Y005507D03*
X002546Y006027D03*
X002546Y006546D03*
X024714Y007987D03*
X024714Y008507D03*
X024714Y009027D03*
X024714Y009546D03*
X024714Y009987D03*
X024714Y010507D03*
X024714Y011027D03*
X024714Y011546D03*
X024714Y011987D03*
X024714Y012507D03*
X024714Y013027D03*
X024714Y013546D03*
D24*
X024943Y001979D03*
X025693Y001979D03*
X024193Y001979D03*
X023443Y001979D03*
X022693Y001979D03*
X021943Y001979D03*
X021193Y001979D03*
X020443Y001979D03*
X019693Y001979D03*
X018943Y001979D03*
X018193Y001979D03*
X017443Y001979D03*
X016693Y001979D03*
X015943Y001979D03*
X015193Y001979D03*
X014443Y001979D03*
X013693Y001979D03*
X012943Y001979D03*
X012193Y001979D03*
X012193Y000680D03*
X012943Y000680D03*
X013693Y000680D03*
X014443Y000680D03*
X015193Y000680D03*
X015943Y000680D03*
X016693Y000680D03*
X017443Y000680D03*
X018193Y000680D03*
X018943Y000680D03*
X019693Y000680D03*
X020443Y000680D03*
X021193Y000680D03*
X021943Y000680D03*
X022693Y000680D03*
X023443Y000680D03*
X024193Y000680D03*
X024943Y000680D03*
X025693Y000680D03*
D25*
X019563Y007642D02*
X019602Y007681D01*
X019602Y009034D01*
X017417Y010294D02*
X017417Y010609D01*
X016412Y010609D01*
X015752Y011270D01*
X014732Y011270D01*
X014255Y011270D01*
X013755Y011770D01*
X012383Y013142D01*
X008856Y013142D01*
X008756Y013242D01*
X008756Y013615D01*
X007697Y007517D02*
X007658Y007477D01*
X007658Y006124D01*
X006398Y004864D02*
X005755Y004864D01*
X005630Y004990D01*
X005760Y004549D02*
X006398Y004549D01*
X005760Y004549D02*
X005630Y004419D01*
X009843Y004549D02*
X010630Y004549D01*
X009843Y004549D02*
X009843Y004864D01*
D26*
X010630Y004549D03*
X013130Y003361D03*
X018028Y007539D03*
X025255Y008392D03*
X025630Y008142D03*
X025255Y009142D03*
X025630Y009392D03*
X025630Y010142D03*
X025255Y010392D03*
X025255Y011142D03*
X025630Y011392D03*
X025630Y012142D03*
X025255Y012392D03*
X025255Y013142D03*
X025630Y013392D03*
X013755Y011770D03*
X002005Y006142D03*
X001630Y006392D03*
X002005Y005392D03*
X001630Y005142D03*
X001630Y004392D03*
X002005Y004142D03*
X002005Y003392D03*
X001630Y003142D03*
X001630Y002392D03*
X002005Y002142D03*
X002005Y001392D03*
X001630Y001142D03*
D27*
X000568Y000453D02*
X000452Y000501D01*
X002820Y000501D01*
X002820Y000447D02*
X000630Y000447D01*
X000568Y000453D01*
X000452Y000501D02*
X000364Y000589D01*
X000316Y000704D01*
X000310Y000767D01*
X000310Y002707D01*
X001972Y002707D01*
X001905Y002639D01*
X001905Y002453D01*
X002037Y002321D01*
X002223Y002321D01*
X002308Y002406D01*
X002309Y002406D01*
X002309Y002376D01*
X002361Y002323D01*
X002731Y002323D01*
X002784Y002376D01*
X002784Y002707D01*
X002820Y002707D01*
X002820Y000447D01*
X002820Y000559D02*
X000394Y000559D01*
X000352Y000618D02*
X002820Y000618D01*
X002820Y000676D02*
X000328Y000676D01*
X000313Y000735D02*
X002820Y000735D01*
X002820Y000793D02*
X000310Y000793D01*
X000310Y000852D02*
X002820Y000852D01*
X002820Y000910D02*
X000310Y000910D01*
X000310Y000969D02*
X002820Y000969D01*
X002820Y001027D02*
X000310Y001027D01*
X000310Y001086D02*
X002820Y001086D01*
X002820Y001144D02*
X000310Y001144D01*
X000310Y001203D02*
X002820Y001203D01*
X002820Y001261D02*
X000310Y001261D01*
X000310Y001320D02*
X002820Y001320D01*
X002820Y001378D02*
X000310Y001378D01*
X000310Y001437D02*
X002820Y001437D01*
X002820Y001495D02*
X000310Y001495D01*
X000310Y001554D02*
X002820Y001554D01*
X002820Y001612D02*
X000310Y001612D01*
X000310Y001671D02*
X002820Y001671D01*
X002820Y001729D02*
X000310Y001729D01*
X000310Y001788D02*
X002820Y001788D01*
X002820Y001846D02*
X000310Y001846D01*
X000310Y001905D02*
X002820Y001905D01*
X002820Y001963D02*
X000310Y001963D01*
X000310Y002022D02*
X002820Y002022D01*
X002820Y002080D02*
X000310Y002080D01*
X000310Y002139D02*
X002820Y002139D01*
X002820Y002197D02*
X000310Y002197D01*
X000310Y002256D02*
X002820Y002256D01*
X002820Y002314D02*
X000310Y002314D01*
X000310Y002373D02*
X001985Y002373D01*
X001927Y002431D02*
X000310Y002431D01*
X000310Y002490D02*
X001905Y002490D01*
X001905Y002548D02*
X000310Y002548D01*
X000310Y002607D02*
X001905Y002607D01*
X001931Y002665D02*
X000310Y002665D01*
X000310Y002827D02*
X000310Y004707D01*
X001972Y004707D01*
X001905Y004639D01*
X001905Y004453D01*
X002037Y004321D01*
X002223Y004321D01*
X002308Y004406D01*
X002309Y004406D01*
X002309Y004376D01*
X002361Y004323D01*
X002731Y004323D01*
X002784Y004376D01*
X002784Y004707D01*
X002820Y004707D01*
X002820Y002827D01*
X000310Y002827D01*
X000310Y002841D02*
X002820Y002841D01*
X002820Y002899D02*
X000310Y002899D01*
X000310Y002958D02*
X002820Y002958D01*
X002820Y003016D02*
X000310Y003016D01*
X000310Y003075D02*
X002820Y003075D01*
X002820Y003133D02*
X000310Y003133D01*
X000310Y003192D02*
X002820Y003192D01*
X002820Y003250D02*
X000310Y003250D01*
X000310Y003309D02*
X002820Y003309D01*
X002820Y003367D02*
X000310Y003367D01*
X000310Y003426D02*
X002820Y003426D01*
X002820Y003484D02*
X000310Y003484D01*
X000310Y003543D02*
X002820Y003543D01*
X002820Y003601D02*
X000310Y003601D01*
X000310Y003660D02*
X002820Y003660D01*
X002820Y003718D02*
X000310Y003718D01*
X000310Y003777D02*
X002820Y003777D01*
X002820Y003835D02*
X000310Y003835D01*
X000310Y003894D02*
X002820Y003894D01*
X002820Y003952D02*
X000310Y003952D01*
X000310Y004011D02*
X002820Y004011D01*
X002820Y004069D02*
X000310Y004069D01*
X000310Y004128D02*
X002820Y004128D01*
X002820Y004186D02*
X000310Y004186D01*
X000310Y004245D02*
X002820Y004245D01*
X002820Y004303D02*
X000310Y004303D01*
X000310Y004362D02*
X001996Y004362D01*
X001938Y004420D02*
X000310Y004420D01*
X000310Y004479D02*
X001905Y004479D01*
X001905Y004537D02*
X000310Y004537D01*
X000310Y004596D02*
X001905Y004596D01*
X001920Y004654D02*
X000310Y004654D01*
X000310Y004827D02*
X000310Y006767D01*
X001670Y006767D01*
X001708Y006729D01*
X002052Y006729D01*
X002090Y006767D01*
X002359Y006767D01*
X002309Y006716D01*
X002309Y006376D01*
X002361Y006323D01*
X002731Y006323D01*
X002784Y006376D01*
X002784Y006716D01*
X002749Y006752D01*
X002820Y006752D01*
X002820Y004827D01*
X000310Y004827D01*
X000310Y004830D02*
X002820Y004830D01*
X002820Y004888D02*
X000310Y004888D01*
X000310Y004947D02*
X002820Y004947D01*
X002820Y005005D02*
X000310Y005005D01*
X000310Y005064D02*
X002820Y005064D01*
X002820Y005122D02*
X000310Y005122D01*
X000310Y005181D02*
X002820Y005181D01*
X002820Y005239D02*
X000310Y005239D01*
X000310Y005298D02*
X002820Y005298D01*
X002820Y005356D02*
X000310Y005356D01*
X000310Y005415D02*
X002820Y005415D01*
X002820Y005473D02*
X000310Y005473D01*
X000310Y005532D02*
X002820Y005532D01*
X002820Y005590D02*
X000310Y005590D01*
X000310Y005649D02*
X002820Y005649D01*
X002820Y005707D02*
X000310Y005707D01*
X000310Y005766D02*
X002820Y005766D01*
X002820Y005824D02*
X000310Y005824D01*
X000310Y005883D02*
X002820Y005883D01*
X002820Y005941D02*
X000310Y005941D01*
X000310Y006000D02*
X002820Y006000D01*
X002820Y006058D02*
X000310Y006058D01*
X000310Y006117D02*
X002820Y006117D01*
X002820Y006175D02*
X000310Y006175D01*
X000310Y006234D02*
X002820Y006234D01*
X002820Y006292D02*
X000310Y006292D01*
X000310Y006351D02*
X002334Y006351D01*
X002309Y006409D02*
X000310Y006409D01*
X000310Y006468D02*
X002309Y006468D01*
X002309Y006526D02*
X000310Y006526D01*
X000310Y006585D02*
X002309Y006585D01*
X002309Y006643D02*
X000310Y006643D01*
X000310Y006702D02*
X002309Y006702D01*
X002353Y006760D02*
X002083Y006760D01*
X002052Y006887D02*
X000310Y006887D01*
X000310Y008487D01*
X003392Y008487D01*
X003410Y008504D01*
X003410Y013529D01*
X003392Y013547D01*
X000310Y013547D01*
X000310Y013767D01*
X000316Y013829D01*
X000364Y013944D01*
X000452Y014033D01*
X000568Y014081D01*
X000630Y014087D01*
X022010Y014087D01*
X022010Y013157D01*
X019859Y013157D01*
X019777Y013075D01*
X019777Y012909D01*
X019760Y012892D01*
X019728Y012924D01*
X019477Y012924D01*
X019445Y012892D01*
X019413Y012924D01*
X019162Y012924D01*
X019130Y012892D01*
X019113Y012909D01*
X019113Y012931D01*
X019198Y013016D01*
X019198Y013202D01*
X019066Y013334D01*
X018879Y013334D01*
X018748Y013202D01*
X018748Y013059D01*
X018707Y013099D01*
X018607Y013199D01*
X016893Y013199D01*
X016823Y013129D01*
X015935Y012242D01*
X015832Y012242D01*
X015832Y012278D01*
X015529Y012278D01*
X015529Y012064D01*
X015655Y012064D01*
X015655Y011929D01*
X015271Y011929D01*
X015218Y011877D01*
X015218Y011877D01*
X015173Y011921D01*
X015098Y011921D01*
X015127Y011951D01*
X015127Y012124D01*
X015113Y012138D01*
X015117Y012140D01*
X015142Y012164D01*
X015159Y012194D01*
X015167Y012227D01*
X015167Y012293D01*
X014732Y012293D01*
X014297Y012293D01*
X014297Y012227D01*
X014306Y012194D01*
X014323Y012164D01*
X014347Y012140D01*
X014351Y012138D01*
X014337Y012124D01*
X014337Y011951D01*
X014379Y011909D01*
X014337Y011868D01*
X014337Y011695D01*
X014351Y011681D01*
X014347Y011679D01*
X014323Y011655D01*
X014306Y011625D01*
X014297Y011592D01*
X014297Y011526D01*
X014732Y011526D01*
X014732Y011526D01*
X014297Y011526D01*
X014297Y011459D01*
X014304Y011432D01*
X014015Y011722D01*
X014015Y011821D01*
X013975Y011917D01*
X013902Y011990D01*
X013807Y012030D01*
X013707Y012030D01*
X012445Y013292D01*
X009516Y013292D01*
X009516Y013585D01*
X009258Y013585D01*
X009258Y013645D01*
X009198Y013645D01*
X009198Y014060D01*
X009054Y014060D01*
X009021Y014051D01*
X008991Y014034D01*
X008967Y014010D01*
X008965Y014006D01*
X008951Y014020D01*
X008561Y014020D01*
X008520Y013979D01*
X008478Y014020D01*
X008089Y014020D01*
X008047Y013979D01*
X008006Y014020D01*
X007616Y014020D01*
X007575Y013979D01*
X007533Y014020D01*
X007144Y014020D01*
X007102Y013979D01*
X007061Y014020D01*
X006671Y014020D01*
X006630Y013979D01*
X006589Y014020D01*
X006199Y014020D01*
X006158Y013979D01*
X006116Y014020D01*
X005727Y014020D01*
X005685Y013979D01*
X005644Y014020D01*
X005254Y014020D01*
X005213Y013979D01*
X005171Y014020D01*
X004782Y014020D01*
X004740Y013979D01*
X004699Y014020D01*
X004309Y014020D01*
X004295Y014006D01*
X004293Y014010D01*
X004269Y014034D01*
X004239Y014051D01*
X004206Y014060D01*
X004062Y014060D01*
X004062Y013645D01*
X004002Y013645D01*
X004002Y014060D01*
X003857Y014060D01*
X003824Y014051D01*
X003794Y014034D01*
X003770Y014010D01*
X003753Y013980D01*
X003744Y013947D01*
X003744Y013645D01*
X004002Y013645D01*
X004002Y013585D01*
X004062Y013585D01*
X004062Y013170D01*
X004206Y013170D01*
X004239Y013179D01*
X004269Y013196D01*
X004293Y013220D01*
X004295Y013224D01*
X004309Y013210D01*
X004699Y013210D01*
X004740Y013252D01*
X004782Y013210D01*
X005171Y013210D01*
X005213Y013252D01*
X005254Y013210D01*
X005644Y013210D01*
X005685Y013252D01*
X005727Y013210D01*
X006116Y013210D01*
X006158Y013252D01*
X006199Y013210D01*
X006589Y013210D01*
X006630Y013252D01*
X006671Y013210D01*
X007061Y013210D01*
X007102Y013252D01*
X007144Y013210D01*
X007533Y013210D01*
X007575Y013252D01*
X007616Y013210D01*
X008006Y013210D01*
X008047Y013252D01*
X008089Y013210D01*
X008478Y013210D01*
X008520Y013252D01*
X008561Y013210D01*
X008606Y013210D01*
X008606Y013180D01*
X008706Y013080D01*
X008706Y013080D01*
X008794Y012992D01*
X011974Y012992D01*
X011905Y012922D01*
X011905Y012736D01*
X012037Y012604D01*
X012223Y012604D01*
X012355Y012736D01*
X012355Y012922D01*
X012286Y012992D01*
X012321Y012992D01*
X013495Y011817D01*
X013495Y011718D01*
X013535Y011622D01*
X013608Y011549D01*
X013703Y011510D01*
X013803Y011510D01*
X014105Y011207D01*
X014176Y011136D01*
X014112Y011072D01*
X013552Y010512D01*
X012923Y010512D01*
X012923Y010588D01*
X012909Y010602D01*
X012913Y010605D01*
X012937Y010629D01*
X012954Y010658D01*
X012963Y010691D01*
X012963Y010758D01*
X012963Y010824D01*
X012954Y010857D01*
X012937Y010887D01*
X012913Y010911D01*
X012909Y010913D01*
X012923Y010927D01*
X012923Y011100D01*
X012881Y011142D01*
X012923Y011183D01*
X012923Y011356D01*
X012881Y011398D01*
X012923Y011439D01*
X012923Y011612D01*
X012881Y011653D01*
X012923Y011695D01*
X012923Y011868D01*
X012881Y011909D01*
X012923Y011951D01*
X012923Y012124D01*
X012881Y012165D01*
X012923Y012207D01*
X012923Y012380D01*
X012870Y012432D01*
X012185Y012432D01*
X012133Y012380D01*
X012133Y012207D01*
X012174Y012165D01*
X012166Y012157D01*
X011726Y012157D01*
X010955Y011387D01*
X010885Y011316D01*
X010885Y010867D01*
X010787Y010867D01*
X010736Y010816D01*
X010736Y010936D01*
X010683Y010989D01*
X009979Y010989D01*
X009926Y010936D01*
X009926Y010546D01*
X009967Y010505D01*
X009926Y010463D01*
X009926Y010074D01*
X009940Y010060D01*
X009936Y010058D01*
X009922Y010043D01*
X009911Y010054D01*
X009724Y010054D01*
X009593Y009922D01*
X009593Y009736D01*
X009724Y009604D01*
X009890Y009604D01*
X009895Y009589D01*
X009912Y009559D01*
X009926Y009545D01*
X009926Y009199D01*
X009979Y009146D01*
X010683Y009146D01*
X010736Y009199D01*
X010736Y009545D01*
X010750Y009559D01*
X010767Y009589D01*
X010776Y009622D01*
X010776Y009766D01*
X010361Y009766D01*
X010361Y009826D01*
X010776Y009826D01*
X010776Y009971D01*
X010767Y010004D01*
X010750Y010033D01*
X010726Y010058D01*
X010722Y010060D01*
X010736Y010074D01*
X010736Y010093D01*
X010787Y010042D01*
X010973Y010042D01*
X011105Y010173D01*
X011105Y010322D01*
X011180Y010397D01*
X011181Y010398D01*
X011287Y010292D01*
X011360Y010292D01*
X011010Y009941D01*
X011010Y006092D01*
X011080Y006022D01*
X012080Y005022D01*
X013960Y005022D01*
X013960Y004432D01*
X013915Y004387D01*
X011300Y004387D01*
X011300Y005248D01*
X011200Y005347D01*
X010917Y005631D01*
X010917Y005823D01*
X010864Y005875D01*
X010396Y005875D01*
X010343Y005823D01*
X010343Y005664D01*
X010243Y005664D01*
X010234Y005673D01*
X009904Y005673D01*
X009411Y006166D01*
X009411Y006516D01*
X009358Y006568D01*
X009106Y006568D01*
X009103Y006565D01*
X009086Y006582D01*
X009056Y006599D01*
X009023Y006608D01*
X008932Y006608D01*
X008932Y006138D01*
X008903Y006138D01*
X008903Y006110D01*
X008699Y006110D01*
X008617Y006110D01*
X008617Y006138D01*
X008903Y006138D01*
X008903Y006608D01*
X008812Y006608D01*
X008779Y006599D01*
X008760Y006589D01*
X008741Y006599D01*
X008708Y006608D01*
X008627Y006608D01*
X008676Y006658D01*
X008676Y007111D01*
X008757Y007111D01*
X008790Y007120D01*
X008820Y007137D01*
X008844Y007161D01*
X008861Y007191D01*
X008870Y007224D01*
X008870Y007487D01*
X008593Y007487D01*
X008593Y007547D01*
X008533Y007547D01*
X008533Y007922D01*
X008369Y007922D01*
X008336Y007913D01*
X008306Y007896D01*
X008282Y007872D01*
X008265Y007842D01*
X008256Y007809D01*
X008256Y007547D01*
X008533Y007547D01*
X008533Y007487D01*
X008256Y007487D01*
X008256Y007224D01*
X008265Y007191D01*
X008282Y007161D01*
X008299Y007145D01*
X008280Y007126D01*
X008280Y006891D01*
X008229Y006841D01*
X008147Y006759D01*
X008147Y006554D01*
X008130Y006537D01*
X008113Y006554D01*
X008113Y006884D01*
X008105Y006891D01*
X008105Y007126D01*
X008053Y007179D01*
X007939Y007179D01*
X007964Y007204D01*
X007964Y007830D01*
X007911Y007882D01*
X007482Y007882D01*
X007430Y007830D01*
X007430Y007204D01*
X007455Y007179D01*
X007270Y007179D01*
X007217Y007126D01*
X007217Y006891D01*
X007203Y006877D01*
X007057Y006877D01*
X007043Y006891D02*
X007043Y007126D01*
X006990Y007179D01*
X006756Y007179D01*
X006735Y007200D01*
X006653Y007282D01*
X002447Y007282D01*
X002052Y006887D01*
X002101Y006936D02*
X000310Y006936D01*
X000310Y006994D02*
X002160Y006994D01*
X002218Y007053D02*
X000310Y007053D01*
X000310Y007111D02*
X002277Y007111D01*
X002335Y007170D02*
X000310Y007170D01*
X000310Y007228D02*
X002394Y007228D01*
X002784Y006702D02*
X002820Y006702D01*
X002820Y006643D02*
X002784Y006643D01*
X002784Y006585D02*
X002820Y006585D01*
X002820Y006526D02*
X002784Y006526D01*
X002784Y006468D02*
X002820Y006468D01*
X002820Y006409D02*
X002784Y006409D01*
X002759Y006351D02*
X002820Y006351D01*
X002940Y006351D02*
X004990Y006351D01*
X004990Y006368D02*
X004990Y005959D01*
X005130Y005819D01*
X005130Y004771D01*
X005037Y004771D01*
X004905Y004639D01*
X004905Y004453D01*
X004990Y004368D01*
X004990Y003861D01*
X005130Y003721D01*
X005130Y002771D01*
X005037Y002771D01*
X004905Y002639D01*
X004905Y002453D01*
X004990Y002368D01*
X004990Y002084D01*
X005072Y002002D01*
X007401Y002002D01*
X007483Y002084D01*
X007483Y002249D01*
X007500Y002266D01*
X007532Y002235D01*
X007783Y002235D01*
X007815Y002266D01*
X007847Y002235D01*
X008098Y002235D01*
X008130Y002266D01*
X008162Y002235D01*
X008413Y002235D01*
X008445Y002266D01*
X008477Y002235D01*
X008482Y002235D01*
X008482Y002229D01*
X008557Y002154D01*
X008628Y002084D01*
X009492Y002084D01*
X010450Y003042D01*
X010536Y003042D01*
X010667Y003173D01*
X010667Y003360D01*
X010561Y003467D01*
X010605Y003511D01*
X010605Y003697D01*
X010473Y003829D01*
X010287Y003829D01*
X010287Y004009D01*
X010473Y004009D01*
X010605Y004141D01*
X010605Y004267D01*
X013795Y004267D01*
X013150Y003621D01*
X013078Y003621D01*
X012983Y003582D01*
X012910Y003508D01*
X012870Y003413D01*
X012870Y003309D01*
X012910Y003214D01*
X012983Y003141D01*
X013078Y003101D01*
X013182Y003101D01*
X013277Y003141D01*
X013350Y003214D01*
X013390Y003309D01*
X013390Y003381D01*
X014200Y004191D01*
X014276Y004267D01*
X016130Y004267D01*
X017130Y005267D01*
X017130Y006517D01*
X017630Y007017D01*
X021630Y007017D01*
X022130Y007517D01*
X022130Y007762D01*
X022223Y007762D01*
X022355Y007894D01*
X022355Y008080D01*
X022270Y008165D01*
X022270Y009200D01*
X022130Y009340D01*
X022130Y009762D01*
X022223Y009762D01*
X022355Y009894D01*
X022355Y010080D01*
X022270Y010165D01*
X022270Y011200D01*
X022188Y011282D01*
X022130Y011340D01*
X022130Y011762D01*
X022223Y011762D01*
X022355Y011894D01*
X022355Y012080D01*
X022270Y012165D01*
X022270Y013075D01*
X022188Y013157D01*
X022130Y013157D01*
X022130Y014087D01*
X024320Y014087D01*
X024320Y007707D01*
X026950Y007707D01*
X026950Y000767D01*
X026944Y000704D01*
X026896Y000589D01*
X026808Y000501D01*
X002940Y000501D01*
X002940Y000447D02*
X002940Y006752D01*
X005017Y006752D01*
X004905Y006639D01*
X004905Y006453D01*
X004990Y006368D01*
X004949Y006409D02*
X002940Y006409D01*
X002940Y006468D02*
X004905Y006468D01*
X004905Y006526D02*
X002940Y006526D01*
X002940Y006585D02*
X004905Y006585D01*
X004909Y006643D02*
X002940Y006643D01*
X002940Y006702D02*
X004967Y006702D01*
X004990Y006292D02*
X002940Y006292D01*
X002940Y006234D02*
X004990Y006234D01*
X004990Y006175D02*
X002940Y006175D01*
X002940Y006117D02*
X004990Y006117D01*
X004990Y006058D02*
X002940Y006058D01*
X002940Y006000D02*
X004990Y006000D01*
X005007Y005941D02*
X002940Y005941D01*
X002940Y005883D02*
X005066Y005883D01*
X005124Y005824D02*
X002940Y005824D01*
X002940Y005766D02*
X005130Y005766D01*
X005130Y005707D02*
X002940Y005707D01*
X002940Y005649D02*
X005130Y005649D01*
X005130Y005590D02*
X002940Y005590D01*
X002940Y005532D02*
X005130Y005532D01*
X005130Y005473D02*
X002940Y005473D01*
X002940Y005415D02*
X005130Y005415D01*
X005130Y005356D02*
X002940Y005356D01*
X002940Y005298D02*
X005130Y005298D01*
X005130Y005239D02*
X002940Y005239D01*
X002940Y005181D02*
X005130Y005181D01*
X005130Y005122D02*
X002940Y005122D01*
X002940Y005064D02*
X005130Y005064D01*
X005130Y005005D02*
X002940Y005005D01*
X002940Y004947D02*
X005130Y004947D01*
X005130Y004888D02*
X002940Y004888D01*
X002940Y004830D02*
X005130Y004830D01*
X005037Y004771D02*
X002940Y004771D01*
X002940Y004713D02*
X004978Y004713D01*
X004920Y004654D02*
X002940Y004654D01*
X002940Y004596D02*
X004905Y004596D01*
X004905Y004537D02*
X002940Y004537D01*
X002940Y004479D02*
X004905Y004479D01*
X004938Y004420D02*
X002940Y004420D01*
X002940Y004362D02*
X004990Y004362D01*
X004990Y004303D02*
X002940Y004303D01*
X002940Y004245D02*
X004990Y004245D01*
X004990Y004186D02*
X002940Y004186D01*
X002940Y004128D02*
X004990Y004128D01*
X004990Y004069D02*
X002940Y004069D01*
X002940Y004011D02*
X004990Y004011D01*
X004990Y003952D02*
X002940Y003952D01*
X002940Y003894D02*
X004990Y003894D01*
X005016Y003835D02*
X002940Y003835D01*
X002940Y003777D02*
X005075Y003777D01*
X005130Y003718D02*
X002940Y003718D01*
X002940Y003660D02*
X005130Y003660D01*
X005130Y003601D02*
X002940Y003601D01*
X002940Y003543D02*
X005130Y003543D01*
X005130Y003484D02*
X002940Y003484D01*
X002940Y003426D02*
X005130Y003426D01*
X005130Y003367D02*
X002940Y003367D01*
X002940Y003309D02*
X005130Y003309D01*
X005130Y003250D02*
X002940Y003250D01*
X002940Y003192D02*
X005130Y003192D01*
X005130Y003133D02*
X002940Y003133D01*
X002940Y003075D02*
X005130Y003075D01*
X005130Y003016D02*
X002940Y003016D01*
X002940Y002958D02*
X005130Y002958D01*
X005130Y002899D02*
X002940Y002899D01*
X002940Y002841D02*
X005130Y002841D01*
X005130Y002782D02*
X002940Y002782D01*
X002940Y002724D02*
X004989Y002724D01*
X004931Y002665D02*
X002940Y002665D01*
X002940Y002607D02*
X004905Y002607D01*
X004905Y002548D02*
X002940Y002548D01*
X002940Y002490D02*
X004905Y002490D01*
X004927Y002431D02*
X002940Y002431D01*
X002940Y002373D02*
X004985Y002373D01*
X004990Y002314D02*
X002940Y002314D01*
X002940Y002256D02*
X004990Y002256D01*
X004990Y002197D02*
X002940Y002197D01*
X002940Y002139D02*
X004990Y002139D01*
X004994Y002080D02*
X002940Y002080D01*
X002940Y002022D02*
X005052Y002022D01*
X002940Y001963D02*
X011698Y001963D01*
X011698Y001905D02*
X002940Y001905D01*
X002940Y001846D02*
X011698Y001846D01*
X011698Y001788D02*
X002940Y001788D01*
X002940Y001729D02*
X011698Y001729D01*
X011698Y001671D02*
X002940Y001671D01*
X002940Y001612D02*
X011740Y001612D01*
X011768Y001584D02*
X026117Y001584D01*
X026187Y001654D01*
X026187Y001754D01*
X026187Y002316D01*
X026117Y002387D01*
X011768Y002387D01*
X011698Y002316D01*
X011698Y001654D01*
X011768Y001584D01*
X011818Y001704D02*
X011818Y002267D01*
X026068Y002267D01*
X026068Y001704D01*
X011818Y001704D01*
X011818Y001729D02*
X026068Y001729D01*
X026068Y001788D02*
X011818Y001788D01*
X011818Y001846D02*
X026068Y001846D01*
X026068Y001905D02*
X011818Y001905D01*
X011818Y001963D02*
X026068Y001963D01*
X026068Y002022D02*
X011818Y002022D01*
X011818Y002080D02*
X026068Y002080D01*
X026068Y002139D02*
X011818Y002139D01*
X011818Y002197D02*
X026068Y002197D01*
X026068Y002256D02*
X011818Y002256D01*
X011698Y002256D02*
X009664Y002256D01*
X009722Y002314D02*
X011698Y002314D01*
X011754Y002373D02*
X009781Y002373D01*
X009839Y002431D02*
X026950Y002431D01*
X026950Y002373D02*
X026131Y002373D01*
X026187Y002314D02*
X026950Y002314D01*
X026950Y002256D02*
X026187Y002256D01*
X026187Y002197D02*
X026950Y002197D01*
X026950Y002139D02*
X026187Y002139D01*
X026187Y002080D02*
X026950Y002080D01*
X026950Y002022D02*
X026187Y002022D01*
X026187Y001963D02*
X026950Y001963D01*
X026950Y001905D02*
X026187Y001905D01*
X026187Y001846D02*
X026950Y001846D01*
X026950Y001788D02*
X026187Y001788D01*
X026187Y001729D02*
X026950Y001729D01*
X026950Y001671D02*
X026187Y001671D01*
X026145Y001612D02*
X026950Y001612D01*
X026950Y001554D02*
X002940Y001554D01*
X002940Y001495D02*
X026950Y001495D01*
X026950Y001437D02*
X002940Y001437D01*
X002940Y001378D02*
X026950Y001378D01*
X026950Y001320D02*
X002940Y001320D01*
X002940Y001261D02*
X026950Y001261D01*
X026950Y001203D02*
X002940Y001203D01*
X002940Y001144D02*
X026950Y001144D01*
X026950Y001086D02*
X002940Y001086D01*
X002940Y001027D02*
X026950Y001027D01*
X026950Y000969D02*
X002940Y000969D01*
X002940Y000910D02*
X026950Y000910D01*
X026950Y000852D02*
X002940Y000852D01*
X002940Y000793D02*
X026950Y000793D01*
X026947Y000735D02*
X002940Y000735D01*
X002940Y000676D02*
X026932Y000676D01*
X026908Y000618D02*
X002940Y000618D01*
X002940Y000559D02*
X026866Y000559D01*
X026808Y000501D02*
X026692Y000453D01*
X026630Y000447D01*
X002940Y000447D01*
X002820Y002373D02*
X002781Y002373D01*
X002784Y002431D02*
X002820Y002431D01*
X002820Y002490D02*
X002784Y002490D01*
X002784Y002548D02*
X002820Y002548D01*
X002820Y002607D02*
X002784Y002607D01*
X002784Y002665D02*
X002820Y002665D01*
X002312Y002373D02*
X002275Y002373D01*
X002264Y004362D02*
X002323Y004362D01*
X002770Y004362D02*
X002820Y004362D01*
X002820Y004420D02*
X002784Y004420D01*
X002784Y004479D02*
X002820Y004479D01*
X002820Y004537D02*
X002784Y004537D01*
X002784Y004596D02*
X002820Y004596D01*
X002820Y004654D02*
X002784Y004654D01*
X001677Y006760D02*
X000310Y006760D01*
X000310Y007287D02*
X007430Y007287D01*
X007430Y007345D02*
X000310Y007345D01*
X000310Y007404D02*
X007430Y007404D01*
X007430Y007462D02*
X000310Y007462D01*
X000310Y007521D02*
X007430Y007521D01*
X007430Y007579D02*
X000310Y007579D01*
X000310Y007638D02*
X007430Y007638D01*
X007430Y007696D02*
X000310Y007696D01*
X000310Y007755D02*
X007430Y007755D01*
X007430Y007813D02*
X000310Y007813D01*
X000310Y007872D02*
X007472Y007872D01*
X007533Y008013D02*
X007144Y008013D01*
X007102Y008055D01*
X007061Y008013D01*
X006671Y008013D01*
X006630Y008055D01*
X006589Y008013D01*
X006199Y008013D01*
X006158Y008055D01*
X006116Y008013D01*
X005727Y008013D01*
X005685Y008055D01*
X005644Y008013D01*
X005254Y008013D01*
X005213Y008055D01*
X005171Y008013D01*
X004782Y008013D01*
X004740Y008055D01*
X004699Y008013D01*
X004309Y008013D01*
X004268Y008055D01*
X004226Y008013D01*
X003837Y008013D01*
X003784Y008066D01*
X003784Y008770D01*
X003837Y008823D01*
X004226Y008823D01*
X004268Y008782D01*
X004309Y008823D01*
X004699Y008823D01*
X004740Y008782D01*
X004782Y008823D01*
X005171Y008823D01*
X005213Y008782D01*
X005254Y008823D01*
X005255Y008823D01*
X005224Y008855D01*
X005224Y009041D01*
X005356Y009173D01*
X005542Y009173D01*
X005674Y009041D01*
X005674Y008855D01*
X005643Y008823D01*
X005644Y008823D01*
X005685Y008782D01*
X005727Y008823D01*
X006116Y008823D01*
X006158Y008782D01*
X006199Y008823D01*
X006589Y008823D01*
X006630Y008782D01*
X006671Y008823D01*
X007061Y008823D01*
X007102Y008782D01*
X007144Y008823D01*
X007533Y008823D01*
X007575Y008782D01*
X007616Y008823D01*
X007704Y008823D01*
X007761Y008880D01*
X008510Y009629D01*
X008510Y011443D01*
X008405Y011548D01*
X008405Y011735D01*
X008462Y011792D01*
X008287Y011792D01*
X008155Y011923D01*
X008155Y012110D01*
X008287Y012242D01*
X008405Y012242D01*
X008405Y012360D01*
X008537Y012492D01*
X008723Y012492D01*
X008828Y012387D01*
X009180Y012387D01*
X009430Y012137D01*
X009500Y012066D01*
X009500Y011404D01*
X009125Y011029D01*
X009125Y009129D01*
X009278Y008976D01*
X009348Y008905D01*
X009348Y008823D01*
X009423Y008823D01*
X009476Y008770D01*
X009476Y008066D01*
X009423Y008013D01*
X009034Y008013D01*
X008992Y008055D01*
X008951Y008013D01*
X008561Y008013D01*
X008520Y008055D01*
X008478Y008013D01*
X008089Y008013D01*
X008047Y008055D01*
X008006Y008013D01*
X007616Y008013D01*
X007575Y008055D01*
X007533Y008013D01*
X007567Y008047D02*
X007582Y008047D01*
X007110Y008047D02*
X007095Y008047D01*
X006638Y008047D02*
X006622Y008047D01*
X006165Y008047D02*
X006150Y008047D01*
X005693Y008047D02*
X005678Y008047D01*
X005220Y008047D02*
X005205Y008047D01*
X004748Y008047D02*
X004733Y008047D01*
X004275Y008047D02*
X004260Y008047D01*
X003803Y008047D02*
X000310Y008047D01*
X000310Y007989D02*
X011010Y007989D01*
X011010Y008047D02*
X009457Y008047D01*
X009476Y008106D02*
X011010Y008106D01*
X011010Y008164D02*
X009476Y008164D01*
X009476Y008223D02*
X011010Y008223D01*
X011010Y008281D02*
X009476Y008281D01*
X009476Y008340D02*
X011010Y008340D01*
X011010Y008398D02*
X009476Y008398D01*
X009476Y008457D02*
X011010Y008457D01*
X011010Y008515D02*
X009476Y008515D01*
X009476Y008574D02*
X011010Y008574D01*
X011010Y008632D02*
X009476Y008632D01*
X009476Y008691D02*
X011010Y008691D01*
X011010Y008749D02*
X009476Y008749D01*
X009439Y008808D02*
X011010Y008808D01*
X011010Y008866D02*
X009348Y008866D01*
X009329Y008925D02*
X011010Y008925D01*
X011010Y008983D02*
X009271Y008983D01*
X009212Y009042D02*
X011010Y009042D01*
X011010Y009100D02*
X009154Y009100D01*
X009125Y009159D02*
X009966Y009159D01*
X009926Y009217D02*
X009125Y009217D01*
X009125Y009276D02*
X009926Y009276D01*
X009926Y009334D02*
X009125Y009334D01*
X009125Y009393D02*
X009926Y009393D01*
X009926Y009451D02*
X009125Y009451D01*
X009125Y009510D02*
X009926Y009510D01*
X009906Y009568D02*
X009125Y009568D01*
X009125Y009627D02*
X009702Y009627D01*
X009643Y009685D02*
X009125Y009685D01*
X009125Y009744D02*
X009593Y009744D01*
X009593Y009802D02*
X009125Y009802D01*
X009125Y009861D02*
X009593Y009861D01*
X009593Y009919D02*
X009125Y009919D01*
X009125Y009978D02*
X009648Y009978D01*
X009598Y009979D02*
X009730Y010111D01*
X009730Y010297D01*
X009598Y010429D01*
X009412Y010429D01*
X009280Y010297D01*
X009280Y010111D01*
X009412Y009979D01*
X009598Y009979D01*
X009655Y010036D02*
X009706Y010036D01*
X009714Y010095D02*
X009926Y010095D01*
X009926Y010153D02*
X009730Y010153D01*
X009730Y010212D02*
X009926Y010212D01*
X009926Y010270D02*
X009730Y010270D01*
X009699Y010329D02*
X009926Y010329D01*
X009926Y010387D02*
X009640Y010387D01*
X009370Y010387D02*
X009125Y010387D01*
X009125Y010329D02*
X009311Y010329D01*
X009280Y010270D02*
X009125Y010270D01*
X009125Y010212D02*
X009280Y010212D01*
X009280Y010153D02*
X009125Y010153D01*
X009125Y010095D02*
X009296Y010095D01*
X009355Y010036D02*
X009125Y010036D01*
X009125Y010446D02*
X009926Y010446D01*
X009967Y010504D02*
X009125Y010504D01*
X009125Y010563D02*
X009926Y010563D01*
X009926Y010621D02*
X009125Y010621D01*
X009125Y010680D02*
X009926Y010680D01*
X009926Y010738D02*
X009125Y010738D01*
X009125Y010797D02*
X009926Y010797D01*
X009926Y010855D02*
X009125Y010855D01*
X009125Y010914D02*
X009926Y010914D01*
X009962Y010972D02*
X009125Y010972D01*
X009126Y011031D02*
X010885Y011031D01*
X010885Y011089D02*
X010727Y011089D01*
X010736Y011097D02*
X010683Y011045D01*
X009979Y011045D01*
X009926Y011097D01*
X009926Y011487D01*
X009967Y011528D01*
X009926Y011570D01*
X009926Y011959D01*
X009940Y011973D01*
X009936Y011976D01*
X009912Y012000D01*
X009895Y012029D01*
X009886Y012063D01*
X009886Y012207D01*
X010301Y012207D01*
X010301Y012267D01*
X009886Y012267D01*
X009886Y012412D01*
X009895Y012445D01*
X009912Y012474D01*
X009926Y012488D01*
X009926Y012834D01*
X009979Y012887D01*
X010683Y012887D01*
X010736Y012834D01*
X010736Y012488D01*
X010750Y012474D01*
X010767Y012445D01*
X010776Y012412D01*
X010776Y012267D01*
X010361Y012267D01*
X010361Y012207D01*
X010776Y012207D01*
X010776Y012063D01*
X010767Y012029D01*
X010750Y012000D01*
X010726Y011976D01*
X010722Y011973D01*
X010736Y011959D01*
X010736Y011570D01*
X010694Y011528D01*
X010736Y011487D01*
X010736Y011097D01*
X010736Y011148D02*
X010885Y011148D01*
X010885Y011206D02*
X010736Y011206D01*
X010736Y011265D02*
X010885Y011265D01*
X010892Y011323D02*
X010736Y011323D01*
X010736Y011382D02*
X010950Y011382D01*
X011009Y011440D02*
X010736Y011440D01*
X010724Y011499D02*
X011067Y011499D01*
X011126Y011557D02*
X010723Y011557D01*
X010736Y011616D02*
X011184Y011616D01*
X011243Y011674D02*
X010736Y011674D01*
X010736Y011733D02*
X011301Y011733D01*
X011360Y011791D02*
X010736Y011791D01*
X010736Y011850D02*
X011418Y011850D01*
X011477Y011908D02*
X010736Y011908D01*
X010728Y011967D02*
X011535Y011967D01*
X011594Y012025D02*
X010764Y012025D01*
X010776Y012084D02*
X011652Y012084D01*
X011711Y012142D02*
X010776Y012142D01*
X010776Y012201D02*
X012139Y012201D01*
X012133Y012259D02*
X010361Y012259D01*
X010301Y012259D02*
X009307Y012259D01*
X009366Y012201D02*
X009886Y012201D01*
X009886Y012142D02*
X009424Y012142D01*
X009483Y012084D02*
X009886Y012084D01*
X009897Y012025D02*
X009500Y012025D01*
X009500Y011967D02*
X009933Y011967D01*
X009926Y011908D02*
X009500Y011908D01*
X009500Y011850D02*
X009926Y011850D01*
X009926Y011791D02*
X009500Y011791D01*
X009500Y011733D02*
X009926Y011733D01*
X009926Y011674D02*
X009500Y011674D01*
X009500Y011616D02*
X009926Y011616D01*
X009939Y011557D02*
X009500Y011557D01*
X009500Y011499D02*
X009938Y011499D01*
X009926Y011440D02*
X009500Y011440D01*
X009477Y011382D02*
X009926Y011382D01*
X009926Y011323D02*
X009419Y011323D01*
X009360Y011265D02*
X009926Y011265D01*
X009926Y011206D02*
X009302Y011206D01*
X009243Y011148D02*
X009926Y011148D01*
X009934Y011089D02*
X009185Y011089D01*
X009005Y011079D02*
X009005Y009079D01*
X009228Y008856D01*
X009228Y008418D01*
X008756Y008418D02*
X008756Y009330D01*
X008880Y009454D01*
X008880Y011142D01*
X009255Y011517D01*
X009255Y011767D01*
X009005Y012017D01*
X008380Y012017D01*
X008155Y012025D02*
X003410Y012025D01*
X003410Y011967D02*
X008155Y011967D01*
X008170Y011908D02*
X003410Y011908D01*
X003410Y011850D02*
X008229Y011850D01*
X008405Y011733D02*
X003410Y011733D01*
X003410Y011791D02*
X008461Y011791D01*
X008405Y011674D02*
X003410Y011674D01*
X003410Y011616D02*
X008405Y011616D01*
X008405Y011557D02*
X003410Y011557D01*
X003410Y011499D02*
X008455Y011499D01*
X008510Y011440D02*
X003410Y011440D01*
X003410Y011382D02*
X008510Y011382D01*
X008510Y011323D02*
X003410Y011323D01*
X003410Y011265D02*
X008510Y011265D01*
X008510Y011206D02*
X003410Y011206D01*
X003410Y011148D02*
X008510Y011148D01*
X008510Y011089D02*
X003410Y011089D01*
X003410Y011031D02*
X008510Y011031D01*
X008510Y010972D02*
X003410Y010972D01*
X003410Y010914D02*
X008510Y010914D01*
X008510Y010855D02*
X003410Y010855D01*
X003410Y010797D02*
X008510Y010797D01*
X008510Y010738D02*
X003410Y010738D01*
X003410Y010680D02*
X008510Y010680D01*
X008510Y010621D02*
X003410Y010621D01*
X003410Y010563D02*
X008510Y010563D01*
X008510Y010504D02*
X003410Y010504D01*
X003410Y010446D02*
X008510Y010446D01*
X008510Y010387D02*
X006854Y010387D01*
X006848Y010393D02*
X006662Y010393D01*
X006530Y010261D01*
X006530Y010075D01*
X006634Y009971D01*
X006530Y009868D01*
X006530Y009681D01*
X006662Y009550D01*
X006848Y009550D01*
X006980Y009681D01*
X006980Y009868D01*
X006876Y009971D01*
X006980Y010075D01*
X006980Y010261D01*
X006848Y010393D01*
X006913Y010329D02*
X008510Y010329D01*
X008510Y010270D02*
X006971Y010270D01*
X006980Y010212D02*
X008510Y010212D01*
X008510Y010153D02*
X006980Y010153D01*
X006980Y010095D02*
X008510Y010095D01*
X008510Y010036D02*
X006941Y010036D01*
X006883Y009978D02*
X008510Y009978D01*
X008510Y009919D02*
X006929Y009919D01*
X006980Y009861D02*
X008510Y009861D01*
X008510Y009802D02*
X006980Y009802D01*
X006980Y009744D02*
X008510Y009744D01*
X008510Y009685D02*
X006980Y009685D01*
X006925Y009627D02*
X008508Y009627D01*
X008449Y009568D02*
X006867Y009568D01*
X006848Y009492D02*
X006662Y009492D01*
X006530Y009360D01*
X006530Y009173D01*
X006662Y009042D01*
X005673Y009042D01*
X005674Y008983D02*
X007864Y008983D01*
X007806Y008925D02*
X005674Y008925D01*
X005674Y008866D02*
X007747Y008866D01*
X007811Y008760D02*
X007811Y008418D01*
X007811Y008760D02*
X008630Y009579D01*
X008630Y011642D01*
X008755Y011392D02*
X008755Y009517D01*
X008284Y009045D01*
X008284Y008418D01*
X008512Y008047D02*
X008527Y008047D01*
X008593Y007922D02*
X008593Y007547D01*
X008870Y007547D01*
X008870Y007809D01*
X008861Y007842D01*
X008844Y007872D01*
X008820Y007896D01*
X008790Y007913D01*
X008757Y007922D01*
X008593Y007922D01*
X008593Y007872D02*
X008533Y007872D01*
X008533Y007813D02*
X008593Y007813D01*
X008593Y007755D02*
X008533Y007755D01*
X008533Y007696D02*
X008593Y007696D01*
X008593Y007638D02*
X008533Y007638D01*
X008533Y007579D02*
X008593Y007579D01*
X008593Y007521D02*
X009922Y007521D01*
X009922Y007492D02*
X009857Y007492D01*
X009725Y007360D01*
X009725Y007173D01*
X009857Y007042D01*
X010044Y007042D01*
X010175Y007173D01*
X010175Y007354D01*
X010240Y007354D01*
X010372Y007486D01*
X010372Y007672D01*
X010240Y007804D01*
X010054Y007804D01*
X009922Y007672D01*
X009922Y007492D01*
X009922Y007579D02*
X008870Y007579D01*
X008870Y007638D02*
X009922Y007638D01*
X009946Y007696D02*
X008870Y007696D01*
X008870Y007755D02*
X010005Y007755D01*
X010290Y007755D02*
X011010Y007755D01*
X011010Y007813D02*
X008869Y007813D01*
X008844Y007872D02*
X011010Y007872D01*
X011010Y007930D02*
X000310Y007930D01*
X000310Y008106D02*
X003784Y008106D01*
X003784Y008164D02*
X000310Y008164D01*
X000310Y008223D02*
X003784Y008223D01*
X003784Y008281D02*
X000310Y008281D01*
X000310Y008340D02*
X003784Y008340D01*
X003784Y008398D02*
X000310Y008398D01*
X000310Y008457D02*
X003784Y008457D01*
X003784Y008515D02*
X003410Y008515D01*
X003410Y008574D02*
X003784Y008574D01*
X003784Y008632D02*
X003410Y008632D01*
X003410Y008691D02*
X003784Y008691D01*
X003784Y008749D02*
X003410Y008749D01*
X003410Y008808D02*
X003821Y008808D01*
X004242Y008808D02*
X004294Y008808D01*
X004714Y008808D02*
X004766Y008808D01*
X005187Y008808D02*
X005239Y008808D01*
X005224Y008866D02*
X003410Y008866D01*
X003410Y008925D02*
X005224Y008925D01*
X005224Y008983D02*
X003410Y008983D01*
X003410Y009042D02*
X005225Y009042D01*
X005283Y009100D02*
X003410Y009100D01*
X003410Y009159D02*
X005342Y009159D01*
X005556Y009159D02*
X006545Y009159D01*
X006530Y009217D02*
X003410Y009217D01*
X003410Y009276D02*
X006530Y009276D01*
X006530Y009334D02*
X003410Y009334D01*
X003410Y009393D02*
X006563Y009393D01*
X006621Y009451D02*
X003410Y009451D01*
X003410Y009510D02*
X008391Y009510D01*
X008332Y009451D02*
X006889Y009451D01*
X006848Y009492D02*
X006980Y009360D01*
X006980Y009173D01*
X006848Y009042D01*
X007923Y009042D01*
X007981Y009100D02*
X006907Y009100D01*
X006965Y009159D02*
X008040Y009159D01*
X008098Y009217D02*
X006980Y009217D01*
X006980Y009276D02*
X008157Y009276D01*
X008215Y009334D02*
X006980Y009334D01*
X006947Y009393D02*
X008274Y009393D01*
X007601Y008808D02*
X007549Y008808D01*
X007128Y008808D02*
X007076Y008808D01*
X006656Y008808D02*
X006604Y008808D01*
X006662Y009042D02*
X006848Y009042D01*
X006603Y009100D02*
X005615Y009100D01*
X005659Y008808D02*
X005711Y008808D01*
X006132Y008808D02*
X006184Y008808D01*
X006643Y009568D02*
X003410Y009568D01*
X003410Y009627D02*
X006585Y009627D01*
X006530Y009685D02*
X003410Y009685D01*
X003410Y009744D02*
X006530Y009744D01*
X006530Y009802D02*
X003410Y009802D01*
X003410Y009861D02*
X006530Y009861D01*
X006581Y009919D02*
X003410Y009919D01*
X003410Y009978D02*
X006627Y009978D01*
X006569Y010036D02*
X003410Y010036D01*
X003410Y010095D02*
X006530Y010095D01*
X006530Y010153D02*
X003410Y010153D01*
X003410Y010212D02*
X006530Y010212D01*
X006539Y010270D02*
X003410Y010270D01*
X003410Y010329D02*
X006597Y010329D01*
X006656Y010387D02*
X003410Y010387D01*
X003410Y012084D02*
X008155Y012084D01*
X008187Y012142D02*
X003410Y012142D01*
X003410Y012201D02*
X008246Y012201D01*
X008405Y012259D02*
X003410Y012259D01*
X003410Y012318D02*
X008405Y012318D01*
X008421Y012376D02*
X003410Y012376D01*
X003410Y012435D02*
X005894Y012435D01*
X005913Y012416D02*
X006099Y012416D01*
X006231Y012547D01*
X006231Y012734D01*
X006099Y012866D01*
X005913Y012866D01*
X005781Y012734D01*
X005781Y012547D01*
X005913Y012416D01*
X005835Y012493D02*
X003410Y012493D01*
X003410Y012552D02*
X005781Y012552D01*
X005781Y012610D02*
X003410Y012610D01*
X003410Y012669D02*
X005781Y012669D01*
X005781Y012727D02*
X003410Y012727D01*
X003410Y012786D02*
X005833Y012786D01*
X005891Y012844D02*
X003410Y012844D01*
X003410Y012903D02*
X011905Y012903D01*
X011905Y012844D02*
X010726Y012844D01*
X010736Y012786D02*
X011905Y012786D01*
X011914Y012727D02*
X010736Y012727D01*
X010736Y012669D02*
X011972Y012669D01*
X012031Y012610D02*
X010736Y012610D01*
X010736Y012552D02*
X012761Y012552D01*
X012702Y012610D02*
X012229Y012610D01*
X012288Y012669D02*
X012644Y012669D01*
X012585Y012727D02*
X012346Y012727D01*
X012355Y012786D02*
X012527Y012786D01*
X012468Y012844D02*
X012355Y012844D01*
X012355Y012903D02*
X012410Y012903D01*
X012351Y012961D02*
X012316Y012961D01*
X012600Y013137D02*
X012708Y013137D01*
X012718Y013127D02*
X013042Y013127D01*
X013227Y013312D01*
X013452Y013087D01*
X013600Y013087D01*
X013600Y013487D01*
X013660Y013487D01*
X013660Y013087D01*
X013808Y013087D01*
X014033Y013312D01*
X014218Y013127D01*
X014542Y013127D01*
X014770Y013355D01*
X014770Y013678D01*
X014542Y013907D01*
X014218Y013907D01*
X014033Y013721D01*
X013808Y013947D01*
X013660Y013947D01*
X013660Y013547D01*
X013600Y013547D01*
X013600Y013947D01*
X013452Y013947D01*
X013227Y013721D01*
X013042Y013907D01*
X012718Y013907D01*
X012490Y013678D01*
X012490Y013355D01*
X012718Y013127D01*
X012659Y013078D02*
X014811Y013078D01*
X014780Y013047D02*
X014780Y012861D01*
X014912Y012729D01*
X015098Y012729D01*
X015230Y012861D01*
X015230Y013047D01*
X015098Y013179D01*
X014912Y013179D01*
X014780Y013047D01*
X014780Y013020D02*
X012717Y013020D01*
X012776Y012961D02*
X014780Y012961D01*
X014780Y012903D02*
X012834Y012903D01*
X012893Y012844D02*
X014797Y012844D01*
X014855Y012786D02*
X012951Y012786D01*
X013010Y012727D02*
X016421Y012727D01*
X016362Y012669D02*
X013068Y012669D01*
X013127Y012610D02*
X016304Y012610D01*
X016245Y012552D02*
X013185Y012552D01*
X013244Y012493D02*
X015207Y012493D01*
X015204Y012490D02*
X015187Y012461D01*
X015178Y012427D01*
X015178Y012326D01*
X015481Y012326D01*
X015481Y012278D01*
X015529Y012278D01*
X015529Y012326D01*
X015832Y012326D01*
X015832Y012427D01*
X015823Y012461D01*
X015806Y012490D01*
X015782Y012514D01*
X015752Y012532D01*
X015719Y012540D01*
X015529Y012540D01*
X015529Y012326D01*
X015481Y012326D01*
X015481Y012540D01*
X015291Y012540D01*
X015258Y012532D01*
X015228Y012514D01*
X015204Y012490D01*
X015180Y012435D02*
X015129Y012435D01*
X015117Y012446D02*
X015088Y012464D01*
X015055Y012472D01*
X014732Y012472D01*
X014410Y012472D01*
X014377Y012464D01*
X014347Y012446D01*
X014323Y012422D01*
X014306Y012393D01*
X014297Y012360D01*
X014297Y012293D01*
X014732Y012293D01*
X014732Y012293D01*
X014732Y012472D01*
X014732Y012293D01*
X014732Y012293D01*
X014732Y012293D01*
X015167Y012293D01*
X015167Y012360D01*
X015159Y012393D01*
X015142Y012422D01*
X015117Y012446D01*
X015163Y012376D02*
X015178Y012376D01*
X015167Y012318D02*
X015481Y012318D01*
X015481Y012278D02*
X015178Y012278D01*
X015178Y012177D01*
X015187Y012144D01*
X015204Y012114D01*
X015228Y012090D01*
X015258Y012073D01*
X015291Y012064D01*
X015481Y012064D01*
X015481Y012278D01*
X015481Y012259D02*
X015529Y012259D01*
X015529Y012201D02*
X015481Y012201D01*
X015481Y012142D02*
X015529Y012142D01*
X015529Y012084D02*
X015481Y012084D01*
X015655Y012025D02*
X015127Y012025D01*
X015127Y011967D02*
X015655Y011967D01*
X015880Y012017D02*
X016943Y013079D01*
X018558Y013079D01*
X018658Y012979D01*
X018658Y012479D01*
X018343Y012479D02*
X018343Y012879D01*
X018267Y012954D01*
X017130Y012947D01*
X015880Y011697D01*
X015880Y011517D01*
X015655Y011533D02*
X015655Y011423D01*
X015659Y011420D01*
X015155Y011420D01*
X015159Y011426D01*
X015167Y011459D01*
X015167Y011526D01*
X015167Y011591D01*
X015218Y011591D01*
X015218Y011586D01*
X015271Y011533D01*
X015655Y011533D01*
X015655Y011499D02*
X015167Y011499D01*
X015167Y011526D02*
X014732Y011526D01*
X015167Y011526D01*
X015167Y011557D02*
X015247Y011557D01*
X015162Y011440D02*
X015655Y011440D01*
X016193Y011682D02*
X016380Y011869D01*
X017417Y011869D01*
X017417Y011554D02*
X017380Y011517D01*
X016693Y011517D01*
X016880Y011239D02*
X017417Y011239D01*
X017417Y010924D02*
X017943Y010924D01*
X018056Y010719D02*
X018056Y009745D01*
X018108Y009692D01*
X020152Y009692D01*
X020204Y009745D01*
X020204Y010732D01*
X020237Y010699D01*
X020418Y010699D01*
X020418Y010483D01*
X020450Y010452D01*
X020418Y010420D01*
X020418Y010168D01*
X020450Y010137D01*
X020418Y010105D01*
X020418Y009853D01*
X020450Y009822D01*
X020418Y009790D01*
X020418Y009538D01*
X020471Y009486D01*
X020722Y009486D01*
X020722Y009427D01*
X020637Y009342D01*
X020637Y009156D01*
X020769Y009024D01*
X020955Y009024D01*
X021087Y009156D01*
X021087Y009342D01*
X021002Y009427D01*
X021002Y009486D01*
X021254Y009486D01*
X021307Y009538D01*
X021307Y009767D01*
X021990Y009084D01*
X021990Y008165D01*
X021905Y008080D01*
X021905Y007894D01*
X022010Y007789D01*
X022010Y007566D01*
X021580Y007137D01*
X018198Y007137D01*
X018198Y007342D01*
X018248Y007392D01*
X018288Y007488D01*
X018288Y007591D01*
X018248Y007687D01*
X018198Y007737D01*
X018198Y008562D01*
X018204Y008559D01*
X018237Y008550D01*
X018328Y008550D01*
X018328Y009020D01*
X018357Y009020D01*
X018357Y009049D01*
X018328Y009049D01*
X018328Y009519D01*
X018237Y009519D01*
X018204Y009510D01*
X018174Y009493D01*
X018157Y009475D01*
X018153Y009479D01*
X017902Y009479D01*
X017863Y009440D01*
X017813Y009490D01*
X017862Y009538D01*
X017862Y009790D01*
X017830Y009822D01*
X017862Y009853D01*
X017862Y010105D01*
X017830Y010137D01*
X017862Y010168D01*
X017862Y010420D01*
X017830Y010452D01*
X017862Y010483D01*
X017862Y010699D01*
X018036Y010699D01*
X018056Y010719D01*
X018056Y010680D02*
X017862Y010680D01*
X017862Y010621D02*
X018056Y010621D01*
X018056Y010563D02*
X017862Y010563D01*
X017862Y010504D02*
X018056Y010504D01*
X018056Y010446D02*
X017836Y010446D01*
X017862Y010387D02*
X018056Y010387D01*
X018056Y010329D02*
X017862Y010329D01*
X017862Y010270D02*
X018056Y010270D01*
X018056Y010212D02*
X017862Y010212D01*
X017847Y010153D02*
X018056Y010153D01*
X018056Y010095D02*
X017862Y010095D01*
X017862Y010036D02*
X018056Y010036D01*
X018056Y009978D02*
X017862Y009978D01*
X017862Y009919D02*
X018056Y009919D01*
X018056Y009861D02*
X017862Y009861D01*
X017850Y009802D02*
X018056Y009802D01*
X018057Y009744D02*
X017862Y009744D01*
X017862Y009685D02*
X020418Y009685D01*
X020418Y009627D02*
X017862Y009627D01*
X017862Y009568D02*
X020418Y009568D01*
X020447Y009510D02*
X018797Y009510D01*
X018796Y009510D02*
X018763Y009519D01*
X018672Y009519D01*
X018672Y009049D01*
X018643Y009049D01*
X018643Y009519D01*
X018552Y009519D01*
X018519Y009510D01*
X018500Y009499D01*
X018481Y009510D01*
X018448Y009519D01*
X018357Y009519D01*
X018357Y009049D01*
X018561Y009049D01*
X018643Y009049D01*
X018643Y009020D01*
X018357Y009020D01*
X018357Y008550D01*
X018448Y008550D01*
X018481Y008559D01*
X018500Y008570D01*
X018519Y008559D01*
X018552Y008550D01*
X018633Y008550D01*
X018584Y008501D01*
X018584Y008047D01*
X018503Y008047D01*
X018470Y008038D01*
X018440Y008021D01*
X018416Y007997D01*
X018399Y007967D01*
X018390Y007934D01*
X018390Y007672D01*
X018667Y007672D01*
X018667Y007612D01*
X018390Y007612D01*
X018390Y007349D01*
X018399Y007316D01*
X018416Y007286D01*
X018440Y007262D01*
X018470Y007245D01*
X018503Y007236D01*
X018667Y007236D01*
X018667Y007612D01*
X018727Y007612D01*
X018727Y007672D01*
X019004Y007672D01*
X019004Y007934D01*
X018995Y007967D01*
X018978Y007997D01*
X018961Y008014D01*
X018980Y008033D01*
X018980Y008267D01*
X019031Y008317D01*
X019113Y008399D01*
X019113Y008604D01*
X019130Y008622D01*
X019147Y008604D01*
X019147Y008274D01*
X019155Y008267D01*
X019155Y008033D01*
X019207Y007980D01*
X019321Y007980D01*
X019296Y007955D01*
X019296Y007329D01*
X019349Y007276D01*
X019778Y007276D01*
X019830Y007329D01*
X019830Y007955D01*
X019805Y007980D01*
X019990Y007980D01*
X020043Y008033D01*
X020043Y008267D01*
X020057Y008282D01*
X020057Y008604D01*
X020075Y008622D01*
X020092Y008604D01*
X020092Y008392D01*
X020174Y008310D01*
X020217Y008267D01*
X020217Y008033D01*
X020270Y007980D01*
X020561Y007980D01*
X020614Y008033D01*
X020614Y008267D01*
X020888Y008542D01*
X021009Y008542D01*
X021140Y008673D01*
X021140Y008860D01*
X021009Y008992D01*
X020822Y008992D01*
X020690Y008860D01*
X020690Y008740D01*
X020504Y008554D01*
X020372Y008554D01*
X020372Y008604D01*
X020411Y008643D01*
X020411Y009426D01*
X020358Y009479D01*
X020106Y009479D01*
X020075Y009447D01*
X020043Y009479D01*
X019792Y009479D01*
X019760Y009447D01*
X019728Y009479D01*
X019477Y009479D01*
X019445Y009447D01*
X019413Y009479D01*
X019162Y009479D01*
X019130Y009447D01*
X019098Y009479D01*
X018847Y009479D01*
X018843Y009475D01*
X018826Y009493D01*
X018796Y009510D01*
X018672Y009510D02*
X018643Y009510D01*
X018643Y009451D02*
X018672Y009451D01*
X018672Y009393D02*
X018643Y009393D01*
X018643Y009334D02*
X018672Y009334D01*
X018672Y009276D02*
X018643Y009276D01*
X018643Y009217D02*
X018672Y009217D01*
X018672Y009159D02*
X018643Y009159D01*
X018643Y009100D02*
X018672Y009100D01*
X018672Y009049D02*
X018794Y009049D01*
X018794Y009020D01*
X018672Y009020D01*
X018672Y009049D01*
X018672Y009042D02*
X018794Y009042D01*
X018672Y009020D02*
X018672Y008554D01*
X018643Y008554D01*
X018643Y009020D01*
X018672Y009020D01*
X018643Y009042D02*
X018357Y009042D01*
X018357Y009100D02*
X018328Y009100D01*
X018328Y009159D02*
X018357Y009159D01*
X018357Y009217D02*
X018328Y009217D01*
X018328Y009276D02*
X018357Y009276D01*
X018357Y009334D02*
X018328Y009334D01*
X018328Y009393D02*
X018357Y009393D01*
X018357Y009451D02*
X018328Y009451D01*
X018328Y009510D02*
X018357Y009510D01*
X018482Y009510D02*
X018519Y009510D01*
X018204Y009510D02*
X017833Y009510D01*
X017851Y009451D02*
X017874Y009451D01*
X017604Y009217D02*
X016250Y009217D01*
X016250Y009159D02*
X017663Y009159D01*
X017721Y009100D02*
X016250Y009100D01*
X016250Y009042D02*
X017780Y009042D01*
X017838Y008983D02*
X016250Y008983D01*
X016250Y008925D02*
X017849Y008925D01*
X017849Y008973D02*
X017849Y008643D01*
X017858Y008634D01*
X017858Y007737D01*
X017807Y007687D01*
X017768Y007591D01*
X017768Y007488D01*
X017807Y007392D01*
X017858Y007342D01*
X017858Y007137D01*
X017580Y007137D01*
X017510Y007066D01*
X017010Y006566D01*
X017010Y005316D01*
X016080Y004387D01*
X014300Y004387D01*
X014300Y005022D01*
X015180Y005022D01*
X015250Y005092D01*
X015250Y005203D01*
X015257Y005199D01*
X015290Y005190D01*
X015391Y005190D01*
X015391Y005493D01*
X015440Y005493D01*
X015440Y005541D01*
X015654Y005541D01*
X015654Y005731D01*
X015645Y005764D01*
X015628Y005793D01*
X015604Y005818D01*
X015574Y005835D01*
X015541Y005844D01*
X015440Y005844D01*
X015440Y005541D01*
X015391Y005541D01*
X015391Y005844D01*
X015290Y005844D01*
X015257Y005835D01*
X015250Y005831D01*
X015250Y005967D01*
X016250Y006967D01*
X016250Y010441D01*
X016180Y010512D01*
X015782Y010512D01*
X015739Y010554D01*
X015505Y010554D01*
X015418Y010642D01*
X015505Y010729D01*
X015739Y010729D01*
X015792Y010782D01*
X015792Y011018D01*
X016262Y010547D01*
X016350Y010459D01*
X016997Y010459D01*
X017005Y010452D01*
X016973Y010420D01*
X016973Y010168D01*
X017005Y010137D01*
X016987Y010119D01*
X016917Y010119D01*
X016917Y010198D01*
X016864Y010250D01*
X016396Y010250D01*
X016343Y010198D01*
X016343Y009907D01*
X016396Y009854D01*
X016630Y009854D01*
X016645Y009839D01*
X016987Y009839D01*
X016992Y009834D01*
X016743Y009834D01*
X016643Y009735D01*
X016588Y009679D01*
X016396Y009679D01*
X016343Y009627D01*
X016343Y009336D01*
X016396Y009283D01*
X016864Y009283D01*
X016917Y009336D01*
X016917Y009494D01*
X017017Y009494D01*
X017026Y009486D01*
X017336Y009486D01*
X017849Y008973D01*
X017849Y008866D02*
X016250Y008866D01*
X016250Y008808D02*
X017849Y008808D01*
X017849Y008749D02*
X016250Y008749D01*
X016250Y008691D02*
X017849Y008691D01*
X017858Y008632D02*
X016250Y008632D01*
X016250Y008574D02*
X017858Y008574D01*
X017858Y008515D02*
X016250Y008515D01*
X016250Y008457D02*
X017858Y008457D01*
X017858Y008398D02*
X016250Y008398D01*
X016250Y008340D02*
X017858Y008340D01*
X017858Y008281D02*
X016250Y008281D01*
X016250Y008223D02*
X017858Y008223D01*
X017858Y008164D02*
X016250Y008164D01*
X016250Y008106D02*
X017858Y008106D01*
X017858Y008047D02*
X016250Y008047D01*
X016250Y007989D02*
X017858Y007989D01*
X017858Y007930D02*
X016250Y007930D01*
X016250Y007872D02*
X017858Y007872D01*
X017858Y007813D02*
X016250Y007813D01*
X016255Y007813D02*
X016005Y007813D01*
X016005Y007829D02*
X016255Y007829D01*
X016255Y007579D01*
X016005Y007579D01*
X016005Y007829D01*
X016005Y007755D02*
X016255Y007755D01*
X016250Y007755D02*
X017858Y007755D01*
X017817Y007696D02*
X016250Y007696D01*
X016255Y007696D02*
X016005Y007696D01*
X016005Y007638D02*
X016255Y007638D01*
X016250Y007638D02*
X017787Y007638D01*
X017768Y007579D02*
X016250Y007579D01*
X016255Y007579D02*
X016005Y007579D01*
X016130Y007579D02*
X014773Y007579D01*
X014773Y007521D02*
X016130Y007521D01*
X016130Y007462D02*
X014736Y007462D01*
X014773Y007500D02*
X014773Y007664D01*
X014726Y007711D01*
X014727Y007712D01*
X014760Y007745D01*
X014786Y007784D01*
X014804Y007827D01*
X014813Y007872D01*
X016130Y007872D01*
X016130Y007930D02*
X014811Y007930D01*
X014813Y007921D02*
X014804Y007966D01*
X014786Y008009D01*
X014760Y008048D01*
X014727Y008082D01*
X014688Y008108D01*
X014644Y008126D01*
X014599Y008135D01*
X014599Y008070D01*
X014551Y008119D01*
X014551Y008135D01*
X014537Y008132D01*
X014458Y008211D01*
X014458Y008294D01*
X014342Y008410D01*
X014178Y008410D01*
X014115Y008347D01*
X014115Y008987D01*
X014064Y009038D01*
X014177Y009151D01*
X014177Y009041D01*
X014391Y009041D01*
X014391Y008993D01*
X014177Y008993D01*
X014177Y008803D01*
X014186Y008770D01*
X014203Y008740D01*
X014227Y008716D01*
X014257Y008699D01*
X014290Y008690D01*
X014391Y008690D01*
X014391Y008993D01*
X014440Y008993D01*
X014440Y009041D01*
X014654Y009041D01*
X014654Y009231D01*
X014645Y009264D01*
X014643Y009267D01*
X014645Y009270D01*
X014654Y009303D01*
X014654Y009354D01*
X014927Y009354D01*
X014980Y009407D01*
X014980Y009751D01*
X014927Y009804D01*
X014617Y009804D01*
X014604Y009818D01*
X014574Y009835D01*
X014541Y009844D01*
X014440Y009844D01*
X014440Y009541D01*
X014391Y009541D01*
X014391Y009830D01*
X014411Y009850D01*
X015009Y009850D01*
X015218Y009641D01*
X015218Y009407D01*
X015271Y009354D01*
X015739Y009354D01*
X015792Y009407D01*
X015792Y009698D01*
X015739Y009750D01*
X015505Y009750D01*
X015140Y010115D01*
X015142Y010117D01*
X015159Y010147D01*
X015167Y010180D01*
X015167Y010246D01*
X014732Y010246D01*
X014297Y010246D01*
X014297Y010180D01*
X014306Y010147D01*
X014316Y010130D01*
X014295Y010130D01*
X014213Y010048D01*
X013990Y009825D01*
X013990Y009804D01*
X013985Y009804D01*
X013985Y009944D01*
X013903Y010026D01*
X013682Y010246D01*
X013828Y010392D01*
X014340Y010392D01*
X014323Y010375D01*
X014306Y010345D01*
X014297Y010312D01*
X014297Y010246D01*
X014732Y010246D01*
X014732Y010246D01*
X015167Y010246D01*
X015167Y010312D01*
X015159Y010345D01*
X015149Y010362D01*
X015218Y010362D01*
X015218Y010211D01*
X015271Y010158D01*
X015739Y010158D01*
X015792Y010211D01*
X015792Y010392D01*
X016130Y010392D01*
X016130Y007017D01*
X015130Y006017D01*
X015130Y005142D01*
X014300Y005142D01*
X014300Y005190D01*
X014391Y005190D01*
X014391Y005493D01*
X014440Y005493D01*
X014440Y005541D01*
X014820Y005541D01*
X014820Y005493D01*
X014654Y005493D01*
X014440Y005493D01*
X014440Y005190D01*
X014541Y005190D01*
X014574Y005199D01*
X014604Y005216D01*
X014628Y005240D01*
X014630Y005244D01*
X014632Y005240D01*
X014656Y005216D01*
X014686Y005199D01*
X014719Y005190D01*
X014820Y005190D01*
X014820Y005493D01*
X014869Y005493D01*
X014869Y005541D01*
X015083Y005541D01*
X015083Y005731D01*
X015074Y005764D01*
X015057Y005793D01*
X015033Y005818D01*
X015003Y005835D01*
X014970Y005844D01*
X014869Y005844D01*
X014869Y005541D01*
X014820Y005541D01*
X014820Y005844D01*
X014719Y005844D01*
X014686Y005835D01*
X014656Y005818D01*
X014632Y005793D01*
X014630Y005789D01*
X014628Y005793D01*
X014604Y005818D01*
X014574Y005835D01*
X014541Y005844D01*
X014440Y005844D01*
X014440Y005541D01*
X014391Y005541D01*
X014391Y005844D01*
X014300Y005844D01*
X014300Y005962D01*
X014200Y006062D01*
X014115Y006147D01*
X014115Y006186D01*
X014178Y006124D01*
X014342Y006124D01*
X014458Y006240D01*
X014458Y006322D01*
X014537Y006401D01*
X014551Y006399D01*
X014551Y006415D01*
X014599Y006463D01*
X014599Y006399D01*
X014644Y006408D01*
X014688Y006426D01*
X014727Y006452D01*
X014760Y006485D01*
X014786Y006524D01*
X014804Y006567D01*
X014813Y006613D01*
X014715Y006613D01*
X014715Y006661D01*
X014813Y006661D01*
X014804Y006706D01*
X014786Y006750D01*
X014760Y006789D01*
X014727Y006822D01*
X014726Y006822D01*
X014773Y006870D01*
X014773Y007034D01*
X014698Y007109D01*
X014773Y007185D01*
X014773Y007349D01*
X014698Y007424D01*
X014773Y007500D01*
X014718Y007404D02*
X016130Y007404D01*
X016130Y007345D02*
X014773Y007345D01*
X014773Y007287D02*
X016130Y007287D01*
X016130Y007228D02*
X014773Y007228D01*
X014758Y007170D02*
X016130Y007170D01*
X016130Y007111D02*
X014700Y007111D01*
X014754Y007053D02*
X016130Y007053D01*
X016108Y006994D02*
X014773Y006994D01*
X014773Y006936D02*
X016049Y006936D01*
X015991Y006877D02*
X014773Y006877D01*
X014730Y006819D02*
X015932Y006819D01*
X015874Y006760D02*
X014779Y006760D01*
X014805Y006702D02*
X015815Y006702D01*
X015757Y006643D02*
X014715Y006643D01*
X014807Y006585D02*
X015698Y006585D01*
X015640Y006526D02*
X014787Y006526D01*
X014743Y006468D02*
X015581Y006468D01*
X015523Y006409D02*
X014648Y006409D01*
X014599Y006409D02*
X014551Y006409D01*
X014487Y006351D02*
X015464Y006351D01*
X015406Y006292D02*
X014458Y006292D01*
X014452Y006234D02*
X015347Y006234D01*
X015289Y006175D02*
X014394Y006175D01*
X014262Y006000D02*
X015130Y006000D01*
X015130Y005941D02*
X014300Y005941D01*
X014300Y005883D02*
X015130Y005883D01*
X015130Y005824D02*
X015021Y005824D01*
X015073Y005766D02*
X015130Y005766D01*
X015130Y005707D02*
X015083Y005707D01*
X015083Y005649D02*
X015130Y005649D01*
X015130Y005590D02*
X015083Y005590D01*
X015130Y005532D02*
X014869Y005532D01*
X014869Y005493D02*
X015083Y005493D01*
X015083Y005303D01*
X015074Y005270D01*
X015057Y005240D01*
X015033Y005216D01*
X015003Y005199D01*
X014970Y005190D01*
X014869Y005190D01*
X014869Y005493D01*
X014869Y005473D02*
X014820Y005473D01*
X014820Y005415D02*
X014869Y005415D01*
X014869Y005356D02*
X014820Y005356D01*
X014820Y005298D02*
X014869Y005298D01*
X014869Y005239D02*
X014820Y005239D01*
X014633Y005239D02*
X014627Y005239D01*
X014440Y005239D02*
X014391Y005239D01*
X014391Y005298D02*
X014440Y005298D01*
X014440Y005356D02*
X014391Y005356D01*
X014391Y005415D02*
X014440Y005415D01*
X014440Y005473D02*
X014391Y005473D01*
X014440Y005532D02*
X014820Y005532D01*
X014820Y005590D02*
X014869Y005590D01*
X014869Y005649D02*
X014820Y005649D01*
X014820Y005707D02*
X014869Y005707D01*
X014869Y005766D02*
X014820Y005766D01*
X014820Y005824D02*
X014869Y005824D01*
X014668Y005824D02*
X014592Y005824D01*
X014440Y005824D02*
X014391Y005824D01*
X014391Y005766D02*
X014440Y005766D01*
X014440Y005707D02*
X014391Y005707D01*
X014391Y005649D02*
X014440Y005649D01*
X014440Y005590D02*
X014391Y005590D01*
X013960Y005230D02*
X013699Y005230D01*
X013646Y005283D01*
X013646Y005751D01*
X013672Y005777D01*
X013490Y005959D01*
X013490Y006181D01*
X013473Y006199D01*
X013455Y006181D01*
X013455Y005804D01*
X013561Y005804D01*
X013614Y005751D01*
X013614Y005283D01*
X013561Y005230D01*
X013270Y005230D01*
X013217Y005283D01*
X013217Y005517D01*
X013175Y005559D01*
X013175Y006181D01*
X013158Y006199D01*
X013140Y006181D01*
X013140Y005614D01*
X013043Y005517D01*
X013043Y005283D01*
X012990Y005230D01*
X012699Y005230D01*
X012646Y005283D01*
X012646Y005751D01*
X012699Y005804D01*
X012860Y005804D01*
X012860Y006181D01*
X012802Y006240D01*
X012802Y006322D01*
X012685Y006438D01*
X012603Y006438D01*
X012487Y006555D01*
X012487Y006719D01*
X012562Y006794D01*
X012545Y006812D01*
X012498Y006812D01*
X012360Y006673D01*
X012278Y006591D01*
X012167Y006591D01*
X012167Y006586D01*
X012114Y006533D01*
X011646Y006533D01*
X011593Y006586D01*
X011593Y006877D01*
X011646Y006929D01*
X012114Y006929D01*
X012167Y006877D01*
X012167Y006877D01*
X012382Y007092D01*
X012545Y007092D01*
X012562Y007109D01*
X012545Y007127D01*
X012137Y007127D01*
X012114Y007104D01*
X011646Y007104D01*
X011593Y007157D01*
X011593Y007448D01*
X011646Y007500D01*
X012114Y007500D01*
X012167Y007448D01*
X012167Y007407D01*
X012545Y007407D01*
X012550Y007412D01*
X012245Y007412D01*
X012119Y007538D01*
X012114Y007533D01*
X011646Y007533D01*
X011593Y007586D01*
X011593Y007877D01*
X011646Y007929D01*
X012114Y007929D01*
X012142Y007901D01*
X012236Y007901D01*
X012335Y007802D01*
X012385Y007752D01*
X012550Y007752D01*
X012487Y007814D01*
X012487Y007979D01*
X012603Y008095D01*
X012685Y008095D01*
X012802Y008211D01*
X012802Y008294D01*
X012860Y008352D01*
X012860Y008464D01*
X012787Y008537D01*
X012787Y008537D01*
X012705Y008619D01*
X012705Y008730D01*
X012699Y008730D01*
X012646Y008783D01*
X012646Y009251D01*
X012662Y009267D01*
X012646Y009283D01*
X012646Y009517D01*
X012470Y009694D01*
X012388Y009776D01*
X012388Y009851D01*
X012185Y009851D01*
X012133Y009904D01*
X012133Y010077D01*
X012174Y010118D01*
X012133Y010160D01*
X012133Y010332D01*
X012174Y010374D01*
X012156Y010392D01*
X011630Y010392D01*
X011130Y009892D01*
X011130Y006142D01*
X012130Y005142D01*
X013960Y005142D01*
X013960Y005230D01*
X013960Y005181D02*
X012091Y005181D01*
X012032Y005239D02*
X012690Y005239D01*
X012646Y005298D02*
X011974Y005298D01*
X011915Y005356D02*
X012646Y005356D01*
X012646Y005415D02*
X011857Y005415D01*
X011798Y005473D02*
X012646Y005473D01*
X012646Y005532D02*
X011740Y005532D01*
X011681Y005590D02*
X012646Y005590D01*
X012646Y005649D02*
X011623Y005649D01*
X011564Y005707D02*
X012646Y005707D01*
X012661Y005766D02*
X011506Y005766D01*
X011447Y005824D02*
X012860Y005824D01*
X012860Y005883D02*
X011389Y005883D01*
X011330Y005941D02*
X012860Y005941D01*
X012860Y006000D02*
X011272Y006000D01*
X011213Y006058D02*
X012860Y006058D01*
X012860Y006117D02*
X011155Y006117D01*
X011130Y006175D02*
X012860Y006175D01*
X012808Y006234D02*
X011130Y006234D01*
X011130Y006292D02*
X012802Y006292D01*
X012773Y006351D02*
X011130Y006351D01*
X011130Y006409D02*
X012715Y006409D01*
X012574Y006468D02*
X011130Y006468D01*
X011130Y006526D02*
X012515Y006526D01*
X012487Y006585D02*
X012166Y006585D01*
X012330Y006643D02*
X012487Y006643D01*
X012487Y006702D02*
X012388Y006702D01*
X012447Y006760D02*
X012528Y006760D01*
X012226Y006936D02*
X011130Y006936D01*
X011130Y006994D02*
X012285Y006994D01*
X012343Y007053D02*
X011130Y007053D01*
X011130Y007111D02*
X011639Y007111D01*
X011593Y007170D02*
X011130Y007170D01*
X011130Y007228D02*
X011593Y007228D01*
X011593Y007287D02*
X011130Y007287D01*
X011130Y007345D02*
X011593Y007345D01*
X011593Y007404D02*
X011130Y007404D01*
X011130Y007462D02*
X011608Y007462D01*
X011600Y007579D02*
X011130Y007579D01*
X011130Y007521D02*
X012136Y007521D01*
X012152Y007462D02*
X012194Y007462D01*
X012382Y007755D02*
X012547Y007755D01*
X012488Y007813D02*
X012324Y007813D01*
X012265Y007872D02*
X012487Y007872D01*
X012487Y007930D02*
X011130Y007930D01*
X011130Y007872D02*
X011593Y007872D01*
X011593Y007813D02*
X011130Y007813D01*
X011130Y007755D02*
X011593Y007755D01*
X011593Y007696D02*
X011130Y007696D01*
X011130Y007638D02*
X011593Y007638D01*
X011666Y008064D02*
X011856Y008064D01*
X011856Y008278D01*
X011904Y008278D01*
X011904Y008064D01*
X012094Y008064D01*
X012127Y008073D01*
X012157Y008090D01*
X012181Y008114D01*
X012198Y008144D01*
X012207Y008177D01*
X012207Y008278D01*
X011904Y008278D01*
X011904Y008326D01*
X012207Y008326D01*
X012207Y008427D01*
X012198Y008461D01*
X012181Y008490D01*
X012157Y008514D01*
X012127Y008532D01*
X012094Y008540D01*
X011904Y008540D01*
X011904Y008326D01*
X011856Y008326D01*
X011856Y008278D01*
X011553Y008278D01*
X011553Y008177D01*
X011562Y008144D01*
X011579Y008114D01*
X011603Y008090D01*
X011633Y008073D01*
X011666Y008064D01*
X011587Y008106D02*
X011130Y008106D01*
X011130Y008164D02*
X011557Y008164D01*
X011553Y008223D02*
X011130Y008223D01*
X011130Y008281D02*
X011856Y008281D01*
X011856Y008326D02*
X011553Y008326D01*
X011553Y008427D01*
X011562Y008461D01*
X011579Y008490D01*
X011603Y008514D01*
X011633Y008532D01*
X011666Y008540D01*
X011856Y008540D01*
X011856Y008326D01*
X011856Y008340D02*
X011904Y008340D01*
X011904Y008398D02*
X011856Y008398D01*
X011856Y008457D02*
X011904Y008457D01*
X011904Y008515D02*
X011856Y008515D01*
X011904Y008281D02*
X012802Y008281D01*
X012802Y008223D02*
X012207Y008223D01*
X012203Y008164D02*
X012755Y008164D01*
X012696Y008106D02*
X012173Y008106D01*
X012207Y008340D02*
X012848Y008340D01*
X012860Y008398D02*
X012207Y008398D01*
X012199Y008457D02*
X012860Y008457D01*
X012808Y008515D02*
X012155Y008515D01*
X011904Y008223D02*
X011856Y008223D01*
X011856Y008164D02*
X011904Y008164D01*
X011904Y008106D02*
X011856Y008106D01*
X011553Y008340D02*
X011130Y008340D01*
X011130Y008398D02*
X011553Y008398D01*
X011561Y008457D02*
X011130Y008457D01*
X011130Y008515D02*
X011605Y008515D01*
X011130Y008574D02*
X012750Y008574D01*
X012705Y008632D02*
X011130Y008632D01*
X011130Y008691D02*
X012705Y008691D01*
X012680Y008749D02*
X011130Y008749D01*
X011130Y008808D02*
X012646Y008808D01*
X012646Y008866D02*
X011130Y008866D01*
X011130Y008925D02*
X012646Y008925D01*
X012646Y008983D02*
X011540Y008983D01*
X011536Y008979D02*
X011667Y009111D01*
X011667Y009297D01*
X011536Y009429D01*
X011349Y009429D01*
X011218Y009297D01*
X011218Y009111D01*
X011349Y008979D01*
X011536Y008979D01*
X011598Y009042D02*
X012646Y009042D01*
X012646Y009100D02*
X011657Y009100D01*
X011667Y009159D02*
X012646Y009159D01*
X012646Y009217D02*
X011667Y009217D01*
X011667Y009276D02*
X012653Y009276D01*
X012646Y009334D02*
X011631Y009334D01*
X011572Y009393D02*
X012646Y009393D01*
X012646Y009451D02*
X011130Y009451D01*
X011130Y009393D02*
X011313Y009393D01*
X011254Y009334D02*
X011130Y009334D01*
X011130Y009276D02*
X011218Y009276D01*
X011218Y009217D02*
X011130Y009217D01*
X011130Y009159D02*
X011218Y009159D01*
X011228Y009100D02*
X011130Y009100D01*
X011130Y009042D02*
X011287Y009042D01*
X011345Y008983D02*
X011130Y008983D01*
X011010Y009159D02*
X010695Y009159D01*
X010736Y009217D02*
X011010Y009217D01*
X011010Y009276D02*
X010736Y009276D01*
X010736Y009334D02*
X011010Y009334D01*
X011010Y009393D02*
X010736Y009393D01*
X010736Y009451D02*
X011010Y009451D01*
X011010Y009510D02*
X010736Y009510D01*
X010755Y009568D02*
X011010Y009568D01*
X011010Y009627D02*
X010776Y009627D01*
X010776Y009685D02*
X011010Y009685D01*
X011010Y009744D02*
X010776Y009744D01*
X010776Y009861D02*
X011010Y009861D01*
X011010Y009919D02*
X010776Y009919D01*
X010774Y009978D02*
X011046Y009978D01*
X011105Y010036D02*
X010747Y010036D01*
X010880Y010267D02*
X011130Y010517D01*
X011130Y011204D01*
X011707Y011781D01*
X012528Y011781D01*
X012528Y012037D02*
X011776Y012037D01*
X011005Y011267D01*
X011005Y010767D01*
X010880Y010642D01*
X010775Y010855D02*
X010736Y010855D01*
X010736Y010914D02*
X010885Y010914D01*
X010885Y010972D02*
X010699Y010972D01*
X011255Y011142D02*
X011255Y010642D01*
X011380Y010517D01*
X011605Y010512D02*
X011605Y010610D01*
X011548Y010667D01*
X011598Y010667D01*
X011730Y010798D01*
X011730Y010985D01*
X011625Y011090D01*
X011625Y011150D01*
X012166Y011150D01*
X012174Y011142D01*
X012133Y011100D01*
X012133Y010927D01*
X012147Y010913D01*
X012143Y010911D01*
X012118Y010887D01*
X012101Y010857D01*
X012093Y010824D01*
X012093Y010758D01*
X012528Y010758D01*
X012963Y010758D01*
X012528Y010758D01*
X012528Y010758D01*
X012528Y010758D01*
X012093Y010758D01*
X012093Y010691D01*
X012101Y010658D01*
X012118Y010629D01*
X012143Y010605D01*
X012147Y010602D01*
X012133Y010588D01*
X012133Y010512D01*
X011605Y010512D01*
X011605Y010563D02*
X012133Y010563D01*
X012126Y010621D02*
X011594Y010621D01*
X011611Y010680D02*
X012096Y010680D01*
X012093Y010738D02*
X011670Y010738D01*
X011728Y010797D02*
X012093Y010797D01*
X012101Y010855D02*
X011730Y010855D01*
X011730Y010914D02*
X012146Y010914D01*
X012133Y010972D02*
X011730Y010972D01*
X011684Y011031D02*
X012133Y011031D01*
X012133Y011089D02*
X011626Y011089D01*
X011625Y011148D02*
X012168Y011148D01*
X012528Y011270D02*
X011570Y011270D01*
X011505Y011204D01*
X011505Y010892D01*
X011255Y011142D02*
X011639Y011526D01*
X012528Y011526D01*
X012923Y011499D02*
X013814Y011499D01*
X013872Y011440D02*
X012923Y011440D01*
X012897Y011382D02*
X013931Y011382D01*
X013989Y011323D02*
X012923Y011323D01*
X012923Y011265D02*
X014048Y011265D01*
X014106Y011206D02*
X012923Y011206D01*
X012887Y011148D02*
X014165Y011148D01*
X014130Y011089D02*
X012923Y011089D01*
X012923Y011031D02*
X014071Y011031D01*
X014013Y010972D02*
X012923Y010972D01*
X012909Y010914D02*
X013954Y010914D01*
X013896Y010855D02*
X012954Y010855D01*
X012963Y010797D02*
X013837Y010797D01*
X013779Y010738D02*
X012963Y010738D01*
X012960Y010680D02*
X013720Y010680D01*
X013662Y010621D02*
X012929Y010621D01*
X012923Y010563D02*
X013603Y010563D01*
X013824Y010387D02*
X014335Y010387D01*
X014302Y010329D02*
X013765Y010329D01*
X013707Y010270D02*
X014297Y010270D01*
X014297Y010212D02*
X013717Y010212D01*
X013775Y010153D02*
X014304Y010153D01*
X014260Y010095D02*
X013834Y010095D01*
X013892Y010036D02*
X014202Y010036D01*
X014213Y010048D02*
X014213Y010048D01*
X014143Y009978D02*
X013951Y009978D01*
X013985Y009919D02*
X014085Y009919D01*
X014026Y009861D02*
X013985Y009861D01*
X014391Y009802D02*
X014440Y009802D01*
X014440Y009744D02*
X014391Y009744D01*
X014391Y009685D02*
X014440Y009685D01*
X014440Y009627D02*
X014391Y009627D01*
X014391Y009568D02*
X014440Y009568D01*
X014440Y009493D02*
X014440Y009041D01*
X014391Y009041D01*
X014391Y009190D01*
X014391Y009493D01*
X014440Y009493D01*
X014440Y009451D02*
X014391Y009451D01*
X014391Y009393D02*
X014440Y009393D01*
X014440Y009334D02*
X014391Y009334D01*
X014391Y009276D02*
X014440Y009276D01*
X014440Y009217D02*
X014391Y009217D01*
X014391Y009159D02*
X014440Y009159D01*
X014440Y009100D02*
X014391Y009100D01*
X014391Y009042D02*
X014440Y009042D01*
X014440Y008993D02*
X014654Y008993D01*
X014654Y008803D01*
X014645Y008770D01*
X014628Y008740D01*
X014604Y008716D01*
X014574Y008699D01*
X014541Y008690D01*
X014440Y008690D01*
X014440Y008993D01*
X014440Y008983D02*
X014391Y008983D01*
X014391Y008925D02*
X014440Y008925D01*
X014440Y008866D02*
X014391Y008866D01*
X014391Y008808D02*
X014440Y008808D01*
X014440Y008749D02*
X014391Y008749D01*
X014391Y008691D02*
X014440Y008691D01*
X014544Y008691D02*
X016130Y008691D01*
X016130Y008749D02*
X015742Y008749D01*
X015752Y008752D02*
X015782Y008769D01*
X015806Y008793D01*
X015823Y008823D01*
X015832Y008856D01*
X015832Y008957D01*
X015529Y008957D01*
X015529Y008743D01*
X015719Y008743D01*
X015752Y008752D01*
X015814Y008808D02*
X016130Y008808D01*
X016130Y008866D02*
X015832Y008866D01*
X015832Y008925D02*
X016130Y008925D01*
X016130Y008983D02*
X015529Y008983D01*
X015529Y009005D02*
X015832Y009005D01*
X015832Y009107D01*
X015823Y009140D01*
X015806Y009169D01*
X015782Y009194D01*
X015752Y009211D01*
X015719Y009219D01*
X015529Y009219D01*
X015529Y009005D01*
X015529Y008957D01*
X015481Y008957D01*
X015481Y008743D01*
X015291Y008743D01*
X015258Y008752D01*
X015228Y008769D01*
X015204Y008793D01*
X015187Y008823D01*
X015178Y008856D01*
X015178Y008957D01*
X015481Y008957D01*
X015481Y009005D01*
X015178Y009005D01*
X015178Y009107D01*
X015187Y009140D01*
X015204Y009169D01*
X015228Y009194D01*
X015258Y009211D01*
X015291Y009219D01*
X015481Y009219D01*
X015481Y009005D01*
X015529Y009005D01*
X015529Y009042D02*
X015481Y009042D01*
X015481Y009100D02*
X015529Y009100D01*
X015529Y009159D02*
X015481Y009159D01*
X015481Y009217D02*
X015529Y009217D01*
X015728Y009217D02*
X016130Y009217D01*
X016130Y009159D02*
X015812Y009159D01*
X015832Y009100D02*
X016130Y009100D01*
X016130Y009042D02*
X015832Y009042D01*
X016130Y009276D02*
X014646Y009276D01*
X014654Y009334D02*
X016130Y009334D01*
X016130Y009393D02*
X015778Y009393D01*
X015792Y009451D02*
X016130Y009451D01*
X016130Y009510D02*
X015792Y009510D01*
X015792Y009568D02*
X016130Y009568D01*
X016130Y009627D02*
X015792Y009627D01*
X015792Y009685D02*
X016130Y009685D01*
X016130Y009744D02*
X015746Y009744D01*
X015453Y009802D02*
X016130Y009802D01*
X016130Y009861D02*
X015394Y009861D01*
X015336Y009919D02*
X016130Y009919D01*
X016130Y009978D02*
X015277Y009978D01*
X015219Y010036D02*
X016130Y010036D01*
X016130Y010095D02*
X015160Y010095D01*
X015160Y010153D02*
X016130Y010153D01*
X016130Y010212D02*
X015792Y010212D01*
X015792Y010270D02*
X016130Y010270D01*
X016130Y010329D02*
X015792Y010329D01*
X015792Y010387D02*
X016130Y010387D01*
X016250Y010387D02*
X016973Y010387D01*
X016973Y010329D02*
X016250Y010329D01*
X016250Y010270D02*
X016973Y010270D01*
X016973Y010212D02*
X016903Y010212D01*
X016917Y010153D02*
X016988Y010153D01*
X016999Y010446D02*
X016246Y010446D01*
X016187Y010504D02*
X016305Y010504D01*
X016247Y010563D02*
X015497Y010563D01*
X015438Y010621D02*
X016188Y010621D01*
X016130Y010680D02*
X015456Y010680D01*
X015749Y010738D02*
X016071Y010738D01*
X016013Y010797D02*
X015792Y010797D01*
X015792Y010855D02*
X015954Y010855D01*
X015896Y010914D02*
X015792Y010914D01*
X015792Y010972D02*
X015837Y010972D01*
X015218Y010329D02*
X015163Y010329D01*
X015167Y010270D02*
X015218Y010270D01*
X015218Y010212D02*
X015167Y010212D01*
X014732Y010246D02*
X014732Y010246D01*
X014929Y009802D02*
X015057Y009802D01*
X015115Y009744D02*
X014980Y009744D01*
X014980Y009685D02*
X015174Y009685D01*
X015218Y009627D02*
X014980Y009627D01*
X014980Y009568D02*
X015218Y009568D01*
X015218Y009510D02*
X014980Y009510D01*
X014980Y009451D02*
X015218Y009451D01*
X015232Y009393D02*
X014966Y009393D01*
X014654Y009217D02*
X015282Y009217D01*
X015198Y009159D02*
X014654Y009159D01*
X014654Y009100D02*
X015178Y009100D01*
X015178Y009042D02*
X014654Y009042D01*
X014654Y008983D02*
X015481Y008983D01*
X015481Y008925D02*
X015529Y008925D01*
X015529Y008866D02*
X015481Y008866D01*
X015481Y008808D02*
X015529Y008808D01*
X015529Y008749D02*
X015481Y008749D01*
X015268Y008749D02*
X014633Y008749D01*
X014654Y008808D02*
X015196Y008808D01*
X015178Y008866D02*
X014654Y008866D01*
X014654Y008925D02*
X015178Y008925D01*
X014287Y008691D02*
X014115Y008691D01*
X014115Y008749D02*
X014198Y008749D01*
X014177Y008808D02*
X014115Y008808D01*
X014115Y008866D02*
X014177Y008866D01*
X014177Y008925D02*
X014115Y008925D01*
X014115Y008983D02*
X014177Y008983D01*
X014177Y009042D02*
X014068Y009042D01*
X014126Y009100D02*
X014177Y009100D01*
X014115Y008632D02*
X016130Y008632D01*
X016130Y008574D02*
X014115Y008574D01*
X014115Y008515D02*
X016130Y008515D01*
X016130Y008457D02*
X014115Y008457D01*
X014115Y008398D02*
X014166Y008398D01*
X014354Y008398D02*
X016130Y008398D01*
X016130Y008340D02*
X014412Y008340D01*
X014458Y008281D02*
X016130Y008281D01*
X016130Y008223D02*
X014458Y008223D01*
X014505Y008164D02*
X016130Y008164D01*
X016130Y008106D02*
X014691Y008106D01*
X014761Y008047D02*
X016130Y008047D01*
X016130Y007989D02*
X014795Y007989D01*
X014813Y007921D02*
X014715Y007921D01*
X014715Y007872D01*
X014813Y007872D01*
X014798Y007813D02*
X016130Y007813D01*
X016130Y007755D02*
X014767Y007755D01*
X014741Y007696D02*
X016130Y007696D01*
X016130Y007638D02*
X014773Y007638D01*
X014599Y008106D02*
X014564Y008106D01*
X016250Y007521D02*
X017768Y007521D01*
X017778Y007462D02*
X016250Y007462D01*
X016250Y007404D02*
X017802Y007404D01*
X017854Y007345D02*
X016250Y007345D01*
X016250Y007287D02*
X017858Y007287D01*
X017858Y007228D02*
X016250Y007228D01*
X016250Y007170D02*
X017858Y007170D01*
X017608Y006994D02*
X025822Y006994D01*
X025683Y006936D02*
X025460Y006714D01*
X025340Y006424D01*
X025340Y006110D01*
X025460Y005819D01*
X025683Y005597D01*
X025973Y005477D01*
X026287Y005477D01*
X026577Y005597D01*
X026800Y005819D01*
X026920Y006110D01*
X026920Y006424D01*
X026800Y006714D01*
X026577Y006936D01*
X026287Y007057D01*
X025973Y007057D01*
X025683Y006936D01*
X025682Y006936D02*
X017549Y006936D01*
X017491Y006877D02*
X025623Y006877D01*
X025565Y006819D02*
X017432Y006819D01*
X017374Y006760D02*
X025506Y006760D01*
X025455Y006702D02*
X017315Y006702D01*
X017257Y006643D02*
X025431Y006643D01*
X025407Y006585D02*
X017198Y006585D01*
X017140Y006526D02*
X025382Y006526D01*
X025358Y006468D02*
X017130Y006468D01*
X017130Y006409D02*
X025340Y006409D01*
X025340Y006351D02*
X017130Y006351D01*
X017130Y006292D02*
X025340Y006292D01*
X025340Y006234D02*
X017130Y006234D01*
X017130Y006175D02*
X025340Y006175D01*
X025340Y006117D02*
X017130Y006117D01*
X017130Y006058D02*
X025361Y006058D01*
X025385Y006000D02*
X017130Y006000D01*
X017130Y005941D02*
X025410Y005941D01*
X025434Y005883D02*
X017130Y005883D01*
X017130Y005824D02*
X025458Y005824D01*
X025514Y005766D02*
X017130Y005766D01*
X017130Y005707D02*
X025572Y005707D01*
X025631Y005649D02*
X017130Y005649D01*
X017130Y005590D02*
X025699Y005590D01*
X025840Y005532D02*
X017130Y005532D01*
X017130Y005473D02*
X026950Y005473D01*
X026950Y005415D02*
X017130Y005415D01*
X017130Y005356D02*
X026950Y005356D01*
X026950Y005298D02*
X017130Y005298D01*
X017103Y005239D02*
X026950Y005239D01*
X026950Y005181D02*
X017044Y005181D01*
X016986Y005122D02*
X026950Y005122D01*
X026950Y005064D02*
X016927Y005064D01*
X016869Y005005D02*
X026950Y005005D01*
X026950Y004947D02*
X016810Y004947D01*
X016752Y004888D02*
X026950Y004888D01*
X026950Y004830D02*
X016693Y004830D01*
X016635Y004771D02*
X026950Y004771D01*
X026950Y004713D02*
X016576Y004713D01*
X016518Y004654D02*
X026950Y004654D01*
X026950Y004596D02*
X016459Y004596D01*
X016401Y004537D02*
X026950Y004537D01*
X026950Y004479D02*
X016342Y004479D01*
X016284Y004420D02*
X026950Y004420D01*
X026950Y004362D02*
X016225Y004362D01*
X016167Y004303D02*
X026950Y004303D01*
X026950Y004245D02*
X014254Y004245D01*
X014195Y004186D02*
X026950Y004186D01*
X026950Y004128D02*
X014137Y004128D01*
X014078Y004069D02*
X026950Y004069D01*
X026950Y004011D02*
X014020Y004011D01*
X013961Y003952D02*
X026950Y003952D01*
X026950Y003894D02*
X013903Y003894D01*
X013844Y003835D02*
X026950Y003835D01*
X026950Y003777D02*
X013786Y003777D01*
X013727Y003718D02*
X026950Y003718D01*
X026950Y003660D02*
X013669Y003660D01*
X013610Y003601D02*
X026950Y003601D01*
X026950Y003543D02*
X013552Y003543D01*
X013493Y003484D02*
X026950Y003484D01*
X026950Y003426D02*
X013435Y003426D01*
X013390Y003367D02*
X026950Y003367D01*
X026950Y003309D02*
X013390Y003309D01*
X013365Y003250D02*
X026950Y003250D01*
X026950Y003192D02*
X013328Y003192D01*
X013259Y003133D02*
X026950Y003133D01*
X026950Y003075D02*
X010569Y003075D01*
X010627Y003133D02*
X013001Y003133D01*
X012932Y003192D02*
X010667Y003192D01*
X010667Y003250D02*
X012895Y003250D01*
X012870Y003309D02*
X010667Y003309D01*
X010660Y003367D02*
X012870Y003367D01*
X012875Y003426D02*
X010602Y003426D01*
X010578Y003484D02*
X012900Y003484D01*
X012944Y003543D02*
X010605Y003543D01*
X010605Y003601D02*
X013030Y003601D01*
X013188Y003660D02*
X010605Y003660D01*
X010584Y003718D02*
X013247Y003718D01*
X013305Y003777D02*
X010526Y003777D01*
X010380Y003604D02*
X009843Y003604D01*
X009843Y003289D02*
X009318Y003289D01*
X008917Y003204D02*
X008917Y002679D01*
X008602Y002679D02*
X008602Y002279D01*
X008677Y002204D01*
X009443Y002204D01*
X010443Y003204D01*
X010443Y003267D01*
X010424Y003016D02*
X026950Y003016D01*
X026950Y002958D02*
X010366Y002958D01*
X010307Y002899D02*
X026950Y002899D01*
X026950Y002841D02*
X010249Y002841D01*
X010190Y002782D02*
X026950Y002782D01*
X026950Y002724D02*
X010132Y002724D01*
X010073Y002665D02*
X026950Y002665D01*
X026950Y002607D02*
X010015Y002607D01*
X009956Y002548D02*
X026950Y002548D01*
X026950Y002490D02*
X009898Y002490D01*
X009630Y002767D02*
X009542Y002679D01*
X009232Y002679D01*
X008456Y002256D02*
X008434Y002256D01*
X008515Y002197D02*
X007483Y002197D01*
X007483Y002139D02*
X008573Y002139D01*
X008141Y002256D02*
X008119Y002256D01*
X007826Y002256D02*
X007804Y002256D01*
X007511Y002256D02*
X007489Y002256D01*
X007479Y002080D02*
X011698Y002080D01*
X011698Y002022D02*
X007421Y002022D01*
X008287Y002679D02*
X008287Y003204D01*
X009318Y003919D02*
X009843Y003919D01*
X010287Y003894D02*
X013422Y003894D01*
X013481Y003952D02*
X010287Y003952D01*
X010287Y003835D02*
X013364Y003835D01*
X013539Y004011D02*
X010475Y004011D01*
X010533Y004069D02*
X013598Y004069D01*
X013656Y004128D02*
X010592Y004128D01*
X010605Y004186D02*
X013715Y004186D01*
X013773Y004245D02*
X010605Y004245D01*
X010380Y004234D02*
X009843Y004234D01*
X009430Y004392D02*
X009425Y004387D01*
X009268Y004387D01*
X009204Y004323D01*
X009204Y005413D01*
X009152Y005466D01*
X007108Y005466D01*
X007056Y005413D01*
X007056Y004427D01*
X007023Y004459D01*
X006842Y004459D01*
X006842Y004675D01*
X006810Y004707D01*
X006842Y004738D01*
X006842Y004990D01*
X006810Y005022D01*
X006842Y005053D01*
X006842Y005305D01*
X006810Y005337D01*
X006842Y005368D01*
X006842Y005620D01*
X006789Y005673D01*
X006538Y005673D01*
X006538Y006950D01*
X006486Y007002D01*
X006537Y007002D01*
X006646Y006892D01*
X006646Y006658D01*
X006699Y006605D01*
X006888Y006605D01*
X006888Y006554D01*
X006849Y006516D01*
X006849Y005732D01*
X006902Y005680D01*
X007153Y005680D01*
X007185Y005711D01*
X007217Y005680D01*
X007468Y005680D01*
X007500Y005711D01*
X007532Y005680D01*
X007783Y005680D01*
X007815Y005711D01*
X007847Y005680D01*
X008098Y005680D01*
X008130Y005711D01*
X008162Y005680D01*
X008413Y005680D01*
X008417Y005683D01*
X008434Y005666D01*
X008464Y005648D01*
X008497Y005640D01*
X008588Y005640D01*
X008588Y006110D01*
X008466Y006110D01*
X008466Y006138D01*
X008588Y006138D01*
X008588Y006110D01*
X008617Y006110D01*
X008617Y005640D01*
X008708Y005640D01*
X008741Y005648D01*
X008760Y005659D01*
X008779Y005648D01*
X008812Y005640D01*
X008903Y005640D01*
X008903Y006110D01*
X008932Y006110D01*
X008932Y005640D01*
X009023Y005640D01*
X009056Y005648D01*
X009086Y005666D01*
X009103Y005683D01*
X009106Y005680D01*
X009358Y005680D01*
X009387Y005709D01*
X009437Y005659D01*
X009398Y005620D01*
X009398Y005368D01*
X009430Y005337D01*
X009398Y005305D01*
X009398Y005053D01*
X009430Y005022D01*
X009398Y004990D01*
X009398Y004738D01*
X009430Y004707D01*
X009398Y004675D01*
X009398Y004423D01*
X009430Y004392D01*
X009401Y004420D02*
X009204Y004420D01*
X009204Y004362D02*
X009243Y004362D01*
X009204Y004479D02*
X009398Y004479D01*
X009398Y004537D02*
X009204Y004537D01*
X009204Y004596D02*
X009398Y004596D01*
X009398Y004654D02*
X009204Y004654D01*
X009204Y004713D02*
X009424Y004713D01*
X009398Y004771D02*
X009204Y004771D01*
X009204Y004830D02*
X009398Y004830D01*
X009398Y004888D02*
X009204Y004888D01*
X009204Y004947D02*
X009398Y004947D01*
X009413Y005005D02*
X009204Y005005D01*
X009204Y005064D02*
X009398Y005064D01*
X009398Y005122D02*
X009204Y005122D01*
X009204Y005181D02*
X009398Y005181D01*
X009398Y005239D02*
X009204Y005239D01*
X009204Y005298D02*
X009398Y005298D01*
X009410Y005356D02*
X009204Y005356D01*
X009203Y005415D02*
X009398Y005415D01*
X009398Y005473D02*
X006842Y005473D01*
X006842Y005415D02*
X007057Y005415D01*
X007056Y005356D02*
X006830Y005356D01*
X006842Y005298D02*
X007056Y005298D01*
X007056Y005239D02*
X006842Y005239D01*
X006842Y005181D02*
X007056Y005181D01*
X007056Y005122D02*
X006842Y005122D01*
X006842Y005064D02*
X007056Y005064D01*
X007056Y005005D02*
X006827Y005005D01*
X006842Y004947D02*
X007056Y004947D01*
X007056Y004888D02*
X006842Y004888D01*
X006842Y004830D02*
X007056Y004830D01*
X007056Y004771D02*
X006842Y004771D01*
X006816Y004713D02*
X007056Y004713D01*
X007056Y004654D02*
X006842Y004654D01*
X006842Y004596D02*
X007056Y004596D01*
X007056Y004537D02*
X006842Y004537D01*
X006842Y004479D02*
X007056Y004479D01*
X006842Y005532D02*
X009398Y005532D01*
X009398Y005590D02*
X006842Y005590D01*
X006813Y005649D02*
X008463Y005649D01*
X008588Y005649D02*
X008617Y005649D01*
X008617Y005707D02*
X008588Y005707D01*
X008588Y005766D02*
X008617Y005766D01*
X008617Y005824D02*
X008588Y005824D01*
X008588Y005883D02*
X008617Y005883D01*
X008617Y005941D02*
X008588Y005941D01*
X008588Y006000D02*
X008617Y006000D01*
X008617Y006058D02*
X008588Y006058D01*
X008588Y006117D02*
X008466Y006117D01*
X008588Y006138D02*
X008588Y006605D01*
X008617Y006605D01*
X008617Y006138D01*
X008588Y006138D01*
X008617Y006117D02*
X008903Y006117D01*
X008903Y006175D02*
X008932Y006175D01*
X008932Y006234D02*
X008903Y006234D01*
X008903Y006292D02*
X008932Y006292D01*
X008932Y006351D02*
X008903Y006351D01*
X008903Y006409D02*
X008932Y006409D01*
X008932Y006468D02*
X008903Y006468D01*
X008903Y006526D02*
X008932Y006526D01*
X008932Y006585D02*
X008903Y006585D01*
X009082Y006585D02*
X011010Y006585D01*
X011010Y006643D02*
X008662Y006643D01*
X008676Y006702D02*
X011010Y006702D01*
X011010Y006760D02*
X008676Y006760D01*
X008676Y006819D02*
X011010Y006819D01*
X011010Y006877D02*
X008676Y006877D01*
X008676Y006936D02*
X011010Y006936D01*
X011010Y006994D02*
X008676Y006994D01*
X008676Y007053D02*
X009846Y007053D01*
X009788Y007111D02*
X008758Y007111D01*
X008849Y007170D02*
X009729Y007170D01*
X009725Y007228D02*
X008870Y007228D01*
X008870Y007287D02*
X009725Y007287D01*
X009725Y007345D02*
X008870Y007345D01*
X008870Y007404D02*
X009769Y007404D01*
X009828Y007462D02*
X008870Y007462D01*
X008533Y007521D02*
X007964Y007521D01*
X007964Y007579D02*
X008256Y007579D01*
X008256Y007638D02*
X007964Y007638D01*
X007964Y007696D02*
X008256Y007696D01*
X008256Y007755D02*
X007964Y007755D01*
X007964Y007813D02*
X008257Y007813D01*
X008282Y007872D02*
X007922Y007872D01*
X008040Y008047D02*
X008055Y008047D01*
X007964Y007462D02*
X008256Y007462D01*
X008256Y007404D02*
X007964Y007404D01*
X007964Y007345D02*
X008256Y007345D01*
X008256Y007287D02*
X007964Y007287D01*
X007964Y007228D02*
X008256Y007228D01*
X008277Y007170D02*
X008061Y007170D01*
X008105Y007111D02*
X008280Y007111D01*
X008280Y007053D02*
X008105Y007053D01*
X008105Y006994D02*
X008280Y006994D01*
X008280Y006936D02*
X008105Y006936D01*
X008113Y006877D02*
X008265Y006877D01*
X008207Y006819D02*
X008113Y006819D01*
X008113Y006760D02*
X008148Y006760D01*
X008147Y006702D02*
X008113Y006702D01*
X008113Y006643D02*
X008147Y006643D01*
X008147Y006585D02*
X008113Y006585D01*
X008588Y006585D02*
X008617Y006585D01*
X008617Y006526D02*
X008588Y006526D01*
X008588Y006468D02*
X008617Y006468D01*
X008617Y006409D02*
X008588Y006409D01*
X008588Y006351D02*
X008617Y006351D01*
X008617Y006292D02*
X008588Y006292D01*
X008588Y006234D02*
X008617Y006234D01*
X008617Y006175D02*
X008588Y006175D01*
X008903Y006058D02*
X008932Y006058D01*
X008932Y006000D02*
X008903Y006000D01*
X008903Y005941D02*
X008932Y005941D01*
X008932Y005883D02*
X008903Y005883D01*
X008903Y005824D02*
X008932Y005824D01*
X008932Y005766D02*
X008903Y005766D01*
X008903Y005707D02*
X008932Y005707D01*
X008932Y005649D02*
X008903Y005649D01*
X008778Y005649D02*
X008742Y005649D01*
X009057Y005649D02*
X009427Y005649D01*
X009389Y005707D02*
X009386Y005707D01*
X009636Y005941D02*
X011161Y005941D01*
X011219Y005883D02*
X009694Y005883D01*
X009753Y005824D02*
X010345Y005824D01*
X010343Y005766D02*
X009811Y005766D01*
X009870Y005707D02*
X010343Y005707D01*
X011102Y006000D02*
X009577Y006000D01*
X009519Y006058D02*
X011044Y006058D01*
X011010Y006117D02*
X009460Y006117D01*
X009411Y006175D02*
X011010Y006175D01*
X011010Y006234D02*
X009411Y006234D01*
X009411Y006292D02*
X011010Y006292D01*
X011010Y006351D02*
X009411Y006351D01*
X009411Y006409D02*
X011010Y006409D01*
X011010Y006468D02*
X009411Y006468D01*
X009400Y006526D02*
X011010Y006526D01*
X011130Y006585D02*
X011594Y006585D01*
X011593Y006643D02*
X011130Y006643D01*
X011130Y006702D02*
X011593Y006702D01*
X011593Y006760D02*
X011130Y006760D01*
X011130Y006819D02*
X011593Y006819D01*
X011594Y006877D02*
X011130Y006877D01*
X011010Y007053D02*
X010055Y007053D01*
X010113Y007111D02*
X011010Y007111D01*
X011010Y007170D02*
X010172Y007170D01*
X010175Y007228D02*
X011010Y007228D01*
X011010Y007287D02*
X010175Y007287D01*
X010175Y007345D02*
X011010Y007345D01*
X011010Y007404D02*
X010290Y007404D01*
X010348Y007462D02*
X011010Y007462D01*
X011010Y007521D02*
X010372Y007521D01*
X010372Y007579D02*
X011010Y007579D01*
X011010Y007638D02*
X010372Y007638D01*
X010348Y007696D02*
X011010Y007696D01*
X011130Y007989D02*
X012497Y007989D01*
X012555Y008047D02*
X011130Y008047D01*
X012121Y007111D02*
X012560Y007111D01*
X012168Y006877D02*
X012166Y006877D01*
X013140Y006175D02*
X013175Y006175D01*
X013175Y006117D02*
X013140Y006117D01*
X013140Y006058D02*
X013175Y006058D01*
X013175Y006000D02*
X013140Y006000D01*
X013140Y005941D02*
X013175Y005941D01*
X013175Y005883D02*
X013140Y005883D01*
X013140Y005824D02*
X013175Y005824D01*
X013175Y005766D02*
X013140Y005766D01*
X013140Y005707D02*
X013175Y005707D01*
X013175Y005649D02*
X013140Y005649D01*
X013116Y005590D02*
X013175Y005590D01*
X013202Y005532D02*
X013058Y005532D01*
X013043Y005473D02*
X013217Y005473D01*
X013217Y005415D02*
X013043Y005415D01*
X013043Y005356D02*
X013217Y005356D01*
X013217Y005298D02*
X013043Y005298D01*
X012999Y005239D02*
X013261Y005239D01*
X013570Y005239D02*
X013690Y005239D01*
X013646Y005298D02*
X013614Y005298D01*
X013614Y005356D02*
X013646Y005356D01*
X013646Y005415D02*
X013614Y005415D01*
X013614Y005473D02*
X013646Y005473D01*
X013646Y005532D02*
X013614Y005532D01*
X013614Y005590D02*
X013646Y005590D01*
X013646Y005649D02*
X013614Y005649D01*
X013614Y005707D02*
X013646Y005707D01*
X013661Y005766D02*
X013599Y005766D01*
X013624Y005824D02*
X013455Y005824D01*
X013455Y005883D02*
X013566Y005883D01*
X013507Y005941D02*
X013455Y005941D01*
X013455Y006000D02*
X013490Y006000D01*
X013490Y006058D02*
X013455Y006058D01*
X013455Y006117D02*
X013490Y006117D01*
X013490Y006175D02*
X013455Y006175D01*
X014115Y006175D02*
X014126Y006175D01*
X014145Y006117D02*
X015230Y006117D01*
X015172Y006058D02*
X014204Y006058D01*
X015250Y005941D02*
X017010Y005941D01*
X017010Y005883D02*
X015250Y005883D01*
X015283Y006000D02*
X017010Y006000D01*
X017010Y006058D02*
X015341Y006058D01*
X015400Y006117D02*
X017010Y006117D01*
X017010Y006175D02*
X015458Y006175D01*
X015517Y006234D02*
X017010Y006234D01*
X017010Y006292D02*
X015575Y006292D01*
X015634Y006351D02*
X017010Y006351D01*
X017010Y006409D02*
X015692Y006409D01*
X015751Y006468D02*
X017010Y006468D01*
X017010Y006526D02*
X015809Y006526D01*
X015868Y006585D02*
X017028Y006585D01*
X017087Y006643D02*
X015926Y006643D01*
X015985Y006702D02*
X017145Y006702D01*
X017204Y006760D02*
X016043Y006760D01*
X016102Y006819D02*
X017262Y006819D01*
X017321Y006877D02*
X016160Y006877D01*
X016219Y006936D02*
X017379Y006936D01*
X017438Y006994D02*
X016250Y006994D01*
X016250Y007053D02*
X017496Y007053D01*
X017555Y007111D02*
X016250Y007111D01*
X018198Y007170D02*
X021613Y007170D01*
X021672Y007228D02*
X018198Y007228D01*
X018198Y007287D02*
X018415Y007287D01*
X018391Y007345D02*
X018201Y007345D01*
X018253Y007404D02*
X018390Y007404D01*
X018390Y007462D02*
X018277Y007462D01*
X018288Y007521D02*
X018390Y007521D01*
X018390Y007579D02*
X018288Y007579D01*
X018268Y007638D02*
X018667Y007638D01*
X018667Y007579D02*
X018727Y007579D01*
X018727Y007612D02*
X018727Y007236D01*
X018891Y007236D01*
X018924Y007245D01*
X018954Y007262D01*
X018978Y007286D01*
X018995Y007316D01*
X019004Y007349D01*
X019004Y007612D01*
X018727Y007612D01*
X018727Y007638D02*
X019296Y007638D01*
X019296Y007696D02*
X019004Y007696D01*
X019004Y007755D02*
X019296Y007755D01*
X019296Y007813D02*
X019004Y007813D01*
X019004Y007872D02*
X019296Y007872D01*
X019296Y007930D02*
X019004Y007930D01*
X018983Y007989D02*
X019199Y007989D01*
X019155Y008047D02*
X018980Y008047D01*
X018980Y008106D02*
X019155Y008106D01*
X019155Y008164D02*
X018980Y008164D01*
X018980Y008223D02*
X019155Y008223D01*
X019147Y008281D02*
X018995Y008281D01*
X019053Y008340D02*
X019147Y008340D01*
X019147Y008398D02*
X019112Y008398D01*
X019113Y008457D02*
X019147Y008457D01*
X019147Y008515D02*
X019113Y008515D01*
X019113Y008574D02*
X019147Y008574D01*
X018672Y008574D02*
X018643Y008574D01*
X018643Y008632D02*
X018672Y008632D01*
X018672Y008691D02*
X018643Y008691D01*
X018643Y008749D02*
X018672Y008749D01*
X018672Y008808D02*
X018643Y008808D01*
X018643Y008866D02*
X018672Y008866D01*
X018672Y008925D02*
X018643Y008925D01*
X018643Y008983D02*
X018672Y008983D01*
X018357Y008983D02*
X018328Y008983D01*
X018328Y008925D02*
X018357Y008925D01*
X018357Y008866D02*
X018328Y008866D01*
X018328Y008808D02*
X018357Y008808D01*
X018357Y008749D02*
X018328Y008749D01*
X018328Y008691D02*
X018357Y008691D01*
X018357Y008632D02*
X018328Y008632D01*
X018328Y008574D02*
X018357Y008574D01*
X018198Y008515D02*
X018598Y008515D01*
X018584Y008457D02*
X018198Y008457D01*
X018198Y008398D02*
X018584Y008398D01*
X018584Y008340D02*
X018198Y008340D01*
X018198Y008281D02*
X018584Y008281D01*
X018584Y008223D02*
X018198Y008223D01*
X018198Y008164D02*
X018584Y008164D01*
X018584Y008106D02*
X018198Y008106D01*
X018198Y008047D02*
X018502Y008047D01*
X018411Y007989D02*
X018198Y007989D01*
X018198Y007930D02*
X018390Y007930D01*
X018390Y007872D02*
X018198Y007872D01*
X018198Y007813D02*
X018390Y007813D01*
X018390Y007755D02*
X018198Y007755D01*
X018238Y007696D02*
X018390Y007696D01*
X018667Y007521D02*
X018727Y007521D01*
X018727Y007462D02*
X018667Y007462D01*
X018667Y007404D02*
X018727Y007404D01*
X018727Y007345D02*
X018667Y007345D01*
X018667Y007287D02*
X018727Y007287D01*
X018978Y007287D02*
X019338Y007287D01*
X019296Y007345D02*
X019003Y007345D01*
X019004Y007404D02*
X019296Y007404D01*
X019296Y007462D02*
X019004Y007462D01*
X019004Y007521D02*
X019296Y007521D01*
X019296Y007579D02*
X019004Y007579D01*
X019830Y007579D02*
X022010Y007579D01*
X022010Y007638D02*
X019830Y007638D01*
X019830Y007696D02*
X022010Y007696D01*
X022010Y007755D02*
X019830Y007755D01*
X019830Y007813D02*
X021986Y007813D01*
X021927Y007872D02*
X019830Y007872D01*
X019830Y007930D02*
X021905Y007930D01*
X021905Y007989D02*
X020570Y007989D01*
X020614Y008047D02*
X021905Y008047D01*
X021930Y008106D02*
X020614Y008106D01*
X020614Y008164D02*
X021989Y008164D01*
X021990Y008223D02*
X020614Y008223D01*
X020628Y008281D02*
X021990Y008281D01*
X021990Y008340D02*
X020686Y008340D01*
X020745Y008398D02*
X021990Y008398D01*
X021990Y008457D02*
X020803Y008457D01*
X020862Y008515D02*
X021990Y008515D01*
X021990Y008574D02*
X021041Y008574D01*
X021099Y008632D02*
X021990Y008632D01*
X021990Y008691D02*
X021140Y008691D01*
X021140Y008749D02*
X021990Y008749D01*
X021990Y008808D02*
X021140Y008808D01*
X021134Y008866D02*
X021990Y008866D01*
X021990Y008925D02*
X021076Y008925D01*
X021017Y008983D02*
X021990Y008983D01*
X021990Y009042D02*
X020973Y009042D01*
X021032Y009100D02*
X021973Y009100D01*
X021915Y009159D02*
X021087Y009159D01*
X021087Y009217D02*
X021856Y009217D01*
X021798Y009276D02*
X021087Y009276D01*
X021087Y009334D02*
X021739Y009334D01*
X021681Y009393D02*
X021037Y009393D01*
X021002Y009451D02*
X021622Y009451D01*
X021564Y009510D02*
X021278Y009510D01*
X021307Y009568D02*
X021505Y009568D01*
X021447Y009627D02*
X021307Y009627D01*
X021307Y009685D02*
X021388Y009685D01*
X021330Y009744D02*
X021307Y009744D01*
X020722Y009451D02*
X020386Y009451D01*
X020411Y009393D02*
X020688Y009393D01*
X020637Y009334D02*
X020411Y009334D01*
X020411Y009276D02*
X020637Y009276D01*
X020637Y009217D02*
X020411Y009217D01*
X020411Y009159D02*
X020637Y009159D01*
X020693Y009100D02*
X020411Y009100D01*
X020411Y009042D02*
X020751Y009042D01*
X020814Y008983D02*
X020411Y008983D01*
X020411Y008925D02*
X020755Y008925D01*
X020697Y008866D02*
X020411Y008866D01*
X020411Y008808D02*
X020690Y008808D01*
X020690Y008749D02*
X020411Y008749D01*
X020411Y008691D02*
X020641Y008691D01*
X020583Y008632D02*
X020400Y008632D01*
X020372Y008574D02*
X020524Y008574D01*
X020092Y008574D02*
X020057Y008574D01*
X020057Y008515D02*
X020092Y008515D01*
X020092Y008457D02*
X020057Y008457D01*
X020057Y008398D02*
X020092Y008398D01*
X020057Y008340D02*
X020144Y008340D01*
X020203Y008281D02*
X020057Y008281D01*
X020043Y008223D02*
X020217Y008223D01*
X020217Y008164D02*
X020043Y008164D01*
X020043Y008106D02*
X020217Y008106D01*
X020217Y008047D02*
X020043Y008047D01*
X019999Y007989D02*
X020261Y007989D01*
X019830Y007521D02*
X021964Y007521D01*
X021906Y007462D02*
X019830Y007462D01*
X019830Y007404D02*
X021847Y007404D01*
X021789Y007345D02*
X019830Y007345D01*
X019788Y007287D02*
X021730Y007287D01*
X021842Y007228D02*
X026950Y007228D01*
X026950Y007170D02*
X021783Y007170D01*
X021725Y007111D02*
X026950Y007111D01*
X026950Y007053D02*
X026297Y007053D01*
X026438Y006994D02*
X026950Y006994D01*
X026950Y006936D02*
X026578Y006936D01*
X026637Y006877D02*
X026950Y006877D01*
X026950Y006819D02*
X026695Y006819D01*
X026754Y006760D02*
X026950Y006760D01*
X026950Y006702D02*
X026805Y006702D01*
X026829Y006643D02*
X026950Y006643D01*
X026950Y006585D02*
X026853Y006585D01*
X026878Y006526D02*
X026950Y006526D01*
X026950Y006468D02*
X026902Y006468D01*
X026920Y006409D02*
X026950Y006409D01*
X026950Y006351D02*
X026920Y006351D01*
X026920Y006292D02*
X026950Y006292D01*
X026950Y006234D02*
X026920Y006234D01*
X026920Y006175D02*
X026950Y006175D01*
X026950Y006117D02*
X026920Y006117D01*
X026899Y006058D02*
X026950Y006058D01*
X026950Y006000D02*
X026875Y006000D01*
X026850Y005941D02*
X026950Y005941D01*
X026950Y005883D02*
X026826Y005883D01*
X026802Y005824D02*
X026950Y005824D01*
X026950Y005766D02*
X026746Y005766D01*
X026688Y005707D02*
X026950Y005707D01*
X026950Y005649D02*
X026629Y005649D01*
X026561Y005590D02*
X026950Y005590D01*
X026950Y005532D02*
X026420Y005532D01*
X025963Y007053D02*
X021666Y007053D01*
X021900Y007287D02*
X026950Y007287D01*
X026950Y007345D02*
X021959Y007345D01*
X022017Y007404D02*
X026950Y007404D01*
X026950Y007462D02*
X022076Y007462D01*
X022130Y007521D02*
X026950Y007521D01*
X026950Y007579D02*
X022130Y007579D01*
X022130Y007638D02*
X026950Y007638D01*
X026950Y007696D02*
X022130Y007696D01*
X022130Y007755D02*
X024320Y007755D01*
X024320Y007813D02*
X022274Y007813D01*
X022333Y007872D02*
X024320Y007872D01*
X024320Y007930D02*
X022355Y007930D01*
X022355Y007989D02*
X024320Y007989D01*
X024320Y008047D02*
X022355Y008047D01*
X022330Y008106D02*
X024320Y008106D01*
X024320Y008164D02*
X022271Y008164D01*
X022270Y008223D02*
X024320Y008223D01*
X024320Y008281D02*
X022270Y008281D01*
X022270Y008340D02*
X024320Y008340D01*
X024320Y008398D02*
X022270Y008398D01*
X022270Y008457D02*
X024320Y008457D01*
X024320Y008515D02*
X022270Y008515D01*
X022270Y008574D02*
X024320Y008574D01*
X024320Y008632D02*
X022270Y008632D01*
X022270Y008691D02*
X024320Y008691D01*
X024320Y008749D02*
X022270Y008749D01*
X022270Y008808D02*
X024320Y008808D01*
X024320Y008866D02*
X022270Y008866D01*
X022270Y008925D02*
X024320Y008925D01*
X024320Y008983D02*
X022270Y008983D01*
X022270Y009042D02*
X024320Y009042D01*
X024320Y009100D02*
X022270Y009100D01*
X022270Y009159D02*
X024320Y009159D01*
X024320Y009217D02*
X022252Y009217D01*
X022194Y009276D02*
X024320Y009276D01*
X024320Y009334D02*
X022135Y009334D01*
X022130Y009393D02*
X024320Y009393D01*
X024320Y009451D02*
X022130Y009451D01*
X022130Y009510D02*
X024320Y009510D01*
X024320Y009568D02*
X022130Y009568D01*
X022130Y009627D02*
X024320Y009627D01*
X024320Y009685D02*
X022130Y009685D01*
X022130Y009744D02*
X024320Y009744D01*
X024320Y009802D02*
X022263Y009802D01*
X022322Y009861D02*
X024320Y009861D01*
X024320Y009919D02*
X022355Y009919D01*
X022355Y009978D02*
X024320Y009978D01*
X024320Y010036D02*
X022355Y010036D01*
X022341Y010095D02*
X024320Y010095D01*
X024320Y010153D02*
X022282Y010153D01*
X022270Y010212D02*
X024320Y010212D01*
X024320Y010270D02*
X022270Y010270D01*
X022270Y010329D02*
X024320Y010329D01*
X024320Y010387D02*
X022270Y010387D01*
X022270Y010446D02*
X024320Y010446D01*
X024320Y010504D02*
X022270Y010504D01*
X022270Y010563D02*
X024320Y010563D01*
X024320Y010621D02*
X022270Y010621D01*
X022270Y010680D02*
X024320Y010680D01*
X024320Y010738D02*
X022270Y010738D01*
X022270Y010797D02*
X024320Y010797D01*
X024320Y010855D02*
X022270Y010855D01*
X022270Y010914D02*
X024320Y010914D01*
X024320Y010972D02*
X022270Y010972D01*
X022270Y011031D02*
X024320Y011031D01*
X024320Y011089D02*
X022270Y011089D01*
X022270Y011148D02*
X024320Y011148D01*
X024320Y011206D02*
X022263Y011206D01*
X022205Y011265D02*
X024320Y011265D01*
X024320Y011323D02*
X022146Y011323D01*
X022130Y011382D02*
X024320Y011382D01*
X024320Y011440D02*
X022130Y011440D01*
X022130Y011499D02*
X024320Y011499D01*
X024320Y011557D02*
X022130Y011557D01*
X022130Y011616D02*
X024320Y011616D01*
X024320Y011674D02*
X022130Y011674D01*
X022130Y011733D02*
X024320Y011733D01*
X024320Y011791D02*
X022252Y011791D01*
X022311Y011850D02*
X024320Y011850D01*
X024320Y011908D02*
X022355Y011908D01*
X022355Y011967D02*
X024320Y011967D01*
X024320Y012025D02*
X022355Y012025D01*
X022352Y012084D02*
X024320Y012084D01*
X024320Y012142D02*
X022293Y012142D01*
X022270Y012201D02*
X024320Y012201D01*
X024320Y012259D02*
X022270Y012259D01*
X022270Y012318D02*
X024320Y012318D01*
X024320Y012376D02*
X022270Y012376D01*
X022270Y012435D02*
X024320Y012435D01*
X024320Y012493D02*
X022270Y012493D01*
X022270Y012552D02*
X024320Y012552D01*
X024320Y012610D02*
X022270Y012610D01*
X022270Y012669D02*
X024320Y012669D01*
X024320Y012727D02*
X022270Y012727D01*
X022270Y012786D02*
X024320Y012786D01*
X024320Y012844D02*
X022270Y012844D01*
X022270Y012903D02*
X024320Y012903D01*
X024320Y012961D02*
X022270Y012961D01*
X022270Y013020D02*
X024320Y013020D01*
X024320Y013078D02*
X022266Y013078D01*
X022208Y013137D02*
X024320Y013137D01*
X024320Y013195D02*
X022130Y013195D01*
X022130Y013254D02*
X024320Y013254D01*
X024320Y013312D02*
X022130Y013312D01*
X022130Y013371D02*
X024320Y013371D01*
X024320Y013429D02*
X022130Y013429D01*
X022130Y013488D02*
X024320Y013488D01*
X024320Y013546D02*
X022130Y013546D01*
X022130Y013605D02*
X024320Y013605D01*
X024320Y013663D02*
X022130Y013663D01*
X022130Y013722D02*
X024320Y013722D01*
X024320Y013780D02*
X022130Y013780D01*
X022130Y013839D02*
X024320Y013839D01*
X024320Y013897D02*
X022130Y013897D01*
X022130Y013956D02*
X024320Y013956D01*
X024320Y014014D02*
X022130Y014014D01*
X022130Y014073D02*
X024320Y014073D01*
X024440Y014073D02*
X026711Y014073D01*
X026692Y014081D02*
X026808Y014033D01*
X026896Y013944D01*
X026944Y013829D01*
X026950Y013767D01*
X026950Y011827D01*
X025288Y011827D01*
X025355Y011894D01*
X025355Y012080D01*
X025223Y012212D01*
X025037Y012212D01*
X024952Y012127D01*
X024951Y012127D01*
X024951Y012157D01*
X024899Y012210D01*
X024529Y012210D01*
X024476Y012157D01*
X024476Y011827D01*
X024440Y011827D01*
X024440Y014087D01*
X026630Y014087D01*
X026692Y014081D01*
X026826Y014014D02*
X024440Y014014D01*
X024440Y013956D02*
X026885Y013956D01*
X026916Y013897D02*
X024440Y013897D01*
X024440Y013839D02*
X026940Y013839D01*
X026949Y013780D02*
X024440Y013780D01*
X024440Y013722D02*
X026950Y013722D01*
X026950Y013663D02*
X024440Y013663D01*
X024440Y013605D02*
X026950Y013605D01*
X026950Y013546D02*
X024440Y013546D01*
X024440Y013488D02*
X026950Y013488D01*
X026950Y013429D02*
X024440Y013429D01*
X024440Y013371D02*
X026950Y013371D01*
X026950Y013312D02*
X024440Y013312D01*
X024440Y013254D02*
X026950Y013254D01*
X026950Y013195D02*
X024440Y013195D01*
X024440Y013137D02*
X026950Y013137D01*
X026950Y013078D02*
X024440Y013078D01*
X024440Y013020D02*
X026950Y013020D01*
X026950Y012961D02*
X024440Y012961D01*
X024440Y012903D02*
X026950Y012903D01*
X026950Y012844D02*
X024440Y012844D01*
X024440Y012786D02*
X026950Y012786D01*
X026950Y012727D02*
X024440Y012727D01*
X024440Y012669D02*
X026950Y012669D01*
X026950Y012610D02*
X024440Y012610D01*
X024440Y012552D02*
X026950Y012552D01*
X026950Y012493D02*
X024440Y012493D01*
X024440Y012435D02*
X026950Y012435D01*
X026950Y012376D02*
X024440Y012376D01*
X024440Y012318D02*
X026950Y012318D01*
X026950Y012259D02*
X024440Y012259D01*
X024440Y012201D02*
X024519Y012201D01*
X024476Y012142D02*
X024440Y012142D01*
X024440Y012084D02*
X024476Y012084D01*
X024476Y012025D02*
X024440Y012025D01*
X024440Y011967D02*
X024476Y011967D01*
X024476Y011908D02*
X024440Y011908D01*
X024440Y011850D02*
X024476Y011850D01*
X024440Y011707D02*
X026950Y011707D01*
X026950Y009827D01*
X025288Y009827D01*
X025355Y009894D01*
X025355Y010080D01*
X025223Y010212D01*
X025037Y010212D01*
X024952Y010127D01*
X024951Y010127D01*
X024951Y010157D01*
X024899Y010210D01*
X024529Y010210D01*
X024476Y010157D01*
X024476Y009827D01*
X024440Y009827D01*
X024440Y011707D01*
X024440Y011674D02*
X026950Y011674D01*
X026950Y011616D02*
X024440Y011616D01*
X024440Y011557D02*
X026950Y011557D01*
X026950Y011499D02*
X024440Y011499D01*
X024440Y011440D02*
X026950Y011440D01*
X026950Y011382D02*
X024440Y011382D01*
X024440Y011323D02*
X026950Y011323D01*
X026950Y011265D02*
X024440Y011265D01*
X024440Y011206D02*
X026950Y011206D01*
X026950Y011148D02*
X024440Y011148D01*
X024440Y011089D02*
X026950Y011089D01*
X026950Y011031D02*
X024440Y011031D01*
X024440Y010972D02*
X026950Y010972D01*
X026950Y010914D02*
X024440Y010914D01*
X024440Y010855D02*
X026950Y010855D01*
X026950Y010797D02*
X024440Y010797D01*
X024440Y010738D02*
X026950Y010738D01*
X026950Y010680D02*
X024440Y010680D01*
X024440Y010621D02*
X026950Y010621D01*
X026950Y010563D02*
X024440Y010563D01*
X024440Y010504D02*
X026950Y010504D01*
X026950Y010446D02*
X024440Y010446D01*
X024440Y010387D02*
X026950Y010387D01*
X026950Y010329D02*
X024440Y010329D01*
X024440Y010270D02*
X026950Y010270D01*
X026950Y010212D02*
X025224Y010212D01*
X025282Y010153D02*
X026950Y010153D01*
X026950Y010095D02*
X025341Y010095D01*
X025355Y010036D02*
X026950Y010036D01*
X026950Y009978D02*
X025355Y009978D01*
X025355Y009919D02*
X026950Y009919D01*
X026950Y009861D02*
X025322Y009861D01*
X024978Y010153D02*
X024951Y010153D01*
X025036Y010212D02*
X024440Y010212D01*
X024440Y010153D02*
X024476Y010153D01*
X024476Y010095D02*
X024440Y010095D01*
X024440Y010036D02*
X024476Y010036D01*
X024476Y009978D02*
X024440Y009978D01*
X024440Y009919D02*
X024476Y009919D01*
X024476Y009861D02*
X024440Y009861D01*
X024440Y009707D02*
X026950Y009707D01*
X026950Y007827D01*
X025288Y007827D01*
X025355Y007894D01*
X025355Y008080D01*
X025223Y008212D01*
X025037Y008212D01*
X024952Y008127D01*
X024951Y008127D01*
X024951Y008157D01*
X024899Y008210D01*
X024529Y008210D01*
X024476Y008157D01*
X024476Y007827D01*
X024440Y007827D01*
X024440Y009707D01*
X024440Y009685D02*
X026950Y009685D01*
X026950Y009627D02*
X024440Y009627D01*
X024440Y009568D02*
X026950Y009568D01*
X026950Y009510D02*
X024440Y009510D01*
X024440Y009451D02*
X026950Y009451D01*
X026950Y009393D02*
X024440Y009393D01*
X024440Y009334D02*
X026950Y009334D01*
X026950Y009276D02*
X024440Y009276D01*
X024440Y009217D02*
X026950Y009217D01*
X026950Y009159D02*
X024440Y009159D01*
X024440Y009100D02*
X026950Y009100D01*
X026950Y009042D02*
X024440Y009042D01*
X024440Y008983D02*
X026950Y008983D01*
X026950Y008925D02*
X024440Y008925D01*
X024440Y008866D02*
X026950Y008866D01*
X026950Y008808D02*
X024440Y008808D01*
X024440Y008749D02*
X026950Y008749D01*
X026950Y008691D02*
X024440Y008691D01*
X024440Y008632D02*
X026950Y008632D01*
X026950Y008574D02*
X024440Y008574D01*
X024440Y008515D02*
X026950Y008515D01*
X026950Y008457D02*
X024440Y008457D01*
X024440Y008398D02*
X026950Y008398D01*
X026950Y008340D02*
X024440Y008340D01*
X024440Y008281D02*
X026950Y008281D01*
X026950Y008223D02*
X024440Y008223D01*
X024440Y008164D02*
X024483Y008164D01*
X024476Y008106D02*
X024440Y008106D01*
X024440Y008047D02*
X024476Y008047D01*
X024476Y007989D02*
X024440Y007989D01*
X024440Y007930D02*
X024476Y007930D01*
X024476Y007872D02*
X024440Y007872D01*
X024944Y008164D02*
X024989Y008164D01*
X025271Y008164D02*
X026950Y008164D01*
X026950Y008106D02*
X025330Y008106D01*
X025355Y008047D02*
X026950Y008047D01*
X026950Y007989D02*
X025355Y007989D01*
X025355Y007930D02*
X026950Y007930D01*
X026950Y007872D02*
X025333Y007872D01*
X020418Y009744D02*
X020203Y009744D01*
X020204Y009802D02*
X020430Y009802D01*
X020418Y009861D02*
X020204Y009861D01*
X020204Y009919D02*
X020418Y009919D01*
X020418Y009978D02*
X020204Y009978D01*
X020204Y010036D02*
X020418Y010036D01*
X020418Y010095D02*
X020204Y010095D01*
X020204Y010153D02*
X020433Y010153D01*
X020418Y010212D02*
X020204Y010212D01*
X020204Y010270D02*
X020418Y010270D01*
X020418Y010329D02*
X020204Y010329D01*
X020204Y010387D02*
X020418Y010387D01*
X020444Y010446D02*
X020204Y010446D01*
X020204Y010504D02*
X020418Y010504D01*
X020418Y010563D02*
X020204Y010563D01*
X020204Y010621D02*
X020418Y010621D01*
X020418Y010680D02*
X020204Y010680D01*
X020079Y009451D02*
X020071Y009451D01*
X019764Y009451D02*
X019756Y009451D01*
X019449Y009451D02*
X019441Y009451D01*
X019134Y009451D02*
X019126Y009451D01*
X017546Y009276D02*
X016250Y009276D01*
X016250Y009334D02*
X016345Y009334D01*
X016343Y009393D02*
X016250Y009393D01*
X016250Y009451D02*
X016343Y009451D01*
X016343Y009510D02*
X016250Y009510D01*
X016250Y009568D02*
X016343Y009568D01*
X016343Y009627D02*
X016250Y009627D01*
X016250Y009685D02*
X016594Y009685D01*
X016652Y009744D02*
X016250Y009744D01*
X016250Y009802D02*
X016711Y009802D01*
X016389Y009861D02*
X016250Y009861D01*
X016250Y009919D02*
X016343Y009919D01*
X016343Y009978D02*
X016250Y009978D01*
X016250Y010036D02*
X016343Y010036D01*
X016343Y010095D02*
X016250Y010095D01*
X016250Y010153D02*
X016343Y010153D01*
X016357Y010212D02*
X016250Y010212D01*
X016917Y009451D02*
X017370Y009451D01*
X017429Y009393D02*
X016917Y009393D01*
X016915Y009334D02*
X017487Y009334D01*
X014732Y011526D02*
X014732Y011526D01*
X014343Y011674D02*
X014063Y011674D01*
X014015Y011733D02*
X014337Y011733D01*
X014337Y011791D02*
X014015Y011791D01*
X014003Y011850D02*
X014337Y011850D01*
X014378Y011908D02*
X013979Y011908D01*
X013926Y011967D02*
X014337Y011967D01*
X014337Y012025D02*
X013817Y012025D01*
X013653Y012084D02*
X014337Y012084D01*
X014345Y012142D02*
X013595Y012142D01*
X013536Y012201D02*
X014304Y012201D01*
X014297Y012259D02*
X013478Y012259D01*
X013419Y012318D02*
X014297Y012318D01*
X014302Y012376D02*
X013361Y012376D01*
X013302Y012435D02*
X014336Y012435D01*
X014732Y012435D02*
X014732Y012435D01*
X014732Y012376D02*
X014732Y012376D01*
X014732Y012318D02*
X014732Y012318D01*
X015120Y012142D02*
X015188Y012142D01*
X015178Y012201D02*
X015160Y012201D01*
X015167Y012259D02*
X015178Y012259D01*
X015127Y012084D02*
X015239Y012084D01*
X015250Y011908D02*
X015186Y011908D01*
X015529Y012318D02*
X016011Y012318D01*
X015953Y012259D02*
X015832Y012259D01*
X015832Y012376D02*
X016070Y012376D01*
X016128Y012435D02*
X015830Y012435D01*
X015803Y012493D02*
X016187Y012493D01*
X016479Y012786D02*
X015155Y012786D01*
X015213Y012844D02*
X016538Y012844D01*
X016596Y012903D02*
X015230Y012903D01*
X015230Y012961D02*
X016655Y012961D01*
X016713Y013020D02*
X015230Y013020D01*
X015199Y013078D02*
X016772Y013078D01*
X016830Y013137D02*
X015141Y013137D01*
X014869Y013137D02*
X014552Y013137D01*
X014610Y013195D02*
X016889Y013195D01*
X017280Y012479D02*
X018028Y012479D01*
X017280Y012479D02*
X016943Y012142D01*
X015529Y012376D02*
X015481Y012376D01*
X015481Y012435D02*
X015529Y012435D01*
X015529Y012493D02*
X015481Y012493D01*
X014208Y013137D02*
X013858Y013137D01*
X013917Y013195D02*
X014150Y013195D01*
X014091Y013254D02*
X013975Y013254D01*
X013660Y013254D02*
X013600Y013254D01*
X013600Y013312D02*
X013660Y013312D01*
X013660Y013371D02*
X013600Y013371D01*
X013600Y013429D02*
X013660Y013429D01*
X013660Y013605D02*
X013600Y013605D01*
X013600Y013663D02*
X013660Y013663D01*
X013660Y013722D02*
X013600Y013722D01*
X013600Y013780D02*
X013660Y013780D01*
X013660Y013839D02*
X013600Y013839D01*
X013600Y013897D02*
X013660Y013897D01*
X013858Y013897D02*
X014209Y013897D01*
X014151Y013839D02*
X013916Y013839D01*
X013975Y013780D02*
X014092Y013780D01*
X014033Y013722D02*
X014034Y013722D01*
X014551Y013897D02*
X022010Y013897D01*
X022010Y013839D02*
X014609Y013839D01*
X014668Y013780D02*
X022010Y013780D01*
X022010Y013722D02*
X014726Y013722D01*
X014770Y013663D02*
X022010Y013663D01*
X022010Y013605D02*
X014770Y013605D01*
X014770Y013546D02*
X022010Y013546D01*
X022010Y013488D02*
X014770Y013488D01*
X014770Y013429D02*
X022010Y013429D01*
X022010Y013371D02*
X014770Y013371D01*
X014727Y013312D02*
X018857Y013312D01*
X018799Y013254D02*
X014669Y013254D01*
X013660Y013195D02*
X013600Y013195D01*
X013600Y013137D02*
X013660Y013137D01*
X013402Y013137D02*
X013052Y013137D01*
X013110Y013195D02*
X013343Y013195D01*
X013285Y013254D02*
X013169Y013254D01*
X012650Y013195D02*
X012542Y013195D01*
X012591Y013254D02*
X012483Y013254D01*
X012533Y013312D02*
X009516Y013312D01*
X009516Y013371D02*
X012490Y013371D01*
X012490Y013429D02*
X009516Y013429D01*
X009516Y013488D02*
X012490Y013488D01*
X012490Y013546D02*
X009516Y013546D01*
X009516Y013645D02*
X009258Y013645D01*
X009258Y014060D01*
X009403Y014060D01*
X009436Y014051D01*
X009466Y014034D01*
X009490Y014010D01*
X009507Y013980D01*
X009516Y013947D01*
X009516Y013645D01*
X009516Y013663D02*
X012490Y013663D01*
X012490Y013605D02*
X009258Y013605D01*
X009258Y013663D02*
X009198Y013663D01*
X009198Y013722D02*
X009258Y013722D01*
X009258Y013780D02*
X009198Y013780D01*
X009198Y013839D02*
X009258Y013839D01*
X009258Y013897D02*
X009198Y013897D01*
X009198Y013956D02*
X009258Y013956D01*
X009258Y014014D02*
X009198Y014014D01*
X008971Y014014D02*
X008957Y014014D01*
X008555Y014014D02*
X008484Y014014D01*
X008083Y014014D02*
X008012Y014014D01*
X007611Y014014D02*
X007539Y014014D01*
X007138Y014014D02*
X007067Y014014D01*
X006666Y014014D02*
X006594Y014014D01*
X006193Y014014D02*
X006122Y014014D01*
X005721Y014014D02*
X005649Y014014D01*
X005248Y014014D02*
X005177Y014014D01*
X004776Y014014D02*
X004705Y014014D01*
X004303Y014014D02*
X004289Y014014D01*
X004062Y014014D02*
X004002Y014014D01*
X004002Y013956D02*
X004062Y013956D01*
X004062Y013897D02*
X004002Y013897D01*
X004002Y013839D02*
X004062Y013839D01*
X004062Y013780D02*
X004002Y013780D01*
X004002Y013722D02*
X004062Y013722D01*
X004062Y013663D02*
X004002Y013663D01*
X004002Y013605D02*
X000310Y013605D01*
X000310Y013663D02*
X003744Y013663D01*
X003744Y013722D02*
X000310Y013722D01*
X000311Y013780D02*
X003744Y013780D01*
X003744Y013839D02*
X000320Y013839D01*
X000344Y013897D02*
X003744Y013897D01*
X003746Y013956D02*
X000375Y013956D01*
X000434Y014014D02*
X003774Y014014D01*
X003744Y013585D02*
X003744Y013283D01*
X003753Y013250D01*
X003770Y013220D01*
X003794Y013196D01*
X003824Y013179D01*
X003857Y013170D01*
X004002Y013170D01*
X004002Y013585D01*
X003744Y013585D01*
X003744Y013546D02*
X003393Y013546D01*
X003410Y013488D02*
X003744Y013488D01*
X003744Y013429D02*
X003410Y013429D01*
X003410Y013371D02*
X003744Y013371D01*
X003744Y013312D02*
X003410Y013312D01*
X003410Y013254D02*
X003752Y013254D01*
X003796Y013195D02*
X003410Y013195D01*
X003410Y013137D02*
X008649Y013137D01*
X008606Y013195D02*
X004267Y013195D01*
X004062Y013195D02*
X004002Y013195D01*
X004002Y013254D02*
X004062Y013254D01*
X004062Y013312D02*
X004002Y013312D01*
X004002Y013371D02*
X004062Y013371D01*
X004062Y013429D02*
X004002Y013429D01*
X004002Y013488D02*
X004062Y013488D01*
X004062Y013546D02*
X004002Y013546D01*
X003410Y013078D02*
X008707Y013078D01*
X008766Y013020D02*
X003410Y013020D01*
X003410Y012961D02*
X011944Y012961D01*
X012133Y012376D02*
X010776Y012376D01*
X010776Y012318D02*
X012133Y012318D01*
X012819Y012493D02*
X010736Y012493D01*
X010770Y012435D02*
X012878Y012435D01*
X012923Y012376D02*
X012936Y012376D01*
X012923Y012318D02*
X012995Y012318D01*
X013053Y012259D02*
X012923Y012259D01*
X012917Y012201D02*
X013112Y012201D01*
X013170Y012142D02*
X012904Y012142D01*
X012923Y012084D02*
X013229Y012084D01*
X013287Y012025D02*
X012923Y012025D01*
X012923Y011967D02*
X013346Y011967D01*
X013404Y011908D02*
X012882Y011908D01*
X012923Y011850D02*
X013463Y011850D01*
X013495Y011791D02*
X012923Y011791D01*
X012923Y011733D02*
X013495Y011733D01*
X013513Y011674D02*
X012902Y011674D01*
X012919Y011616D02*
X013541Y011616D01*
X013600Y011557D02*
X012923Y011557D01*
X014121Y011616D02*
X014304Y011616D01*
X014297Y011557D02*
X014180Y011557D01*
X014238Y011499D02*
X014297Y011499D01*
X014297Y011440D02*
X014302Y011440D01*
X012161Y010387D02*
X011626Y010387D01*
X011567Y010329D02*
X012133Y010329D01*
X012133Y010270D02*
X011509Y010270D01*
X011450Y010212D02*
X012133Y010212D01*
X012139Y010153D02*
X011392Y010153D01*
X011333Y010095D02*
X012151Y010095D01*
X012133Y010036D02*
X011275Y010036D01*
X011216Y009978D02*
X012133Y009978D01*
X012133Y009919D02*
X011158Y009919D01*
X011130Y009861D02*
X012175Y009861D01*
X012388Y009802D02*
X011130Y009802D01*
X011130Y009744D02*
X012420Y009744D01*
X012478Y009685D02*
X011130Y009685D01*
X011130Y009627D02*
X012537Y009627D01*
X012595Y009568D02*
X011130Y009568D01*
X011130Y009510D02*
X012646Y009510D01*
X011339Y010270D02*
X011105Y010270D01*
X011105Y010212D02*
X011280Y010212D01*
X011222Y010153D02*
X011085Y010153D01*
X011026Y010095D02*
X011163Y010095D01*
X011112Y010329D02*
X011250Y010329D01*
X011191Y010387D02*
X011170Y010387D01*
X011010Y009802D02*
X010361Y009802D01*
X009005Y011079D02*
X009380Y011454D01*
X009380Y012017D01*
X009130Y012267D01*
X008630Y012267D01*
X008780Y012435D02*
X009892Y012435D01*
X009886Y012376D02*
X009190Y012376D01*
X009249Y012318D02*
X009886Y012318D01*
X009926Y012493D02*
X006177Y012493D01*
X006231Y012552D02*
X009926Y012552D01*
X009926Y012610D02*
X006231Y012610D01*
X006231Y012669D02*
X009926Y012669D01*
X009926Y012727D02*
X006231Y012727D01*
X006179Y012786D02*
X009926Y012786D01*
X009936Y012844D02*
X006121Y012844D01*
X006118Y012435D02*
X008480Y012435D01*
X009005Y011642D02*
X008755Y011392D01*
X009516Y013722D02*
X012534Y013722D01*
X012592Y013780D02*
X009516Y013780D01*
X009516Y013839D02*
X012651Y013839D01*
X012709Y013897D02*
X009516Y013897D01*
X009514Y013956D02*
X022010Y013956D01*
X022010Y014014D02*
X009486Y014014D01*
X013051Y013897D02*
X013402Y013897D01*
X013344Y013839D02*
X013109Y013839D01*
X013168Y013780D02*
X013285Y013780D01*
X013226Y013722D02*
X013227Y013722D01*
X018611Y013195D02*
X018748Y013195D01*
X018748Y013137D02*
X018670Y013137D01*
X018728Y013078D02*
X018748Y013078D01*
X019119Y012903D02*
X019141Y012903D01*
X019143Y012961D02*
X019777Y012961D01*
X019771Y012903D02*
X019749Y012903D01*
X019777Y013020D02*
X019198Y013020D01*
X019198Y013078D02*
X019781Y013078D01*
X019839Y013137D02*
X019198Y013137D01*
X019198Y013195D02*
X022010Y013195D01*
X022010Y013254D02*
X019146Y013254D01*
X019088Y013312D02*
X022010Y013312D01*
X022010Y014073D02*
X000549Y014073D01*
X008985Y008047D02*
X009000Y008047D01*
X007430Y007228D02*
X006706Y007228D01*
X006544Y006994D02*
X006493Y006994D01*
X006538Y006936D02*
X006603Y006936D01*
X006646Y006877D02*
X006538Y006877D01*
X006538Y006819D02*
X006646Y006819D01*
X006646Y006760D02*
X006538Y006760D01*
X006538Y006702D02*
X006646Y006702D01*
X006661Y006643D02*
X006538Y006643D01*
X006538Y006585D02*
X006888Y006585D01*
X006860Y006526D02*
X006538Y006526D01*
X006538Y006468D02*
X006849Y006468D01*
X006849Y006409D02*
X006538Y006409D01*
X006538Y006351D02*
X006849Y006351D01*
X006849Y006292D02*
X006538Y006292D01*
X006538Y006234D02*
X006849Y006234D01*
X006849Y006175D02*
X006538Y006175D01*
X006538Y006117D02*
X006849Y006117D01*
X006849Y006058D02*
X006538Y006058D01*
X006538Y006000D02*
X006849Y006000D01*
X006849Y005941D02*
X006538Y005941D01*
X006538Y005883D02*
X006849Y005883D01*
X006849Y005824D02*
X006538Y005824D01*
X006538Y005766D02*
X006849Y005766D01*
X006874Y005707D02*
X006538Y005707D01*
X007181Y005707D02*
X007189Y005707D01*
X007496Y005707D02*
X007504Y005707D01*
X007811Y005707D02*
X007819Y005707D01*
X008126Y005707D02*
X008134Y005707D01*
X007203Y006554D02*
X007185Y006537D01*
X007168Y006554D01*
X007168Y006767D01*
X007086Y006849D01*
X007043Y006891D01*
X007043Y006936D02*
X007217Y006936D01*
X007217Y006994D02*
X007043Y006994D01*
X007043Y007053D02*
X007217Y007053D01*
X007217Y007111D02*
X007043Y007111D01*
X006999Y007170D02*
X007261Y007170D01*
X007203Y006877D02*
X007203Y006554D01*
X007203Y006585D02*
X007168Y006585D01*
X007168Y006643D02*
X007203Y006643D01*
X007203Y006702D02*
X007168Y006702D01*
X007168Y006760D02*
X007203Y006760D01*
X007203Y006819D02*
X007116Y006819D01*
X010915Y005824D02*
X011278Y005824D01*
X011336Y005766D02*
X010917Y005766D01*
X010917Y005707D02*
X011395Y005707D01*
X011453Y005649D02*
X010917Y005649D01*
X010957Y005590D02*
X011512Y005590D01*
X011570Y005532D02*
X011016Y005532D01*
X011074Y005473D02*
X011629Y005473D01*
X011687Y005415D02*
X011133Y005415D01*
X011191Y005356D02*
X011746Y005356D01*
X011804Y005298D02*
X011250Y005298D01*
X011300Y005239D02*
X011863Y005239D01*
X011921Y005181D02*
X011300Y005181D01*
X011300Y005122D02*
X011980Y005122D01*
X012038Y005064D02*
X011300Y005064D01*
X011300Y005005D02*
X013960Y005005D01*
X013960Y004947D02*
X011300Y004947D01*
X011300Y004888D02*
X013960Y004888D01*
X013960Y004830D02*
X011300Y004830D01*
X011300Y004771D02*
X013960Y004771D01*
X013960Y004713D02*
X011300Y004713D01*
X011300Y004654D02*
X013960Y004654D01*
X013960Y004596D02*
X011300Y004596D01*
X011300Y004537D02*
X013960Y004537D01*
X013960Y004479D02*
X011300Y004479D01*
X011300Y004420D02*
X013949Y004420D01*
X014300Y004420D02*
X016114Y004420D01*
X016172Y004479D02*
X014300Y004479D01*
X014300Y004537D02*
X016231Y004537D01*
X016289Y004596D02*
X014300Y004596D01*
X014300Y004654D02*
X016348Y004654D01*
X016406Y004713D02*
X014300Y004713D01*
X014300Y004771D02*
X016465Y004771D01*
X016523Y004830D02*
X014300Y004830D01*
X014300Y004888D02*
X016582Y004888D01*
X016640Y004947D02*
X014300Y004947D01*
X014300Y005005D02*
X016699Y005005D01*
X016757Y005064D02*
X015222Y005064D01*
X015250Y005122D02*
X016816Y005122D01*
X016874Y005181D02*
X015250Y005181D01*
X015130Y005181D02*
X014300Y005181D01*
X015056Y005239D02*
X015130Y005239D01*
X015130Y005298D02*
X015081Y005298D01*
X015083Y005356D02*
X015130Y005356D01*
X015130Y005415D02*
X015083Y005415D01*
X015083Y005473D02*
X015130Y005473D01*
X015391Y005473D02*
X015440Y005473D01*
X015440Y005493D02*
X015440Y005190D01*
X015541Y005190D01*
X015574Y005199D01*
X015604Y005216D01*
X015628Y005240D01*
X015645Y005270D01*
X015654Y005303D01*
X015654Y005493D01*
X015440Y005493D01*
X015440Y005532D02*
X017010Y005532D01*
X017010Y005590D02*
X015654Y005590D01*
X015654Y005649D02*
X017010Y005649D01*
X017010Y005707D02*
X015654Y005707D01*
X015644Y005766D02*
X017010Y005766D01*
X017010Y005824D02*
X015592Y005824D01*
X015440Y005824D02*
X015391Y005824D01*
X015391Y005766D02*
X015440Y005766D01*
X015440Y005707D02*
X015391Y005707D01*
X015391Y005649D02*
X015440Y005649D01*
X015440Y005590D02*
X015391Y005590D01*
X015391Y005415D02*
X015440Y005415D01*
X015440Y005356D02*
X015391Y005356D01*
X015391Y005298D02*
X015440Y005298D01*
X015440Y005239D02*
X015391Y005239D01*
X015627Y005239D02*
X016933Y005239D01*
X016991Y005298D02*
X015652Y005298D01*
X015654Y005356D02*
X017010Y005356D01*
X017010Y005415D02*
X015654Y005415D01*
X015654Y005473D02*
X017010Y005473D01*
X011698Y002197D02*
X009605Y002197D01*
X009547Y002139D02*
X011698Y002139D01*
X025311Y011850D02*
X026950Y011850D01*
X026950Y011908D02*
X025355Y011908D01*
X025355Y011967D02*
X026950Y011967D01*
X026950Y012025D02*
X025355Y012025D01*
X025352Y012084D02*
X026950Y012084D01*
X026950Y012142D02*
X025293Y012142D01*
X025235Y012201D02*
X026950Y012201D01*
X025025Y012201D02*
X024908Y012201D01*
X024951Y012142D02*
X024967Y012142D01*
X019456Y012903D02*
X019434Y012903D01*
D28*
X019880Y013767D03*
X018130Y013767D03*
X016130Y013267D03*
X013130Y011454D03*
X013130Y010517D03*
X014755Y009579D03*
X014818Y008454D03*
X015880Y007267D03*
X016380Y007267D03*
X017130Y008267D03*
X020630Y007767D03*
X021130Y008267D03*
X021630Y007767D03*
X021130Y007267D03*
X014818Y006079D03*
X013755Y004704D03*
X012318Y006454D03*
X010380Y006267D03*
X006630Y007642D03*
X004630Y007642D03*
X002755Y007642D03*
X002130Y008267D03*
X003630Y008767D03*
X003630Y010767D03*
X005630Y010767D03*
X007380Y010767D03*
X009443Y009704D03*
X010880Y009892D03*
X012130Y009454D03*
X012130Y008892D03*
X009755Y011767D03*
X007630Y012767D03*
X010971Y013954D03*
X003630Y012767D03*
X003130Y013892D03*
X000630Y013892D03*
X001880Y006954D03*
D29*
X005130Y006546D03*
X005130Y004546D03*
X005630Y004142D03*
X005755Y003392D03*
X007005Y003267D03*
X008287Y003204D03*
X008917Y003204D03*
X009318Y003289D03*
X009630Y002767D03*
X010443Y003267D03*
X010380Y003604D03*
X010380Y004234D03*
X009318Y003919D03*
X006930Y004234D03*
X005130Y002546D03*
X005630Y002392D03*
X008443Y000829D03*
X008630Y000579D03*
X008255Y000579D03*
X009005Y000829D03*
X009380Y000829D03*
X009193Y000579D03*
X009755Y000579D03*
X009943Y000829D03*
X010130Y000579D03*
X010505Y000829D03*
X010880Y000829D03*
X010693Y000579D03*
X011255Y000579D03*
X011630Y000579D03*
X011443Y000829D03*
X012005Y000829D03*
X012380Y000829D03*
X012193Y000579D03*
X012755Y000579D03*
X012943Y000829D03*
X013130Y000579D03*
X013505Y000829D03*
X013880Y000829D03*
X013693Y000579D03*
X014255Y000579D03*
X014630Y000579D03*
X014443Y000829D03*
X015005Y000829D03*
X015380Y000829D03*
X015193Y000579D03*
X015755Y000579D03*
X015943Y000829D03*
X016130Y000579D03*
X016505Y000829D03*
X016880Y000829D03*
X016693Y000579D03*
X017255Y000579D03*
X017630Y000579D03*
X017443Y000829D03*
X018005Y000829D03*
X018380Y000829D03*
X018193Y000579D03*
X018755Y000579D03*
X018943Y000829D03*
X019130Y000579D03*
X019505Y000829D03*
X019880Y000829D03*
X019693Y000579D03*
X020255Y000579D03*
X020630Y000579D03*
X020443Y000829D03*
X021005Y000829D03*
X021380Y000829D03*
X021193Y000579D03*
X021755Y000579D03*
X021943Y000829D03*
X022130Y000579D03*
X022505Y000829D03*
X022880Y000829D03*
X022693Y000579D03*
X023255Y000579D03*
X023630Y000579D03*
X023443Y000829D03*
X024005Y000829D03*
X024380Y000829D03*
X024193Y000579D03*
X024755Y000579D03*
X024943Y000829D03*
X025130Y000579D03*
X025505Y000829D03*
X025880Y000829D03*
X025693Y000579D03*
X026255Y000579D03*
X026630Y000579D03*
X026443Y000829D03*
X025880Y001829D03*
X025505Y001829D03*
X025693Y002079D03*
X025130Y002079D03*
X024943Y001829D03*
X024755Y002079D03*
X024380Y001829D03*
X024005Y001829D03*
X024193Y002079D03*
X023630Y002079D03*
X023255Y002079D03*
X023443Y001829D03*
X022880Y001829D03*
X022505Y001829D03*
X022693Y002079D03*
X022130Y002079D03*
X021943Y001829D03*
X021755Y002079D03*
X021380Y001829D03*
X021005Y001829D03*
X021193Y002079D03*
X020630Y002079D03*
X020255Y002079D03*
X020443Y001829D03*
X019880Y001829D03*
X019505Y001829D03*
X019693Y002079D03*
X019130Y002079D03*
X018943Y001829D03*
X018755Y002079D03*
X018380Y001829D03*
X018005Y001829D03*
X018193Y002079D03*
X017630Y002079D03*
X017255Y002079D03*
X017443Y001829D03*
X016880Y001829D03*
X016505Y001829D03*
X016693Y002079D03*
X016130Y002079D03*
X015943Y001829D03*
X015755Y002079D03*
X015380Y001829D03*
X015005Y001829D03*
X015193Y002079D03*
X014630Y002079D03*
X014255Y002079D03*
X014443Y001829D03*
X013880Y001829D03*
X013505Y001829D03*
X013693Y002079D03*
X013130Y002079D03*
X012943Y001829D03*
X012755Y002079D03*
X012380Y001829D03*
X012005Y001829D03*
X012193Y002079D03*
X009950Y007267D03*
X010147Y007579D03*
X011443Y009204D03*
X009818Y009829D03*
X009505Y010204D03*
X010880Y010267D03*
X011380Y010517D03*
X011505Y010892D03*
X010880Y010642D03*
X009005Y011642D03*
X008630Y011642D03*
X008380Y012017D03*
X008630Y012267D03*
X006006Y012641D03*
X006755Y010168D03*
X006755Y009775D03*
X006755Y009267D03*
X005449Y008948D03*
X012130Y012829D03*
X015005Y012954D03*
X015880Y012017D03*
X016193Y011682D03*
X015880Y011517D03*
X016693Y011517D03*
X016880Y011239D03*
X017943Y010924D03*
X016943Y012142D03*
X018973Y013109D03*
X020255Y011892D03*
X021737Y011679D03*
X022130Y011987D03*
X021630Y012767D03*
X021630Y011017D03*
X020330Y010924D03*
X022130Y009987D03*
X020862Y009249D03*
X020915Y008767D03*
X022130Y007987D03*
X025130Y007987D03*
X025130Y009987D03*
X025130Y011987D03*
X002130Y004546D03*
X002130Y002546D03*
D30*
X009232Y006104D02*
X009232Y006124D01*
X009232Y006104D02*
X009843Y005494D01*
X010447Y005494D01*
X010630Y005677D01*
X011130Y005177D01*
X011130Y004267D01*
X013130Y003361D02*
X014130Y004361D01*
X014130Y005892D01*
X013945Y006077D01*
X013945Y006322D01*
X013945Y007332D01*
X013695Y007582D01*
X013945Y007832D01*
X013945Y008212D01*
X013945Y008916D01*
X013845Y009017D01*
X012315Y007582D02*
X012165Y007731D01*
X011880Y007731D01*
X012315Y007582D02*
X012685Y007582D01*
X013000Y007582D02*
X013695Y007582D01*
X016630Y009481D02*
X016813Y009664D01*
X017417Y009664D01*
X017417Y009645D01*
X018028Y009034D01*
X018028Y007539D01*
X018028Y007017D01*
X005449Y008418D02*
X005449Y008948D01*
D31*
X026130Y006267D03*
X026130Y004267D03*
D32*
X026255Y008767D03*
X026255Y010767D03*
X026255Y012767D03*
X001005Y005767D03*
X001005Y003767D03*
X001005Y001767D03*
M02*
