G75*
G70*
%OFA0B0*%
%FSLAX24Y24*%
%IPPOS*%
%LPD*%
%AMOC8*
5,1,8,0,0,1.08239X$1,22.5*
%
%ADD10R,0.0198X0.0552*%
%ADD11R,0.0552X0.0198*%
%ADD12R,0.0237X0.0710*%
%ADD13R,0.0474X0.0297*%
%ADD14R,0.0297X0.0474*%
%ADD15R,0.0395X0.0198*%
%ADD16R,0.0198X0.0395*%
%ADD17R,0.0394X0.0394*%
%ADD18R,0.0434X0.0631*%
%ADD19OC8,0.0680*%
%ADD20C,0.0580*%
%ADD21R,0.0356X0.0198*%
%ADD22R,0.0702X0.1005*%
%ADD23R,0.1143X0.0395*%
%ADD24R,0.0513X0.0789*%
%ADD25R,0.0926X0.1360*%
%ADD26R,0.0926X0.0454*%
%ADD27R,0.0631X0.0434*%
%ADD28R,0.2029X0.1856*%
%ADD29R,0.0375X0.0346*%
%ADD30R,0.0789X0.1340*%
%ADD31R,0.0789X0.0513*%
%ADD32R,0.0434X0.0395*%
%ADD33C,0.0420*%
%ADD34C,0.1480*%
%ADD35C,0.1205*%
D10*
X008904Y008023D03*
X009100Y008023D03*
X009297Y008023D03*
X009494Y008023D03*
X009691Y008023D03*
X009888Y008023D03*
X010085Y008023D03*
X010282Y008023D03*
X010478Y008023D03*
X010675Y008023D03*
X010872Y008023D03*
X011069Y008023D03*
X011266Y008023D03*
X011463Y008023D03*
X011660Y008023D03*
X011856Y008023D03*
X011856Y012511D03*
X011660Y012511D03*
X011463Y012511D03*
X011266Y012511D03*
X011069Y012511D03*
X010872Y012511D03*
X010675Y012511D03*
X010478Y012511D03*
X010282Y012511D03*
X010085Y012511D03*
X009888Y012511D03*
X009691Y012511D03*
X009494Y012511D03*
X009297Y012511D03*
X009100Y012511D03*
X008904Y012511D03*
D11*
X008136Y011743D03*
X008136Y011546D03*
X008136Y011349D03*
X008136Y011152D03*
X008136Y010956D03*
X008136Y010759D03*
X008136Y010562D03*
X008136Y010365D03*
X008136Y010168D03*
X008136Y009971D03*
X008136Y009775D03*
X008136Y009578D03*
X008136Y009381D03*
X008136Y009184D03*
X008136Y008987D03*
X008136Y008790D03*
X012624Y008790D03*
X012624Y008987D03*
X012624Y009184D03*
X012624Y009381D03*
X012624Y009578D03*
X012624Y009775D03*
X012624Y009971D03*
X012624Y010168D03*
X012624Y010365D03*
X012624Y010562D03*
X012624Y010759D03*
X012624Y010956D03*
X012624Y011152D03*
X012624Y011349D03*
X012624Y011546D03*
X012624Y011743D03*
D12*
X011443Y013329D03*
X010971Y013329D03*
X010498Y013329D03*
D13*
X010005Y013552D03*
X009505Y013552D03*
X009505Y012981D03*
X010005Y012981D03*
X012255Y013231D03*
X012693Y012677D03*
X012693Y012106D03*
X015005Y013231D03*
X015005Y013802D03*
X012255Y013802D03*
X007505Y011927D03*
X007505Y011356D03*
X007505Y009552D03*
X007505Y008981D03*
X007505Y008677D03*
X007505Y008106D03*
X011755Y007427D03*
X012255Y007427D03*
X012255Y006856D03*
X011755Y006856D03*
X014880Y006981D03*
X014880Y007552D03*
X018505Y004927D03*
X019005Y004927D03*
X019005Y004356D03*
X018505Y004356D03*
X015318Y003677D03*
X015318Y003106D03*
D14*
X016095Y005767D03*
X016665Y005767D03*
X013665Y005892D03*
X013095Y005892D03*
X013595Y008517D03*
X014165Y008517D03*
X005415Y009329D03*
X004845Y009329D03*
X002415Y007892D03*
X001845Y007892D03*
X001845Y007392D03*
X002415Y007392D03*
X003907Y011329D03*
X004478Y011329D03*
D15*
X012843Y007759D03*
X012843Y007562D03*
X012843Y007365D03*
X012843Y007168D03*
X012843Y006971D03*
X012843Y006775D03*
X014417Y006775D03*
X014417Y006971D03*
X014417Y007168D03*
X014417Y007365D03*
X014417Y007562D03*
X014417Y007759D03*
D16*
X014122Y008054D03*
X013925Y008054D03*
X013728Y008054D03*
X013532Y008054D03*
X013335Y008054D03*
X013138Y008054D03*
X013138Y006479D03*
X013335Y006479D03*
X013532Y006479D03*
X013728Y006479D03*
X013925Y006479D03*
X014122Y006479D03*
D17*
X013630Y007267D03*
D18*
X017097Y005892D03*
X017963Y005892D03*
X016938Y003017D03*
X016072Y003017D03*
X005563Y010017D03*
X004697Y010017D03*
X001438Y008017D03*
X000572Y008017D03*
X000572Y007267D03*
X001438Y007267D03*
D19*
X012880Y013517D03*
X013630Y013517D03*
X014380Y013517D03*
D20*
X009005Y013267D03*
X012505Y008142D03*
X011130Y007142D03*
X010380Y007142D03*
X010755Y006642D03*
D21*
X016799Y005285D03*
X016799Y005089D03*
X016799Y004892D03*
X016799Y004695D03*
X016799Y004498D03*
X017961Y004498D03*
X017961Y004695D03*
X017961Y004892D03*
X017961Y005089D03*
X017961Y005285D03*
D22*
X017380Y004892D03*
D23*
X015755Y005325D03*
X015755Y004459D03*
D24*
X015855Y003767D03*
X017155Y003767D03*
D25*
X011488Y004267D03*
D26*
X013772Y004267D03*
X013772Y003361D03*
X013772Y005172D03*
D27*
X014630Y005450D03*
X014630Y004584D03*
X014630Y003950D03*
X014630Y003084D03*
D28*
X023887Y008767D03*
X023887Y010767D03*
X023887Y012767D03*
X003373Y005767D03*
X003373Y003767D03*
X003373Y001767D03*
D29*
X004714Y002027D03*
X004714Y001507D03*
X004714Y000987D03*
X004714Y002546D03*
X004714Y002987D03*
X004714Y003507D03*
X004714Y004027D03*
X004714Y004546D03*
X004714Y004987D03*
X004714Y005507D03*
X004714Y006027D03*
X004714Y006546D03*
X022546Y007987D03*
X022546Y008507D03*
X022546Y009027D03*
X022546Y009546D03*
X022546Y009987D03*
X022546Y010507D03*
X022546Y011027D03*
X022546Y011546D03*
X022546Y011987D03*
X022546Y012507D03*
X022546Y013027D03*
X022546Y013546D03*
D30*
X022403Y006892D03*
X024607Y006892D03*
X024607Y005392D03*
X022403Y005392D03*
X007607Y005517D03*
X005403Y005517D03*
X005403Y001517D03*
X007607Y001517D03*
D31*
X008443Y001979D03*
X009193Y001979D03*
X009943Y001979D03*
X010693Y001979D03*
X011443Y001979D03*
X012193Y001979D03*
X012943Y001979D03*
X013693Y001979D03*
X014443Y001979D03*
X015193Y001979D03*
X015943Y001979D03*
X016693Y001979D03*
X017443Y001979D03*
X018193Y001979D03*
X018943Y001979D03*
X019693Y001979D03*
X020443Y001979D03*
X021193Y001979D03*
X021943Y001979D03*
X022693Y001979D03*
X023443Y001979D03*
X024193Y001979D03*
X024943Y001979D03*
X025693Y001979D03*
X026443Y001979D03*
X026443Y000680D03*
X025693Y000680D03*
X024943Y000680D03*
X024193Y000680D03*
X023443Y000680D03*
X022693Y000680D03*
X021943Y000680D03*
X021193Y000680D03*
X020443Y000680D03*
X019693Y000680D03*
X018943Y000680D03*
X018193Y000680D03*
X017443Y000680D03*
X016693Y000680D03*
X015943Y000680D03*
X015193Y000680D03*
X014443Y000680D03*
X013693Y000680D03*
X012943Y000680D03*
X012193Y000680D03*
X011443Y000680D03*
X010693Y000680D03*
X009943Y000680D03*
X009193Y000680D03*
X008443Y000680D03*
D32*
X004606Y011893D03*
X003740Y012267D03*
X004606Y012641D03*
D33*
X001630Y001142D03*
X002005Y001392D03*
X002005Y002142D03*
X001630Y002392D03*
X001630Y003142D03*
X002005Y003392D03*
X002005Y004142D03*
X001630Y004392D03*
X001630Y005142D03*
X002005Y005392D03*
X002005Y006142D03*
X001630Y006392D03*
X010630Y004549D03*
X013130Y003361D03*
X018028Y007539D03*
X025255Y008392D03*
X025630Y008142D03*
X025255Y009142D03*
X025630Y009392D03*
X025630Y010142D03*
X025255Y010392D03*
X025255Y011142D03*
X025630Y011392D03*
X025630Y012142D03*
X025255Y012392D03*
X025255Y013142D03*
X025630Y013392D03*
X013755Y011770D03*
D34*
X026130Y006267D03*
X026130Y004267D03*
D35*
X026255Y008767D03*
X026255Y010767D03*
X026255Y012767D03*
X001005Y005767D03*
X001005Y003767D03*
X001005Y001767D03*
M02*
